<svg id="Layer_1" data-name="Layer 1" xmlns="http://www.w3.org/2000/svg" viewBox="0 0 578.5 131.23"><defs><style>.cls-1,.cls-12,.cls-6{fill:#be1e2d;}.cls-11,.cls-2,.cls-5{fill:#00aeef;}.cls-3,.cls-7{font-size:20px;font-family:RobotoSlab-Regular, Roboto Slab;}.cls-16,.cls-3,.cls-8,.cls-9{fill:#231f20;}.cls-4,.cls-6,.cls-9{letter-spacing:-0.01em;}.cls-5{letter-spacing:-0.01em;}.cls-17,.cls-7{fill:#00a651;}.cls-10{fill:#f15a29;}.cls-10,.cls-11,.cls-12,.cls-13,.cls-14,.cls-15,.cls-16,.cls-17{stroke:#231f20;stroke-miterlimit:10;}.cls-13{fill:none;}.cls-14{fill:#2e3192;}.cls-15{fill:#ec008c;}.cls-18{font-size:14px;fill:#fff;font-family:Consolas, Consolas;}.cls-19{letter-spacing:0.35em;}.cls-20{letter-spacing:0.3em;}.cls-21{letter-spacing:0.15em;}.cls-22{letter-spacing:0.2em;}.cls-23{letter-spacing:0.15em;}.cls-24{letter-spacing:-0.17em;}.cls-25{letter-spacing:-0.04em;}.cls-26{letter-spacing:0.1em;}.cls-27{letter-spacing:0.14em;}.cls-28{letter-spacing:0.16em;}.cls-29{letter-spacing:0.1em;}.cls-30{letter-spacing:0.2em;}.cls-31{letter-spacing:-0.08em;}.cls-32{letter-spacing:-0.04em;}.cls-33{letter-spacing:-0.04em;}.cls-34{letter-spacing:-0.1em;}.cls-35{letter-spacing:0.9em;}.cls-36{letter-spacing:-1.01em;}.cls-37{letter-spacing:1.49em;}.cls-38{letter-spacing:-0.29em;}.cls-39{letter-spacing:0.59em;}.cls-40{letter-spacing:-0.02em;}.cls-41{letter-spacing:-0.15em;}.cls-42{letter-spacing:-0.07em;}.cls-43{letter-spacing:-0.24em;}.cls-44{letter-spacing:0.09em;}.cls-45{letter-spacing:0.7em;}.cls-46{letter-spacing:-0.05em;}.cls-47{letter-spacing:0.64em;}.cls-48{letter-spacing:0.34em;}.cls-49{letter-spacing:-0.01em;}.cls-50{letter-spacing:0.19em;}.cls-51{letter-spacing:-0.26em;}.cls-52{letter-spacing:0.01em;}.cls-53{letter-spacing:0.02em;}.cls-54{letter-spacing:0.01em;}</style></defs><title>i2c-function-mapping</title><rect class="cls-1" x="253" y="29.4" width="202.4" height="25.33"/><rect class="cls-2" x="25.3" y="29.4" width="177.1" height="25.33"/><text class="cls-3" transform="translate(0 15.23)">I2c.Read<tspan class="cls-4" x="80.41" y="0">W</tspan><tspan x="98.86" y="0">rite(</tspan><tspan class="cls-2" x="138.24" y="0">Add</tspan><tspan class="cls-5" x="176.89" y="0">r</tspan><tspan class="cls-2" x="184.98" y="0">ess</tspan><tspan x="216.12" y="0">, </tspan><tspan class="cls-6" x="225.04" y="0">W</tspan><tspan class="cls-1" x="243.49" y="0">riteData</tspan><tspan x="319.62" y="0">)</tspan></text><text class="cls-7" transform="translate(0 97.07)">ReadData<tspan class="cls-8" x="90.52" y="0" xml:space="preserve"> = I2c.Read</tspan><tspan class="cls-9" x="191.88" y="0">W</tspan><tspan class="cls-8" x="210.32" y="0">rite(</tspan><tspan class="cls-2" x="249.71" y="0">Add</tspan><tspan class="cls-5" x="288.36" y="0">r</tspan><tspan class="cls-2" x="296.45" y="0">ess</tspan><tspan class="cls-8" x="327.59" y="0">, </tspan><tspan class="cls-6" x="336.5" y="0">W</tspan><tspan class="cls-1" x="354.95" y="0">riteData, </tspan><tspan class="cls-8" x="440" y="0">2</tspan><tspan class="cls-8" x="451.04" y="0">)</tspan></text><rect class="cls-10" y="29.4" width="25.3" height="25.33"/><rect class="cls-10" y="105.9" width="25.3" height="25.33"/><rect class="cls-11" x="25.3" y="105.9" width="69.98" height="25.33"/><rect class="cls-12" x="145.48" y="105.9" width="69.98" height="25.33"/><rect class="cls-13" x="25.3" y="29.4" width="25.3" height="25.33"/><rect class="cls-13" x="50.6" y="29.4" width="25.3" height="25.33"/><rect class="cls-13" x="75.9" y="29.4" width="25.3" height="25.33"/><rect class="cls-13" x="101.2" y="29.4" width="25.3" height="25.33"/><rect class="cls-13" x="126.5" y="29.4" width="25.3" height="25.33"/><rect class="cls-13" x="151.8" y="29.4" width="25.3" height="25.33"/><rect class="cls-13" x="177.1" y="29.4" width="25.3" height="25.33"/><rect class="cls-14" x="202.4" y="29.4" width="25.3" height="25.33"/><rect class="cls-14" x="95.28" y="105.9" width="25.3" height="25.33"/><rect class="cls-10" x="239.95" y="105.9" width="25.3" height="25.33"/><rect class="cls-11" x="265.25" y="105.9" width="69.98" height="25.33"/><rect class="cls-14" x="335.22" y="105.9" width="25.3" height="25.33"/><rect class="cls-15" x="227.7" y="29.4" width="25.3" height="25.33"/><rect class="cls-15" x="120.58" y="105.9" width="25.3" height="25.33"/><rect class="cls-13" x="253" y="29.4" width="25.3" height="25.33"/><rect class="cls-13" x="278.3" y="29.4" width="25.3" height="25.33"/><rect class="cls-13" x="303.6" y="29.4" width="25.3" height="25.33"/><rect class="cls-13" x="328.9" y="29.4" width="25.3" height="25.33"/><rect class="cls-13" x="354.2" y="29.4" width="25.3" height="25.33"/><rect class="cls-13" x="379.5" y="29.4" width="25.3" height="25.33"/><rect class="cls-13" x="404.8" y="29.4" width="25.3" height="25.33"/><rect class="cls-13" x="430.1" y="29.4" width="25.3" height="25.33"/><rect class="cls-15" x="455.4" y="29.4" width="25.3" height="25.33"/><rect class="cls-16" x="480.7" y="29.4" width="25.3" height="25.33"/><rect class="cls-16" x="548.4" y="105.9" width="25.3" height="25.33"/><rect class="cls-15" x="214.65" y="105.9" width="25.3" height="25.33"/><rect class="cls-17" x="360.52" y="105.9" width="69.98" height="25.33"/><rect class="cls-15" x="429.7" y="105.9" width="25.3" height="25.33"/><rect class="cls-17" x="453.93" y="105.9" width="69.98" height="25.33"/><rect class="cls-15" x="523.1" y="105.9" width="25.3" height="25.33"/><text class="cls-18" transform="translate(9 46.73)"><tspan class="cls-19">S</tspan><tspan x="12.6" y="0" xml:space="preserve"> A</tspan><tspan class="cls-20" x="27.99" y="0">6</tspan><tspan x="39.89" y="0" xml:space="preserve"> A5</tspan><tspan class="cls-21" x="62.98" y="0"> </tspan><tspan x="72.78" y="0">A4</tspan><tspan class="cls-22" x="88.17" y="0"> </tspan><tspan x="98.67" y="0">A3</tspan><tspan class="cls-21" x="114.06" y="0"> </tspan><tspan x="123.86" y="0">A2</tspan><tspan class="cls-21" x="139.26" y="0"> </tspan><tspan x="149.05" y="0">A1</tspan><tspan class="cls-23" x="164.45" y="0"> </tspan><tspan x="174.25" y="0">A0</tspan><tspan class="cls-20" x="189.64" y="0"> </tspan><tspan class="cls-19" x="201.54" y="0">0</tspan><tspan class="cls-24" x="214.13" y="0"> </tspan><tspan class="cls-25" x="219.45" y="0">ACK</tspan><tspan class="cls-26" x="240.86" y="0"> </tspan><tspan x="249.96" y="0">D7</tspan><tspan class="cls-27" x="265.36" y="0"> </tspan><tspan x="275.01" y="0">D6</tspan><tspan class="cls-28" x="290.41" y="0"> </tspan><tspan x="300.34" y="0">D5</tspan><tspan class="cls-27" x="315.74" y="0"> </tspan><tspan x="325.4" y="0">D4</tspan><tspan class="cls-22" x="340.79" y="0"> </tspan><tspan x="351.29" y="0">D3</tspan><tspan class="cls-29" x="366.68" y="0"> </tspan><tspan x="375.78" y="0">D2</tspan><tspan class="cls-30" x="391.17" y="0"> </tspan><tspan x="401.67" y="0">D1</tspan><tspan class="cls-29" x="417.07" y="0"> </tspan><tspan x="426.16" y="0">D0</tspan><tspan class="cls-31" x="441.56" y="0"> </tspan><tspan class="cls-32" x="448.13" y="0">ACK</tspan><tspan class="cls-28" x="469.55" y="0"> </tspan><tspan class="cls-33" x="479.48" y="0">P</tspan></text><text class="cls-18" transform="translate(8 123.23)"><tspan class="cls-34">S</tspan><tspan class="cls-35" x="6.3" y="0"> </tspan><tspan x="26.61" y="0">Addres</tspan><tspan class="cls-36" x="72.79" y="0">s</tspan><tspan class="cls-37" x="66.35" y="0"> </tspan><tspan class="cls-38" x="94.91" y="0">0</tspan><tspan class="cls-39" x="98.54" y="0"> </tspan><tspan class="cls-32" x="114.5" y="0">AC</tspan><tspan class="cls-40" x="128.78" y="0">K</tspan><tspan class="cls-41" x="136.19" y="0"> </tspan><tspan class="cls-42" x="141.79" y="0">WriteDat</tspan><tspan class="cls-43" x="195.3" y="0">a</tspan><tspan class="cls-44" x="199.68" y="0"> </tspan><tspan class="cls-25" x="208.64" y="0">ACK</tspan></text><text class="cls-18" transform="translate(247.8 123.23)"><tspan class="cls-45">S</tspan><tspan class="cls-46" x="17.5" y="0"> </tspan><tspan x="24.51" y="0">Addres</tspan><tspan class="cls-44" x="70.69" y="0">s</tspan><tspan class="cls-47" x="79.65" y="0"> </tspan><tspan class="cls-25" x="96.31" y="0">1</tspan><tspan class="cls-48" x="103.44" y="0"> </tspan><tspan class="cls-49" x="115.9" y="0">ReadDat</tspan><tspan class="cls-50" x="168.61" y="0">a</tspan><tspan class="cls-51" x="178.94" y="0"> </tspan><tspan class="cls-25" x="182.99" y="0">ACK</tspan><tspan class="cls-52" x="204.4" y="0"> </tspan><tspan class="cls-25" x="212.24" y="0">ReadData</tspan><tspan class="cls-53" x="269.34" y="0"> </tspan><tspan class="cls-25" x="277.32" y="0">ACK</tspan><tspan class="cls-28" x="298.73" y="0"> </tspan><tspan class="cls-54" x="308.67" y="0">P</tspan></text></svg>