<svg id="Layer_1" data-name="Layer 1" xmlns="http://www.w3.org/2000/svg" xmlns:xlink="http://www.w3.org/1999/xlink" viewBox="0 0 582 177.83"><defs><style>.cls-1{fill:#eb2d34;}.cls-15,.cls-19,.cls-2,.cls-21{fill:#231f20;}.cls-18,.cls-3{fill:none;}.cls-10,.cls-13,.cls-18,.cls-19,.cls-20,.cls-3,.cls-4,.cls-9{stroke:#231f20;stroke-miterlimit:10;}.cls-3{stroke-width:1.13px;}.cls-4{fill:#00aeef;stroke-width:1.29px;}.cls-15,.cls-5{font-size:13.51px;}.cls-11,.cls-20,.cls-5{fill:#fff;}.cls-11,.cls-15,.cls-21,.cls-5{font-family:RobotoSlab-Regular, Roboto Slab;}.cls-6{letter-spacing:-0.04em;}.cls-7{letter-spacing:-0.01em;}.cls-8{letter-spacing:0em;}.cls-9{fill:#00a651;}.cls-10,.cls-13,.cls-18,.cls-19,.cls-20,.cls-9{stroke-width:0.99px;}.cls-10{fill:#2e3192;}.cls-11{font-size:11.26px;}.cls-12{letter-spacing:-0.01em;}.cls-13{fill:#ef4136;}.cls-14{letter-spacing:-0.04em;}.cls-16{letter-spacing:-0.04em;}.cls-17{letter-spacing:-0.14em;}.cls-21{font-size:15.09px;}.cls-22{font-size:10.59px;}.cls-23{letter-spacing:0.01em;}</style><symbol id="Arrow_3" data-name="Arrow 3" viewBox="0 0 23.18 21.53"><polygon class="cls-1" points="0 21.53 8.92 10.76 0 0 23.18 10.76 0 21.53"/><polygon class="cls-2" points="0 21.53 8.92 10.76 0 0 23.18 10.76 0 21.53"/></symbol></defs><title>i2c-overview</title><line class="cls-3" x1="171.22" y1="87.23" x2="506.88" y2="87.23"/><line class="cls-3" x1="171.22" y1="107.12" x2="506.88" y2="107.12"/><rect class="cls-4" x="68.85" y="73.91" width="102.45" height="44.85"/><text class="cls-5" transform="translate(72.48 112.15)"><tspan class="cls-6">T</tspan><tspan class="cls-7" x="7.98" y="0">r</tspan><tspan x="13.44" y="0">ee</tspan><tspan class="cls-8" x="27.96" y="0">h</tspan><tspan x="36.62" y="0">opper</tspan></text><rect class="cls-9" x="255.74" y="127.01" width="60.79" height="44.85"/><text class="cls-5" transform="translate(286.43 167.06)">IMU</text><rect class="cls-10" x="328.54" y="127.01" width="60.79" height="44.85"/><text class="cls-11" transform="translate(339.66 156.34)">P<tspan class="cls-12" x="7.15" y="0">r</tspan><tspan x="11.7" y="0">essu</tspan><tspan class="cls-12" x="36.07" y="0">r</tspan><tspan x="40.63" y="0">e </tspan><tspan x="9.81" y="11.26">Sensor</tspan></text><rect class="cls-13" x="402.84" y="127.01" width="60.79" height="44.85"/><text class="cls-5" transform="translate(433.72 167.06)"><tspan class="cls-14">DA</tspan><tspan x="18.2" y="0">C</tspan></text><text class="cls-15" transform="translate(179.18 82.13)">S<tspan class="cls-16" x="8.23" y="0">D</tspan><tspan x="17.06" y="0">A</tspan><tspan class="cls-17" x="26.95" y="0"> </tspan><tspan x="28.42" y="0">(Pin 3)</tspan></text><text class="cls-15" transform="translate(179.18 102.77)">SCL (Pin 4)</text><line class="cls-18" x1="281.26" y1="127.01" x2="281.26" y2="107.12"/><line class="cls-18" x1="297.02" y1="127.01" x2="297.02" y2="87.23"/><circle class="cls-19" cx="281.26" cy="107.12" r="1.88"/><circle class="cls-19" cx="297.02" cy="87.23" r="1.76"/><line class="cls-18" x1="354.81" y1="127.01" x2="354.81" y2="107.12"/><line class="cls-18" x1="370.57" y1="127.01" x2="370.57" y2="87.23"/><circle class="cls-19" cx="354.81" cy="107.12" r="1.88"/><circle class="cls-19" cx="370.57" cy="87.23" r="1.76"/><line class="cls-18" x1="425.42" y1="127.01" x2="425.42" y2="107.12"/><line class="cls-18" x1="441.18" y1="127.01" x2="441.18" y2="87.23"/><circle class="cls-19" cx="425.42" cy="107.12" r="1.88"/><circle class="cls-19" cx="441.18" cy="87.23" r="1.76"/><circle class="cls-19" cx="464.95" cy="87.23" r="1.76"/><circle class="cls-19" cx="482.89" cy="107.12" r="1.76"/><polyline class="cls-20" points="464.76 87.23 464.76 77.85 467.58 75.97 462.32 73.16 467.58 70.72 462.32 68.47 467.58 65.46 462.32 63.02 464.95 61.05 464.95 51.77"/><polyline class="cls-20" points="482.71 107.12 482.71 77.85 485.52 75.97 480.27 73.16 485.52 70.72 480.27 68.47 485.52 65.46 480.27 63.02 482.89 61.05 482.89 51.77"/><use width="23.18" height="21.53" transform="translate(479.94 54.95) rotate(-90) scale(0.27)" xlink:href="#Arrow_3"/><use width="23.18" height="21.53" transform="translate(461.99 54.95) rotate(-90) scale(0.27)" xlink:href="#Arrow_3"/><text class="cls-21" transform="translate(457.87 33.33)">VDD<tspan class="cls-22"><tspan x="-18.07" y="12.7">(usually 3.3</tspan><tspan class="cls-23" x="38.73" y="12.7">V</tspan><tspan x="46.43" y="12.7">)</tspan></tspan></text></svg>