<?xml version="1.0" encoding="utf-8"?>
<!-- Generator: Adobe Illustrator 22.0.2, SVG Export Plug-In . SVG Version: 6.00 Build 0)  -->
<svg version="1.1" id="Layer_1" xmlns="http://www.w3.org/2000/svg" xmlns:xlink="http://www.w3.org/1999/xlink" x="0px" y="0px"
	 viewBox="0 0 582 177.8" style="enable-background:new 0 0 582 177.8;" xml:space="preserve">
<style type="text/css">
	.st0{fill:#EB2D34;}
	.st1{fill:#231F20;}
	.st2{fill:none;stroke:#231F20;stroke-width:1.13;stroke-miterlimit:10;}
	.st3{fill:#00AEEF;stroke:#231F20;stroke-width:1.29;stroke-miterlimit:10;}
	.st4{enable-background:new    ;}
	.st5{fill:#FFFFFF;}
	.st6{fill:#00A651;stroke:#231F20;stroke-width:0.99;stroke-miterlimit:10;}
	.st7{fill:#2E3192;stroke:#231F20;stroke-width:0.99;stroke-miterlimit:10;}
	.st8{fill:#EF4136;stroke:#231F20;stroke-width:0.99;stroke-miterlimit:10;}
	.st9{fill:none;stroke:#231F20;stroke-width:0.99;stroke-miterlimit:10;}
	.st10{fill:#231F20;stroke:#231F20;stroke-width:0.99;stroke-miterlimit:10;}
	.st11{fill:#FFFFFF;stroke:#231F20;stroke-width:0.99;stroke-miterlimit:10;}
</style>
<symbol  id="Arrow_3" viewBox="-11.6 -10.8 23.2 21.5">
	<polygon class="st0" points="-11.6,10.8 -2.7,0 -11.6,-10.8 11.6,0 	"/>
	<polygon class="st1" points="-11.6,10.8 -2.7,0 -11.6,-10.8 11.6,0 	"/>
</symbol>
<title>i2c-overview</title>
<line class="st2" x1="171.2" y1="87.2" x2="506.9" y2="87.2"/>
<line class="st2" x1="171.2" y1="107.1" x2="506.9" y2="107.1"/>
<rect x="68.8" y="73.9" class="st3" width="102.4" height="44.8"/>
<g class="st4">
	<path class="st5" d="M80.7,102.5v2.1h-1.1l-0.1-1.1h-2.1v7.6l1.1,0.2v0.8H75v-0.8l1.1-0.2v-7.6h-2.1l-0.1,1.1h-1.1v-2.1H80.7z"/>
</g>
<g class="st4">
	<path class="st5" d="M81,105.9V105h2.2l0.1,1c0.2-0.4,0.5-0.7,0.7-0.9c0.3-0.2,0.6-0.3,1-0.3c0.1,0,0.2,0,0.3,0c0.1,0,0.2,0,0.2,0
		l-0.2,1.2l-0.7,0c-0.3,0-0.6,0.1-0.9,0.2c-0.2,0.2-0.4,0.4-0.5,0.7v4.1l1.1,0.2v0.8H81v-0.8l1.1-0.2V106L81,105.9z"/>
</g>
<g class="st4">
	<path class="st5" d="M89.8,112.3c-1,0-1.8-0.3-2.4-1c-0.6-0.7-0.9-1.5-0.9-2.6v-0.3c0-1,0.3-1.9,0.9-2.5c0.6-0.7,1.3-1,2.1-1
		c1,0,1.7,0.3,2.2,0.9c0.5,0.6,0.7,1.4,0.7,2.3v0.8h-4.6l0,0c0,0.7,0.2,1.3,0.5,1.7c0.3,0.4,0.8,0.7,1.4,0.7c0.4,0,0.8-0.1,1.2-0.2
		s0.6-0.3,0.9-0.5l0.5,0.8c-0.3,0.2-0.6,0.5-1,0.6C90.9,112.2,90.4,112.3,89.8,112.3z M89.6,105.9c-0.4,0-0.8,0.2-1.1,0.6
		c-0.3,0.4-0.5,0.8-0.6,1.4l0,0h3.3v-0.2c0-0.5-0.1-0.9-0.4-1.3C90.5,106.1,90.1,105.9,89.6,105.9z"/>
	<path class="st5" d="M97,112.3c-1,0-1.8-0.3-2.4-1c-0.6-0.7-0.9-1.5-0.9-2.6v-0.3c0-1,0.3-1.9,0.9-2.5c0.6-0.7,1.3-1,2.1-1
		c1,0,1.7,0.3,2.2,0.9c0.5,0.6,0.7,1.4,0.7,2.3v0.8h-4.6l0,0c0,0.7,0.2,1.3,0.5,1.7c0.3,0.4,0.8,0.7,1.4,0.7c0.4,0,0.8-0.1,1.2-0.2
		s0.6-0.3,0.9-0.5l0.5,0.8c-0.3,0.2-0.6,0.5-1,0.6C98.1,112.2,97.6,112.3,97,112.3z M96.8,105.9c-0.4,0-0.8,0.2-1.1,0.6
		c-0.3,0.4-0.5,0.8-0.6,1.4l0,0h3.3v-0.2c0-0.5-0.1-0.9-0.4-1.3C97.8,106.1,97.4,105.9,96.8,105.9z"/>
</g>
<g class="st4">
	<path class="st5" d="M100.8,111.3l1.1-0.2v-8.3l-1.1-0.2v-0.8h2.4v4.1c0.2-0.3,0.5-0.6,0.9-0.8c0.4-0.2,0.8-0.3,1.2-0.3
		c0.8,0,1.4,0.2,1.8,0.7c0.4,0.5,0.6,1.2,0.6,2.1v3.5l1.1,0.2v0.8h-3.5v-0.8l1.1-0.2v-3.5c0-0.6-0.1-1-0.4-1.3s-0.6-0.4-1.1-0.4
		c-0.4,0-0.7,0.1-1,0.3c-0.3,0.2-0.5,0.4-0.7,0.7v4.3l1.1,0.2v0.8h-3.4V111.3z"/>
</g>
<g class="st4">
	<path class="st5" d="M109.7,108.5c0-1.1,0.3-1.9,0.9-2.6c0.6-0.7,1.3-1,2.3-1c1,0,1.8,0.3,2.3,1c0.6,0.7,0.9,1.6,0.9,2.6v0.1
		c0,1.1-0.3,1.9-0.9,2.6c-0.6,0.7-1.3,1-2.3,1c-1,0-1.8-0.3-2.3-1s-0.9-1.5-0.9-2.6V108.5z M111,108.7c0,0.8,0.2,1.4,0.5,1.9
		s0.8,0.7,1.4,0.7c0.6,0,1.1-0.2,1.4-0.7c0.3-0.5,0.5-1.1,0.5-1.9v-0.1c0-0.7-0.2-1.4-0.5-1.9c-0.3-0.5-0.8-0.7-1.4-0.7
		s-1.1,0.2-1.4,0.7c-0.3,0.5-0.5,1.1-0.5,1.9V108.7z"/>
	<path class="st5" d="M117.1,114.1l1.1-0.2V106l-1.1-0.2V105h2.2l0.1,0.9c0.2-0.3,0.5-0.6,0.9-0.7c0.3-0.2,0.7-0.3,1.2-0.3
		c0.9,0,1.6,0.4,2.1,1.1c0.5,0.7,0.7,1.6,0.7,2.8v0.1c0,1-0.2,1.9-0.7,2.5c-0.5,0.6-1.2,0.9-2,0.9c-0.4,0-0.8-0.1-1.2-0.2
		c-0.3-0.1-0.6-0.4-0.8-0.7v2.5l1.1,0.2v0.8h-3.5V114.1z M123,108.7c0-0.8-0.2-1.5-0.5-2c-0.3-0.5-0.8-0.8-1.4-0.8
		c-0.4,0-0.7,0.1-1,0.3c-0.3,0.2-0.5,0.4-0.6,0.7v3.5c0.2,0.3,0.4,0.5,0.6,0.7s0.6,0.2,1,0.2c0.6,0,1.1-0.2,1.4-0.7
		c0.3-0.4,0.5-1,0.5-1.7V108.7z"/>
	<path class="st5" d="M125.3,114.1l1.1-0.2V106l-1.1-0.2V105h2.2l0.1,0.9c0.2-0.3,0.5-0.6,0.9-0.7c0.3-0.2,0.7-0.3,1.2-0.3
		c0.9,0,1.6,0.4,2.1,1.1c0.5,0.7,0.7,1.6,0.7,2.8v0.1c0,1-0.2,1.9-0.7,2.5c-0.5,0.6-1.2,0.9-2,0.9c-0.4,0-0.8-0.1-1.2-0.2
		c-0.3-0.1-0.6-0.4-0.8-0.7v2.5l1.1,0.2v0.8h-3.5V114.1z M131.1,108.7c0-0.8-0.2-1.5-0.5-2c-0.3-0.5-0.8-0.8-1.4-0.8
		c-0.4,0-0.7,0.1-1,0.3c-0.3,0.2-0.5,0.4-0.6,0.7v3.5c0.2,0.3,0.4,0.5,0.6,0.7s0.6,0.2,1,0.2c0.6,0,1.1-0.2,1.4-0.7
		c0.3-0.4,0.5-1,0.5-1.7V108.7z"/>
	<path class="st5" d="M136.9,112.3c-1,0-1.8-0.3-2.4-1c-0.6-0.7-0.9-1.5-0.9-2.6v-0.3c0-1,0.3-1.9,0.9-2.5c0.6-0.7,1.3-1,2.1-1
		c1,0,1.7,0.3,2.2,0.9c0.5,0.6,0.7,1.4,0.7,2.3v0.8H135l0,0c0,0.7,0.2,1.3,0.5,1.7c0.3,0.4,0.8,0.7,1.4,0.7c0.4,0,0.8-0.1,1.2-0.2
		s0.6-0.3,0.9-0.5l0.5,0.8c-0.3,0.2-0.6,0.5-1,0.6C138,112.2,137.5,112.3,136.9,112.3z M136.7,105.9c-0.4,0-0.8,0.2-1.1,0.6
		c-0.3,0.4-0.5,0.8-0.6,1.4l0,0h3.3v-0.2c0-0.5-0.1-0.9-0.4-1.3C137.6,106.1,137.2,105.9,136.7,105.9z"/>
	<path class="st5" d="M140.9,105.9V105h2.2l0.1,1c0.2-0.4,0.5-0.7,0.7-0.9c0.3-0.2,0.6-0.3,1-0.3c0.1,0,0.2,0,0.3,0
		c0.1,0,0.2,0,0.2,0l-0.2,1.2l-0.7,0c-0.3,0-0.6,0.1-0.9,0.2c-0.2,0.2-0.4,0.4-0.5,0.7v4.1l1.1,0.2v0.8h-3.5v-0.8l1.1-0.2V106
		L140.9,105.9z"/>
</g>
<rect x="255.7" y="127" class="st6" width="60.8" height="44.8"/>
<g class="st4">
	<path class="st5" d="M286.9,158.3v-0.8h3.4v0.8l-1.1,0.2v7.6l1.1,0.2v0.8h-3.4v-0.8l1.1-0.2v-7.6L286.9,158.3z"/>
	<path class="st5" d="M300.7,159.4L300.7,159.4l-3.1,7.7h-0.9l-3.1-7.7l0,0l0.1,3.9v2.8l1.1,0.2v0.8h-3.5v-0.8l1.1-0.2v-7.6
		l-1.1-0.2v-0.8h1.1h1.7l3.1,7.8h0l3.1-7.8h2.7v0.8l-1.1,0.2v7.6l1.1,0.2v0.8h-3.5v-0.8l1.1-0.2v-2.8L300.7,159.4z"/>
	<path class="st5" d="M307.2,157.5v0.8l-1.1,0.2v5.5c0,0.7,0.2,1.3,0.6,1.7c0.4,0.4,1,0.6,1.6,0.6c0.7,0,1.3-0.2,1.7-0.6
		c0.4-0.4,0.7-0.9,0.7-1.7v-5.5l-1.1-0.2v-0.8h2.4h1.1v0.8l-1.1,0.2v5.5c0,1-0.3,1.8-1,2.4c-0.7,0.6-1.6,0.8-2.7,0.8
		c-1.1,0-1.9-0.3-2.6-0.8c-0.7-0.6-1-1.4-1-2.4v-5.5l-1.1-0.2v-0.8h1.1H307.2z"/>
</g>
<rect x="328.5" y="127" class="st7" width="60.8" height="44.8"/>
<g class="st4">
	<path class="st5" d="M343.7,148.3c0.9,0,1.5,0.2,2,0.7c0.5,0.4,0.7,1,0.7,1.7c0,0.7-0.2,1.3-0.7,1.7s-1.1,0.7-2,0.7H342v2.4
		l0.9,0.2v0.7H340v-0.7l0.9-0.2v-6.3L340,149v-0.7h0.9H343.7z M342,152.3h1.7c0.5,0,0.9-0.1,1.2-0.4c0.3-0.3,0.4-0.7,0.4-1.1
		s-0.1-0.8-0.4-1.1s-0.7-0.4-1.2-0.4H342V152.3z"/>
</g>
<g class="st4">
	<path class="st5" d="M347.3,151.1v-0.7h1.9l0.1,0.9c0.2-0.3,0.4-0.5,0.6-0.7c0.2-0.2,0.5-0.3,0.8-0.3c0.1,0,0.2,0,0.3,0
		c0.1,0,0.2,0,0.2,0l-0.1,1l-0.6,0c-0.3,0-0.5,0.1-0.7,0.2s-0.3,0.3-0.5,0.6v3.4l0.9,0.2v0.7h-2.9v-0.7l0.9-0.2v-4.3L347.3,151.1z"
		/>
</g>
<g class="st4">
	<path class="st5" d="M354.6,156.5c-0.8,0-1.5-0.3-2-0.8s-0.7-1.3-0.7-2.1v-0.2c0-0.8,0.3-1.6,0.8-2.1c0.5-0.6,1.1-0.8,1.8-0.8
		c0.8,0,1.4,0.2,1.8,0.7c0.4,0.5,0.6,1.1,0.6,1.9v0.7H353l0,0c0,0.6,0.2,1,0.4,1.4c0.3,0.4,0.7,0.6,1.2,0.6c0.4,0,0.7-0.1,1-0.2
		s0.5-0.2,0.7-0.4l0.4,0.7c-0.2,0.2-0.5,0.4-0.8,0.5C355.5,156.4,355.1,156.5,354.6,156.5z M354.4,151.1c-0.4,0-0.7,0.2-0.9,0.5
		c-0.3,0.3-0.4,0.7-0.5,1.2l0,0h2.7v-0.1c0-0.4-0.1-0.8-0.3-1.1C355.2,151.3,354.8,151.1,354.4,151.1z"/>
	<path class="st5" d="M362.5,152.3h-0.8l-0.2-0.7c-0.1-0.1-0.3-0.2-0.5-0.3s-0.4-0.1-0.7-0.1c-0.4,0-0.7,0.1-0.9,0.3
		c-0.2,0.2-0.3,0.4-0.3,0.6c0,0.2,0.1,0.4,0.2,0.6s0.5,0.3,1,0.4c0.8,0.2,1.3,0.4,1.7,0.7c0.4,0.3,0.5,0.6,0.5,1.1
		c0,0.5-0.2,1-0.6,1.3s-1,0.5-1.7,0.5c-0.5,0-0.9-0.1-1.2-0.2c-0.4-0.1-0.7-0.3-1-0.5l0-1.4h0.8l0.2,0.8c0.1,0.1,0.3,0.2,0.5,0.2
		c0.2,0.1,0.4,0.1,0.7,0.1c0.4,0,0.7-0.1,0.9-0.2s0.3-0.4,0.3-0.6c0-0.2-0.1-0.4-0.3-0.6c-0.2-0.2-0.5-0.3-1-0.4
		c-0.7-0.2-1.3-0.4-1.6-0.6c-0.4-0.3-0.5-0.6-0.5-1.1c0-0.5,0.2-0.9,0.6-1.2s0.9-0.5,1.6-0.5c0.5,0,0.9,0.1,1.2,0.2s0.7,0.3,0.9,0.5
		L362.5,152.3z"/>
	<path class="st5" d="M368.2,152.3h-0.8l-0.2-0.7c-0.1-0.1-0.3-0.2-0.5-0.3s-0.4-0.1-0.7-0.1c-0.4,0-0.7,0.1-0.9,0.3
		c-0.2,0.2-0.3,0.4-0.3,0.6c0,0.2,0.1,0.4,0.2,0.6s0.5,0.3,1,0.4c0.8,0.2,1.3,0.4,1.7,0.7c0.4,0.3,0.5,0.6,0.5,1.1
		c0,0.5-0.2,1-0.6,1.3s-1,0.5-1.7,0.5c-0.5,0-0.9-0.1-1.2-0.2c-0.4-0.1-0.7-0.3-1-0.5l0-1.4h0.8l0.2,0.8c0.1,0.1,0.3,0.2,0.5,0.2
		c0.2,0.1,0.4,0.1,0.7,0.1c0.4,0,0.7-0.1,0.9-0.2s0.3-0.4,0.3-0.6c0-0.2-0.1-0.4-0.3-0.6c-0.2-0.2-0.5-0.3-1-0.4
		c-0.7-0.2-1.3-0.4-1.6-0.6c-0.4-0.3-0.5-0.6-0.5-1.1c0-0.5,0.2-0.9,0.6-1.2s0.9-0.5,1.6-0.5c0.5,0,0.9,0.1,1.2,0.2s0.7,0.3,0.9,0.5
		L368.2,152.3z"/>
	<path class="st5" d="M373.6,155.5c-0.2,0.3-0.4,0.6-0.7,0.7c-0.3,0.2-0.6,0.3-1,0.3c-0.6,0-1.1-0.2-1.5-0.6
		c-0.4-0.4-0.5-1.1-0.5-1.9v-2.7l-0.7-0.2v-0.7h0.7h1.1v3.5c0,0.6,0.1,1.1,0.3,1.3c0.2,0.2,0.5,0.4,0.9,0.4c0.4,0,0.7-0.1,1-0.2
		c0.3-0.2,0.4-0.4,0.6-0.7v-3.4l-0.8-0.2v-0.7h0.8h1.1v5.1l0.7,0.2v0.7h-1.7L373.6,155.5z"/>
</g>
<g class="st4">
	<path class="st5" d="M376.2,151.1v-0.7h1.9l0.1,0.9c0.2-0.3,0.4-0.5,0.6-0.7c0.2-0.2,0.5-0.3,0.8-0.3c0.1,0,0.2,0,0.3,0
		c0.1,0,0.2,0,0.2,0l-0.1,1l-0.6,0c-0.3,0-0.5,0.1-0.7,0.2s-0.3,0.3-0.5,0.6v3.4l0.9,0.2v0.7h-2.9v-0.7l0.9-0.2v-4.3L376.2,151.1z"
		/>
</g>
<g class="st4">
	<path class="st5" d="M383.5,156.5c-0.8,0-1.5-0.3-2-0.8s-0.7-1.3-0.7-2.1v-0.2c0-0.8,0.3-1.6,0.8-2.1c0.5-0.6,1.1-0.8,1.8-0.8
		c0.8,0,1.4,0.2,1.8,0.7c0.4,0.5,0.6,1.1,0.6,1.9v0.7h-3.9l0,0c0,0.6,0.2,1,0.4,1.4c0.3,0.4,0.7,0.6,1.2,0.6c0.4,0,0.7-0.1,1-0.2
		s0.5-0.2,0.7-0.4l0.4,0.7c-0.2,0.2-0.5,0.4-0.8,0.5C384.4,156.4,384,156.5,383.5,156.5z M383.3,151.1c-0.4,0-0.7,0.2-0.9,0.5
		c-0.3,0.3-0.4,0.7-0.5,1.2l0,0h2.7v-0.1c0-0.4-0.1-0.8-0.3-1.1C384.1,151.3,383.8,151.1,383.3,151.1z"/>
</g>
<g class="st4">
	<path class="st5" d="M355.7,162h-0.8l-0.2-1.1c-0.2-0.1-0.4-0.3-0.7-0.3c-0.3-0.1-0.6-0.1-1-0.1c-0.6,0-1,0.1-1.3,0.4
		c-0.3,0.2-0.5,0.6-0.5,1c0,0.3,0.2,0.6,0.5,0.9c0.3,0.2,0.8,0.4,1.5,0.6c0.8,0.2,1.5,0.5,1.9,0.9c0.4,0.4,0.7,0.9,0.7,1.5
		c0,0.6-0.3,1.2-0.8,1.6c-0.5,0.4-1.2,0.6-2.1,0.6c-0.6,0-1.2-0.1-1.6-0.3c-0.5-0.2-0.9-0.5-1.2-0.8v-1.5h0.8l0.2,1.1
		c0.2,0.2,0.5,0.3,0.7,0.4c0.3,0.1,0.6,0.2,1,0.2c0.5,0,1-0.1,1.3-0.3c0.3-0.2,0.5-0.5,0.5-0.9c0-0.4-0.1-0.7-0.4-0.9
		c-0.3-0.2-0.8-0.5-1.5-0.6c-0.8-0.2-1.5-0.5-2-0.9c-0.5-0.4-0.7-0.9-0.7-1.5c0-0.6,0.3-1.1,0.8-1.6c0.5-0.4,1.2-0.6,2.1-0.6
		c0.6,0,1.1,0.1,1.5,0.3c0.5,0.2,0.8,0.4,1.1,0.7V162z"/>
	<path class="st5" d="M359.5,167.7c-0.8,0-1.5-0.3-2-0.8s-0.7-1.3-0.7-2.1v-0.2c0-0.8,0.3-1.6,0.8-2.1c0.5-0.6,1.1-0.8,1.8-0.8
		c0.8,0,1.4,0.2,1.8,0.7c0.4,0.5,0.6,1.1,0.6,1.9v0.7h-3.9l0,0c0,0.6,0.2,1,0.4,1.4c0.3,0.4,0.7,0.6,1.2,0.6c0.4,0,0.7-0.1,1-0.2
		s0.5-0.2,0.7-0.4l0.4,0.7c-0.2,0.2-0.5,0.4-0.8,0.5C360.4,167.6,360,167.7,359.5,167.7z M359.4,162.4c-0.4,0-0.7,0.2-0.9,0.5
		c-0.3,0.3-0.4,0.7-0.5,1.2l0,0h2.7v-0.1c0-0.4-0.1-0.8-0.3-1.1C360.2,162.5,359.8,162.4,359.4,162.4z"/>
	<path class="st5" d="M362.7,166.9l0.9-0.2v-4.3l-0.9-0.2v-0.7h1.9l0.1,0.9c0.2-0.3,0.4-0.6,0.7-0.7s0.6-0.3,1-0.3
		c0.6,0,1.1,0.2,1.5,0.6c0.4,0.4,0.5,1,0.5,1.7v2.9l0.9,0.2v0.7h-2.9v-0.7l0.9-0.2v-2.9c0-0.5-0.1-0.9-0.3-1.1
		c-0.2-0.2-0.5-0.3-0.9-0.3c-0.3,0-0.6,0.1-0.8,0.2c-0.2,0.2-0.4,0.4-0.6,0.6v3.5l0.9,0.2v0.7h-2.9V166.9z"/>
	<path class="st5" d="M374.7,163.5h-0.8l-0.2-0.7c-0.1-0.1-0.3-0.2-0.5-0.3c-0.2-0.1-0.4-0.1-0.7-0.1c-0.4,0-0.7,0.1-0.9,0.3
		c-0.2,0.2-0.3,0.4-0.3,0.6c0,0.2,0.1,0.4,0.2,0.6s0.5,0.3,1,0.4c0.8,0.2,1.3,0.4,1.7,0.7c0.4,0.3,0.5,0.6,0.5,1.1
		c0,0.5-0.2,1-0.6,1.3c-0.4,0.3-1,0.5-1.7,0.5c-0.5,0-0.9-0.1-1.2-0.2s-0.7-0.3-1-0.5l0-1.4h0.8l0.2,0.8c0.1,0.1,0.3,0.2,0.5,0.2
		c0.2,0.1,0.4,0.1,0.7,0.1c0.4,0,0.7-0.1,0.9-0.2c0.2-0.2,0.3-0.4,0.3-0.6c0-0.2-0.1-0.4-0.3-0.6c-0.2-0.2-0.5-0.3-1-0.4
		c-0.7-0.2-1.3-0.4-1.6-0.6s-0.5-0.6-0.5-1.1c0-0.5,0.2-0.9,0.6-1.2c0.4-0.3,0.9-0.5,1.6-0.5c0.5,0,0.9,0.1,1.2,0.2
		c0.4,0.1,0.7,0.3,0.9,0.5L374.7,163.5z"/>
	<path class="st5" d="M375.9,164.6c0-0.9,0.2-1.6,0.7-2.2c0.5-0.6,1.1-0.9,1.9-0.9c0.8,0,1.5,0.3,1.9,0.9c0.5,0.6,0.7,1.3,0.7,2.2
		v0.1c0,0.9-0.2,1.6-0.7,2.2s-1.1,0.8-1.9,0.8c-0.8,0-1.5-0.3-2-0.8c-0.5-0.6-0.7-1.3-0.7-2.2V164.6z M376.9,164.7
		c0,0.6,0.1,1.2,0.4,1.6c0.3,0.4,0.7,0.6,1.2,0.6c0.5,0,0.9-0.2,1.2-0.6c0.3-0.4,0.4-0.9,0.4-1.6v-0.1c0-0.6-0.1-1.1-0.4-1.6
		c-0.3-0.4-0.7-0.6-1.2-0.6s-0.9,0.2-1.2,0.6c-0.3,0.4-0.4,0.9-0.4,1.6V164.7z"/>
	<path class="st5" d="M382.2,162.3v-0.7h1.9l0.1,0.9c0.2-0.3,0.4-0.5,0.6-0.7c0.2-0.2,0.5-0.3,0.8-0.3c0.1,0,0.2,0,0.3,0
		c0.1,0,0.2,0,0.2,0l-0.1,1l-0.6,0c-0.3,0-0.5,0.1-0.7,0.2s-0.3,0.3-0.5,0.6v3.4l0.9,0.2v0.7h-2.9v-0.7l0.9-0.2v-4.3L382.2,162.3z"
		/>
</g>
<rect x="402.8" y="127" class="st8" width="60.8" height="44.8"/>
<g class="st4">
	<path class="st5" d="M438.2,157.5c1.3,0,2.3,0.4,3,1.2c0.8,0.8,1.1,1.8,1.1,3v1.3c0,1.2-0.4,2.2-1.1,3c-0.8,0.8-1.8,1.2-3,1.2h-4
		v-0.8l1.1-0.2v-7.6l-1.1-0.2v-0.8h1.1H438.2z M436.6,158.5v7.6h1.6c0.9,0,1.6-0.3,2.1-0.9c0.5-0.6,0.8-1.3,0.8-2.2v-1.3
		c0-0.9-0.3-1.7-0.8-2.2c-0.5-0.6-1.2-0.9-2.1-0.9H436.6z"/>
	<path class="st5" d="M442.4,166.2l0.7-0.1l3.4-8.7h1.1l3.3,8.7l0.7,0.1v0.8h-2.8v-0.8l0.7-0.1l-0.6-1.8h-3.8l-0.7,1.8l0.7,0.1v0.8
		h-2.8V166.2z M445.5,163.2h3l-1.5-4.1h0L445.5,163.2z"/>
</g>
<g class="st4">
	<path class="st5" d="M459.8,160.4h-0.9l-0.2-1.4c-0.2-0.2-0.5-0.4-0.8-0.5c-0.3-0.1-0.7-0.2-1.1-0.2c-1,0-1.8,0.4-2.3,1.1
		c-0.5,0.7-0.8,1.6-0.8,2.8v0.2c0,1.1,0.3,2,0.8,2.8c0.5,0.7,1.3,1.1,2.2,1.1c0.4,0,0.8-0.1,1.2-0.2c0.4-0.1,0.6-0.3,0.8-0.5
		l0.2-1.4h0.9v1.7c-0.3,0.4-0.7,0.7-1.2,1c-0.6,0.3-1.2,0.4-1.9,0.4c-1.2,0-2.3-0.5-3.1-1.4c-0.8-0.9-1.2-2.1-1.2-3.5v-0.1
		c0-1.4,0.4-2.6,1.2-3.5c0.8-0.9,1.8-1.4,3.1-1.4c0.7,0,1.4,0.1,1.9,0.4c0.6,0.3,1,0.6,1.2,1V160.4z"/>
</g>
<g class="st4">
	<path class="st1" d="M186.6,75.4h-1l-0.2-1.4c-0.2-0.2-0.5-0.3-0.8-0.4c-0.3-0.1-0.7-0.2-1.1-0.2c-0.7,0-1.2,0.1-1.6,0.4
		c-0.4,0.3-0.6,0.7-0.6,1.1c0,0.4,0.2,0.8,0.6,1s1,0.5,1.8,0.7c1,0.3,1.8,0.6,2.3,1.1c0.5,0.5,0.8,1.1,0.8,1.8
		c0,0.8-0.3,1.4-0.9,1.9c-0.6,0.5-1.5,0.7-2.5,0.7c-0.7,0-1.4-0.1-2-0.4c-0.6-0.2-1-0.6-1.4-0.9v-1.8h1l0.3,1.4
		c0.3,0.2,0.5,0.4,0.9,0.5c0.3,0.1,0.8,0.2,1.2,0.2c0.7,0,1.2-0.1,1.6-0.4s0.6-0.7,0.6-1.1c0-0.4-0.2-0.8-0.5-1.1
		c-0.3-0.3-0.9-0.5-1.7-0.7c-1-0.2-1.8-0.6-2.4-1.1c-0.6-0.5-0.9-1.1-0.9-1.8c0-0.8,0.3-1.4,1-1.9c0.6-0.5,1.5-0.7,2.5-0.7
		c0.7,0,1.3,0.1,1.8,0.3c0.6,0.2,1,0.5,1.3,0.8V75.4z"/>
</g>
<g class="st4">
	<path class="st1" d="M191.9,72.5c1.3,0,2.3,0.4,3,1.2c0.8,0.8,1.1,1.8,1.1,3V78c0,1.2-0.4,2.2-1.1,3c-0.8,0.8-1.8,1.2-3,1.2h-4
		v-0.8l1.1-0.2v-7.6l-1.1-0.2v-0.8h1.1H191.9z M190.3,73.5v7.6h1.6c0.9,0,1.6-0.3,2.1-0.9s0.8-1.3,0.8-2.2v-1.3
		c0-0.9-0.3-1.7-0.8-2.2s-1.2-0.9-2.1-0.9H190.3z"/>
</g>
<g class="st4">
	<path class="st1" d="M196.6,81.3l0.7-0.1l3.4-8.7h1.1l3.3,8.7l0.7,0.1v0.8H203v-0.8l0.7-0.1l-0.6-1.8h-3.8l-0.7,1.8l0.7,0.1v0.8
		h-2.8V81.3z M199.7,78.3h3l-1.5-4.1h0L199.7,78.3z"/>
</g>
<g class="st4">
	<path class="st1" d="M208.4,78.2c0-1.7,0.3-3.2,1-4.4c0.7-1.2,1.4-2,2.2-2.5l0,0l0.2,0.8c-0.6,0.5-1.1,1.2-1.6,2.3
		s-0.7,2.3-0.7,3.8v0.1c0,1.5,0.2,2.8,0.7,3.8c0.4,1,1,1.8,1.6,2.3l-0.2,0.7h0c-0.8-0.4-1.5-1.2-2.2-2.5S208.4,80,208.4,78.2
		L208.4,78.2z"/>
	<path class="st1" d="M216.8,72.5c1,0,1.8,0.3,2.4,0.8c0.6,0.5,0.9,1.2,0.9,2.1c0,0.9-0.3,1.6-0.9,2.1c-0.6,0.5-1.4,0.8-2.4,0.8h-2
		v2.8l1.1,0.2v0.8h-3.5v-0.8l1.1-0.2v-7.6l-1.1-0.2v-0.8h1.1H216.8z M214.8,77.3h2c0.7,0,1.1-0.2,1.5-0.5s0.5-0.8,0.5-1.3
		c0-0.5-0.2-1-0.5-1.3s-0.8-0.5-1.5-0.5h-2V77.3z"/>
	<path class="st1" d="M221.1,81.3l1.1-0.2V76l-1.1-0.2V75h2.4v6.1l1.1,0.2v0.8h-3.5V81.3z M223.5,73.2h-1.3v-1.3h1.3V73.2z"/>
	<path class="st1" d="M225.4,81.3l1.1-0.2V76l-1.1-0.2V75h2.2l0.1,1.1c0.2-0.4,0.5-0.7,0.9-0.9s0.8-0.3,1.2-0.3
		c0.8,0,1.4,0.2,1.8,0.7c0.4,0.5,0.6,1.1,0.6,2.1v3.5l1.1,0.2v0.8h-3.5v-0.8l1.1-0.2v-3.5c0-0.6-0.1-1.1-0.4-1.3
		c-0.2-0.3-0.6-0.4-1.1-0.4c-0.4,0-0.7,0.1-1,0.3c-0.3,0.2-0.5,0.4-0.7,0.7v4.2l1.1,0.2v0.8h-3.4V81.3z"/>
	<path class="st1" d="M239.4,76.7h1.1c0.6,0,1-0.1,1.2-0.4s0.4-0.7,0.4-1.2c0-0.5-0.1-1-0.4-1.3c-0.3-0.3-0.7-0.4-1.2-0.4
		c-0.5,0-0.9,0.1-1.2,0.4s-0.5,0.7-0.5,1.2h-1.2l0,0c0-0.7,0.2-1.3,0.8-1.9c0.5-0.5,1.3-0.8,2.1-0.8c0.9,0,1.6,0.2,2.1,0.7
		c0.5,0.5,0.8,1.1,0.8,2c0,0.4-0.1,0.8-0.4,1.2s-0.6,0.7-1.1,0.9c0.6,0.2,1,0.5,1.2,0.9c0.2,0.4,0.4,0.9,0.4,1.4
		c0,0.9-0.3,1.6-0.9,2.1c-0.6,0.5-1.3,0.8-2.2,0.8c-0.9,0-1.6-0.2-2.2-0.7s-0.8-1.1-0.8-1.9l0,0h1.2c0,0.5,0.2,0.9,0.5,1.2
		c0.3,0.3,0.7,0.4,1.3,0.4c0.5,0,1-0.1,1.3-0.4c0.3-0.3,0.5-0.7,0.5-1.3c0-0.6-0.1-1-0.4-1.3c-0.3-0.3-0.7-0.4-1.3-0.4h-1.1V76.7z"
		/>
	<path class="st1" d="M247.9,78.3c0,1.7-0.4,3.2-1.1,4.4s-1.4,2-2.2,2.5h0l-0.2-0.7c0.6-0.5,1.1-1.2,1.6-2.3
		c0.4-1.1,0.7-2.4,0.7-3.9v-0.1c0-1.5-0.2-2.8-0.7-3.9c-0.5-1.1-1-1.8-1.5-2.3l0.2-0.7h0c0.8,0.4,1.5,1.2,2.2,2.5
		C247.6,75,247.9,76.5,247.9,78.3L247.9,78.3z"/>
</g>
<g class="st4">
	<path class="st1" d="M186.6,96h-1l-0.2-1.4c-0.2-0.2-0.5-0.3-0.8-0.4c-0.3-0.1-0.7-0.2-1.1-0.2c-0.7,0-1.2,0.1-1.6,0.4
		s-0.6,0.7-0.6,1.1c0,0.4,0.2,0.8,0.6,1s1,0.5,1.8,0.7c1,0.3,1.8,0.6,2.3,1.1c0.5,0.5,0.8,1.1,0.8,1.8c0,0.8-0.3,1.4-0.9,1.9
		c-0.6,0.5-1.5,0.7-2.5,0.7c-0.7,0-1.4-0.1-2-0.4c-0.6-0.2-1-0.6-1.4-0.9v-1.8h1l0.3,1.4c0.3,0.2,0.5,0.4,0.9,0.5
		c0.3,0.1,0.8,0.2,1.2,0.2c0.7,0,1.2-0.1,1.6-0.4s0.6-0.7,0.6-1.1c0-0.4-0.2-0.8-0.5-1.1c-0.3-0.3-0.9-0.5-1.7-0.7
		c-1-0.2-1.8-0.6-2.4-1.1c-0.6-0.5-0.9-1.1-0.9-1.8c0-0.8,0.3-1.4,1-1.9s1.5-0.7,2.5-0.7c0.7,0,1.3,0.1,1.8,0.3
		c0.6,0.2,1,0.5,1.3,0.8V96z"/>
	<path class="st1" d="M195.3,96.1h-0.9l-0.2-1.4c-0.2-0.2-0.5-0.4-0.8-0.5c-0.3-0.1-0.7-0.2-1.1-0.2c-1,0-1.8,0.4-2.3,1.1
		c-0.5,0.7-0.8,1.6-0.8,2.8V98c0,1.1,0.3,2,0.8,2.8s1.3,1.1,2.2,1.1c0.4,0,0.8-0.1,1.2-0.2c0.4-0.1,0.6-0.3,0.8-0.5l0.2-1.4h0.9v1.7
		c-0.3,0.4-0.7,0.7-1.2,1c-0.6,0.3-1.2,0.4-1.9,0.4c-1.2,0-2.3-0.5-3.1-1.4s-1.2-2.1-1.2-3.5v-0.1c0-1.4,0.4-2.6,1.2-3.5
		c0.8-0.9,1.8-1.4,3.1-1.4c0.7,0,1.4,0.1,1.9,0.4c0.6,0.3,1,0.6,1.2,1V96.1z"/>
	<path class="st1" d="M196.6,102.8v-0.8l1.1-0.2v-7.6l-1.1-0.2v-0.8h1.1h1.3h1.1V94l-1.1,0.2v7.6h3.3l0.1-1.1h1.1v2.1H196.6z"/>
	<path class="st1" d="M208.1,98.9c0-1.7,0.3-3.2,1-4.4s1.4-2,2.2-2.5l0,0l0.2,0.8c-0.6,0.5-1.1,1.2-1.6,2.3c-0.4,1-0.7,2.3-0.7,3.8
		v0.1c0,1.5,0.2,2.8,0.7,3.8c0.4,1,1,1.8,1.6,2.3l-0.2,0.7h0c-0.8-0.4-1.5-1.2-2.2-2.5S208.1,100.7,208.1,98.9L208.1,98.9z"/>
	<path class="st1" d="M216.6,93.2c1,0,1.8,0.3,2.4,0.8c0.6,0.5,0.9,1.2,0.9,2.1c0,0.9-0.3,1.6-0.9,2.1c-0.6,0.5-1.4,0.8-2.4,0.8h-2
		v2.8l1.1,0.2v0.8h-3.5v-0.8l1.1-0.2v-7.6l-1.1-0.2v-0.8h1.1H216.6z M214.6,97.9h2c0.7,0,1.1-0.2,1.5-0.5s0.5-0.8,0.5-1.3
		s-0.2-1-0.5-1.3c-0.3-0.4-0.8-0.5-1.5-0.5h-2V97.9z"/>
	<path class="st1" d="M220.9,101.9l1.1-0.2v-5.1l-1.1-0.2v-0.8h2.4v6.1l1.1,0.2v0.8h-3.5V101.9z M223.3,93.8H222v-1.3h1.3V93.8z"/>
	<path class="st1" d="M225.2,101.9l1.1-0.2v-5.1l-1.1-0.2v-0.8h2.2l0.1,1.1c0.2-0.4,0.5-0.7,0.9-0.9s0.8-0.3,1.2-0.3
		c0.8,0,1.4,0.2,1.8,0.7c0.4,0.5,0.6,1.1,0.6,2.1v3.5l1.1,0.2v0.8h-3.5v-0.8l1.1-0.2v-3.5c0-0.6-0.1-1.1-0.4-1.3
		c-0.2-0.3-0.6-0.4-1.1-0.4c-0.4,0-0.7,0.1-1,0.3s-0.5,0.4-0.7,0.7v4.2l1.1,0.2v0.8h-3.4V101.9z"/>
	<path class="st1" d="M242.9,99.5h1.3v1h-1.3v1.2l1.1,0.2v0.8h-3.4v-0.8l1.1-0.2v-1.2h-4.3v-0.7l4.2-6.7h1.4V99.5z M238.6,99.5h2.9
		V95l0,0l-0.1,0.3L238.6,99.5z"/>
	<path class="st1" d="M248.3,98.9c0,1.7-0.4,3.2-1.1,4.4s-1.4,2-2.2,2.5h0l-0.2-0.7c0.6-0.5,1.1-1.2,1.6-2.3
		c0.4-1.1,0.7-2.4,0.7-3.9v-0.1c0-1.5-0.2-2.8-0.7-3.9s-1-1.8-1.5-2.3L245,92h0c0.8,0.4,1.5,1.2,2.2,2.5S248.3,97.1,248.3,98.9
		L248.3,98.9z"/>
</g>
<line class="st9" x1="281.3" y1="127" x2="281.3" y2="107.1"/>
<line class="st9" x1="297" y1="127" x2="297" y2="87.2"/>
<circle class="st10" cx="281.3" cy="107.1" r="1.9"/>
<circle class="st10" cx="297" cy="87.2" r="1.8"/>
<line class="st9" x1="354.8" y1="127" x2="354.8" y2="107.1"/>
<line class="st9" x1="370.6" y1="127" x2="370.6" y2="87.2"/>
<circle class="st10" cx="354.8" cy="107.1" r="1.9"/>
<circle class="st10" cx="370.6" cy="87.2" r="1.8"/>
<line class="st9" x1="425.4" y1="127" x2="425.4" y2="107.1"/>
<line class="st9" x1="441.2" y1="127" x2="441.2" y2="87.2"/>
<circle class="st10" cx="425.4" cy="107.1" r="1.9"/>
<circle class="st10" cx="441.2" cy="87.2" r="1.8"/>
<circle class="st10" cx="465" cy="87.2" r="1.8"/>
<circle class="st10" cx="482.9" cy="107.1" r="1.8"/>
<polyline class="st11" points="464.8,87.2 464.8,77.8 467.6,76 462.3,73.2 467.6,70.7 462.3,68.5 467.6,65.5 462.3,63 465,61 
	465,51.8 "/>
<polyline class="st11" points="482.7,107.1 482.7,77.8 485.5,76 480.3,73.2 485.5,70.7 480.3,68.5 485.5,65.5 480.3,63 482.9,61 
	482.9,51.8 "/>
<use xlink:href="#Arrow_3"  width="23.2" height="21.5" x="-11.6" y="-10.8" transform="matrix(1.653273e-17 -0.27 0.27 1.653273e-17 482.8466 51.8207)" style="overflow:visible;"/>
<use xlink:href="#Arrow_3"  width="23.2" height="21.5" x="-11.6" y="-10.8" transform="matrix(1.653273e-17 -0.27 0.27 1.653273e-17 464.8965 51.8207)" style="overflow:visible;"/>
<g class="st4">
	<path class="st1" d="M461.6,23.5l-1,0.2l2.4,7l0.2,0.8h0l0.2-0.8l2.4-7l-1-0.1v-0.9h3.4v0.9l-0.9,0.1l-3.6,9.7h-1.2l-3.6-9.7
		l-0.9-0.1v-0.9h3.4V23.5z"/>
	<path class="st1" d="M473.7,22.6c1.4,0,2.5,0.4,3.4,1.3c0.9,0.9,1.3,2,1.3,3.3v1.5c0,1.4-0.4,2.5-1.3,3.3c-0.9,0.9-2,1.3-3.4,1.3
		h-4.5v-0.9l1.2-0.2v-8.5l-1.2-0.2v-0.9h1.2H473.7z M471.9,23.7v8.5h1.8c1,0,1.8-0.3,2.3-1s0.9-1.5,0.9-2.5v-1.5
		c0-1-0.3-1.8-0.9-2.5c-0.6-0.7-1.4-1-2.3-1H471.9z"/>
	<path class="st1" d="M484.2,22.6c1.4,0,2.5,0.4,3.4,1.3c0.9,0.9,1.3,2,1.3,3.3v1.5c0,1.4-0.4,2.5-1.3,3.3c-0.9,0.9-2,1.3-3.4,1.3
		h-4.5v-0.9l1.2-0.2v-8.5l-1.2-0.2v-0.9h1.2H484.2z M482.3,23.7v8.5h1.8c1,0,1.8-0.3,2.3-1s0.9-1.5,0.9-2.5v-1.5
		c0-1-0.3-1.8-0.9-2.5c-0.6-0.7-1.4-1-2.3-1H482.3z"/>
</g>
<g class="st4">
	<path class="st1" d="M440.4,43c0-1.4,0.3-2.5,0.8-3.5s1.1-1.6,1.7-1.9l0,0l0.2,0.6c-0.5,0.4-0.9,1-1.2,1.8c-0.3,0.8-0.5,1.8-0.5,3
		V43c0,1.2,0.2,2.2,0.5,3c0.3,0.8,0.8,1.4,1.2,1.8l-0.2,0.6h0c-0.6-0.3-1.2-1-1.7-1.9C440.7,45.5,440.4,44.4,440.4,43L440.4,43z"/>
	<path class="st1" d="M447.7,45.2c-0.2,0.3-0.4,0.5-0.7,0.7s-0.6,0.2-1,0.2c-0.6,0-1.1-0.2-1.4-0.6c-0.3-0.4-0.5-1-0.5-1.8v-2.5
		l-0.6-0.1v-0.7h0.6h1v3.3c0,0.6,0.1,1,0.3,1.2c0.2,0.2,0.4,0.3,0.8,0.3c0.4,0,0.7-0.1,0.9-0.2s0.4-0.4,0.5-0.6v-3.2l-0.8-0.1v-0.7
		h0.8h1v4.8l0.6,0.1V46h-1.6L447.7,45.2z"/>
	<path class="st1" d="M454.4,42.2h-0.8l-0.2-0.7c-0.1-0.1-0.3-0.2-0.5-0.3c-0.2-0.1-0.4-0.1-0.6-0.1c-0.4,0-0.6,0.1-0.8,0.2
		c-0.2,0.2-0.3,0.4-0.3,0.6c0,0.2,0.1,0.4,0.2,0.5c0.2,0.1,0.5,0.2,0.9,0.3c0.7,0.2,1.2,0.4,1.6,0.6s0.5,0.6,0.5,1
		c0,0.5-0.2,0.9-0.6,1.2c-0.4,0.3-0.9,0.5-1.6,0.5c-0.4,0-0.8,0-1.1-0.1c-0.3-0.1-0.6-0.2-0.9-0.4l0-1.3h0.8l0.2,0.7
		c0.1,0.1,0.3,0.2,0.5,0.2c0.2,0,0.4,0.1,0.6,0.1c0.4,0,0.6-0.1,0.9-0.2s0.3-0.3,0.3-0.6c0-0.2-0.1-0.4-0.3-0.6s-0.5-0.3-1-0.4
		c-0.7-0.1-1.2-0.3-1.5-0.6s-0.5-0.6-0.5-1c0-0.5,0.2-0.8,0.6-1.2c0.4-0.3,0.9-0.5,1.5-0.5c0.4,0,0.8,0.1,1.1,0.2s0.6,0.3,0.8,0.5
		L454.4,42.2z"/>
	<path class="st1" d="M459.5,45.2c-0.2,0.3-0.4,0.5-0.7,0.7c-0.3,0.2-0.6,0.2-1,0.2c-0.6,0-1.1-0.2-1.4-0.6c-0.3-0.4-0.5-1-0.5-1.8
		v-2.5l-0.6-0.1v-0.7h0.6h1v3.3c0,0.6,0.1,1,0.3,1.2c0.2,0.2,0.5,0.3,0.8,0.3c0.4,0,0.7-0.1,0.9-0.2c0.2-0.1,0.4-0.4,0.5-0.6v-3.2
		l-0.8-0.1v-0.7h0.8h1v4.8l0.6,0.1V46h-1.6L459.5,45.2z"/>
	<path class="st1" d="M465.6,46c0-0.2-0.1-0.3-0.1-0.4c0-0.1,0-0.2,0-0.4c-0.2,0.3-0.4,0.5-0.7,0.6c-0.3,0.2-0.6,0.3-0.9,0.3
		c-0.6,0-1-0.1-1.3-0.4c-0.3-0.3-0.5-0.7-0.5-1.2c0-0.5,0.2-0.9,0.6-1.2c0.4-0.3,1-0.4,1.8-0.4h1v-0.7c0-0.3-0.1-0.6-0.3-0.8
		c-0.2-0.2-0.5-0.3-0.9-0.3c-0.3,0-0.5,0-0.7,0.1c-0.2,0.1-0.4,0.2-0.5,0.3l-0.1,0.6h-0.8V41c0.3-0.2,0.6-0.4,0.9-0.5
		c0.4-0.1,0.8-0.2,1.2-0.2c0.6,0,1.1,0.2,1.5,0.5c0.4,0.3,0.6,0.8,0.6,1.4v2.7c0,0.1,0,0.1,0,0.2c0,0.1,0,0.1,0,0.2l0.4,0.1V46
		H465.6z M464,45.3c0.3,0,0.6-0.1,0.9-0.2s0.5-0.4,0.6-0.6v-0.9h-1.1c-0.4,0-0.7,0.1-1,0.3c-0.2,0.2-0.4,0.4-0.4,0.7
		c0,0.2,0.1,0.4,0.2,0.6S463.7,45.3,464,45.3z"/>
	<path class="st1" d="M467.6,38.6V38h1.9v7.3l0.8,0.1V46h-2.7v-0.7l0.8-0.1v-6.5L467.6,38.6z"/>
	<path class="st1" d="M471,38.6V38h1.9v7.3l0.8,0.1V46H471v-0.7l0.8-0.1v-6.5L471,38.6z"/>
	<path class="st1" d="M479.8,41.1l-0.5,0.1l-2.1,5.7c-0.1,0.4-0.3,0.7-0.6,1s-0.6,0.4-1.1,0.4c-0.1,0-0.2,0-0.3,0
		c-0.1,0-0.2,0-0.3-0.1l0.1-0.8c0,0,0,0,0.2,0c0.1,0,0.2,0,0.3,0c0.2,0,0.4-0.1,0.5-0.3c0.1-0.2,0.3-0.4,0.4-0.6l0.2-0.6l-1.8-4.7
		l-0.5-0.1v-0.7h2.3v0.7l-0.6,0.1l1,2.8l0.2,0.7h0l1.2-3.5l-0.6-0.1v-0.7h2.3V41.1z"/>
	<path class="st1" d="M484.5,41.8h0.9c0.5,0,0.8-0.1,1-0.3c0.2-0.2,0.3-0.5,0.3-0.9c0-0.4-0.1-0.8-0.3-1c-0.2-0.2-0.5-0.3-0.9-0.3
		c-0.4,0-0.7,0.1-1,0.3c-0.2,0.2-0.4,0.5-0.4,0.9h-1l0,0c0-0.6,0.2-1.1,0.6-1.5c0.4-0.4,1-0.6,1.7-0.6c0.7,0,1.3,0.2,1.7,0.6
		c0.4,0.4,0.6,0.9,0.6,1.6c0,0.3-0.1,0.6-0.3,0.9c-0.2,0.3-0.5,0.5-0.8,0.7c0.5,0.1,0.8,0.4,1,0.7c0.2,0.3,0.3,0.7,0.3,1.1
		c0,0.7-0.2,1.2-0.7,1.6c-0.5,0.4-1,0.6-1.7,0.6c-0.7,0-1.3-0.2-1.7-0.6s-0.7-0.9-0.6-1.5l0,0h1c0,0.4,0.1,0.7,0.4,0.9
		c0.2,0.2,0.6,0.4,1,0.4c0.4,0,0.8-0.1,1-0.4s0.4-0.6,0.4-1c0-0.5-0.1-0.8-0.3-1c-0.2-0.2-0.6-0.3-1-0.3h-0.9V41.8z"/>
	<path class="st1" d="M490.1,46h-1v-1h1V46z"/>
	<path class="st1" d="M492.8,41.8h0.9c0.5,0,0.8-0.1,1-0.3c0.2-0.2,0.3-0.5,0.3-0.9c0-0.4-0.1-0.8-0.3-1c-0.2-0.2-0.5-0.3-0.9-0.3
		c-0.4,0-0.7,0.1-1,0.3c-0.2,0.2-0.4,0.5-0.4,0.9h-1l0,0c0-0.6,0.2-1.1,0.6-1.5c0.4-0.4,1-0.6,1.7-0.6c0.7,0,1.3,0.2,1.7,0.6
		c0.4,0.4,0.6,0.9,0.6,1.6c0,0.3-0.1,0.6-0.3,0.9c-0.2,0.3-0.5,0.5-0.8,0.7c0.5,0.1,0.8,0.4,1,0.7c0.2,0.3,0.3,0.7,0.3,1.1
		c0,0.7-0.2,1.2-0.7,1.6c-0.4,0.4-1,0.6-1.7,0.6c-0.7,0-1.3-0.2-1.7-0.6s-0.7-0.9-0.6-1.5l0,0h1c0,0.4,0.1,0.7,0.4,0.9
		s0.6,0.4,1,0.4c0.4,0,0.8-0.1,1-0.4c0.2-0.2,0.4-0.6,0.4-1c0-0.5-0.1-0.8-0.3-1c-0.2-0.2-0.6-0.3-1-0.3h-0.9V41.8z"/>
</g>
<g class="st4">
	<path class="st1" d="M499.2,39.2l-0.7,0.1l1.7,4.9l0.2,0.6h0l0.2-0.6l1.7-4.9l-0.7-0.1v-0.7h2.4v0.7l-0.6,0.1l-2.5,6.8H500
		l-2.5-6.8l-0.6-0.1v-0.7h2.4V39.2z"/>
</g>
<g class="st4">
	<path class="st1" d="M507.1,43c0,1.4-0.3,2.5-0.8,3.5c-0.5,1-1.1,1.6-1.7,1.9h0l-0.2-0.6c0.5-0.4,0.9-1,1.2-1.8s0.5-1.8,0.5-3V43
		c0-1.2-0.2-2.2-0.5-3c-0.4-0.8-0.8-1.4-1.2-1.8l0.2-0.6h0c0.6,0.3,1.2,1,1.7,1.9S507.1,41.6,507.1,43L507.1,43z"/>
</g>
</svg>
