<svg id="Layer_1" data-name="Layer 1" xmlns="http://www.w3.org/2000/svg" viewBox="0 0 578.5 131.23"><defs><style>.cls-1,.cls-13{fill:#be1e2d;}.cls-10,.cls-12,.cls-2,.cls-5{fill:#00aeef;}.cls-3,.cls-6{font-size:16.14px;font-family:RobotoSlab-Regular, Roboto Slab;}.cls-17,.cls-3,.cls-8,.cls-9{fill:#231f20;}.cls-4,.cls-9{letter-spacing:-0.01em;}.cls-5,.cls-7{letter-spacing:-0.01em;}.cls-18,.cls-6{fill:#00a651;}.cls-10{letter-spacing:-0.01em;}.cls-11{fill:#f15a29;}.cls-11,.cls-12,.cls-13,.cls-14,.cls-15,.cls-16,.cls-17,.cls-18{stroke:#231f20;stroke-miterlimit:10;stroke-width:0.81px;}.cls-14{fill:none;}.cls-15{fill:#2e3192;}.cls-16{fill:#ec008c;}.cls-19{font-size:11.3px;fill:#fff;font-family:Consolas, Consolas;}.cls-20{letter-spacing:0.35em;}.cls-21{letter-spacing:0.3em;}.cls-22{letter-spacing:0.15em;}.cls-23{letter-spacing:0.2em;}.cls-24{letter-spacing:0.15em;}.cls-25{letter-spacing:-0.17em;}.cls-26{letter-spacing:-0.04em;}.cls-27{letter-spacing:0.1em;}.cls-28{letter-spacing:0.14em;}.cls-29{letter-spacing:0.16em;}.cls-30{letter-spacing:0.2em;}.cls-31{letter-spacing:0em;}.cls-32{letter-spacing:0.1em;}.cls-33{letter-spacing:0em;}.cls-34{letter-spacing:0.2em;}.cls-35{letter-spacing:-0.08em;}.cls-36{letter-spacing:-0.1em;}.cls-37{letter-spacing:0.9em;}.cls-38{letter-spacing:-1.01em;}.cls-39{letter-spacing:1.49em;}.cls-40{letter-spacing:-0.29em;}.cls-41{letter-spacing:0.59em;}.cls-42{letter-spacing:-0.02em;}.cls-43{letter-spacing:-0.15em;}.cls-44{letter-spacing:-0.07em;}.cls-45{letter-spacing:-0.24em;}.cls-46{letter-spacing:0.09em;}.cls-47{letter-spacing:-0.04em;}.cls-48{letter-spacing:0.7em;}.cls-49{letter-spacing:-0.05em;}.cls-50{letter-spacing:0.09em;}.cls-51{letter-spacing:0.64em;}.cls-52{letter-spacing:0.34em;}.cls-53{letter-spacing:-0.01em;}.cls-54{letter-spacing:0.19em;}.cls-55{letter-spacing:-0.26em;}.cls-56{letter-spacing:0.01em;}.cls-57{letter-spacing:0.02em;}.cls-58{letter-spacing:0.01em;}</style></defs><title>i2c-function-mapping</title><rect class="cls-1" x="259.39" y="36.39" width="163.33" height="20.44"/><rect class="cls-2" x="75.64" y="36.39" width="142.91" height="20.44"/><text class="cls-3" transform="translate(55.23 24.96)">I2c.Read<tspan class="cls-4" x="64.89" y="0">W</tspan><tspan x="79.77" y="0">rite(</tspan><tspan class="cls-2" x="111.56" y="0">add</tspan><tspan class="cls-5" x="139.81" y="0">r</tspan><tspan class="cls-2" x="146.34" y="0">ess</tspan><tspan x="171.47" y="0">, </tspan><tspan class="cls-1" x="178.67" y="0">writeData</tspan><tspan x="253.44" y="0">, 0</tspan><tspan x="269.84" y="0">)</tspan></text><text class="cls-6" transform="translate(55.23 91)"><tspan class="cls-7">r</tspan><tspan x="6.52" y="0">eadData</tspan><tspan class="cls-8" x="68.65" y="0" xml:space="preserve"> = I2c.Read</tspan><tspan class="cls-9" x="150.44" y="0">W</tspan><tspan class="cls-8" x="165.32" y="0">rite(</tspan><tspan class="cls-2" x="197.11" y="0">add</tspan><tspan class="cls-10" x="225.36" y="0">r</tspan><tspan class="cls-2" x="231.89" y="0">ess</tspan><tspan class="cls-8" x="257.02" y="0">, </tspan><tspan class="cls-1" x="264.22" y="0">writeData, </tspan><tspan class="cls-8" x="346.19" y="0">2</tspan><tspan class="cls-8" x="355.1" y="0">)</tspan></text><rect class="cls-11" x="55.23" y="36.39" width="20.42" height="20.44"/><rect class="cls-11" x="55.23" y="98.12" width="20.42" height="20.44"/><rect class="cls-12" x="75.64" y="98.12" width="56.47" height="20.44"/><rect class="cls-13" x="172.62" y="98.12" width="56.47" height="20.44"/><rect class="cls-14" x="75.64" y="36.39" width="20.42" height="20.44"/><rect class="cls-14" x="96.06" y="36.39" width="20.42" height="20.44"/><rect class="cls-14" x="116.47" y="36.39" width="20.42" height="20.44"/><rect class="cls-14" x="136.89" y="36.39" width="20.42" height="20.44"/><rect class="cls-14" x="157.31" y="36.39" width="20.42" height="20.44"/><rect class="cls-14" x="177.72" y="36.39" width="20.42" height="20.44"/><rect class="cls-14" x="198.14" y="36.39" width="20.42" height="20.44"/><rect class="cls-15" x="218.55" y="36.39" width="20.42" height="20.44"/><rect class="cls-15" x="132.11" y="98.12" width="20.42" height="20.44"/><rect class="cls-11" x="248.85" y="98.12" width="20.42" height="20.44"/><rect class="cls-12" x="269.27" y="98.12" width="56.47" height="20.44"/><rect class="cls-15" x="325.74" y="98.12" width="20.42" height="20.44"/><rect class="cls-16" x="238.97" y="36.39" width="20.42" height="20.44"/><rect class="cls-16" x="152.53" y="98.12" width="20.42" height="20.44"/><rect class="cls-14" x="259.39" y="36.39" width="20.42" height="20.44"/><rect class="cls-14" x="279.8" y="36.39" width="20.42" height="20.44"/><rect class="cls-14" x="300.22" y="36.39" width="20.42" height="20.44"/><rect class="cls-14" x="320.64" y="36.39" width="20.42" height="20.44"/><rect class="cls-14" x="341.05" y="36.39" width="20.42" height="20.44"/><rect class="cls-14" x="361.47" y="36.39" width="20.42" height="20.44"/><rect class="cls-14" x="381.88" y="36.39" width="20.42" height="20.44"/><rect class="cls-14" x="402.3" y="36.39" width="20.42" height="20.44"/><rect class="cls-16" x="422.72" y="36.39" width="20.42" height="20.44"/><rect class="cls-17" x="443.13" y="36.39" width="20.42" height="20.44"/><rect class="cls-17" x="497.76" y="98.12" width="20.42" height="20.44"/><rect class="cls-16" x="228.44" y="98.12" width="20.42" height="20.44"/><rect class="cls-18" x="346.16" y="98.12" width="56.47" height="20.44"/><rect class="cls-16" x="401.98" y="98.12" width="20.42" height="20.44"/><rect class="cls-18" x="421.53" y="98.12" width="56.47" height="20.44"/><rect class="cls-16" x="477.35" y="98.12" width="20.42" height="20.44"/><text class="cls-19" transform="translate(62.49 50.37)"><tspan class="cls-20">S</tspan><tspan x="10.17" y="0" xml:space="preserve"> A</tspan><tspan class="cls-21" x="22.59" y="0">6</tspan><tspan x="32.19" y="0" xml:space="preserve"> A5</tspan><tspan class="cls-22" x="50.82" y="0"> </tspan><tspan x="58.73" y="0">A4</tspan><tspan class="cls-23" x="71.15" y="0"> </tspan><tspan x="79.62" y="0">A3</tspan><tspan class="cls-22" x="92.05" y="0"> </tspan><tspan x="99.95" y="0">A2</tspan><tspan class="cls-24" x="112.38" y="0"> </tspan><tspan x="120.28" y="0">A1</tspan><tspan class="cls-22" x="132.7" y="0"> </tspan><tspan x="140.61" y="0">A0</tspan><tspan class="cls-21" x="153.03" y="0"> </tspan><tspan class="cls-20" x="162.63" y="0">0</tspan><tspan class="cls-25" x="172.8" y="0"> </tspan><tspan class="cls-26" x="177.09" y="0">ACK</tspan><tspan class="cls-27" x="194.37" y="0"> </tspan><tspan x="201.71" y="0">D7</tspan><tspan class="cls-28" x="214.13" y="0"> </tspan><tspan x="221.93" y="0">D6</tspan><tspan class="cls-29" x="234.35" y="0"> </tspan><tspan x="242.37" y="0">D5</tspan><tspan class="cls-28" x="254.79" y="0"> </tspan><tspan x="262.58" y="0">D4</tspan><tspan class="cls-30" x="275.01" y="0"> </tspan><tspan class="cls-31" x="283.48" y="0">D3</tspan><tspan class="cls-32" x="295.9" y="0"> </tspan><tspan class="cls-33" x="303.24" y="0">D2</tspan><tspan class="cls-34" x="315.66" y="0"> </tspan><tspan x="324.13" y="0">D1</tspan><tspan class="cls-27" x="336.56" y="0"> </tspan><tspan x="343.9" y="0">D0</tspan><tspan class="cls-35" x="356.32" y="0"> </tspan><tspan class="cls-26" x="361.63" y="0">ACK</tspan><tspan class="cls-29" x="378.9" y="0"> </tspan><tspan class="cls-26" x="386.92" y="0">P</tspan></text><text class="cls-19" transform="translate(61.68 112.1)"><tspan class="cls-36">S</tspan><tspan class="cls-37" x="5.08" y="0"> </tspan><tspan x="21.47" y="0">addres</tspan><tspan class="cls-38" x="58.74" y="0">s</tspan><tspan class="cls-39" x="53.54" y="0"> </tspan><tspan class="cls-40" x="76.59" y="0">0</tspan><tspan class="cls-41" x="79.52" y="0"> </tspan><tspan class="cls-26" x="92.4" y="0">AC</tspan><tspan class="cls-42" x="103.92" y="0">K</tspan><tspan class="cls-43" x="109.9" y="0"> </tspan><tspan class="cls-44" x="114.42" y="0">writeDat</tspan><tspan class="cls-45" x="157.6" y="0">a</tspan><tspan class="cls-46" x="161.14" y="0"> </tspan><tspan class="cls-47" x="168.37" y="0">ACK</tspan></text><text class="cls-19" transform="translate(255.19 112.1)"><tspan class="cls-48">S</tspan><tspan class="cls-49" x="14.12" y="0"> </tspan><tspan x="19.78" y="0">addres</tspan><tspan class="cls-50" x="57.05" y="0">s</tspan><tspan class="cls-51" x="64.27" y="0"> </tspan><tspan class="cls-47" x="77.72" y="0">1</tspan><tspan class="cls-52" x="83.48" y="0"> </tspan><tspan class="cls-53" x="93.53" y="0">readDat</tspan><tspan class="cls-54" x="136.06" y="0">a</tspan><tspan class="cls-55" x="144.39" y="0"> </tspan><tspan class="cls-26" x="147.67" y="0">ACK</tspan><tspan class="cls-56" x="164.94" y="0"> </tspan><tspan class="cls-26" x="171.27" y="0">readData</tspan><tspan class="cls-57" x="217.34" y="0"> </tspan><tspan class="cls-26" x="223.78" y="0">ACK</tspan><tspan class="cls-29" x="241.05" y="0"> </tspan><tspan class="cls-58" x="249.07" y="0">P</tspan></text></svg>