<?xml version="1.0" encoding="utf-8"?>
<!-- Generator: Adobe Illustrator 22.0.2, SVG Export Plug-In . SVG Version: 6.00 Build 0)  -->
<svg version="1.1" id="Layer_1" xmlns="http://www.w3.org/2000/svg" xmlns:xlink="http://www.w3.org/1999/xlink" x="0px" y="0px"
	 viewBox="0 0 578.5 71.2" style="enable-background:new 0 0 578.5 71.2;" xml:space="preserve">
<style type="text/css">
	.st0{fill:#F15A29;stroke:#231F20;stroke-width:0.81;stroke-miterlimit:10;}
	.st1{fill:#00AEEF;stroke:#231F20;stroke-width:0.81;stroke-miterlimit:10;}
	.st2{fill:#BE1E2D;stroke:#231F20;stroke-width:0.81;stroke-miterlimit:10;}
	.st3{fill:#2E3192;stroke:#231F20;stroke-width:0.81;stroke-miterlimit:10;}
	.st4{fill:#EC008C;stroke:#231F20;stroke-width:0.81;stroke-miterlimit:10;}
	.st5{fill:#231F20;stroke:#231F20;stroke-width:0.81;stroke-miterlimit:10;}
	.st6{fill:#00A651;stroke:#231F20;stroke-width:0.81;stroke-miterlimit:10;}
	.st7{enable-background:new    ;}
	.st8{fill:#FFFFFF;}
	.st9{fill:#231F20;}
</style>
<title>i2c-function-mapping</title>
<rect x="55.2" y="14.6" class="st0" width="20.4" height="20.4"/>
<rect x="55.2" y="45.3" class="st0" width="20.4" height="20.4"/>
<rect x="75.6" y="14.6" class="st1" width="56.5" height="20.4"/>
<rect x="172.6" y="14.6" class="st2" width="56.5" height="20.4"/>
<rect x="132.1" y="14.6" class="st3" width="20.4" height="20.4"/>
<rect x="248.9" y="14.6" class="st0" width="20.4" height="20.4"/>
<rect x="269.3" y="14.6" class="st1" width="56.5" height="20.4"/>
<rect x="325.7" y="14.6" class="st3" width="20.4" height="20.4"/>
<rect x="152.5" y="14.6" class="st4" width="20.4" height="20.4"/>
<rect x="497.8" y="14.6" class="st5" width="20.4" height="20.4"/>
<rect x="228.4" y="14.6" class="st4" width="20.4" height="20.4"/>
<rect x="346.2" y="14.6" class="st6" width="56.5" height="20.4"/>
<rect x="402" y="14.6" class="st4" width="20.4" height="20.4"/>
<rect x="421.5" y="14.6" class="st6" width="56.5" height="20.4"/>
<rect x="477.4" y="14.6" class="st4" width="20.4" height="20.4"/>
<g class="st7">
	<path class="st8" d="M67.2,26.6c0,0.3-0.1,0.6-0.2,0.9c-0.1,0.3-0.3,0.5-0.6,0.6s-0.6,0.3-0.9,0.4c-0.4,0.1-0.7,0.1-1.2,0.1
		c-0.2,0-0.4,0-0.6,0s-0.4,0-0.5-0.1c-0.2,0-0.3,0-0.5-0.1c-0.2,0-0.3-0.1-0.4-0.1v-0.9c0.3,0.1,0.6,0.2,0.9,0.2
		c0.3,0.1,0.7,0.1,1.2,0.1c0.3,0,0.6,0,0.8-0.1c0.2,0,0.4-0.1,0.5-0.2c0.1-0.1,0.2-0.2,0.3-0.4c0.1-0.1,0.1-0.3,0.1-0.5
		c0-0.2-0.1-0.4-0.2-0.5s-0.3-0.3-0.4-0.4c-0.2-0.1-0.4-0.2-0.6-0.3c-0.2-0.1-0.5-0.2-0.7-0.3s-0.5-0.2-0.7-0.3
		c-0.2-0.1-0.4-0.2-0.6-0.4c-0.2-0.2-0.3-0.3-0.4-0.5c-0.1-0.2-0.2-0.5-0.2-0.7c0-0.2,0.1-0.5,0.2-0.7c0.1-0.2,0.3-0.5,0.5-0.6
		c0.2-0.2,0.5-0.3,0.8-0.4c0.3-0.1,0.7-0.2,1.2-0.2c0.1,0,0.3,0,0.4,0c0.1,0,0.3,0,0.4,0c0.1,0,0.3,0,0.4,0.1c0.1,0,0.3,0.1,0.4,0.1
		v0.9c-0.3-0.1-0.6-0.1-0.8-0.2s-0.6-0.1-0.8-0.1c-0.6,0-1,0.1-1.2,0.3c-0.3,0.2-0.4,0.4-0.4,0.8c0,0.2,0.1,0.4,0.2,0.5
		s0.3,0.3,0.4,0.4s0.4,0.2,0.6,0.3c0.2,0.1,0.5,0.2,0.7,0.3c0.2,0.1,0.5,0.2,0.7,0.3c0.2,0.1,0.4,0.2,0.6,0.4s0.3,0.3,0.4,0.5
		C67.1,26.1,67.2,26.4,67.2,26.6z"/>
</g>
<g class="st7">
	<path class="st8" d="M67.2,57.6c0,0.3-0.1,0.6-0.2,0.9c-0.1,0.3-0.3,0.5-0.6,0.6s-0.6,0.3-0.9,0.4c-0.4,0.1-0.7,0.1-1.2,0.1
		c-0.2,0-0.4,0-0.6,0s-0.4,0-0.5-0.1c-0.2,0-0.3,0-0.5-0.1c-0.2,0-0.3-0.1-0.4-0.1v-0.9c0.3,0.1,0.6,0.2,0.9,0.2
		c0.3,0.1,0.7,0.1,1.2,0.1c0.3,0,0.6,0,0.8-0.1c0.2,0,0.4-0.1,0.5-0.2c0.1-0.1,0.2-0.2,0.3-0.4c0.1-0.1,0.1-0.3,0.1-0.5
		c0-0.2-0.1-0.4-0.2-0.5s-0.3-0.3-0.4-0.4c-0.2-0.1-0.4-0.2-0.6-0.3c-0.2-0.1-0.5-0.2-0.7-0.3s-0.5-0.2-0.7-0.3
		c-0.2-0.1-0.4-0.2-0.6-0.4c-0.2-0.2-0.3-0.3-0.4-0.5c-0.1-0.2-0.2-0.5-0.2-0.7c0-0.2,0.1-0.5,0.2-0.7c0.1-0.2,0.3-0.5,0.5-0.6
		c0.2-0.2,0.5-0.3,0.8-0.4c0.3-0.1,0.7-0.2,1.2-0.2c0.1,0,0.3,0,0.4,0c0.1,0,0.3,0,0.4,0c0.1,0,0.3,0,0.4,0.1c0.1,0,0.3,0.1,0.4,0.1
		v0.9c-0.3-0.1-0.6-0.1-0.8-0.2s-0.6-0.1-0.8-0.1c-0.6,0-1,0.1-1.2,0.3c-0.3,0.2-0.4,0.4-0.4,0.8c0,0.2,0.1,0.4,0.2,0.5
		s0.3,0.3,0.4,0.4s0.4,0.2,0.6,0.3c0.2,0.1,0.5,0.2,0.7,0.3c0.2,0.1,0.5,0.2,0.7,0.3c0.2,0.1,0.4,0.2,0.6,0.4s0.3,0.3,0.4,0.5
		C67.1,57.1,67.2,57.4,67.2,57.6z"/>
</g>
<g class="st7">
	<path class="st8" d="M87.6,28.6l0-0.7c-0.3,0.3-0.6,0.5-0.9,0.6c-0.3,0.1-0.6,0.2-1,0.2c-0.3,0-0.6,0-0.8-0.1
		c-0.2-0.1-0.4-0.2-0.6-0.3c-0.1-0.1-0.3-0.3-0.3-0.5c-0.1-0.2-0.1-0.4-0.1-0.6c0-0.6,0.2-1,0.6-1.3c0.4-0.3,1-0.5,1.8-0.5h1.1v-0.5
		c0-0.3-0.1-0.6-0.3-0.8c-0.2-0.2-0.5-0.3-1-0.3c-0.3,0-0.6,0-0.9,0.1c-0.3,0.1-0.6,0.2-0.9,0.3v-0.9c0.1,0,0.3-0.1,0.4-0.1
		c0.1,0,0.3-0.1,0.5-0.1s0.3-0.1,0.5-0.1s0.4,0,0.5,0c0.3,0,0.6,0,0.9,0.1c0.3,0.1,0.5,0.2,0.7,0.3c0.2,0.2,0.3,0.3,0.4,0.6
		c0.1,0.2,0.1,0.5,0.1,0.8v3.8H87.6z M87.5,26.1h-1.2c-0.2,0-0.4,0-0.6,0.1s-0.3,0.1-0.4,0.2c-0.1,0.1-0.2,0.2-0.2,0.3
		c-0.1,0.1-0.1,0.3-0.1,0.4c0,0.1,0,0.2,0,0.3c0,0.1,0.1,0.2,0.2,0.3c0.1,0.1,0.2,0.1,0.3,0.2c0.1,0,0.3,0.1,0.4,0.1
		c0.2,0,0.5-0.1,0.8-0.2c0.3-0.1,0.6-0.3,0.9-0.6V26.1z"/>
	<path class="st8" d="M90,25.9c0-0.5,0.1-0.9,0.2-1.3s0.3-0.7,0.5-0.9c0.2-0.3,0.5-0.4,0.9-0.6c0.3-0.1,0.7-0.2,1.1-0.2
		c0.2,0,0.4,0,0.5,0c0.2,0,0.3,0.1,0.5,0.1v-2.3h1v7.8h-0.9l0-1c-0.3,0.4-0.6,0.7-0.9,0.9c-0.3,0.2-0.7,0.3-1,0.3
		c-0.3,0-0.6-0.1-0.8-0.2c-0.2-0.1-0.4-0.3-0.6-0.6c-0.2-0.2-0.3-0.5-0.4-0.9C90,26.7,90,26.4,90,25.9z M90.9,25.9
		c0,0.7,0.1,1.2,0.3,1.5s0.5,0.5,0.8,0.5c0.2,0,0.5-0.1,0.8-0.3c0.3-0.2,0.6-0.5,0.9-1V24c-0.2-0.1-0.3-0.1-0.5-0.2
		c-0.2,0-0.4-0.1-0.6-0.1c-0.5,0-0.9,0.2-1.2,0.5C91.1,24.6,90.9,25.2,90.9,25.9z"/>
	<path class="st8" d="M96.2,25.9c0-0.5,0.1-0.9,0.2-1.3s0.3-0.7,0.5-0.9c0.2-0.3,0.5-0.4,0.9-0.6c0.3-0.1,0.7-0.2,1.1-0.2
		c0.2,0,0.4,0,0.5,0c0.2,0,0.3,0.1,0.5,0.1v-2.3h1v7.8H100l0-1c-0.3,0.4-0.6,0.7-0.9,0.9c-0.3,0.2-0.7,0.3-1,0.3
		c-0.3,0-0.6-0.1-0.8-0.2c-0.2-0.1-0.4-0.3-0.6-0.6c-0.2-0.2-0.3-0.5-0.4-0.9C96.2,26.7,96.2,26.4,96.2,25.9z M97.2,25.9
		c0,0.7,0.1,1.2,0.3,1.5s0.5,0.5,0.8,0.5c0.2,0,0.5-0.1,0.8-0.3c0.3-0.2,0.6-0.5,0.9-1V24c-0.2-0.1-0.3-0.1-0.5-0.2
		c-0.2,0-0.4-0.1-0.6-0.1c-0.5,0-0.9,0.2-1.2,0.5C97.3,24.6,97.2,25.2,97.2,25.9z"/>
	<path class="st8" d="M102.9,23.1h0.9l0,1c0.3-0.4,0.7-0.7,1-0.9c0.3-0.2,0.6-0.3,1-0.3c0.6,0,1,0.2,1.3,0.6
		c0.3,0.4,0.4,0.9,0.4,1.7h-1c0-0.5-0.1-0.8-0.2-1.1c-0.2-0.2-0.4-0.3-0.7-0.3c-0.1,0-0.3,0-0.4,0.1c-0.1,0-0.3,0.1-0.4,0.2
		c-0.1,0.1-0.3,0.2-0.4,0.4c-0.2,0.2-0.3,0.3-0.5,0.6v3.6h-1V23.1z"/>
	<path class="st8" d="M113.6,25.5c0,0.1,0,0.3,0,0.3c0,0.1,0,0.2,0,0.3h-3.9c0,0.6,0.2,1,0.5,1.3c0.3,0.3,0.8,0.5,1.4,0.5
		c0.2,0,0.3,0,0.5,0c0.2,0,0.3,0,0.5-0.1s0.3,0,0.4-0.1c0.1,0,0.3-0.1,0.4-0.1v0.8c-0.3,0.1-0.6,0.1-0.9,0.2c-0.3,0-0.7,0.1-1,0.1
		c-0.5,0-0.9-0.1-1.2-0.2c-0.3-0.1-0.6-0.3-0.8-0.6c-0.2-0.2-0.4-0.5-0.5-0.9c-0.1-0.4-0.2-0.8-0.2-1.2c0-0.4,0.1-0.8,0.2-1.1
		c0.1-0.3,0.3-0.7,0.5-0.9c0.2-0.3,0.5-0.5,0.8-0.6s0.7-0.2,1.1-0.2c0.4,0,0.7,0.1,1,0.2c0.3,0.1,0.5,0.3,0.8,0.5
		c0.2,0.2,0.4,0.5,0.5,0.8C113.5,24.8,113.6,25.1,113.6,25.5z M112.6,25.4c0-0.2,0-0.5-0.1-0.7c-0.1-0.2-0.1-0.4-0.3-0.5
		c-0.1-0.1-0.3-0.3-0.5-0.3c-0.2-0.1-0.4-0.1-0.6-0.1c-0.2,0-0.4,0-0.6,0.1c-0.2,0.1-0.3,0.2-0.4,0.3c-0.1,0.1-0.2,0.3-0.3,0.5
		c-0.1,0.2-0.1,0.4-0.1,0.7H112.6z"/>
	<path class="st8" d="M119.5,27.1c0,0.2,0,0.4-0.1,0.5c-0.1,0.2-0.2,0.3-0.3,0.4c-0.1,0.1-0.2,0.2-0.4,0.3c-0.2,0.1-0.3,0.2-0.5,0.2
		c-0.2,0.1-0.3,0.1-0.5,0.1s-0.4,0-0.5,0c-0.4,0-0.7,0-1,0s-0.6-0.1-0.9-0.2v-0.9c0.3,0.1,0.6,0.2,1,0.2c0.3,0,0.6,0.1,1,0.1
		c0.5,0,0.8-0.1,1-0.2s0.3-0.3,0.3-0.5c0-0.1,0-0.2-0.1-0.3s-0.1-0.2-0.2-0.2c-0.1-0.1-0.2-0.1-0.4-0.2c-0.2-0.1-0.5-0.2-0.8-0.3
		c-0.3-0.1-0.5-0.2-0.7-0.3s-0.4-0.2-0.5-0.3c-0.2-0.1-0.3-0.3-0.4-0.5s-0.1-0.4-0.1-0.6c0-0.2,0-0.3,0.1-0.5
		c0.1-0.2,0.2-0.4,0.4-0.5s0.4-0.3,0.7-0.4c0.3-0.1,0.7-0.2,1.1-0.2c0.2,0,0.5,0,0.7,0c0.3,0,0.5,0.1,0.8,0.1V24
		c-0.3-0.1-0.6-0.1-0.9-0.2c-0.3,0-0.5-0.1-0.7-0.1c-0.2,0-0.4,0-0.6,0.1c-0.2,0-0.3,0.1-0.4,0.2s-0.2,0.1-0.2,0.2
		c0,0.1-0.1,0.2-0.1,0.3s0,0.2,0.1,0.3c0,0.1,0.1,0.2,0.2,0.2c0.1,0.1,0.3,0.2,0.4,0.2c0.2,0.1,0.4,0.2,0.7,0.2
		c0.3,0.1,0.6,0.2,0.8,0.3c0.2,0.1,0.4,0.2,0.5,0.4c0.1,0.1,0.2,0.3,0.3,0.4S119.5,26.9,119.5,27.1z"/>
</g>
<g class="st7">
	<path class="st8" d="M125.7,27.1c0,0.2,0,0.4-0.1,0.5c-0.1,0.2-0.2,0.3-0.3,0.4c-0.1,0.1-0.2,0.2-0.4,0.3c-0.2,0.1-0.3,0.2-0.5,0.2
		c-0.2,0.1-0.3,0.1-0.5,0.1s-0.4,0-0.5,0c-0.4,0-0.7,0-1,0s-0.6-0.1-0.9-0.2v-0.9c0.3,0.1,0.6,0.2,1,0.2c0.3,0,0.6,0.1,1,0.1
		c0.5,0,0.8-0.1,1-0.2s0.3-0.3,0.3-0.5c0-0.1,0-0.2-0.1-0.3s-0.1-0.2-0.2-0.2c-0.1-0.1-0.2-0.1-0.4-0.2c-0.2-0.1-0.5-0.2-0.8-0.3
		c-0.3-0.1-0.5-0.2-0.7-0.3s-0.4-0.2-0.5-0.3c-0.2-0.1-0.3-0.3-0.4-0.5s-0.1-0.4-0.1-0.6c0-0.2,0-0.3,0.1-0.5
		c0.1-0.2,0.2-0.4,0.4-0.5s0.4-0.3,0.7-0.4c0.3-0.1,0.7-0.2,1.1-0.2c0.2,0,0.5,0,0.7,0c0.3,0,0.5,0.1,0.8,0.1V24
		c-0.3-0.1-0.6-0.1-0.9-0.2c-0.3,0-0.5-0.1-0.7-0.1c-0.2,0-0.4,0-0.6,0.1c-0.2,0-0.3,0.1-0.4,0.2s-0.2,0.1-0.2,0.2
		c0,0.1-0.1,0.2-0.1,0.3s0,0.2,0.1,0.3c0,0.1,0.1,0.2,0.2,0.2c0.1,0.1,0.3,0.2,0.4,0.2c0.2,0.1,0.4,0.2,0.7,0.2
		c0.3,0.1,0.6,0.2,0.8,0.3c0.2,0.1,0.4,0.2,0.5,0.4c0.1,0.1,0.2,0.3,0.3,0.4S125.7,26.9,125.7,27.1z"/>
</g>
<g class="st7">
	<path class="st8" d="M144,25c0,0.6-0.1,1.1-0.2,1.5s-0.3,0.8-0.5,1.2c-0.2,0.3-0.5,0.6-0.8,0.8c-0.3,0.2-0.7,0.3-1.2,0.3
		c-0.4,0-0.7-0.1-1.1-0.2c-0.3-0.1-0.6-0.4-0.8-0.7c-0.2-0.3-0.4-0.7-0.5-1.2c-0.1-0.5-0.2-1-0.2-1.7c0-0.6,0.1-1.1,0.2-1.5
		c0.1-0.5,0.3-0.8,0.5-1.2c0.2-0.3,0.5-0.6,0.8-0.8c0.3-0.2,0.7-0.3,1.2-0.3c0.4,0,0.7,0.1,1.1,0.2s0.6,0.4,0.8,0.7
		c0.2,0.3,0.4,0.7,0.5,1.2C143.9,23.8,144,24.4,144,25z M139.7,25c0,0.1,0,0.2,0,0.3s0,0.2,0,0.3l3.1-2.3c-0.1-0.2-0.1-0.4-0.2-0.5
		c-0.1-0.2-0.2-0.3-0.3-0.4s-0.3-0.2-0.4-0.3c-0.2-0.1-0.3-0.1-0.5-0.1c-0.3,0-0.5,0.1-0.7,0.2s-0.4,0.3-0.5,0.5
		c-0.1,0.2-0.3,0.5-0.3,0.9C139.8,24.1,139.7,24.5,139.7,25z M143,25c0-0.1,0-0.2,0-0.4s0-0.2,0-0.4l-3.1,2.3
		c0.1,0.2,0.1,0.4,0.2,0.5c0.1,0.2,0.2,0.3,0.3,0.4s0.3,0.2,0.4,0.3s0.3,0.1,0.5,0.1c0.3,0,0.5-0.1,0.7-0.2c0.2-0.1,0.4-0.3,0.5-0.5
		c0.1-0.2,0.3-0.5,0.3-0.9C143,25.9,143,25.5,143,25z"/>
</g>
<g class="st7">
	<path class="st8" d="M160.2,28.6h-1.1l-0.5-1.6h-3l-0.5,1.6h-1l2.4-7.2h1.3L160.2,28.6z M158.4,26.1l-1.2-3.9l-1.2,3.9H158.4z"/>
	<path class="st8" d="M165.3,28.3c-0.6,0.2-1.2,0.4-1.8,0.4c-1,0-1.8-0.3-2.3-0.9c-0.5-0.6-0.8-1.5-0.8-2.7c0-0.6,0.1-1.1,0.2-1.6
		s0.4-0.9,0.6-1.2c0.3-0.3,0.6-0.6,1-0.8c0.4-0.2,0.8-0.3,1.3-0.3c0.3,0,0.6,0,0.9,0.1c0.3,0.1,0.6,0.1,0.8,0.3v1
		c-0.3-0.1-0.5-0.3-0.8-0.3c-0.3-0.1-0.6-0.1-0.9-0.1c-0.3,0-0.6,0.1-0.9,0.2s-0.5,0.3-0.7,0.6c-0.2,0.2-0.3,0.5-0.4,0.9
		s-0.2,0.7-0.2,1.2c0,0.9,0.2,1.6,0.6,2.1s0.9,0.7,1.7,0.7c0.3,0,0.6,0,0.9-0.1c0.3-0.1,0.6-0.2,0.8-0.3V28.3z"/>
</g>
<g class="st7">
	<path class="st8" d="M171.4,28.6h-1.2l-2.7-3.5v3.5h-1v-7.2h1v3.3l2.6-3.3h1.2l-2.8,3.4L171.4,28.6z"/>
</g>
<g class="st7">
	<path class="st8" d="M182.1,23.1l-0.8,5.5h-1.2l-0.8-2.3l-0.2-0.6l-0.2,0.6l-0.8,2.3h-1.1l-0.8-5.5h0.9l0.5,3.8l0.1,0.8l0.2-0.7
		l0.8-2.5h0.7l0.9,2.5l0.2,0.7l0.1-0.8l0.4-3.8H182.1z"/>
	<path class="st8" d="M182.6,23.1h0.9l0,1c0.3-0.4,0.7-0.7,1-0.9c0.3-0.2,0.6-0.3,1-0.3c0.6,0,1,0.2,1.3,0.6
		c0.3,0.4,0.4,0.9,0.4,1.7h-1c0-0.5-0.1-0.8-0.2-1.1c-0.2-0.2-0.4-0.3-0.7-0.3c-0.1,0-0.3,0-0.4,0.1c-0.1,0-0.3,0.1-0.4,0.2
		c-0.1,0.1-0.3,0.2-0.4,0.4c-0.2,0.2-0.3,0.3-0.5,0.6v3.6h-1V23.1z"/>
	<path class="st8" d="M189.7,23.9h-1.6v-0.8h2.6v4.7h1.6v0.8h-4.4v-0.8h1.8V23.9z M190.1,20.7c0.1,0,0.2,0,0.3,0.1
		c0.1,0,0.2,0.1,0.2,0.2c0.1,0.1,0.1,0.1,0.2,0.2c0,0.1,0.1,0.2,0.1,0.3c0,0.1,0,0.2-0.1,0.3s-0.1,0.2-0.2,0.2
		c-0.1,0.1-0.1,0.1-0.2,0.2c-0.1,0-0.2,0.1-0.3,0.1c-0.1,0-0.2,0-0.3-0.1c-0.1,0-0.2-0.1-0.2-0.2c-0.1-0.1-0.1-0.2-0.2-0.2
		c0-0.1-0.1-0.2-0.1-0.3c0-0.1,0-0.2,0.1-0.3c0-0.1,0.1-0.2,0.2-0.2c0.1-0.1,0.1-0.1,0.2-0.2C189.8,20.8,189.9,20.7,190.1,20.7z"/>
	<path class="st8" d="M197.7,28.5c-0.2,0.1-0.4,0.1-0.7,0.1c-0.2,0-0.5,0-0.7,0c-0.7,0-1.2-0.2-1.6-0.5c-0.3-0.3-0.5-0.8-0.5-1.4
		v-2.9h-1.6v-0.8h1.6v-1.5l1-0.2v1.8h2.5v0.8h-2.5v2.8c0,0.4,0.1,0.7,0.3,0.9c0.2,0.2,0.5,0.3,0.9,0.3c0.2,0,0.4,0,0.6,0
		s0.4-0.1,0.7-0.1V28.5z"/>
	<path class="st8" d="M203.3,25.5c0,0.1,0,0.3,0,0.3c0,0.1,0,0.2,0,0.3h-3.9c0,0.6,0.2,1,0.5,1.3c0.3,0.3,0.8,0.5,1.4,0.5
		c0.2,0,0.3,0,0.5,0c0.2,0,0.3,0,0.5-0.1s0.3,0,0.4-0.1c0.1,0,0.3-0.1,0.4-0.1v0.8c-0.3,0.1-0.6,0.1-0.9,0.2c-0.3,0-0.7,0.1-1,0.1
		c-0.5,0-0.9-0.1-1.2-0.2c-0.3-0.1-0.6-0.3-0.8-0.6c-0.2-0.2-0.4-0.5-0.5-0.9c-0.1-0.4-0.2-0.8-0.2-1.2c0-0.4,0.1-0.8,0.2-1.1
		c0.1-0.3,0.3-0.7,0.5-0.9c0.2-0.3,0.5-0.5,0.8-0.6s0.7-0.2,1.1-0.2c0.4,0,0.7,0.1,1,0.2c0.3,0.1,0.5,0.3,0.8,0.5
		c0.2,0.2,0.4,0.5,0.5,0.8C203.3,24.8,203.3,25.1,203.3,25.5z M202.4,25.4c0-0.2,0-0.5-0.1-0.7c-0.1-0.2-0.1-0.4-0.3-0.5
		c-0.1-0.1-0.3-0.3-0.5-0.3c-0.2-0.1-0.4-0.1-0.6-0.1c-0.2,0-0.4,0-0.6,0.1c-0.2,0.1-0.3,0.2-0.4,0.3c-0.1,0.1-0.2,0.3-0.3,0.5
		c-0.1,0.2-0.1,0.4-0.1,0.7H202.4z"/>
	<path class="st8" d="M209,24.9c0,0.3,0,0.7-0.1,1s-0.1,0.6-0.3,0.9c-0.1,0.3-0.3,0.5-0.5,0.7s-0.4,0.4-0.7,0.6
		c-0.3,0.2-0.6,0.3-0.9,0.4c-0.4,0.1-0.8,0.1-1.2,0.1h-1.5v-7.2h1.9c1.1,0,2,0.3,2.5,0.9C208.7,22.8,209,23.7,209,24.9z M208,25
		c0-0.5,0-0.9-0.1-1.3c-0.1-0.4-0.2-0.6-0.4-0.9c-0.2-0.2-0.4-0.4-0.7-0.5c-0.3-0.1-0.6-0.1-1-0.1h-0.8v5.5h0.7
		C207.2,27.8,208,26.8,208,25z"/>
	<path class="st8" d="M213.1,28.6l0-0.7c-0.3,0.3-0.6,0.5-0.9,0.6c-0.3,0.1-0.6,0.2-1,0.2c-0.3,0-0.6,0-0.8-0.1
		c-0.2-0.1-0.4-0.2-0.6-0.3c-0.1-0.1-0.3-0.3-0.3-0.5c-0.1-0.2-0.1-0.4-0.1-0.6c0-0.6,0.2-1,0.6-1.3c0.4-0.3,1-0.5,1.8-0.5h1.1v-0.5
		c0-0.3-0.1-0.6-0.3-0.8c-0.2-0.2-0.5-0.3-1-0.3c-0.3,0-0.6,0-0.9,0.1c-0.3,0.1-0.6,0.2-0.9,0.3v-0.9c0.1,0,0.3-0.1,0.4-0.1
		c0.1,0,0.3-0.1,0.5-0.1s0.3-0.1,0.5-0.1s0.4,0,0.5,0c0.3,0,0.6,0,0.9,0.1c0.3,0.1,0.5,0.2,0.7,0.3c0.2,0.2,0.3,0.3,0.4,0.6
		c0.1,0.2,0.1,0.5,0.1,0.8v3.8H213.1z M213,26.1h-1.2c-0.2,0-0.4,0-0.6,0.1s-0.3,0.1-0.4,0.2c-0.1,0.1-0.2,0.2-0.2,0.3
		c-0.1,0.1-0.1,0.3-0.1,0.4c0,0.1,0,0.2,0,0.3c0,0.1,0.1,0.2,0.2,0.3c0.1,0.1,0.2,0.1,0.3,0.2c0.1,0,0.3,0.1,0.4,0.1
		c0.2,0,0.5-0.1,0.8-0.2c0.3-0.1,0.6-0.3,0.9-0.6V26.1z"/>
	<path class="st8" d="M219.4,28.5c-0.2,0.1-0.4,0.1-0.7,0.1c-0.2,0-0.5,0-0.7,0c-0.7,0-1.2-0.2-1.6-0.5c-0.3-0.3-0.5-0.8-0.5-1.4
		v-2.9h-1.6v-0.8h1.6v-1.5l1-0.2v1.8h2.5v0.8h-2.5v2.8c0,0.4,0.1,0.7,0.3,0.9c0.2,0.2,0.5,0.3,0.9,0.3c0.2,0,0.4,0,0.6,0
		s0.4-0.1,0.7-0.1V28.5z"/>
</g>
<g class="st7">
	<path class="st8" d="M223.7,28.6l0-0.7c-0.3,0.3-0.6,0.5-0.9,0.6c-0.3,0.1-0.6,0.2-1,0.2c-0.3,0-0.6,0-0.8-0.1
		c-0.2-0.1-0.4-0.2-0.6-0.3c-0.1-0.1-0.3-0.3-0.3-0.5c-0.1-0.2-0.1-0.4-0.1-0.6c0-0.6,0.2-1,0.6-1.3c0.4-0.3,1-0.5,1.8-0.5h1.1v-0.5
		c0-0.3-0.1-0.6-0.3-0.8c-0.2-0.2-0.5-0.3-1-0.3c-0.3,0-0.6,0-0.9,0.1c-0.3,0.1-0.6,0.2-0.9,0.3v-0.9c0.1,0,0.3-0.1,0.4-0.1
		c0.1,0,0.3-0.1,0.5-0.1s0.3-0.1,0.5-0.1s0.4,0,0.5,0c0.3,0,0.6,0,0.9,0.1c0.3,0.1,0.5,0.2,0.7,0.3c0.2,0.2,0.3,0.3,0.4,0.6
		c0.1,0.2,0.1,0.5,0.1,0.8v3.8H223.7z M223.6,26.1h-1.2c-0.2,0-0.4,0-0.6,0.1s-0.3,0.1-0.4,0.2c-0.1,0.1-0.2,0.2-0.2,0.3
		c-0.1,0.1-0.1,0.3-0.1,0.4c0,0.1,0,0.2,0,0.3c0,0.1,0.1,0.2,0.2,0.3c0.1,0.1,0.2,0.1,0.3,0.2c0.1,0,0.3,0.1,0.4,0.1
		c0.2,0,0.5-0.1,0.8-0.2c0.3-0.1,0.6-0.3,0.9-0.6V26.1z"/>
</g>
<g class="st7">
	<path class="st8" d="M236.2,28.6h-1.1l-0.5-1.6h-3l-0.5,1.6h-1l2.4-7.2h1.3L236.2,28.6z M234.4,26.1l-1.2-3.9l-1.2,3.9H234.4z"/>
	<path class="st8" d="M241.3,28.3c-0.6,0.2-1.2,0.4-1.8,0.4c-1,0-1.8-0.3-2.3-0.9c-0.5-0.6-0.8-1.5-0.8-2.7c0-0.6,0.1-1.1,0.2-1.6
		s0.4-0.9,0.6-1.2c0.3-0.3,0.6-0.6,1-0.8c0.4-0.2,0.8-0.3,1.3-0.3c0.3,0,0.6,0,0.9,0.1c0.3,0.1,0.6,0.1,0.8,0.3v1
		c-0.3-0.1-0.5-0.3-0.8-0.3c-0.3-0.1-0.6-0.1-0.9-0.1c-0.3,0-0.6,0.1-0.9,0.2s-0.5,0.3-0.7,0.6c-0.2,0.2-0.3,0.5-0.4,0.9
		s-0.2,0.7-0.2,1.2c0,0.9,0.2,1.6,0.6,2.1s0.9,0.7,1.7,0.7c0.3,0,0.6,0,0.9-0.1c0.3-0.1,0.6-0.2,0.8-0.3V28.3z"/>
	<path class="st8" d="M247.3,28.6h-1.2l-2.7-3.5v3.5h-1v-7.2h1v3.3l2.6-3.3h1.2l-2.8,3.4L247.3,28.6z"/>
</g>
<g class="st7">
	<path class="st8" d="M260.7,26.6c0,0.3-0.1,0.6-0.2,0.9c-0.1,0.3-0.3,0.5-0.6,0.6s-0.6,0.3-0.9,0.4c-0.4,0.1-0.7,0.1-1.2,0.1
		c-0.2,0-0.4,0-0.6,0s-0.4,0-0.5-0.1c-0.2,0-0.3,0-0.5-0.1c-0.2,0-0.3-0.1-0.4-0.1v-0.9c0.3,0.1,0.6,0.2,0.9,0.2
		c0.3,0.1,0.7,0.1,1.2,0.1c0.3,0,0.6,0,0.8-0.1c0.2,0,0.4-0.1,0.5-0.2c0.1-0.1,0.2-0.2,0.3-0.4c0.1-0.1,0.1-0.3,0.1-0.5
		c0-0.2-0.1-0.4-0.2-0.5s-0.3-0.3-0.4-0.4c-0.2-0.1-0.4-0.2-0.6-0.3c-0.2-0.1-0.5-0.2-0.7-0.3s-0.5-0.2-0.7-0.3
		c-0.2-0.1-0.4-0.2-0.6-0.4c-0.2-0.2-0.3-0.3-0.4-0.5c-0.1-0.2-0.2-0.5-0.2-0.7c0-0.2,0.1-0.5,0.2-0.7c0.1-0.2,0.3-0.5,0.5-0.6
		c0.2-0.2,0.5-0.3,0.8-0.4c0.3-0.1,0.7-0.2,1.2-0.2c0.1,0,0.3,0,0.4,0c0.1,0,0.3,0,0.4,0c0.1,0,0.3,0,0.4,0.1c0.1,0,0.3,0.1,0.4,0.1
		v0.9c-0.3-0.1-0.6-0.1-0.8-0.2s-0.6-0.1-0.8-0.1c-0.6,0-1,0.1-1.2,0.3c-0.3,0.2-0.4,0.4-0.4,0.8c0,0.2,0.1,0.4,0.2,0.5
		s0.3,0.3,0.4,0.4s0.4,0.2,0.6,0.3c0.2,0.1,0.5,0.2,0.7,0.3c0.2,0.1,0.5,0.2,0.7,0.3c0.2,0.1,0.4,0.2,0.6,0.4s0.3,0.3,0.4,0.5
		C260.6,26.1,260.7,26.4,260.7,26.6z"/>
</g>
<g class="st7">
	<path class="st8" d="M279.4,28.6l0-0.7c-0.3,0.3-0.6,0.5-0.9,0.6c-0.3,0.1-0.6,0.2-1,0.2c-0.3,0-0.6,0-0.8-0.1
		c-0.2-0.1-0.4-0.2-0.6-0.3c-0.1-0.1-0.3-0.3-0.3-0.5c-0.1-0.2-0.1-0.4-0.1-0.6c0-0.6,0.2-1,0.6-1.3c0.4-0.3,1-0.5,1.8-0.5h1.1v-0.5
		c0-0.3-0.1-0.6-0.3-0.8c-0.2-0.2-0.5-0.3-1-0.3c-0.3,0-0.6,0-0.9,0.1c-0.3,0.1-0.6,0.2-0.9,0.3v-0.9c0.1,0,0.3-0.1,0.4-0.1
		c0.1,0,0.3-0.1,0.5-0.1s0.3-0.1,0.5-0.1s0.4,0,0.5,0c0.3,0,0.6,0,0.9,0.1c0.3,0.1,0.5,0.2,0.7,0.3c0.2,0.2,0.3,0.3,0.4,0.6
		c0.1,0.2,0.1,0.5,0.1,0.8v3.8H279.4z M279.3,26.1h-1.2c-0.2,0-0.4,0-0.6,0.1s-0.3,0.1-0.4,0.2c-0.1,0.1-0.2,0.2-0.2,0.3
		c-0.1,0.1-0.1,0.3-0.1,0.4c0,0.1,0,0.2,0,0.3c0,0.1,0.1,0.2,0.2,0.3c0.1,0.1,0.2,0.1,0.3,0.2c0.1,0,0.3,0.1,0.4,0.1
		c0.2,0,0.5-0.1,0.8-0.2c0.3-0.1,0.6-0.3,0.9-0.6V26.1z"/>
	<path class="st8" d="M281.8,25.9c0-0.5,0.1-0.9,0.2-1.3s0.3-0.7,0.5-0.9c0.2-0.3,0.5-0.4,0.9-0.6c0.3-0.1,0.7-0.2,1.1-0.2
		c0.2,0,0.4,0,0.5,0c0.2,0,0.3,0.1,0.5,0.1v-2.3h1v7.8h-0.9l0-1c-0.3,0.4-0.6,0.7-0.9,0.9c-0.3,0.2-0.7,0.3-1,0.3
		c-0.3,0-0.6-0.1-0.8-0.2c-0.2-0.1-0.4-0.3-0.6-0.6c-0.2-0.2-0.3-0.5-0.4-0.9C281.8,26.7,281.8,26.4,281.8,25.9z M282.8,25.9
		c0,0.7,0.1,1.2,0.3,1.5s0.5,0.5,0.8,0.5c0.2,0,0.5-0.1,0.8-0.3c0.3-0.2,0.6-0.5,0.9-1V24c-0.2-0.1-0.3-0.1-0.5-0.2
		c-0.2,0-0.4-0.1-0.6-0.1c-0.5,0-0.9,0.2-1.2,0.5C282.9,24.6,282.8,25.2,282.8,25.9z"/>
	<path class="st8" d="M288,25.9c0-0.5,0.1-0.9,0.2-1.3s0.3-0.7,0.5-0.9c0.2-0.3,0.5-0.4,0.9-0.6c0.3-0.1,0.7-0.2,1.1-0.2
		c0.2,0,0.4,0,0.5,0c0.2,0,0.3,0.1,0.5,0.1v-2.3h1v7.8h-0.9l0-1c-0.3,0.4-0.6,0.7-0.9,0.9c-0.3,0.2-0.7,0.3-1,0.3
		c-0.3,0-0.6-0.1-0.8-0.2c-0.2-0.1-0.4-0.3-0.6-0.6c-0.2-0.2-0.3-0.5-0.4-0.9C288,26.7,288,26.4,288,25.9z M289,25.9
		c0,0.7,0.1,1.2,0.3,1.5s0.5,0.5,0.8,0.5c0.2,0,0.5-0.1,0.8-0.3c0.3-0.2,0.6-0.5,0.9-1V24c-0.2-0.1-0.3-0.1-0.5-0.2
		c-0.2,0-0.4-0.1-0.6-0.1c-0.5,0-0.9,0.2-1.2,0.5C289.1,24.6,289,25.2,289,25.9z"/>
	<path class="st8" d="M294.7,23.1h0.9l0,1c0.3-0.4,0.7-0.7,1-0.9c0.3-0.2,0.6-0.3,1-0.3c0.6,0,1,0.2,1.3,0.6
		c0.3,0.4,0.4,0.9,0.4,1.7h-1c0-0.5-0.1-0.8-0.2-1.1c-0.2-0.2-0.4-0.3-0.7-0.3c-0.1,0-0.3,0-0.4,0.1s-0.3,0.1-0.4,0.2
		c-0.1,0.1-0.3,0.2-0.4,0.4c-0.2,0.2-0.3,0.3-0.5,0.6v3.6h-1V23.1z"/>
	<path class="st8" d="M305.4,25.5c0,0.1,0,0.3,0,0.3c0,0.1,0,0.2,0,0.3h-3.9c0,0.6,0.2,1,0.5,1.3c0.3,0.3,0.8,0.5,1.4,0.5
		c0.2,0,0.3,0,0.5,0c0.2,0,0.3,0,0.5-0.1c0.2,0,0.3,0,0.4-0.1c0.1,0,0.3-0.1,0.4-0.1v0.8c-0.3,0.1-0.6,0.1-0.9,0.2s-0.7,0.1-1,0.1
		c-0.5,0-0.9-0.1-1.2-0.2c-0.3-0.1-0.6-0.3-0.8-0.6c-0.2-0.2-0.4-0.5-0.5-0.9c-0.1-0.4-0.2-0.8-0.2-1.2c0-0.4,0.1-0.8,0.2-1.1
		s0.3-0.7,0.5-0.9c0.2-0.3,0.5-0.5,0.8-0.6s0.7-0.2,1.1-0.2c0.4,0,0.7,0.1,1,0.2s0.5,0.3,0.8,0.5c0.2,0.2,0.4,0.5,0.5,0.8
		S305.4,25.1,305.4,25.5z M304.4,25.4c0-0.2,0-0.5-0.1-0.7s-0.2-0.4-0.3-0.5c-0.1-0.1-0.3-0.3-0.5-0.3c-0.2-0.1-0.4-0.1-0.6-0.1
		c-0.2,0-0.4,0-0.6,0.1c-0.2,0.1-0.3,0.2-0.4,0.3c-0.1,0.1-0.2,0.3-0.3,0.5s-0.1,0.4-0.1,0.7H304.4z"/>
	<path class="st8" d="M311.3,27.1c0,0.2,0,0.4-0.1,0.5c-0.1,0.2-0.2,0.3-0.3,0.4c-0.1,0.1-0.2,0.2-0.4,0.3c-0.2,0.1-0.3,0.2-0.5,0.2
		c-0.2,0.1-0.3,0.1-0.5,0.1c-0.2,0-0.4,0-0.5,0c-0.4,0-0.7,0-1,0s-0.6-0.1-0.9-0.2v-0.9c0.3,0.1,0.6,0.2,1,0.2s0.6,0.1,1,0.1
		c0.5,0,0.8-0.1,1-0.2s0.3-0.3,0.3-0.5c0-0.1,0-0.2-0.1-0.3s-0.1-0.2-0.2-0.2c-0.1-0.1-0.2-0.1-0.4-0.2c-0.2-0.1-0.5-0.2-0.8-0.3
		c-0.3-0.1-0.5-0.2-0.7-0.3c-0.2-0.1-0.4-0.2-0.5-0.3c-0.2-0.1-0.3-0.3-0.4-0.5c-0.1-0.2-0.1-0.4-0.1-0.6c0-0.2,0-0.3,0.1-0.5
		c0.1-0.2,0.2-0.4,0.4-0.5s0.4-0.3,0.7-0.4c0.3-0.1,0.7-0.2,1.1-0.2c0.2,0,0.5,0,0.7,0c0.3,0,0.5,0.1,0.8,0.1V24
		c-0.3-0.1-0.6-0.1-0.9-0.2c-0.3,0-0.5-0.1-0.7-0.1c-0.2,0-0.4,0-0.6,0.1c-0.2,0-0.3,0.1-0.4,0.2c-0.1,0.1-0.2,0.1-0.2,0.2
		c0,0.1-0.1,0.2-0.1,0.3s0,0.2,0.1,0.3c0,0.1,0.1,0.2,0.2,0.2s0.3,0.2,0.4,0.2c0.2,0.1,0.4,0.2,0.7,0.2c0.3,0.1,0.6,0.2,0.8,0.3
		c0.2,0.1,0.4,0.2,0.5,0.4c0.1,0.1,0.2,0.3,0.3,0.4S311.3,26.9,311.3,27.1z"/>
</g>
<g class="st7">
	<path class="st8" d="M317.5,27.1c0,0.2,0,0.4-0.1,0.5c-0.1,0.2-0.2,0.3-0.3,0.4c-0.1,0.1-0.2,0.2-0.4,0.3c-0.2,0.1-0.3,0.2-0.5,0.2
		c-0.2,0.1-0.3,0.1-0.5,0.1c-0.2,0-0.4,0-0.5,0c-0.4,0-0.7,0-1,0s-0.6-0.1-0.9-0.2v-0.9c0.3,0.1,0.6,0.2,1,0.2s0.6,0.1,1,0.1
		c0.5,0,0.8-0.1,1-0.2s0.3-0.3,0.3-0.5c0-0.1,0-0.2-0.1-0.3s-0.1-0.2-0.2-0.2c-0.1-0.1-0.2-0.1-0.4-0.2c-0.2-0.1-0.5-0.2-0.8-0.3
		c-0.3-0.1-0.5-0.2-0.7-0.3c-0.2-0.1-0.4-0.2-0.5-0.3c-0.2-0.1-0.3-0.3-0.4-0.5c-0.1-0.2-0.1-0.4-0.1-0.6c0-0.2,0-0.3,0.1-0.5
		c0.1-0.2,0.2-0.4,0.4-0.5s0.4-0.3,0.7-0.4c0.3-0.1,0.7-0.2,1.1-0.2c0.2,0,0.5,0,0.7,0c0.3,0,0.5,0.1,0.8,0.1V24
		c-0.3-0.1-0.6-0.1-0.9-0.2c-0.3,0-0.5-0.1-0.7-0.1c-0.2,0-0.4,0-0.6,0.1c-0.2,0-0.3,0.1-0.4,0.2c-0.1,0.1-0.2,0.1-0.2,0.2
		c0,0.1-0.1,0.2-0.1,0.3s0,0.2,0.1,0.3c0,0.1,0.1,0.2,0.2,0.2s0.3,0.2,0.4,0.2c0.2,0.1,0.4,0.2,0.7,0.2c0.3,0.1,0.6,0.2,0.8,0.3
		c0.2,0.1,0.4,0.2,0.5,0.4c0.1,0.1,0.2,0.3,0.3,0.4S317.5,26.9,317.5,27.1z"/>
</g>
<g class="st7">
	<path class="st8" d="M338.4,28.6h-4.5v-0.9h1.9v-5.3l-1.7,0.9l-0.4-0.8l2.3-1.2h0.8v6.4h1.6V28.6z"/>
</g>
<g class="st7">
	<path class="st8" d="M349.8,23.1h0.9l0,1c0.3-0.4,0.7-0.7,1-0.9s0.6-0.3,1-0.3c0.6,0,1,0.2,1.3,0.6c0.3,0.4,0.4,0.9,0.4,1.7h-1
		c0-0.5-0.1-0.8-0.2-1.1c-0.2-0.2-0.4-0.3-0.7-0.3c-0.1,0-0.3,0-0.4,0.1c-0.1,0-0.3,0.1-0.4,0.2c-0.1,0.1-0.3,0.2-0.4,0.4
		s-0.3,0.3-0.5,0.6v3.6h-1V23.1z"/>
	<path class="st8" d="M360.4,25.5c0,0.1,0,0.3,0,0.3c0,0.1,0,0.2,0,0.3h-3.9c0,0.6,0.2,1,0.5,1.3c0.3,0.3,0.8,0.5,1.4,0.5
		c0.2,0,0.3,0,0.5,0s0.3,0,0.5-0.1c0.2,0,0.3,0,0.4-0.1c0.1,0,0.3-0.1,0.4-0.1v0.8c-0.3,0.1-0.6,0.1-0.9,0.2c-0.3,0-0.7,0.1-1,0.1
		c-0.5,0-0.9-0.1-1.2-0.2s-0.6-0.3-0.8-0.6c-0.2-0.2-0.4-0.5-0.5-0.9c-0.1-0.4-0.2-0.8-0.2-1.2c0-0.4,0.1-0.8,0.2-1.1
		c0.1-0.3,0.3-0.7,0.5-0.9c0.2-0.3,0.5-0.5,0.8-0.6s0.7-0.2,1.1-0.2c0.4,0,0.7,0.1,1,0.2c0.3,0.1,0.5,0.3,0.8,0.5
		c0.2,0.2,0.4,0.5,0.5,0.8C360.3,24.8,360.4,25.1,360.4,25.5z M359.4,25.4c0-0.2,0-0.5-0.1-0.7c-0.1-0.2-0.1-0.4-0.3-0.5
		c-0.1-0.1-0.3-0.3-0.5-0.3s-0.4-0.1-0.6-0.1c-0.2,0-0.4,0-0.6,0.1c-0.2,0.1-0.3,0.2-0.4,0.3c-0.1,0.1-0.2,0.3-0.3,0.5
		c-0.1,0.2-0.1,0.4-0.1,0.7H359.4z"/>
	<path class="st8" d="M365.4,28.6l0-0.7c-0.3,0.3-0.6,0.5-0.9,0.6c-0.3,0.1-0.6,0.2-1,0.2c-0.3,0-0.6,0-0.8-0.1
		c-0.2-0.1-0.4-0.2-0.6-0.3c-0.1-0.1-0.3-0.3-0.3-0.5c-0.1-0.2-0.1-0.4-0.1-0.6c0-0.6,0.2-1,0.6-1.3s1-0.5,1.8-0.5h1.1v-0.5
		c0-0.3-0.1-0.6-0.3-0.8c-0.2-0.2-0.5-0.3-1-0.3c-0.3,0-0.6,0-0.9,0.1c-0.3,0.1-0.6,0.2-0.9,0.3v-0.9c0.1,0,0.3-0.1,0.4-0.1
		c0.1,0,0.3-0.1,0.5-0.1c0.2,0,0.3-0.1,0.5-0.1c0.2,0,0.4,0,0.5,0c0.3,0,0.6,0,0.9,0.1c0.3,0.1,0.5,0.2,0.7,0.3
		c0.2,0.2,0.3,0.3,0.4,0.6c0.1,0.2,0.1,0.5,0.1,0.8v3.8H365.4z M365.3,26.1H364c-0.2,0-0.4,0-0.6,0.1s-0.3,0.1-0.4,0.2
		c-0.1,0.1-0.2,0.2-0.2,0.3c-0.1,0.1-0.1,0.3-0.1,0.4c0,0.1,0,0.2,0,0.3c0,0.1,0.1,0.2,0.2,0.3c0.1,0.1,0.2,0.1,0.3,0.2
		c0.1,0,0.3,0.1,0.4,0.1c0.2,0,0.5-0.1,0.8-0.2c0.3-0.1,0.6-0.3,0.9-0.6V26.1z"/>
	<path class="st8" d="M367.6,25.9c0-0.5,0.1-0.9,0.2-1.3s0.3-0.7,0.5-0.9c0.2-0.3,0.5-0.4,0.9-0.6c0.3-0.1,0.7-0.2,1.1-0.2
		c0.2,0,0.4,0,0.5,0c0.2,0,0.3,0.1,0.5,0.1v-2.3h1v7.8h-0.9l0-1c-0.3,0.4-0.6,0.7-0.9,0.9c-0.3,0.2-0.7,0.3-1,0.3
		c-0.3,0-0.6-0.1-0.8-0.2c-0.2-0.1-0.4-0.3-0.6-0.6s-0.3-0.5-0.4-0.9S367.6,26.4,367.6,25.9z M368.6,25.9c0,0.7,0.1,1.2,0.3,1.5
		c0.2,0.3,0.5,0.5,0.8,0.5c0.2,0,0.5-0.1,0.8-0.3c0.3-0.2,0.6-0.5,0.9-1V24c-0.2-0.1-0.3-0.1-0.5-0.2c-0.2,0-0.4-0.1-0.6-0.1
		c-0.5,0-0.9,0.2-1.2,0.5C368.7,24.6,368.6,25.2,368.6,25.9z"/>
	<path class="st8" d="M378.9,24.9c0,0.3,0,0.7-0.1,1c-0.1,0.3-0.1,0.6-0.3,0.9c-0.1,0.3-0.3,0.5-0.5,0.7s-0.4,0.4-0.7,0.6
		c-0.3,0.2-0.6,0.3-0.9,0.4c-0.4,0.1-0.8,0.1-1.2,0.1h-1.5v-7.2h1.9c1.1,0,2,0.3,2.5,0.9C378.7,22.8,378.9,23.7,378.9,24.9z
		 M377.9,25c0-0.5,0-0.9-0.1-1.3c-0.1-0.4-0.2-0.6-0.4-0.9c-0.2-0.2-0.4-0.4-0.7-0.5s-0.6-0.1-1-0.1h-0.8v5.5h0.7
		C377.1,27.8,377.9,26.8,377.9,25z"/>
	<path class="st8" d="M383.7,28.6l0-0.7c-0.3,0.3-0.6,0.5-0.9,0.6c-0.3,0.1-0.6,0.2-1,0.2c-0.3,0-0.6,0-0.8-0.1
		c-0.2-0.1-0.4-0.2-0.6-0.3s-0.3-0.3-0.3-0.5s-0.1-0.4-0.1-0.6c0-0.6,0.2-1,0.6-1.3c0.4-0.3,1-0.5,1.8-0.5h1.1v-0.5
		c0-0.3-0.1-0.6-0.3-0.8c-0.2-0.2-0.5-0.3-1-0.3c-0.3,0-0.6,0-0.9,0.1c-0.3,0.1-0.6,0.2-0.9,0.3v-0.9c0.1,0,0.3-0.1,0.4-0.1
		c0.1,0,0.3-0.1,0.5-0.1c0.2,0,0.3-0.1,0.5-0.1c0.2,0,0.4,0,0.5,0c0.3,0,0.6,0,0.9,0.1c0.3,0.1,0.5,0.2,0.7,0.3
		c0.2,0.2,0.3,0.3,0.4,0.6c0.1,0.2,0.1,0.5,0.1,0.8v3.8H383.7z M383.6,26.1h-1.2c-0.2,0-0.4,0-0.6,0.1s-0.3,0.1-0.4,0.2
		c-0.1,0.1-0.2,0.2-0.2,0.3c-0.1,0.1-0.1,0.3-0.1,0.4c0,0.1,0,0.2,0,0.3c0,0.1,0.1,0.2,0.2,0.3s0.2,0.1,0.3,0.2
		c0.1,0,0.3,0.1,0.4,0.1c0.2,0,0.5-0.1,0.8-0.2c0.3-0.1,0.6-0.3,0.9-0.6V26.1z"/>
	<path class="st8" d="M390.7,28.5c-0.2,0.1-0.4,0.1-0.7,0.1c-0.2,0-0.5,0-0.7,0c-0.7,0-1.2-0.2-1.6-0.5c-0.3-0.3-0.5-0.8-0.5-1.4
		v-2.9h-1.6v-0.8h1.6v-1.5l1-0.2v1.8h2.5v0.8h-2.5v2.8c0,0.4,0.1,0.7,0.3,0.9c0.2,0.2,0.5,0.3,0.9,0.3c0.2,0,0.4,0,0.6,0
		c0.2,0,0.4-0.1,0.7-0.1V28.5z"/>
</g>
<g class="st7">
	<path class="st8" d="M395.7,28.6l0-0.7c-0.3,0.3-0.6,0.5-0.9,0.6c-0.3,0.1-0.6,0.2-1,0.2c-0.3,0-0.6,0-0.8-0.1
		c-0.2-0.1-0.4-0.2-0.6-0.3c-0.1-0.1-0.3-0.3-0.3-0.5s-0.1-0.4-0.1-0.6c0-0.6,0.2-1,0.6-1.3c0.4-0.3,1-0.5,1.8-0.5h1.1v-0.5
		c0-0.3-0.1-0.6-0.3-0.8c-0.2-0.2-0.5-0.3-1-0.3c-0.3,0-0.6,0-0.9,0.1c-0.3,0.1-0.6,0.2-0.9,0.3v-0.9c0.1,0,0.3-0.1,0.4-0.1
		c0.1,0,0.3-0.1,0.5-0.1c0.2,0,0.3-0.1,0.5-0.1c0.2,0,0.4,0,0.5,0c0.3,0,0.6,0,0.9,0.1c0.3,0.1,0.5,0.2,0.7,0.3
		c0.2,0.2,0.3,0.3,0.4,0.6c0.1,0.2,0.1,0.5,0.1,0.8v3.8H395.7z M395.6,26.1h-1.2c-0.2,0-0.4,0-0.6,0.1c-0.2,0-0.3,0.1-0.4,0.2
		c-0.1,0.1-0.2,0.2-0.2,0.3c-0.1,0.1-0.1,0.3-0.1,0.4c0,0.1,0,0.2,0,0.3c0,0.1,0.1,0.2,0.2,0.3c0.1,0.1,0.2,0.1,0.3,0.2
		c0.1,0,0.3,0.1,0.4,0.1c0.2,0,0.5-0.1,0.8-0.2c0.3-0.1,0.6-0.3,0.9-0.6V26.1z"/>
</g>
<g class="st7">
	<path class="st8" d="M409,28.6h-1.1l-0.5-1.6h-3l-0.5,1.6h-1l2.4-7.2h1.3L409,28.6z M407.2,26.1l-1.2-3.9l-1.2,3.9H407.2z"/>
	<path class="st8" d="M414.1,28.3c-0.6,0.2-1.2,0.4-1.8,0.4c-1,0-1.8-0.3-2.3-0.9c-0.5-0.6-0.8-1.5-0.8-2.7c0-0.6,0.1-1.1,0.2-1.6
		c0.2-0.5,0.4-0.9,0.6-1.2c0.3-0.3,0.6-0.6,1-0.8s0.8-0.3,1.3-0.3c0.3,0,0.6,0,0.9,0.1c0.3,0.1,0.6,0.1,0.8,0.3v1
		c-0.3-0.1-0.5-0.3-0.8-0.3c-0.3-0.1-0.6-0.1-0.9-0.1c-0.3,0-0.6,0.1-0.9,0.2c-0.3,0.1-0.5,0.3-0.7,0.6c-0.2,0.2-0.3,0.5-0.4,0.9
		c-0.1,0.3-0.2,0.7-0.2,1.2c0,0.9,0.2,1.6,0.6,2.1s0.9,0.7,1.7,0.7c0.3,0,0.6,0,0.9-0.1c0.3-0.1,0.6-0.2,0.8-0.3V28.3z"/>
	<path class="st8" d="M420.2,28.6h-1.2l-2.7-3.5v3.5h-1v-7.2h1v3.3l2.6-3.3h1.2l-2.8,3.4L420.2,28.6z"/>
</g>
<g class="st7">
	<path class="st8" d="M427.6,23.1h0.9l0,1c0.3-0.4,0.7-0.7,1-0.9s0.6-0.3,1-0.3c0.6,0,1,0.2,1.3,0.6c0.3,0.4,0.4,0.9,0.4,1.7h-1
		c0-0.5-0.1-0.8-0.2-1.1c-0.2-0.2-0.4-0.3-0.7-0.3c-0.1,0-0.3,0-0.4,0.1c-0.1,0-0.3,0.1-0.4,0.2c-0.1,0.1-0.3,0.2-0.4,0.4
		s-0.3,0.3-0.5,0.6v3.6h-1V23.1z"/>
	<path class="st8" d="M437.8,25.5c0,0.1,0,0.3,0,0.3c0,0.1,0,0.2,0,0.3h-3.9c0,0.6,0.2,1,0.5,1.3c0.3,0.3,0.8,0.5,1.4,0.5
		c0.2,0,0.3,0,0.5,0s0.3,0,0.5-0.1c0.2,0,0.3,0,0.4-0.1c0.1,0,0.3-0.1,0.4-0.1v0.8c-0.3,0.1-0.6,0.1-0.9,0.2c-0.3,0-0.7,0.1-1,0.1
		c-0.5,0-0.9-0.1-1.2-0.2s-0.6-0.3-0.8-0.6c-0.2-0.2-0.4-0.5-0.5-0.9c-0.1-0.4-0.2-0.8-0.2-1.2c0-0.4,0.1-0.8,0.2-1.1
		c0.1-0.3,0.3-0.7,0.5-0.9c0.2-0.3,0.5-0.5,0.8-0.6s0.7-0.2,1.1-0.2c0.4,0,0.7,0.1,1,0.2c0.3,0.1,0.5,0.3,0.8,0.5
		c0.2,0.2,0.4,0.5,0.5,0.8C437.7,24.8,437.8,25.1,437.8,25.5z M436.8,25.4c0-0.2,0-0.5-0.1-0.7c-0.1-0.2-0.1-0.4-0.3-0.5
		c-0.1-0.1-0.3-0.3-0.5-0.3s-0.4-0.1-0.6-0.1c-0.2,0-0.4,0-0.6,0.1c-0.2,0.1-0.3,0.2-0.4,0.3c-0.1,0.1-0.2,0.3-0.3,0.5
		c-0.1,0.2-0.1,0.4-0.1,0.7H436.8z"/>
	<path class="st8" d="M442.4,28.6l0-0.7c-0.3,0.3-0.6,0.5-0.9,0.6c-0.3,0.1-0.6,0.2-1,0.2c-0.3,0-0.6,0-0.8-0.1
		c-0.2-0.1-0.4-0.2-0.6-0.3s-0.3-0.3-0.3-0.5s-0.1-0.4-0.1-0.6c0-0.6,0.2-1,0.6-1.3c0.4-0.3,1-0.5,1.8-0.5h1.1v-0.5
		c0-0.3-0.1-0.6-0.3-0.8c-0.2-0.2-0.5-0.3-1-0.3c-0.3,0-0.6,0-0.9,0.1c-0.3,0.1-0.6,0.2-0.9,0.3v-0.9c0.1,0,0.3-0.1,0.4-0.1
		c0.1,0,0.3-0.1,0.5-0.1c0.2,0,0.3-0.1,0.5-0.1c0.2,0,0.4,0,0.5,0c0.3,0,0.6,0,0.9,0.1c0.3,0.1,0.5,0.2,0.7,0.3
		c0.2,0.2,0.3,0.3,0.4,0.6c0.1,0.2,0.1,0.5,0.1,0.8v3.8H442.4z M442.3,26.1h-1.2c-0.2,0-0.4,0-0.6,0.1s-0.3,0.1-0.4,0.2
		c-0.1,0.1-0.2,0.2-0.2,0.3c-0.1,0.1-0.1,0.3-0.1,0.4c0,0.1,0,0.2,0,0.3c0,0.1,0.1,0.2,0.2,0.3s0.2,0.1,0.3,0.2
		c0.1,0,0.3,0.1,0.4,0.1c0.2,0,0.5-0.1,0.8-0.2c0.3-0.1,0.6-0.3,0.9-0.6V26.1z"/>
	<path class="st8" d="M444.3,25.9c0-0.5,0.1-0.9,0.2-1.3s0.3-0.7,0.5-0.9s0.5-0.4,0.9-0.6c0.3-0.1,0.7-0.2,1.1-0.2
		c0.2,0,0.4,0,0.5,0c0.2,0,0.3,0.1,0.5,0.1v-2.3h1v7.8h-0.9l0-1c-0.3,0.4-0.6,0.7-0.9,0.9c-0.3,0.2-0.7,0.3-1,0.3
		c-0.3,0-0.6-0.1-0.8-0.2c-0.2-0.1-0.4-0.3-0.6-0.6c-0.2-0.2-0.3-0.5-0.4-0.9C444.4,26.7,444.3,26.4,444.3,25.9z M445.3,25.9
		c0,0.7,0.1,1.2,0.3,1.5c0.2,0.3,0.5,0.5,0.8,0.5c0.2,0,0.5-0.1,0.8-0.3c0.3-0.2,0.6-0.5,0.9-1V24c-0.2-0.1-0.3-0.1-0.5-0.2
		c-0.2,0-0.4-0.1-0.6-0.1c-0.5,0-0.9,0.2-1.2,0.5S445.3,25.2,445.3,25.9z"/>
	<path class="st8" d="M455.3,24.9c0,0.3,0,0.7-0.1,1c-0.1,0.3-0.1,0.6-0.3,0.9s-0.3,0.5-0.5,0.7s-0.4,0.4-0.7,0.6
		c-0.3,0.2-0.6,0.3-0.9,0.4c-0.4,0.1-0.8,0.1-1.2,0.1h-1.5v-7.2h1.9c1.1,0,2,0.3,2.5,0.9C455,22.8,455.3,23.7,455.3,24.9z M454.3,25
		c0-0.5,0-0.9-0.1-1.3c-0.1-0.4-0.2-0.6-0.4-0.9s-0.4-0.4-0.7-0.5c-0.3-0.1-0.6-0.1-1-0.1h-0.8v5.5h0.7
		C453.5,27.8,454.3,26.8,454.3,25z"/>
	<path class="st8" d="M459.7,28.6l0-0.7c-0.3,0.3-0.6,0.5-0.9,0.6c-0.3,0.1-0.6,0.2-1,0.2c-0.3,0-0.6,0-0.8-0.1
		c-0.2-0.1-0.4-0.2-0.6-0.3s-0.3-0.3-0.3-0.5s-0.1-0.4-0.1-0.6c0-0.6,0.2-1,0.6-1.3c0.4-0.3,1-0.5,1.8-0.5h1.1v-0.5
		c0-0.3-0.1-0.6-0.3-0.8c-0.2-0.2-0.5-0.3-1-0.3c-0.3,0-0.6,0-0.9,0.1c-0.3,0.1-0.6,0.2-0.9,0.3v-0.9c0.1,0,0.3-0.1,0.4-0.1
		c0.1,0,0.3-0.1,0.5-0.1c0.2,0,0.3-0.1,0.5-0.1c0.2,0,0.4,0,0.5,0c0.3,0,0.6,0,0.9,0.1c0.3,0.1,0.5,0.2,0.7,0.3
		c0.2,0.2,0.3,0.3,0.4,0.6c0.1,0.2,0.1,0.5,0.1,0.8v3.8H459.7z M459.6,26.1h-1.2c-0.2,0-0.4,0-0.6,0.1s-0.3,0.1-0.4,0.2
		c-0.1,0.1-0.2,0.2-0.2,0.3c-0.1,0.1-0.1,0.3-0.1,0.4c0,0.1,0,0.2,0,0.3c0,0.1,0.1,0.2,0.2,0.3s0.2,0.1,0.3,0.2
		c0.1,0,0.3,0.1,0.4,0.1c0.2,0,0.5-0.1,0.8-0.2c0.3-0.1,0.6-0.3,0.9-0.6V26.1z"/>
	<path class="st8" d="M466.4,28.5c-0.2,0.1-0.4,0.1-0.7,0.1c-0.2,0-0.5,0-0.7,0c-0.7,0-1.2-0.2-1.6-0.5s-0.5-0.8-0.5-1.4v-2.9h-1.5
		v-0.8h1.5v-1.5l1-0.2v1.8h2.5v0.8h-2.5v2.8c0,0.4,0.1,0.7,0.3,0.9c0.2,0.2,0.5,0.3,0.9,0.3c0.2,0,0.4,0,0.6,0
		c0.2,0,0.4-0.1,0.7-0.1V28.5z"/>
	<path class="st8" d="M471.2,28.6l0-0.7c-0.3,0.3-0.6,0.5-0.9,0.6c-0.3,0.1-0.6,0.2-1,0.2c-0.3,0-0.6,0-0.8-0.1
		c-0.2-0.1-0.4-0.2-0.6-0.3c-0.1-0.1-0.3-0.3-0.3-0.5c-0.1-0.2-0.1-0.4-0.1-0.6c0-0.6,0.2-1,0.6-1.3s1-0.5,1.8-0.5h1.1v-0.5
		c0-0.3-0.1-0.6-0.3-0.8c-0.2-0.2-0.5-0.3-1-0.3c-0.3,0-0.6,0-0.9,0.1c-0.3,0.1-0.6,0.2-0.9,0.3v-0.9c0.1,0,0.3-0.1,0.4-0.1
		c0.1,0,0.3-0.1,0.5-0.1c0.2,0,0.3-0.1,0.5-0.1c0.2,0,0.4,0,0.5,0c0.3,0,0.6,0,0.9,0.1c0.3,0.1,0.5,0.2,0.7,0.3
		c0.2,0.2,0.3,0.3,0.4,0.6c0.1,0.2,0.1,0.5,0.1,0.8v3.8H471.2z M471.1,26.1h-1.2c-0.2,0-0.4,0-0.6,0.1s-0.3,0.1-0.4,0.2
		c-0.1,0.1-0.2,0.2-0.2,0.3c-0.1,0.1-0.1,0.3-0.1,0.4c0,0.1,0,0.2,0,0.3c0,0.1,0.1,0.2,0.2,0.3c0.1,0.1,0.2,0.1,0.3,0.2
		c0.1,0,0.3,0.1,0.4,0.1c0.2,0,0.5-0.1,0.8-0.2c0.3-0.1,0.6-0.3,0.9-0.6V26.1z"/>
</g>
<g class="st7">
	<path class="st8" d="M485.1,28.6h-1.1l-0.5-1.6h-3l-0.5,1.6h-1l2.4-7.2h1.3L485.1,28.6z M483.3,26.1l-1.2-3.9l-1.2,3.9H483.3z"/>
	<path class="st8" d="M490.2,28.3c-0.6,0.2-1.2,0.4-1.8,0.4c-1,0-1.8-0.3-2.3-0.9c-0.5-0.6-0.8-1.5-0.8-2.7c0-0.6,0.1-1.1,0.2-1.6
		c0.2-0.5,0.4-0.9,0.6-1.2c0.3-0.3,0.6-0.6,1-0.8c0.4-0.2,0.8-0.3,1.3-0.3c0.3,0,0.6,0,0.9,0.1c0.3,0.1,0.6,0.1,0.8,0.3v1
		c-0.3-0.1-0.5-0.3-0.8-0.3c-0.3-0.1-0.6-0.1-0.9-0.1c-0.3,0-0.6,0.1-0.9,0.2c-0.3,0.1-0.5,0.3-0.7,0.6c-0.2,0.2-0.3,0.5-0.4,0.9
		c-0.1,0.3-0.2,0.7-0.2,1.2c0,0.9,0.2,1.6,0.6,2.1s0.9,0.7,1.7,0.7c0.3,0,0.6,0,0.9-0.1c0.3-0.1,0.6-0.2,0.8-0.3V28.3z"/>
	<path class="st8" d="M496.3,28.6H495l-2.7-3.5v3.5h-1v-7.2h1v3.3l2.6-3.3h1.2l-2.8,3.4L496.3,28.6z"/>
</g>
<g class="st7">
	<path class="st8" d="M509.9,23.6c0,0.3-0.1,0.6-0.2,0.9s-0.3,0.5-0.5,0.8c-0.2,0.2-0.5,0.4-0.9,0.6S507.5,26,507,26h-0.9v2.6h-1
		v-7.2h2c0.4,0,0.7,0,1,0.1s0.6,0.2,0.9,0.4c0.2,0.2,0.4,0.4,0.6,0.7C509.8,22.9,509.9,23.2,509.9,23.6z M508.8,23.6
		c0-0.5-0.2-0.8-0.5-1.1c-0.3-0.2-0.7-0.4-1.3-0.4h-1v3h0.9c0.6,0,1-0.1,1.3-0.4C508.7,24.5,508.8,24.2,508.8,23.6z"/>
</g>
<g class="st7">
	<path class="st9" d="M87.5,57.6c0,0.3-0.1,0.6-0.2,0.9c-0.1,0.3-0.3,0.5-0.6,0.6s-0.6,0.3-0.9,0.4c-0.4,0.1-0.7,0.1-1.2,0.1
		c-0.2,0-0.4,0-0.6,0s-0.4,0-0.5-0.1c-0.2,0-0.3,0-0.5-0.1c-0.2,0-0.3-0.1-0.4-0.1v-0.9c0.3,0.1,0.6,0.2,0.9,0.2
		c0.3,0.1,0.7,0.1,1.2,0.1c0.3,0,0.6,0,0.8-0.1c0.2,0,0.4-0.1,0.5-0.2c0.1-0.1,0.2-0.2,0.3-0.4c0.1-0.1,0.1-0.3,0.1-0.5
		c0-0.2-0.1-0.4-0.2-0.5s-0.3-0.3-0.4-0.4c-0.2-0.1-0.4-0.2-0.6-0.3c-0.2-0.1-0.5-0.2-0.7-0.3s-0.5-0.2-0.7-0.3
		c-0.2-0.1-0.4-0.2-0.6-0.4c-0.2-0.2-0.3-0.3-0.4-0.5c-0.1-0.2-0.2-0.5-0.2-0.7c0-0.2,0.1-0.5,0.2-0.7c0.1-0.2,0.3-0.5,0.5-0.6
		c0.2-0.2,0.5-0.3,0.8-0.4c0.3-0.1,0.7-0.2,1.2-0.2c0.1,0,0.3,0,0.4,0c0.1,0,0.3,0,0.4,0c0.1,0,0.3,0,0.4,0.1c0.1,0,0.3,0.1,0.4,0.1
		v0.9c-0.3-0.1-0.6-0.1-0.8-0.2s-0.6-0.1-0.8-0.1c-0.6,0-1,0.1-1.2,0.3c-0.3,0.2-0.4,0.4-0.4,0.8c0,0.2,0.1,0.4,0.2,0.5
		s0.3,0.3,0.4,0.4s0.4,0.2,0.6,0.3c0.2,0.1,0.5,0.2,0.7,0.3c0.2,0.1,0.5,0.2,0.7,0.3c0.2,0.1,0.4,0.2,0.6,0.4s0.3,0.3,0.4,0.5
		C87.4,57.1,87.5,57.4,87.5,57.6z"/>
	<path class="st9" d="M93.5,59.5c-0.2,0.1-0.4,0.1-0.7,0.1c-0.2,0-0.5,0-0.7,0c-0.7,0-1.2-0.2-1.6-0.5c-0.3-0.3-0.5-0.8-0.5-1.4
		v-2.9h-1.6v-0.8h1.6v-1.5l1-0.2v1.8h2.5v0.8H91v2.8c0,0.4,0.1,0.7,0.3,0.9c0.2,0.2,0.5,0.3,0.9,0.3c0.2,0,0.4,0,0.6,0
		s0.4-0.1,0.7-0.1V59.5z"/>
	<path class="st9" d="M98.8,59.6l0-0.7c-0.3,0.3-0.6,0.5-0.9,0.6c-0.3,0.1-0.6,0.2-1,0.2c-0.3,0-0.6,0-0.8-0.1
		c-0.2-0.1-0.4-0.2-0.6-0.3c-0.1-0.1-0.3-0.3-0.3-0.5c-0.1-0.2-0.1-0.4-0.1-0.6c0-0.6,0.2-1,0.6-1.3c0.4-0.3,1-0.5,1.8-0.5h1.1v-0.5
		c0-0.3-0.1-0.6-0.3-0.8c-0.2-0.2-0.5-0.3-1-0.3c-0.3,0-0.6,0-0.9,0.1c-0.3,0.1-0.6,0.2-0.9,0.3v-0.9c0.1,0,0.3-0.1,0.4-0.1
		c0.1,0,0.3-0.1,0.5-0.1S96.8,54,97,54s0.4,0,0.5,0c0.3,0,0.6,0,0.9,0.1c0.3,0.1,0.5,0.2,0.7,0.3c0.2,0.2,0.3,0.3,0.4,0.6
		c0.1,0.2,0.1,0.5,0.1,0.8v3.8H98.8z M98.7,57.1h-1.2c-0.2,0-0.4,0-0.6,0.1s-0.3,0.1-0.4,0.2c-0.1,0.1-0.2,0.2-0.2,0.3
		c-0.1,0.1-0.1,0.3-0.1,0.4c0,0.1,0,0.2,0,0.3c0,0.1,0.1,0.2,0.2,0.3c0.1,0.1,0.2,0.1,0.3,0.2c0.1,0,0.3,0.1,0.4,0.1
		c0.2,0,0.5-0.1,0.8-0.2c0.3-0.1,0.6-0.3,0.9-0.6V57.1z"/>
	<path class="st9" d="M101.7,54.1h0.9l0,1c0.3-0.4,0.7-0.7,1-0.9c0.3-0.2,0.6-0.3,1-0.3c0.6,0,1,0.2,1.3,0.6
		c0.3,0.4,0.4,0.9,0.4,1.7h-1c0-0.5-0.1-0.8-0.2-1.1c-0.2-0.2-0.4-0.3-0.7-0.3c-0.1,0-0.3,0-0.4,0.1c-0.1,0-0.3,0.1-0.4,0.2
		c-0.1,0.1-0.3,0.2-0.4,0.4c-0.2,0.2-0.3,0.3-0.5,0.6v3.6h-1V54.1z"/>
	<path class="st9" d="M112.2,59.5c-0.2,0.1-0.4,0.1-0.7,0.1c-0.2,0-0.5,0-0.7,0c-0.7,0-1.2-0.2-1.6-0.5c-0.3-0.3-0.5-0.8-0.5-1.4
		v-2.9h-1.6v-0.8h1.6v-1.5l1-0.2v1.8h2.5v0.8h-2.5v2.8c0,0.4,0.1,0.7,0.3,0.9c0.2,0.2,0.5,0.3,0.9,0.3c0.2,0,0.4,0,0.6,0
		s0.4-0.1,0.7-0.1V59.5z"/>
</g>
<rect x="130.6" y="45.3" class="st5" width="20.4" height="20.4"/>
<g class="st7">
	<path class="st8" d="M142.6,54.6c0,0.3-0.1,0.6-0.2,0.9s-0.3,0.5-0.5,0.8c-0.2,0.2-0.5,0.4-0.9,0.6c-0.4,0.1-0.8,0.2-1.3,0.2h-0.9
		v2.6h-1v-7.2h2c0.4,0,0.7,0,1,0.1c0.3,0.1,0.6,0.2,0.9,0.4c0.2,0.2,0.4,0.4,0.6,0.7C142.5,53.9,142.6,54.2,142.6,54.6z M141.6,54.6
		c0-0.5-0.2-0.8-0.5-1.1c-0.3-0.2-0.7-0.4-1.3-0.4h-1v3h0.9c0.6,0,1-0.1,1.3-0.4C141.4,55.5,141.6,55.2,141.6,54.6z"/>
</g>
<g class="st7">
	<path class="st9" d="M162.8,57.6c0,0.3-0.1,0.6-0.2,0.9c-0.1,0.3-0.3,0.5-0.6,0.6s-0.6,0.3-0.9,0.4c-0.4,0.1-0.7,0.1-1.2,0.1
		c-0.2,0-0.4,0-0.6,0s-0.4,0-0.5-0.1c-0.2,0-0.3,0-0.5-0.1c-0.2,0-0.3-0.1-0.4-0.1v-0.9c0.3,0.1,0.6,0.2,0.9,0.2
		c0.3,0.1,0.7,0.1,1.2,0.1c0.3,0,0.6,0,0.8-0.1c0.2,0,0.4-0.1,0.5-0.2c0.1-0.1,0.2-0.2,0.3-0.4c0.1-0.1,0.1-0.3,0.1-0.5
		c0-0.2-0.1-0.4-0.2-0.5s-0.3-0.3-0.4-0.4c-0.2-0.1-0.4-0.2-0.6-0.3c-0.2-0.1-0.5-0.2-0.7-0.3s-0.5-0.2-0.7-0.3
		c-0.2-0.1-0.4-0.2-0.6-0.4c-0.2-0.2-0.3-0.3-0.4-0.5c-0.1-0.2-0.2-0.5-0.2-0.7c0-0.2,0.1-0.5,0.2-0.7c0.1-0.2,0.3-0.5,0.5-0.6
		c0.2-0.2,0.5-0.3,0.8-0.4c0.3-0.1,0.7-0.2,1.2-0.2c0.1,0,0.3,0,0.4,0c0.1,0,0.3,0,0.4,0c0.1,0,0.3,0,0.4,0.1c0.1,0,0.3,0.1,0.4,0.1
		v0.9c-0.3-0.1-0.6-0.1-0.8-0.2s-0.6-0.1-0.8-0.1c-0.6,0-1,0.1-1.2,0.3c-0.3,0.2-0.4,0.4-0.4,0.8c0,0.2,0.1,0.4,0.2,0.5
		s0.3,0.3,0.4,0.4s0.4,0.2,0.6,0.3c0.2,0.1,0.5,0.2,0.7,0.3c0.2,0.1,0.5,0.2,0.7,0.3c0.2,0.1,0.4,0.2,0.6,0.4s0.3,0.3,0.4,0.5
		C162.8,57.1,162.8,57.4,162.8,57.6z"/>
	<path class="st9" d="M168.9,59.5c-0.2,0.1-0.4,0.1-0.7,0.1c-0.2,0-0.5,0-0.7,0c-0.7,0-1.2-0.2-1.6-0.5c-0.3-0.3-0.5-0.8-0.5-1.4
		v-2.9h-1.6v-0.8h1.6v-1.5l1-0.2v1.8h2.5v0.8h-2.5v2.8c0,0.4,0.1,0.7,0.3,0.9c0.2,0.2,0.5,0.3,0.9,0.3c0.2,0,0.4,0,0.6,0
		s0.4-0.1,0.7-0.1V59.5z"/>
	<path class="st9" d="M175.4,56.8c0,0.4-0.1,0.8-0.2,1.2c-0.1,0.4-0.3,0.7-0.5,0.9s-0.5,0.5-0.8,0.6c-0.3,0.1-0.7,0.2-1.1,0.2
		c-0.4,0-0.8-0.1-1.1-0.2c-0.3-0.1-0.6-0.3-0.8-0.5s-0.4-0.5-0.5-0.9c-0.1-0.4-0.2-0.8-0.2-1.2c0-0.4,0.1-0.8,0.2-1.2
		c0.1-0.4,0.3-0.7,0.5-0.9c0.2-0.3,0.5-0.5,0.8-0.6c0.3-0.1,0.7-0.2,1.1-0.2c0.4,0,0.8,0.1,1.1,0.2c0.3,0.1,0.6,0.3,0.8,0.5
		s0.4,0.5,0.5,0.9C175.4,55.9,175.4,56.3,175.4,56.8z M174.5,56.8c0-0.3,0-0.6-0.1-0.9c-0.1-0.3-0.2-0.5-0.3-0.6s-0.3-0.3-0.5-0.4
		c-0.2-0.1-0.4-0.1-0.7-0.1c-0.3,0-0.5,0.1-0.7,0.2s-0.4,0.3-0.5,0.5s-0.2,0.4-0.3,0.7c-0.1,0.2-0.1,0.5-0.1,0.8
		c0,0.3,0,0.6,0.1,0.9c0.1,0.3,0.2,0.5,0.3,0.6c0.1,0.2,0.3,0.3,0.5,0.4c0.2,0.1,0.4,0.1,0.7,0.1c0.3,0,0.5-0.1,0.7-0.2
		c0.2-0.1,0.4-0.3,0.5-0.5c0.1-0.2,0.2-0.4,0.3-0.7C174.4,57.4,174.5,57.1,174.5,56.8z"/>
	<path class="st9" d="M181.6,56.7c0,0.5-0.1,0.9-0.2,1.3c-0.1,0.4-0.3,0.7-0.6,0.9s-0.5,0.4-0.9,0.5c-0.3,0.1-0.7,0.2-1.1,0.2
		c-0.2,0-0.4,0-0.5,0c-0.2,0-0.4,0-0.5-0.1v2.3h-1v-7.8h0.9l0.1,0.9c0.3-0.4,0.6-0.6,0.9-0.8c0.3-0.2,0.7-0.2,1-0.2
		c0.3,0,0.6,0.1,0.8,0.2c0.2,0.1,0.4,0.3,0.6,0.6c0.2,0.2,0.3,0.5,0.4,0.9C181.5,55.9,181.6,56.3,181.6,56.7z M180.6,56.8
		c0-0.3,0-0.6-0.1-0.8s-0.1-0.5-0.2-0.6c-0.1-0.2-0.2-0.3-0.4-0.4c-0.1-0.1-0.3-0.1-0.5-0.1c-0.1,0-0.2,0-0.4,0.1
		c-0.1,0-0.3,0.1-0.4,0.2c-0.1,0.1-0.3,0.2-0.4,0.4c-0.1,0.1-0.3,0.3-0.5,0.6v2.7c0.2,0.1,0.4,0.1,0.6,0.2c0.2,0,0.4,0.1,0.6,0.1
		c0.5,0,0.9-0.2,1.2-0.5C180.4,58,180.6,57.5,180.6,56.8z"/>
</g>
<rect x="215.7" y="45.3" class="st3" width="20.4" height="20.4"/>
<g class="st7">
	<path class="st8" d="M228.3,59.6H227l-1.8-2.9l-1.8,2.9h-1.2l2.4-3.7l-2.2-3.5h1.2l1.6,2.7l1.7-2.7h1.1l-2.2,3.5L228.3,59.6z"/>
</g>
<g class="st7">
	<path class="st9" d="M248.3,59.6h-1.1l-1.1-2.3c-0.1-0.2-0.2-0.3-0.2-0.4s-0.2-0.2-0.3-0.3c-0.1-0.1-0.2-0.1-0.3-0.1
		c-0.1,0-0.2,0-0.4,0h-0.5v3.2h-1v-7.2h1.9c0.4,0,0.8,0,1.1,0.1c0.3,0.1,0.5,0.2,0.7,0.4c0.2,0.2,0.3,0.4,0.4,0.6
		c0.1,0.2,0.1,0.5,0.1,0.8c0,0.2,0,0.4-0.1,0.6c-0.1,0.2-0.2,0.4-0.3,0.5c-0.1,0.2-0.3,0.3-0.5,0.4c-0.2,0.1-0.4,0.2-0.7,0.3
		c0.2,0.1,0.4,0.2,0.5,0.4s0.3,0.4,0.4,0.7L248.3,59.6z M246.7,54.4c0-0.4-0.1-0.7-0.4-0.9c-0.2-0.2-0.6-0.3-1-0.3h-0.9v2.4h0.8
		c0.2,0,0.4,0,0.6-0.1c0.2-0.1,0.3-0.1,0.5-0.2c0.1-0.1,0.2-0.2,0.3-0.4C246.7,54.7,246.7,54.6,246.7,54.4z"/>
	<path class="st9" d="M254.2,56.5c0,0.1,0,0.3,0,0.3c0,0.1,0,0.2,0,0.3h-3.9c0,0.6,0.2,1,0.5,1.3c0.3,0.3,0.8,0.5,1.4,0.5
		c0.2,0,0.3,0,0.5,0c0.2,0,0.3,0,0.5-0.1s0.3,0,0.4-0.1c0.1,0,0.3-0.1,0.4-0.1v0.8c-0.3,0.1-0.6,0.1-0.9,0.2c-0.3,0-0.7,0.1-1,0.1
		c-0.5,0-0.9-0.1-1.2-0.2c-0.3-0.1-0.6-0.3-0.8-0.6c-0.2-0.2-0.4-0.5-0.5-0.9c-0.1-0.4-0.2-0.8-0.2-1.2c0-0.4,0.1-0.8,0.2-1.1
		c0.1-0.3,0.3-0.7,0.5-0.9c0.2-0.3,0.5-0.5,0.8-0.6s0.7-0.2,1.1-0.2c0.4,0,0.7,0.1,1,0.2c0.3,0.1,0.5,0.3,0.8,0.5
		c0.2,0.2,0.4,0.5,0.5,0.8C254.2,55.8,254.2,56.1,254.2,56.5z M253.2,56.4c0-0.2,0-0.5-0.1-0.7c-0.1-0.2-0.1-0.4-0.3-0.5
		c-0.1-0.1-0.3-0.3-0.5-0.3c-0.2-0.1-0.4-0.1-0.6-0.1c-0.2,0-0.4,0-0.6,0.1c-0.2,0.1-0.3,0.2-0.4,0.3c-0.1,0.1-0.2,0.3-0.3,0.5
		c-0.1,0.2-0.1,0.4-0.1,0.7H253.2z"/>
	<path class="st9" d="M259.3,59.6l0-0.7c-0.3,0.3-0.6,0.5-0.9,0.6c-0.3,0.1-0.6,0.2-1,0.2c-0.3,0-0.6,0-0.8-0.1
		c-0.2-0.1-0.4-0.2-0.6-0.3c-0.1-0.1-0.3-0.3-0.3-0.5c-0.1-0.2-0.1-0.4-0.1-0.6c0-0.6,0.2-1,0.6-1.3c0.4-0.3,1-0.5,1.8-0.5h1.1v-0.5
		c0-0.3-0.1-0.6-0.3-0.8c-0.2-0.2-0.5-0.3-1-0.3c-0.3,0-0.6,0-0.9,0.1c-0.3,0.1-0.6,0.2-0.9,0.3v-0.9c0.1,0,0.3-0.1,0.4-0.1
		c0.1,0,0.3-0.1,0.5-0.1s0.3-0.1,0.5-0.1s0.4,0,0.5,0c0.3,0,0.6,0,0.9,0.1c0.3,0.1,0.5,0.2,0.7,0.3c0.2,0.2,0.3,0.3,0.4,0.6
		c0.1,0.2,0.1,0.5,0.1,0.8v3.8H259.3z M259.2,57.1H258c-0.2,0-0.4,0-0.6,0.1s-0.3,0.1-0.4,0.2c-0.1,0.1-0.2,0.2-0.2,0.3
		c-0.1,0.1-0.1,0.3-0.1,0.4c0,0.1,0,0.2,0,0.3c0,0.1,0.1,0.2,0.2,0.3c0.1,0.1,0.2,0.1,0.3,0.2c0.1,0,0.3,0.1,0.4,0.1
		c0.2,0,0.5-0.1,0.8-0.2c0.3-0.1,0.6-0.3,0.9-0.6V57.1z"/>
	<path class="st9" d="M261.7,56.9c0-0.5,0.1-0.9,0.2-1.3s0.3-0.7,0.5-0.9c0.2-0.3,0.5-0.4,0.9-0.6c0.3-0.1,0.7-0.2,1.1-0.2
		c0.2,0,0.4,0,0.5,0c0.2,0,0.3,0.1,0.5,0.1v-2.3h1v7.8h-0.9l0-1c-0.3,0.4-0.6,0.7-0.9,0.9c-0.3,0.2-0.7,0.3-1,0.3
		c-0.3,0-0.6-0.1-0.8-0.2c-0.2-0.1-0.4-0.3-0.6-0.6c-0.2-0.2-0.3-0.5-0.4-0.9C261.7,57.7,261.7,57.4,261.7,56.9z M262.7,56.9
		c0,0.7,0.1,1.2,0.3,1.5s0.5,0.5,0.8,0.5c0.2,0,0.5-0.1,0.8-0.3c0.3-0.2,0.6-0.5,0.9-1V55c-0.2-0.1-0.3-0.1-0.5-0.2
		c-0.2,0-0.4-0.1-0.6-0.1c-0.5,0-0.9,0.2-1.2,0.5C262.8,55.6,262.7,56.2,262.7,56.9z"/>
	<path class="st9" d="M277.7,61.9c-1.7-1.6-2.5-3.3-2.5-5.2c0-0.4,0-0.9,0.1-1.3c0.1-0.4,0.2-0.9,0.4-1.3c0.2-0.4,0.5-0.9,0.8-1.3
		c0.3-0.4,0.7-0.9,1.2-1.3l0.6,0.6c-1.4,1.4-2.1,3-2.1,4.7c0,0.9,0.2,1.7,0.5,2.5c0.4,0.8,0.9,1.5,1.6,2.2L277.7,61.9z"/>
	<path class="st9" d="M285.2,59.6h-4.5v-0.9h1.9v-5.3l-1.7,0.9l-0.4-0.8l2.3-1.2h0.8v6.4h1.6V59.6z"/>
	<path class="st9" d="M288,51.4c1.7,1.6,2.5,3.3,2.5,5.2c0,0.4,0,0.8-0.1,1.2s-0.2,0.9-0.4,1.3s-0.5,0.9-0.8,1.4
		c-0.3,0.5-0.7,0.9-1.2,1.4l-0.6-0.6c0.7-0.7,1.3-1.5,1.6-2.2c0.4-0.8,0.5-1.6,0.5-2.4c0-1.8-0.7-3.3-2.1-4.7L288,51.4z"/>
	<path class="st9" d="M304.1,56.8c0,0.4-0.1,0.8-0.2,1.2c-0.1,0.4-0.3,0.7-0.5,0.9c-0.2,0.3-0.5,0.5-0.8,0.6s-0.7,0.2-1.1,0.2
		c-0.4,0-0.8-0.1-1.1-0.2c-0.3-0.1-0.6-0.3-0.8-0.5s-0.4-0.5-0.5-0.9c-0.1-0.4-0.2-0.8-0.2-1.2c0-0.4,0.1-0.8,0.2-1.2
		c0.1-0.4,0.3-0.7,0.5-0.9c0.2-0.3,0.5-0.5,0.8-0.6c0.3-0.1,0.7-0.2,1.1-0.2c0.4,0,0.8,0.1,1.1,0.2s0.6,0.3,0.8,0.5s0.4,0.5,0.5,0.9
		C304,55.9,304.1,56.3,304.1,56.8z M303.1,56.8c0-0.3,0-0.6-0.1-0.9c-0.1-0.3-0.2-0.5-0.3-0.6s-0.3-0.3-0.5-0.4
		c-0.2-0.1-0.4-0.1-0.7-0.1c-0.3,0-0.5,0.1-0.7,0.2s-0.4,0.3-0.5,0.5c-0.1,0.2-0.2,0.4-0.3,0.7s-0.1,0.5-0.1,0.8
		c0,0.3,0,0.6,0.1,0.9c0.1,0.3,0.2,0.5,0.3,0.6s0.3,0.3,0.5,0.4c0.2,0.1,0.4,0.1,0.7,0.1c0.3,0,0.5-0.1,0.7-0.2
		c0.2-0.1,0.4-0.3,0.5-0.5c0.1-0.2,0.2-0.4,0.3-0.7C303.1,57.4,303.1,57.1,303.1,56.8z"/>
	<path class="st9" d="M305.7,54.1h0.9l0,1c0.3-0.4,0.7-0.7,1-0.9s0.6-0.3,1-0.3c0.6,0,1,0.2,1.3,0.6c0.3,0.4,0.4,0.9,0.4,1.7h-1
		c0-0.5-0.1-0.8-0.2-1.1c-0.2-0.2-0.4-0.3-0.7-0.3c-0.1,0-0.3,0-0.4,0.1c-0.1,0-0.3,0.1-0.4,0.2c-0.1,0.1-0.3,0.2-0.4,0.4
		s-0.3,0.3-0.5,0.6v3.6h-1V54.1z"/>
	<path class="st9" d="M323,52.4l-0.5,7.2h-1.3l-0.9-2.6l-0.2-0.8l-0.3,0.9l-0.8,2.5h-1.2l-0.5-7.2h0.9l0.3,4.9l0.1,1.3l0.3-1.1
		l0.9-2.7h0.7l1,2.9l0.3,0.9l0-1l0.3-5.3H323z"/>
	<path class="st9" d="M324.3,54.1h0.9l0,1c0.3-0.4,0.7-0.7,1-0.9c0.3-0.2,0.6-0.3,1-0.3c0.6,0,1,0.2,1.3,0.6
		c0.3,0.4,0.4,0.9,0.4,1.7h-1c0-0.5-0.1-0.8-0.2-1.1c-0.2-0.2-0.4-0.3-0.7-0.3c-0.1,0-0.3,0-0.4,0.1s-0.3,0.1-0.4,0.2
		c-0.1,0.1-0.3,0.2-0.4,0.4c-0.2,0.2-0.3,0.3-0.5,0.6v3.6h-1V54.1z"/>
	<path class="st9" d="M332.2,54.9h-1.6v-0.8h2.6v4.7h1.7v0.8h-4.4v-0.8h1.8V54.9z M332.5,51.7c0.1,0,0.2,0,0.3,0.1
		c0.1,0,0.2,0.1,0.2,0.2c0.1,0.1,0.1,0.1,0.2,0.2c0,0.1,0.1,0.2,0.1,0.3c0,0.1,0,0.2-0.1,0.3c0,0.1-0.1,0.2-0.2,0.2
		c-0.1,0.1-0.1,0.1-0.2,0.2c-0.1,0-0.2,0.1-0.3,0.1c-0.1,0-0.2,0-0.3-0.1c-0.1,0-0.2-0.1-0.2-0.2c-0.1-0.1-0.1-0.2-0.2-0.2
		s-0.1-0.2-0.1-0.3c0-0.1,0-0.2,0.1-0.3c0-0.1,0.1-0.2,0.2-0.2c0.1-0.1,0.1-0.1,0.2-0.2C332.3,51.8,332.4,51.7,332.5,51.7z"/>
	<path class="st9" d="M341,59.5c-0.2,0.1-0.4,0.1-0.7,0.1c-0.2,0-0.5,0-0.7,0c-0.7,0-1.2-0.2-1.6-0.5s-0.5-0.8-0.5-1.4v-2.9H336
		v-0.8h1.5v-1.5l1-0.2v1.8h2.5v0.8h-2.5v2.8c0,0.4,0.1,0.7,0.3,0.9c0.2,0.2,0.5,0.3,0.9,0.3c0.2,0,0.4,0,0.6,0
		c0.2,0,0.4-0.1,0.7-0.1V59.5z"/>
	<path class="st9" d="M347.4,56.5c0,0.1,0,0.3,0,0.3c0,0.1,0,0.2,0,0.3h-3.9c0,0.6,0.2,1,0.5,1.3c0.3,0.3,0.8,0.5,1.4,0.5
		c0.2,0,0.3,0,0.5,0s0.3,0,0.5-0.1c0.2,0,0.3,0,0.4-0.1c0.1,0,0.3-0.1,0.4-0.1v0.8c-0.3,0.1-0.6,0.1-0.9,0.2c-0.3,0-0.7,0.1-1,0.1
		c-0.5,0-0.9-0.1-1.2-0.2s-0.6-0.3-0.8-0.6c-0.2-0.2-0.4-0.5-0.5-0.9c-0.1-0.4-0.2-0.8-0.2-1.2c0-0.4,0.1-0.8,0.2-1.1
		c0.1-0.3,0.3-0.7,0.5-0.9c0.2-0.3,0.5-0.5,0.8-0.6s0.7-0.2,1.1-0.2c0.4,0,0.7,0.1,1,0.2c0.3,0.1,0.5,0.3,0.8,0.5
		c0.2,0.2,0.4,0.5,0.5,0.8C347.4,55.8,347.4,56.1,347.4,56.5z M346.4,56.4c0-0.2,0-0.5-0.1-0.7c-0.1-0.2-0.1-0.4-0.3-0.5
		c-0.1-0.1-0.3-0.3-0.5-0.3s-0.4-0.1-0.6-0.1c-0.2,0-0.4,0-0.6,0.1c-0.2,0.1-0.3,0.2-0.4,0.3c-0.1,0.1-0.2,0.3-0.3,0.5
		c-0.1,0.2-0.1,0.4-0.1,0.7H346.4z"/>
	<path class="st9" d="M358.5,61.9c-1.7-1.6-2.5-3.3-2.5-5.2c0-0.4,0-0.9,0.1-1.3c0.1-0.4,0.2-0.9,0.4-1.3c0.2-0.4,0.5-0.9,0.8-1.3
		c0.3-0.4,0.7-0.9,1.2-1.3l0.6,0.6c-1.4,1.4-2.1,3-2.1,4.7c0,0.9,0.2,1.7,0.5,2.5c0.4,0.8,0.9,1.5,1.6,2.2L358.5,61.9z"/>
	<path class="st9" d="M366.2,56c0,0.6-0.1,1.1-0.2,1.5s-0.3,0.8-0.5,1.2c-0.2,0.3-0.5,0.6-0.8,0.8c-0.3,0.2-0.7,0.3-1.2,0.3
		c-0.4,0-0.7-0.1-1.1-0.2c-0.3-0.1-0.6-0.4-0.8-0.7s-0.4-0.7-0.5-1.2c-0.1-0.5-0.2-1-0.2-1.7c0-0.6,0.1-1.1,0.2-1.5
		c0.1-0.5,0.3-0.8,0.5-1.2c0.2-0.3,0.5-0.6,0.8-0.8s0.7-0.3,1.2-0.3c0.4,0,0.7,0.1,1.1,0.2s0.6,0.4,0.8,0.7c0.2,0.3,0.4,0.7,0.5,1.2
		C366.2,54.8,366.2,55.4,366.2,56z M362,56c0,0.1,0,0.2,0,0.3s0,0.2,0,0.3l3.1-2.3c-0.1-0.2-0.1-0.4-0.2-0.5
		c-0.1-0.2-0.2-0.3-0.3-0.4c-0.1-0.1-0.3-0.2-0.4-0.3s-0.3-0.1-0.5-0.1c-0.3,0-0.5,0.1-0.7,0.2s-0.4,0.3-0.5,0.5
		c-0.1,0.2-0.3,0.5-0.3,0.9C362,55.1,362,55.5,362,56z M365.3,56c0-0.1,0-0.2,0-0.4c0-0.1,0-0.2,0-0.4l-3.1,2.3
		c0.1,0.2,0.1,0.4,0.2,0.5c0.1,0.2,0.2,0.3,0.3,0.4c0.1,0.1,0.3,0.2,0.4,0.3c0.2,0.1,0.3,0.1,0.5,0.1c0.3,0,0.5-0.1,0.7-0.2
		c0.2-0.1,0.4-0.3,0.5-0.5s0.3-0.5,0.3-0.9C365.2,56.9,365.3,56.5,365.3,56z"/>
	<path class="st9" d="M368.7,51.4c1.7,1.6,2.5,3.3,2.5,5.2c0,0.4,0,0.8-0.1,1.2s-0.2,0.9-0.4,1.3s-0.5,0.9-0.8,1.4s-0.7,0.9-1.2,1.4
		l-0.6-0.6c0.7-0.7,1.3-1.5,1.6-2.2c0.4-0.8,0.5-1.6,0.5-2.4c0-1.8-0.7-3.3-2.1-4.7L368.7,51.4z"/>
	<path class="st9" d="M384.8,56.7c0,0.5-0.1,0.9-0.2,1.2c-0.1,0.4-0.3,0.7-0.5,0.9s-0.5,0.4-0.9,0.6c-0.3,0.1-0.7,0.2-1.1,0.2
		c-0.3,0-0.7,0-1-0.1c-0.3-0.1-0.7-0.2-1-0.3v-7.5h1v2.1l0,1c0.3-0.4,0.6-0.6,0.9-0.8c0.3-0.2,0.7-0.2,1-0.2c0.3,0,0.6,0.1,0.8,0.2
		c0.2,0.1,0.4,0.3,0.6,0.6c0.2,0.2,0.3,0.5,0.4,0.9C384.7,55.9,384.8,56.3,384.8,56.7z M383.8,56.8c0-0.3,0-0.6-0.1-0.8
		c0-0.2-0.1-0.5-0.2-0.6c-0.1-0.2-0.2-0.3-0.4-0.4s-0.3-0.1-0.5-0.1c-0.1,0-0.2,0-0.4,0.1c-0.1,0-0.3,0.1-0.4,0.2
		c-0.1,0.1-0.3,0.2-0.4,0.4c-0.1,0.1-0.3,0.3-0.5,0.6v2.7c0.2,0.1,0.4,0.1,0.6,0.2c0.2,0,0.4,0.1,0.6,0.1c0.2,0,0.4,0,0.6-0.1
		c0.2-0.1,0.4-0.2,0.5-0.4c0.2-0.2,0.3-0.4,0.4-0.7C383.7,57.5,383.8,57.2,383.8,56.8z"/>
	<path class="st9" d="M388.1,54.9h-1.6v-0.8h2.6v4.7h1.7v0.8h-4.4v-0.8h1.8V54.9z M388.5,51.7c0.1,0,0.2,0,0.3,0.1
		c0.1,0,0.2,0.1,0.2,0.2c0.1,0.1,0.1,0.1,0.2,0.2c0,0.1,0.1,0.2,0.1,0.3c0,0.1,0,0.2-0.1,0.3c0,0.1-0.1,0.2-0.2,0.2
		c-0.1,0.1-0.1,0.1-0.2,0.2c-0.1,0-0.2,0.1-0.3,0.1c-0.1,0-0.2,0-0.3-0.1c-0.1,0-0.2-0.1-0.2-0.2c-0.1-0.1-0.1-0.2-0.2-0.2
		s-0.1-0.2-0.1-0.3c0-0.1,0-0.2,0.1-0.3c0-0.1,0.1-0.2,0.2-0.2c0.1-0.1,0.1-0.1,0.2-0.2C388.3,51.8,388.4,51.7,388.5,51.7z"/>
	<path class="st9" d="M396.9,59.5c-0.2,0.1-0.4,0.1-0.7,0.1c-0.2,0-0.5,0-0.7,0c-0.7,0-1.2-0.2-1.6-0.5s-0.5-0.8-0.5-1.4v-2.9h-1.5
		v-0.8h1.5v-1.5l1-0.2v1.8h2.5v0.8h-2.5v2.8c0,0.4,0.1,0.7,0.3,0.9c0.2,0.2,0.5,0.3,0.9,0.3c0.2,0,0.4,0,0.6,0
		c0.2,0,0.4-0.1,0.7-0.1V59.5z"/>
</g>
</svg>
