<svg id="Layer_1" data-name="Layer 1" xmlns="http://www.w3.org/2000/svg" xmlns:xlink="http://www.w3.org/1999/xlink" viewBox="0 0 582 199"><defs><style>.cls-1{fill:#eb2d34;}.cls-16,.cls-2,.cls-20,.cls-22{fill:#231f20;}.cls-19,.cls-3{fill:none;}.cls-10,.cls-14,.cls-19,.cls-20,.cls-21,.cls-3,.cls-4,.cls-9{stroke:#231f20;stroke-miterlimit:10;}.cls-3{stroke-width:1.48px;}.cls-4{fill:#00aeef;stroke-width:1.69px;}.cls-16,.cls-5{font-size:17.77px;}.cls-11,.cls-21,.cls-5{fill:#fff;}.cls-11,.cls-16,.cls-22,.cls-5{font-family:RobotoSlab-Regular, Roboto Slab;}.cls-6{letter-spacing:-0.04em;}.cls-7{letter-spacing:-0.01em;}.cls-8{letter-spacing:0em;}.cls-9{fill:#00a651;}.cls-10,.cls-14,.cls-19,.cls-20,.cls-21,.cls-9{stroke-width:1.3px;}.cls-10{fill:#2e3192;}.cls-11{font-size:14.8px;}.cls-12{letter-spacing:-0.01em;}.cls-13{letter-spacing:-0.01em;}.cls-14{fill:#ef4136;}.cls-15{letter-spacing:-0.04em;}.cls-17{letter-spacing:-0.04em;}.cls-18{letter-spacing:-0.14em;}.cls-22{font-size:19.84px;}.cls-23{font-size:13.92px;}.cls-24{letter-spacing:0.01em;}</style><symbol id="Arrow_3" data-name="Arrow 3" viewBox="0 0 23.18 21.53"><polygon class="cls-1" points="0 21.53 8.92 10.76 0 0 23.18 10.76 0 21.53"/><polygon class="cls-2" points="0 21.53 8.92 10.76 0 0 23.18 10.76 0 21.53"/></symbol></defs><title>i2c-overview</title><line class="cls-3" x1="134.61" y1="85.99" x2="576" y2="85.99"/><line class="cls-3" x1="134.61" y1="112.15" x2="576" y2="112.15"/><rect class="cls-4" y="68.48" width="134.72" height="58.97"/><text class="cls-5" transform="translate(13.32 102.73)"><tspan class="cls-6">T</tspan><tspan class="cls-7" x="10.49" y="0">r</tspan><tspan x="17.67" y="0">ee</tspan><tspan class="cls-8" x="36.77" y="0">h</tspan><tspan x="48.15" y="0">opper</tspan></text><rect class="cls-9" x="245.75" y="138.3" width="79.94" height="58.97"/><text class="cls-5" transform="translate(267.91 172.56)">IMU</text><rect class="cls-10" x="341.49" y="138.3" width="79.94" height="58.97"/><text class="cls-11" transform="translate(350.77 166.36)">P<tspan class="cls-12" x="9.4" y="0">r</tspan><tspan x="15.39" y="0">essu</tspan><tspan class="cls-13" x="47.43" y="0">r</tspan><tspan x="53.42" y="0">e </tspan><tspan x="6.45" y="14.8">Sensor</tspan></text><rect class="cls-14" x="439.19" y="138.3" width="79.94" height="58.97"/><text class="cls-5" transform="translate(461.47 172.56)"><tspan class="cls-15">DA</tspan><tspan x="23.93" y="0">C</tspan></text><text class="cls-16" transform="translate(145.08 79.29)">S<tspan class="cls-17" x="10.82" y="0">D</tspan><tspan x="22.43" y="0">A</tspan><tspan class="cls-18" x="35.44" y="0"> </tspan><tspan x="37.37" y="0">(Pin 3)</tspan></text><text class="cls-16" transform="translate(145.08 106.43)">SCL (Pin 4)</text><line class="cls-19" x1="279.31" y1="138.3" x2="279.31" y2="112.15"/><line class="cls-19" x1="300.03" y1="138.3" x2="300.03" y2="85.99"/><circle class="cls-20" cx="279.31" cy="112.15" r="2.47"/><circle class="cls-20" cx="300.03" cy="85.99" r="2.31"/><line class="cls-19" x1="376.03" y1="138.3" x2="376.03" y2="112.15"/><line class="cls-19" x1="396.76" y1="138.3" x2="396.76" y2="85.99"/><circle class="cls-20" cx="376.03" cy="112.15" r="2.47"/><circle class="cls-20" cx="396.76" cy="85.99" r="2.31"/><line class="cls-19" x1="468.88" y1="138.3" x2="468.88" y2="112.15"/><line class="cls-19" x1="489.61" y1="138.3" x2="489.61" y2="85.99"/><circle class="cls-20" cx="468.88" cy="112.15" r="2.47"/><circle class="cls-20" cx="489.61" cy="85.99" r="2.31"/><circle class="cls-20" cx="520.87" cy="85.99" r="2.31"/><circle class="cls-20" cx="544.46" cy="112.15" r="2.31"/><polyline class="cls-21" points="520.62 85.99 520.62 73.66 524.32 71.19 517.41 67.49 524.32 64.28 517.41 61.32 524.32 57.37 517.41 54.16 520.87 51.57 520.87 39.36"/><polyline class="cls-21" points="544.21 112.15 544.21 73.66 547.91 71.19 541 67.49 547.91 64.28 541 61.32 547.91 57.37 541 54.16 544.46 51.57 544.46 39.36"/><use width="23.18" height="21.53" transform="translate(540.57 43.55) rotate(-90) scale(0.36)" xlink:href="#Arrow_3"/><use width="23.18" height="21.53" transform="translate(516.97 43.55) rotate(-90) scale(0.36)" xlink:href="#Arrow_3"/><text class="cls-22" transform="translate(511.55 15.12)">VDD<tspan class="cls-23"><tspan x="-23.76" y="16.71">(usually 3.3</tspan><tspan class="cls-24" x="50.93" y="16.71">V</tspan><tspan x="61.06" y="16.71">)</tspan></tspan></text></svg>