<svg id="Layer_1" data-name="Layer 1" xmlns="http://www.w3.org/2000/svg" viewBox="0 0 582 82.67"><defs><style>.cls-1,.cls-3{fill:#fff;}.cls-1,.cls-2,.cls-7,.cls-8{stroke:#231f20;stroke-miterlimit:10;}.cls-1{stroke-width:1.33px;}.cls-2{fill:#00aeef;stroke-width:1.08px;}.cls-3{font-size:11.38px;font-family:RobotoSlab-Regular, Roboto Slab;}.cls-4{letter-spacing:-0.04em;}.cls-5{letter-spacing:-0.01em;}.cls-6{letter-spacing:0em;}.cls-7{fill:#00a651;stroke-width:0.92px;}.cls-8{fill:none;}</style></defs><title>pins-current-limiting</title><polyline class="cls-1" points="326.33 35.31 313.73 35.31 311.21 31.53 307.43 38.59 304.16 31.53 301.13 38.59 297.1 31.53 293.83 38.59 291.18 35.06 278.71 35.06"/><rect class="cls-2" x="193.38" y="15.6" width="86.33" height="37.79"/><text class="cls-3" transform="translate(201.92 36.91)"><tspan class="cls-4">T</tspan><tspan class="cls-5" x="6.72" y="0">r</tspan><tspan x="11.32" y="0">ee</tspan><tspan class="cls-6" x="23.56" y="0">h</tspan><tspan x="30.86" y="0">opper</tspan></text><rect class="cls-7" x="325.04" y="15.6" width="61.59" height="37.79"/><text class="cls-3" transform="translate(328.97 38.37)">5V signal</text><line class="cls-8" x1="375.33" y1="53.39" x2="375.33" y2="64.83"/><line class="cls-8" x1="366.67" y1="64.83" x2="384" y2="64.83"/><line class="cls-8" x1="371.33" y1="67.5" x2="379.66" y2="67.5"/><line class="cls-8" x1="373.67" y1="70" x2="376.91" y2="70"/><line class="cls-8" x1="268.5" y1="53.39" x2="268.5" y2="64.83"/><line class="cls-8" x1="259.83" y1="64.83" x2="277.17" y2="64.83"/><line class="cls-8" x1="264.5" y1="67.5" x2="272.82" y2="67.5"/><line class="cls-8" x1="266.83" y1="70" x2="270.07" y2="70"/></svg>