<?xml version="1.0" encoding="utf-8"?>
<!-- Generator: Adobe Illustrator 22.0.2, SVG Export Plug-In . SVG Version: 6.00 Build 0)  -->
<svg version="1.1" id="Layer_1" xmlns="http://www.w3.org/2000/svg" xmlns:xlink="http://www.w3.org/1999/xlink" x="0px" y="0px"
	 viewBox="0 0 582 113.5" style="enable-background:new 0 0 582 113.5;" xml:space="preserve">
<style type="text/css">
	.st0{fill:none;stroke:#231F20;stroke-width:1.23;stroke-miterlimit:10;}
	.st1{fill:#00AEEF;stroke:#231F20;stroke-width:1.5;stroke-miterlimit:10;}
	.st2{enable-background:new    ;}
	.st3{fill:#FFFFFF;}
	.st4{fill:#00A651;stroke:#231F20;stroke-width:1.55;stroke-miterlimit:10;}
	.st5{fill:#231F20;}
</style>
<title>spi-overview</title>
<line class="st0" x1="233.9" y1="76.7" x2="344.7" y2="76.7"/>
<line class="st0" x1="233.9" y1="60.1" x2="344.7" y2="60.1"/>
<line class="st0" x1="233.9" y1="42.6" x2="344.7" y2="42.6"/>
<line class="st0" x1="233.9" y1="93" x2="344.7" y2="93"/>
<rect x="150.1" y="28.3" class="st1" width="83.9" height="74.3"/>
<g class="st2">
	<path class="st3" d="M160.2,88.8v1.7h-0.9l-0.1-0.9h-1.7v6.2l0.9,0.2v0.7h-2.8v-0.7l0.9-0.2v-6.2h-1.8l-0.1,0.9h-0.9v-1.7H160.2z"
		/>
</g>
<g class="st2">
	<path class="st3" d="M160.5,91.5v-0.7h1.8l0.1,0.8c0.2-0.3,0.4-0.5,0.6-0.7c0.2-0.2,0.5-0.3,0.8-0.3c0.1,0,0.2,0,0.3,0s0.2,0,0.2,0
		l-0.1,1l-0.6,0c-0.3,0-0.5,0.1-0.7,0.2s-0.3,0.3-0.4,0.6v3.4l0.9,0.2v0.7h-2.8v-0.7l0.9-0.2v-4.2L160.5,91.5z"/>
</g>
<g class="st2">
	<path class="st3" d="M167.6,96.7c-0.8,0-1.5-0.3-1.9-0.8c-0.5-0.5-0.7-1.2-0.7-2.1v-0.2c0-0.8,0.2-1.5,0.7-2.1
		c0.5-0.6,1.1-0.8,1.8-0.8c0.8,0,1.4,0.2,1.8,0.7c0.4,0.5,0.6,1.1,0.6,1.9v0.7H166l0,0c0,0.6,0.2,1,0.4,1.4c0.3,0.4,0.7,0.5,1.2,0.5
		c0.4,0,0.7-0.1,0.9-0.2c0.3-0.1,0.5-0.2,0.7-0.4l0.4,0.7c-0.2,0.2-0.5,0.4-0.8,0.5C168.5,96.7,168.1,96.7,167.6,96.7z M167.4,91.5
		c-0.4,0-0.7,0.2-0.9,0.5c-0.3,0.3-0.4,0.7-0.5,1.1l0,0h2.7V93c0-0.4-0.1-0.8-0.3-1C168.2,91.6,167.9,91.5,167.4,91.5z"/>
	<path class="st3" d="M173.6,96.7c-0.8,0-1.5-0.3-1.9-0.8c-0.5-0.5-0.7-1.2-0.7-2.1v-0.2c0-0.8,0.2-1.5,0.7-2.1
		c0.5-0.6,1.1-0.8,1.8-0.8c0.8,0,1.4,0.2,1.8,0.7c0.4,0.5,0.6,1.1,0.6,1.9v0.7H172l0,0c0,0.6,0.2,1,0.4,1.4c0.3,0.4,0.7,0.5,1.2,0.5
		c0.4,0,0.7-0.1,0.9-0.2c0.3-0.1,0.5-0.2,0.7-0.4l0.4,0.7c-0.2,0.2-0.5,0.4-0.8,0.5C174.4,96.7,174,96.7,173.6,96.7z M173.4,91.5
		c-0.4,0-0.7,0.2-0.9,0.5c-0.3,0.3-0.4,0.7-0.5,1.1l0,0h2.7V93c0-0.4-0.1-0.8-0.3-1C174.2,91.6,173.8,91.5,173.4,91.5z"/>
</g>
<g class="st2">
	<path class="st3" d="M176.7,95.9l0.9-0.2V89l-0.9-0.2v-0.7h1.9v3.4c0.2-0.3,0.4-0.5,0.7-0.7c0.3-0.2,0.6-0.2,1-0.2
		c0.6,0,1.1,0.2,1.5,0.6c0.3,0.4,0.5,1,0.5,1.7v2.8l0.9,0.2v0.7h-2.8v-0.7l0.9-0.2v-2.8c0-0.5-0.1-0.8-0.3-1.1s-0.5-0.3-0.9-0.3
		c-0.3,0-0.6,0.1-0.8,0.2c-0.2,0.1-0.4,0.3-0.6,0.6v3.5l0.9,0.2v0.7h-2.8V95.9z"/>
</g>
<g class="st2">
	<path class="st3" d="M183.9,93.6c0-0.9,0.2-1.6,0.7-2.1c0.5-0.6,1.1-0.8,1.9-0.8c0.8,0,1.4,0.3,1.9,0.8c0.5,0.6,0.7,1.3,0.7,2.1
		v0.1c0,0.9-0.2,1.6-0.7,2.1s-1.1,0.8-1.9,0.8c-0.8,0-1.5-0.3-1.9-0.8c-0.5-0.6-0.7-1.3-0.7-2.1V93.6z M185,93.8
		c0,0.6,0.1,1.1,0.4,1.5c0.3,0.4,0.6,0.6,1.2,0.6c0.5,0,0.9-0.2,1.2-0.6s0.4-0.9,0.4-1.5v-0.1c0-0.6-0.1-1.1-0.4-1.5
		s-0.7-0.6-1.2-0.6s-0.9,0.2-1.2,0.6S185,93,185,93.6V93.8z"/>
	<path class="st3" d="M190,98.2l0.9-0.2v-6.4l-0.9-0.2v-0.7h1.8l0.1,0.7c0.2-0.3,0.4-0.5,0.7-0.6s0.6-0.2,1-0.2
		c0.7,0,1.3,0.3,1.7,0.9c0.4,0.6,0.6,1.3,0.6,2.3v0.1c0,0.8-0.2,1.5-0.6,2c-0.4,0.5-1,0.8-1.7,0.8c-0.4,0-0.7-0.1-0.9-0.2
		c-0.3-0.1-0.5-0.3-0.7-0.5v2l0.9,0.2v0.7H190V98.2z M194.8,93.8c0-0.7-0.1-1.2-0.4-1.6c-0.3-0.4-0.6-0.6-1.2-0.6
		c-0.3,0-0.6,0.1-0.8,0.2c-0.2,0.1-0.4,0.3-0.5,0.6v2.8c0.1,0.2,0.3,0.4,0.5,0.6s0.5,0.2,0.8,0.2c0.5,0,0.9-0.2,1.1-0.6
		c0.3-0.4,0.4-0.8,0.4-1.4V93.8z"/>
	<path class="st3" d="M196.7,98.2l0.9-0.2v-6.4l-0.9-0.2v-0.7h1.8l0.1,0.7c0.2-0.3,0.4-0.5,0.7-0.6s0.6-0.2,1-0.2
		c0.7,0,1.3,0.3,1.7,0.9c0.4,0.6,0.6,1.3,0.6,2.3v0.1c0,0.8-0.2,1.5-0.6,2c-0.4,0.5-1,0.8-1.7,0.8c-0.4,0-0.7-0.1-0.9-0.2
		c-0.3-0.1-0.5-0.3-0.7-0.5v2l0.9,0.2v0.7h-2.8V98.2z M201.5,93.8c0-0.7-0.1-1.2-0.4-1.6c-0.3-0.4-0.6-0.6-1.2-0.6
		c-0.3,0-0.6,0.1-0.8,0.2c-0.2,0.1-0.4,0.3-0.5,0.6v2.8c0.1,0.2,0.3,0.4,0.5,0.6s0.5,0.2,0.8,0.2c0.5,0,0.9-0.2,1.1-0.6
		c0.3-0.4,0.4-0.8,0.4-1.4V93.8z"/>
	<path class="st3" d="M206.2,96.7c-0.8,0-1.5-0.3-1.9-0.8c-0.5-0.5-0.7-1.2-0.7-2.1v-0.2c0-0.8,0.2-1.5,0.7-2.1
		c0.5-0.6,1.1-0.8,1.8-0.8c0.8,0,1.4,0.2,1.8,0.7c0.4,0.5,0.6,1.1,0.6,1.9v0.7h-3.8l0,0c0,0.6,0.2,1,0.4,1.4
		c0.3,0.4,0.7,0.5,1.2,0.5c0.4,0,0.7-0.1,0.9-0.2c0.3-0.1,0.5-0.2,0.7-0.4l0.4,0.7c-0.2,0.2-0.5,0.4-0.8,0.5
		C207.1,96.7,206.7,96.7,206.2,96.7z M206,91.5c-0.4,0-0.7,0.2-0.9,0.5c-0.3,0.3-0.4,0.7-0.5,1.1l0,0h2.7V93c0-0.4-0.1-0.8-0.3-1
		C206.8,91.6,206.5,91.5,206,91.5z"/>
	<path class="st3" d="M209.5,91.5v-0.7h1.8l0.1,0.8c0.2-0.3,0.4-0.5,0.6-0.7c0.2-0.2,0.5-0.3,0.8-0.3c0.1,0,0.2,0,0.3,0s0.2,0,0.2,0
		l-0.1,1l-0.6,0c-0.3,0-0.5,0.1-0.7,0.2s-0.3,0.3-0.4,0.6v3.4l0.9,0.2v0.7h-2.8v-0.7l0.9-0.2v-4.2L209.5,91.5z"/>
</g>
<rect x="344.7" y="28.3" class="st4" width="87.2" height="76.8"/>
<g class="st2">
	<path class="st3" d="M377.8,93.6c0.8,0,1.5,0.2,2,0.6s0.7,1,0.7,1.7c0,0.7-0.2,1.3-0.7,1.7s-1.1,0.6-2,0.6h-1.7v2.3l0.9,0.2v0.7
		h-2.8v-0.7l0.9-0.2v-6.2l-0.9-0.2v-0.7h0.9H377.8z M376.1,97.4h1.7c0.5,0,0.9-0.1,1.2-0.4c0.3-0.3,0.4-0.6,0.4-1.1
		c0-0.4-0.1-0.8-0.4-1.1c-0.3-0.3-0.7-0.4-1.2-0.4h-1.7V97.4z"/>
</g>
<g class="st2">
	<path class="st3" d="M383.9,101.5c-0.8,0-1.5-0.3-1.9-0.8c-0.5-0.5-0.7-1.2-0.7-2.1v-0.2c0-0.8,0.2-1.5,0.7-2.1
		c0.5-0.6,1.1-0.8,1.8-0.8c0.8,0,1.4,0.2,1.8,0.7s0.6,1.1,0.6,1.9v0.7h-3.8l0,0c0,0.6,0.2,1,0.4,1.4c0.3,0.4,0.7,0.5,1.2,0.5
		c0.4,0,0.7-0.1,0.9-0.2s0.5-0.2,0.7-0.4l0.4,0.7c-0.2,0.2-0.5,0.4-0.8,0.5S384.4,101.5,383.9,101.5z M383.8,96.3
		c-0.4,0-0.7,0.2-0.9,0.5c-0.3,0.3-0.4,0.7-0.5,1.1l0,0h2.7v-0.1c0-0.4-0.1-0.8-0.3-1S384.2,96.3,383.8,96.3z"/>
	<path class="st3" d="M387.2,96.3v-0.7h1.8l0.1,0.8c0.2-0.3,0.4-0.5,0.6-0.7c0.2-0.2,0.5-0.3,0.8-0.3c0.1,0,0.2,0,0.3,0
		c0.1,0,0.2,0,0.2,0l-0.1,1l-0.6,0c-0.3,0-0.5,0.1-0.7,0.2c-0.2,0.1-0.3,0.3-0.4,0.6v3.4l0.9,0.2v0.7h-2.8v-0.7l0.9-0.2v-4.2
		L387.2,96.3z"/>
	<path class="st3" d="M391.8,100.7l0.9-0.2v-4.2l-0.9-0.2v-0.7h1.9v5l0.9,0.2v0.7h-2.8V100.7z M393.7,94.1h-1.1V93h1.1V94.1z"/>
</g>
<g class="st2">
	<path class="st3" d="M395.3,103l0.9-0.2v-6.4l-0.9-0.2v-0.7h1.8l0.1,0.7c0.2-0.3,0.4-0.5,0.7-0.6s0.6-0.2,1-0.2
		c0.7,0,1.3,0.3,1.7,0.9c0.4,0.6,0.6,1.3,0.6,2.3v0.1c0,0.8-0.2,1.5-0.6,2c-0.4,0.5-1,0.8-1.7,0.8c-0.4,0-0.7-0.1-0.9-0.2
		c-0.3-0.1-0.5-0.3-0.7-0.5v2l0.9,0.2v0.7h-2.8V103z M400.1,98.6c0-0.7-0.1-1.2-0.4-1.6c-0.3-0.4-0.6-0.6-1.2-0.6
		c-0.3,0-0.6,0.1-0.8,0.2c-0.2,0.1-0.4,0.3-0.5,0.6v2.8c0.1,0.2,0.3,0.4,0.5,0.6c0.2,0.1,0.5,0.2,0.8,0.2c0.5,0,0.9-0.2,1.1-0.6
		c0.3-0.4,0.4-0.8,0.4-1.4V98.6z"/>
	<path class="st3" d="M401.9,100.7l0.9-0.2v-6.8l-0.9-0.2V93h1.9v3.4c0.2-0.3,0.4-0.5,0.7-0.7c0.3-0.2,0.6-0.2,1-0.2
		c0.6,0,1.1,0.2,1.5,0.6c0.3,0.4,0.5,1,0.5,1.7v2.8l0.9,0.2v0.7h-2.8v-0.7l0.9-0.2v-2.8c0-0.5-0.1-0.8-0.3-1.1s-0.5-0.3-0.9-0.3
		c-0.3,0-0.6,0.1-0.8,0.2c-0.2,0.1-0.4,0.3-0.6,0.6v3.5l0.9,0.2v0.7h-2.8V100.7z"/>
</g>
<g class="st2">
	<path class="st3" d="M411.8,101.5c-0.8,0-1.5-0.3-1.9-0.8c-0.5-0.5-0.7-1.2-0.7-2.1v-0.2c0-0.8,0.2-1.5,0.7-2.1
		c0.5-0.6,1.1-0.8,1.8-0.8c0.8,0,1.4,0.2,1.8,0.7c0.4,0.5,0.6,1.1,0.6,1.9v0.7h-3.8l0,0c0,0.6,0.2,1,0.4,1.4
		c0.3,0.4,0.7,0.5,1.2,0.5c0.4,0,0.7-0.1,0.9-0.2c0.3-0.1,0.5-0.2,0.7-0.4l0.4,0.7c-0.2,0.2-0.5,0.4-0.8,0.5
		C412.7,101.5,412.3,101.5,411.8,101.5z M411.7,96.3c-0.4,0-0.7,0.2-0.9,0.5c-0.3,0.3-0.4,0.7-0.5,1.1l0,0h2.7v-0.1
		c0-0.4-0.1-0.8-0.3-1C412.4,96.5,412.1,96.3,411.7,96.3z"/>
	<path class="st3" d="M415.1,96.3v-0.7h1.8l0.1,0.8c0.2-0.3,0.4-0.5,0.6-0.7c0.2-0.2,0.5-0.3,0.8-0.3c0.1,0,0.2,0,0.3,0
		c0.1,0,0.2,0,0.2,0l-0.1,1l-0.6,0c-0.3,0-0.5,0.1-0.7,0.2c-0.2,0.1-0.3,0.3-0.4,0.6v3.4l0.9,0.2v0.7h-2.8v-0.7l0.9-0.2v-4.2
		L415.1,96.3z"/>
	<path class="st3" d="M423.5,101.4c0-0.2-0.1-0.3-0.1-0.4c0-0.1,0-0.3,0-0.4c-0.2,0.3-0.5,0.5-0.8,0.7c-0.3,0.2-0.6,0.3-1,0.3
		c-0.6,0-1.1-0.1-1.4-0.4c-0.3-0.3-0.5-0.7-0.5-1.3c0-0.6,0.2-1,0.7-1.3s1.1-0.5,1.8-0.5h1.1v-0.7c0-0.3-0.1-0.6-0.3-0.8
		c-0.2-0.2-0.5-0.3-0.9-0.3c-0.3,0-0.5,0-0.7,0.1c-0.2,0.1-0.4,0.2-0.5,0.3l-0.1,0.6H420v-1.1c0.3-0.2,0.6-0.4,1-0.5
		c0.4-0.1,0.8-0.2,1.2-0.2c0.7,0,1.2,0.2,1.6,0.5c0.4,0.3,0.6,0.8,0.6,1.5v2.8c0,0.1,0,0.2,0,0.2c0,0.1,0,0.1,0,0.2l0.4,0.1v0.7
		H423.5z M421.8,100.7c0.4,0,0.7-0.1,1-0.3c0.3-0.2,0.5-0.4,0.6-0.6v-1h-1.1c-0.4,0-0.8,0.1-1,0.3c-0.3,0.2-0.4,0.4-0.4,0.7
		c0,0.3,0.1,0.5,0.2,0.6C421.2,100.6,421.5,100.7,421.8,100.7z"/>
	<path class="st3" d="M425.6,93.7V93h1.9v7.6l0.9,0.2v0.7h-2.8v-0.7l0.9-0.2v-6.8L425.6,93.7z"/>
</g>
<g class="st2">
	<path class="st5" d="M248.5,66.2L248.5,66.2l-2.6,6.3h-0.7l-2.5-6.3l0,0l0.1,3.2v2.3l0.9,0.2v0.7h-2.8v-0.7l0.9-0.2v-6.2l-0.9-0.2
		v-0.7h0.9h1.4l2.5,6.4h0l2.5-6.4h2.2v0.7l-0.9,0.2v6.2l0.9,0.2v0.7h-2.8v-0.7l0.9-0.2v-2.3L248.5,66.2z"/>
	<path class="st5" d="M258.1,68.7c0,1.1-0.3,2.1-1,2.9c-0.7,0.8-1.5,1.1-2.6,1.1c-1,0-1.8-0.4-2.5-1.1s-1-1.7-1-2.9v-0.1
		c0-1.1,0.3-2.1,1-2.9c0.6-0.8,1.5-1.1,2.5-1.1c1,0,1.9,0.4,2.6,1.1c0.7,0.8,1,1.7,1,2.9V68.7z M257.1,68.5c0-0.9-0.2-1.7-0.7-2.2
		s-1-0.9-1.8-0.9c-0.7,0-1.3,0.3-1.7,0.9s-0.6,1.3-0.6,2.2v0.1c0,0.9,0.2,1.7,0.6,2.3c0.4,0.6,1,0.9,1.7,0.9c0.8,0,1.4-0.3,1.8-0.9
		c0.4-0.6,0.6-1.3,0.6-2.3V68.5z"/>
	<path class="st5" d="M264.6,67h-0.8l-0.2-1.1c-0.2-0.1-0.4-0.3-0.6-0.3c-0.3-0.1-0.6-0.1-0.9-0.1c-0.6,0-1,0.1-1.3,0.4
		c-0.3,0.2-0.5,0.6-0.5,0.9c0,0.3,0.2,0.6,0.5,0.9c0.3,0.2,0.8,0.4,1.5,0.6c0.8,0.2,1.5,0.5,1.9,0.9c0.4,0.4,0.6,0.9,0.6,1.5
		c0,0.6-0.3,1.1-0.8,1.5s-1.2,0.6-2,0.6c-0.6,0-1.1-0.1-1.6-0.3s-0.9-0.5-1.1-0.8v-1.5h0.8l0.2,1.1c0.2,0.2,0.5,0.3,0.7,0.4
		c0.3,0.1,0.6,0.2,1,0.2c0.5,0,1-0.1,1.3-0.3c0.3-0.2,0.5-0.5,0.5-0.9c0-0.4-0.1-0.7-0.4-0.9c-0.3-0.2-0.7-0.4-1.4-0.6
		c-0.8-0.2-1.5-0.5-2-0.9c-0.5-0.4-0.7-0.9-0.7-1.5c0-0.6,0.3-1.1,0.8-1.5s1.2-0.6,2-0.6c0.6,0,1.1,0.1,1.5,0.3
		c0.5,0.2,0.8,0.4,1.1,0.7V67z"/>
	<path class="st5" d="M265.7,65.4v-0.7h2.8v0.7l-0.9,0.2v6.2l0.9,0.2v0.7h-2.8v-0.7l0.9-0.2v-6.2L265.7,65.4z"/>
</g>
<g class="st2">
	<path class="st5" d="M270.7,69.3c0-1.4,0.3-2.6,0.9-3.6c0.6-1,1.2-1.7,1.8-2l0,0l0.2,0.6c-0.5,0.4-0.9,1-1.3,1.9
		c-0.4,0.9-0.5,1.9-0.5,3.2v0.1c0,1.3,0.2,2.3,0.5,3.2c0.4,0.8,0.8,1.5,1.3,1.9l-0.2,0.6h0c-0.6-0.3-1.2-1-1.8-2
		C271,72,270.7,70.8,270.7,69.3L270.7,69.3z"/>
	<path class="st5" d="M277.6,64.7c0.8,0,1.5,0.2,2,0.6c0.5,0.4,0.7,1,0.7,1.7c0,0.7-0.2,1.3-0.7,1.7c-0.5,0.4-1.1,0.6-2,0.6H276v2.3
		l0.9,0.2v0.7H274v-0.7l0.9-0.2v-6.2l-0.9-0.2v-0.7h0.9H277.6z M276,68.6h1.7c0.5,0,0.9-0.1,1.2-0.4c0.3-0.3,0.4-0.6,0.4-1.1
		c0-0.4-0.1-0.8-0.4-1.1c-0.3-0.3-0.7-0.4-1.2-0.4H276V68.6z"/>
	<path class="st5" d="M281.1,71.9l0.9-0.2v-4.2l-0.9-0.2v-0.7h1.9v5l0.9,0.2v0.7h-2.8V71.9z M283.1,65.2H282v-1.1h1.1V65.2z"/>
	<path class="st5" d="M284.6,71.9l0.9-0.2v-4.2l-0.9-0.2v-0.7h1.8l0.1,0.9c0.2-0.3,0.4-0.5,0.7-0.7c0.3-0.2,0.6-0.3,1-0.3
		c0.6,0,1.1,0.2,1.5,0.6c0.3,0.4,0.5,0.9,0.5,1.7v2.9l0.9,0.2v0.7h-2.8v-0.7l0.9-0.2v-2.8c0-0.5-0.1-0.9-0.3-1.1
		c-0.2-0.2-0.5-0.3-0.9-0.3c-0.3,0-0.6,0.1-0.8,0.2s-0.4,0.3-0.6,0.6v3.4l0.9,0.2v0.7h-2.8V71.9z"/>
	<path class="st5" d="M294.7,72.5v-0.7l2.6-2.9c0.5-0.5,0.8-0.9,0.9-1.2s0.2-0.6,0.2-0.9c0-0.4-0.1-0.7-0.3-1s-0.5-0.4-0.9-0.4
		c-0.5,0-0.9,0.1-1.2,0.4s-0.4,0.7-0.4,1.2h-1l0,0c0-0.7,0.2-1.2,0.7-1.7c0.5-0.5,1.1-0.7,1.9-0.7c0.7,0,1.3,0.2,1.7,0.6
		c0.4,0.4,0.6,0.9,0.6,1.6c0,0.4-0.1,0.9-0.4,1.3c-0.3,0.4-0.6,0.9-1.1,1.4l-2.1,2.3l0,0h2.8l0.1-0.9h0.9v1.7H294.7z"/>
	<path class="st5" d="M303.2,69.4c0,1.4-0.3,2.6-0.9,3.6c-0.6,1-1.2,1.7-1.8,2h0l-0.2-0.6c0.5-0.4,0.9-1,1.3-1.9
		c0.4-0.9,0.6-1.9,0.6-3.2v-0.1c0-1.2-0.2-2.3-0.6-3.2c-0.4-0.9-0.8-1.5-1.3-1.9l0.2-0.6h0c0.6,0.3,1.2,1,1.8,2
		C303,66.7,303.2,67.9,303.2,69.4L303.2,69.4z"/>
</g>
<g class="st2">
	<path class="st5" d="M246.9,84h-0.8l-0.2-1.1c-0.2-0.2-0.4-0.3-0.6-0.4c-0.3-0.1-0.6-0.2-0.9-0.2c-0.8,0-1.4,0.3-1.9,0.9
		c-0.4,0.6-0.7,1.3-0.7,2.3v0.1c0,0.9,0.2,1.7,0.6,2.3c0.4,0.6,1,0.9,1.8,0.9c0.4,0,0.7-0.1,1-0.2c0.3-0.1,0.5-0.2,0.7-0.4l0.2-1.1
		h0.8v1.4c-0.2,0.3-0.6,0.6-1,0.8c-0.5,0.2-1,0.3-1.6,0.3c-1,0-1.9-0.4-2.5-1.1c-0.7-0.8-1-1.7-1-2.9v-0.1c0-1.2,0.3-2.1,1-2.9
		c0.6-0.8,1.5-1.1,2.5-1.1c0.6,0,1.1,0.1,1.6,0.3s0.8,0.5,1,0.8V84z"/>
	<path class="st5" d="M253.7,83.9h-0.8l-0.2-1.1c-0.2-0.1-0.4-0.3-0.6-0.3c-0.3-0.1-0.6-0.1-0.9-0.1c-0.6,0-1,0.1-1.3,0.4
		c-0.3,0.2-0.5,0.6-0.5,0.9c0,0.3,0.2,0.6,0.5,0.9c0.3,0.2,0.8,0.4,1.5,0.6c0.8,0.2,1.5,0.5,1.9,0.9c0.4,0.4,0.6,0.9,0.6,1.5
		c0,0.6-0.3,1.1-0.8,1.5s-1.2,0.6-2,0.6c-0.6,0-1.1-0.1-1.6-0.3s-0.9-0.5-1.1-0.8V87h0.8l0.2,1.1c0.2,0.2,0.5,0.3,0.7,0.4
		c0.3,0.1,0.6,0.2,1,0.2c0.5,0,1-0.1,1.3-0.3c0.3-0.2,0.5-0.5,0.5-0.9c0-0.4-0.1-0.7-0.4-0.9c-0.3-0.2-0.7-0.4-1.4-0.6
		c-0.8-0.2-1.5-0.5-2-0.9c-0.5-0.4-0.7-0.9-0.7-1.5c0-0.6,0.3-1.1,0.8-1.5s1.2-0.6,2-0.6c0.6,0,1.1,0.1,1.5,0.3
		c0.5,0.2,0.8,0.4,1.1,0.7V83.9z"/>
	<path class="st5" d="M257.7,86.2c0-1.4,0.3-2.6,0.9-3.6c0.6-1,1.2-1.7,1.8-2l0,0l0.2,0.6c-0.5,0.4-0.9,1-1.3,1.9
		c-0.4,0.9-0.5,1.9-0.5,3.2v0.1c0,1.3,0.2,2.3,0.5,3.2c0.4,0.8,0.8,1.5,1.3,1.9l-0.2,0.6h0c-0.6-0.3-1.2-1-1.8-2
		C258,88.9,257.7,87.7,257.7,86.2L257.7,86.2z"/>
	<path class="st5" d="M264.6,81.6c0.8,0,1.5,0.2,2,0.6c0.5,0.4,0.7,1,0.7,1.7c0,0.7-0.2,1.3-0.7,1.7c-0.5,0.4-1.1,0.6-2,0.6H263v2.3
		l0.9,0.2v0.7H261v-0.7l0.9-0.2v-6.2l-0.9-0.2v-0.7h0.9H264.6z M263,85.5h1.7c0.5,0,0.9-0.1,1.2-0.4c0.3-0.3,0.4-0.6,0.4-1.1
		c0-0.4-0.1-0.8-0.4-1.1c-0.3-0.3-0.7-0.4-1.2-0.4H263V85.5z"/>
	<path class="st5" d="M268.2,88.8l0.9-0.2v-4.2l-0.9-0.2v-0.7h1.9v5l0.9,0.2v0.7h-2.8V88.8z M270.1,82.1H269V81h1.1V82.1z"/>
	<path class="st5" d="M271.6,88.8l0.9-0.2v-4.2l-0.9-0.2v-0.7h1.8l0.1,0.9c0.2-0.3,0.4-0.5,0.7-0.7c0.3-0.2,0.6-0.3,1-0.3
		c0.6,0,1.1,0.2,1.5,0.6c0.3,0.4,0.5,0.9,0.5,1.7v2.9l0.9,0.2v0.7h-2.8v-0.7l0.9-0.2v-2.8c0-0.5-0.1-0.9-0.3-1.1
		c-0.2-0.2-0.5-0.3-0.9-0.3c-0.3,0-0.6,0.1-0.8,0.2s-0.4,0.3-0.6,0.6v3.4l0.9,0.2v0.7h-2.8V88.8z"/>
	<path class="st5" d="M281.5,88.8l0.6-0.1l1.7-2.2l-1.7-2.1l-0.6-0.1v-0.7h2.3v0.7l-0.5,0.1l1.1,1.4l1.1-1.4l-0.5-0.1v-0.7h2.3v0.7
		l-0.6,0.1l-1.7,2.1l1.7,2.2l0.6,0.1v0.7h-2.3v-0.7l0.5-0.1l-1.1-1.5l-1.1,1.5l0.5,0.1v0.7h-2.3V88.8z"/>
	<path class="st5" d="M290.6,86.3c0,1.4-0.3,2.6-0.9,3.6c-0.6,1-1.2,1.7-1.8,2h0l-0.2-0.6c0.5-0.4,0.9-1,1.3-1.9
		c0.4-0.9,0.6-1.9,0.6-3.2v-0.1c0-1.2-0.2-2.3-0.6-3.2c-0.4-0.9-0.8-1.5-1.3-1.9l0.2-0.6h0c0.6,0.3,1.2,1,1.8,2
		C290.3,83.6,290.6,84.8,290.6,86.3L290.6,86.3z"/>
</g>
<g class="st2">
	<path class="st5" d="M246.5,33.2h-0.8l-0.2-1.1c-0.2-0.1-0.4-0.3-0.6-0.3c-0.3-0.1-0.6-0.1-0.9-0.1c-0.6,0-1,0.1-1.3,0.4
		c-0.3,0.2-0.5,0.6-0.5,0.9c0,0.3,0.2,0.6,0.5,0.9c0.3,0.2,0.8,0.4,1.5,0.6c0.8,0.2,1.5,0.5,1.9,0.9c0.4,0.4,0.6,0.9,0.6,1.5
		c0,0.6-0.3,1.1-0.8,1.5s-1.2,0.6-2,0.6c-0.6,0-1.1-0.1-1.6-0.3s-0.9-0.5-1.1-0.8v-1.5h0.8l0.2,1.1c0.2,0.2,0.5,0.3,0.7,0.4
		c0.3,0.1,0.6,0.2,1,0.2c0.5,0,1-0.1,1.3-0.3c0.3-0.2,0.5-0.5,0.5-0.9c0-0.4-0.1-0.7-0.4-0.9c-0.3-0.2-0.7-0.4-1.4-0.6
		c-0.8-0.2-1.5-0.5-2-0.9c-0.5-0.4-0.7-0.9-0.7-1.5c0-0.6,0.3-1.1,0.8-1.5s1.2-0.6,2-0.6c0.6,0,1.1,0.1,1.5,0.3
		c0.5,0.2,0.8,0.4,1.1,0.7V33.2z"/>
	<path class="st5" d="M253.7,33.3h-0.8l-0.2-1.1c-0.2-0.2-0.4-0.3-0.6-0.4c-0.3-0.1-0.6-0.2-0.9-0.2c-0.8,0-1.4,0.3-1.9,0.9
		c-0.4,0.6-0.7,1.3-0.7,2.3v0.1c0,0.9,0.2,1.7,0.6,2.3c0.4,0.6,1,0.9,1.8,0.9c0.4,0,0.7-0.1,1-0.2c0.3-0.1,0.5-0.2,0.7-0.4l0.2-1.1
		h0.8v1.4c-0.2,0.3-0.6,0.6-1,0.8c-0.5,0.2-1,0.3-1.6,0.3c-1,0-1.9-0.4-2.5-1.1c-0.7-0.8-1-1.7-1-2.9v-0.1c0-1.2,0.3-2.1,1-2.9
		c0.6-0.8,1.5-1.1,2.5-1.1c0.6,0,1.1,0.1,1.6,0.3s0.8,0.5,1,0.8V33.3z"/>
	<path class="st5" d="M254.7,38l0.9-0.2v-6.2l-0.9-0.2v-0.7h2.8v0.7l-0.9,0.2v2.6h0.8l2.2-2.7l-0.6-0.1v-0.7h2.5v0.7l-0.7,0.1
		l-2.4,3l2.6,3.2l0.7,0.1v0.7h-2.6V38l0.6-0.1l-2.2-2.8h-0.9v2.7l0.9,0.2v0.7h-2.8V38z"/>
</g>
<g class="st2">
	<path class="st5" d="M264,35.5c0-1.4,0.3-2.6,0.9-3.6c0.6-1,1.2-1.7,1.8-2l0,0l0.2,0.6c-0.5,0.4-0.9,1-1.3,1.9
		c-0.4,0.9-0.5,1.9-0.5,3.2v0.1c0,1.3,0.2,2.3,0.5,3.2c0.4,0.8,0.8,1.5,1.3,1.9l-0.2,0.6h0c-0.6-0.3-1.2-1-1.8-2
		C264.3,38.2,264,37,264,35.5L264,35.5z"/>
	<path class="st5" d="M270.9,30.9c0.8,0,1.5,0.2,2,0.6c0.5,0.4,0.7,1,0.7,1.7c0,0.7-0.2,1.3-0.7,1.7c-0.5,0.4-1.1,0.6-2,0.6h-1.7
		v2.3l0.9,0.2v0.7h-2.8V38l0.9-0.2v-6.2l-0.9-0.2v-0.7h0.9H270.9z M269.3,34.7h1.7c0.5,0,0.9-0.1,1.2-0.4c0.3-0.3,0.4-0.6,0.4-1.1
		c0-0.4-0.1-0.8-0.4-1.1c-0.3-0.3-0.7-0.4-1.2-0.4h-1.7V34.7z"/>
	<path class="st5" d="M274.4,38l0.9-0.2v-4.2l-0.9-0.2v-0.7h1.9v5l0.9,0.2v0.7h-2.8V38z M276.4,31.4h-1.1v-1.1h1.1V31.4z"/>
	<path class="st5" d="M277.9,38l0.9-0.2v-4.2l-0.9-0.2v-0.7h1.8l0.1,0.9c0.2-0.3,0.4-0.5,0.7-0.7c0.3-0.2,0.6-0.3,1-0.3
		c0.6,0,1.1,0.2,1.5,0.6c0.3,0.4,0.5,0.9,0.5,1.7v2.9l0.9,0.2v0.7h-2.8V38l0.9-0.2v-2.8c0-0.5-0.1-0.9-0.3-1.1
		c-0.2-0.2-0.5-0.3-0.9-0.3c-0.3,0-0.6,0.1-0.8,0.2s-0.4,0.3-0.6,0.6v3.4l0.9,0.2v0.7h-2.8V38z"/>
	<path class="st5" d="M293.1,35.7c0,1-0.2,1.8-0.7,2.3c-0.4,0.5-1.1,0.8-1.8,0.8c-0.8,0-1.4-0.3-1.8-0.8c-0.5-0.5-0.7-1.3-0.7-2.3
		v-1.9c0-1,0.2-1.8,0.7-2.3c0.4-0.5,1.1-0.8,1.8-0.8c0.8,0,1.4,0.3,1.8,0.8c0.5,0.5,0.7,1.3,0.7,2.3V35.7z M292.1,33.6
		c0-0.7-0.1-1.2-0.4-1.5c-0.2-0.3-0.6-0.5-1.1-0.5c-0.5,0-0.8,0.2-1.1,0.5c-0.2,0.3-0.4,0.9-0.4,1.5v2.3c0,0.7,0.1,1.2,0.4,1.5
		s0.6,0.5,1.1,0.5c0.5,0,0.8-0.2,1.1-0.5c0.2-0.3,0.4-0.9,0.4-1.5V33.6z"/>
	<path class="st5" d="M296.7,35.6c0,1.4-0.3,2.6-0.9,3.6c-0.6,1-1.2,1.7-1.8,2h0l-0.2-0.6c0.5-0.4,0.9-1,1.3-1.9
		c0.4-0.9,0.6-1.9,0.6-3.2v-0.1c0-1.2-0.2-2.3-0.6-3.2c-0.4-0.9-0.8-1.5-1.3-1.9l0.2-0.6h0c0.6,0.3,1.2,1,1.8,2
		C296.5,32.9,296.7,34.1,296.7,35.6L296.7,35.6z"/>
</g>
<g class="st2">
	<path class="st5" d="M248.5,49.3L248.5,49.3l-2.6,6.3h-0.7l-2.5-6.3l0,0l0.1,3.2v2.3l0.9,0.2v0.7h-2.8v-0.7l0.9-0.2v-6.2l-0.9-0.2
		v-0.7h0.9h1.4l2.5,6.4h0l2.5-6.4h2.2v0.7l-0.9,0.2v6.2l0.9,0.2v0.7h-2.8v-0.7l0.9-0.2v-2.3L248.5,49.3z"/>
	<path class="st5" d="M251.1,48.4v-0.7h2.8v0.7l-0.9,0.2v6.2l0.9,0.2v0.7h-2.8v-0.7l0.9-0.2v-6.2L251.1,48.4z"/>
	<path class="st5" d="M260.4,50.1h-0.8l-0.2-1.1c-0.2-0.1-0.4-0.3-0.6-0.3c-0.3-0.1-0.6-0.1-0.9-0.1c-0.6,0-1,0.1-1.3,0.4
		c-0.3,0.2-0.5,0.6-0.5,0.9c0,0.3,0.2,0.6,0.5,0.9c0.3,0.2,0.8,0.4,1.5,0.6c0.8,0.2,1.5,0.5,1.9,0.9c0.4,0.4,0.6,0.9,0.6,1.5
		c0,0.6-0.3,1.1-0.8,1.5s-1.2,0.6-2,0.6c-0.6,0-1.1-0.1-1.6-0.3s-0.9-0.5-1.1-0.8v-1.5h0.8l0.2,1.1c0.2,0.2,0.5,0.3,0.7,0.4
		c0.3,0.1,0.6,0.2,1,0.2c0.5,0,1-0.1,1.3-0.3c0.3-0.2,0.5-0.5,0.5-0.9c0-0.4-0.1-0.7-0.4-0.9c-0.3-0.2-0.7-0.4-1.4-0.6
		c-0.8-0.2-1.5-0.5-2-0.9c-0.5-0.4-0.7-0.9-0.7-1.5c0-0.6,0.3-1.1,0.8-1.5s1.2-0.6,2-0.6c0.6,0,1.1,0.1,1.5,0.3
		c0.5,0.2,0.8,0.4,1.1,0.7V50.1z"/>
	<path class="st5" d="M268.4,51.8c0,1.1-0.3,2.1-1,2.9c-0.7,0.8-1.5,1.1-2.6,1.1c-1,0-1.8-0.4-2.5-1.1s-1-1.7-1-2.9v-0.1
		c0-1.1,0.3-2.1,1-2.9c0.6-0.8,1.5-1.1,2.5-1.1c1,0,1.9,0.4,2.6,1.1c0.7,0.8,1,1.7,1,2.9V51.8z M267.4,51.6c0-0.9-0.2-1.7-0.7-2.2
		s-1-0.9-1.8-0.9c-0.7,0-1.3,0.3-1.7,0.9s-0.6,1.3-0.6,2.2v0.1c0,0.9,0.2,1.7,0.6,2.3c0.4,0.6,1,0.9,1.7,0.9c0.8,0,1.4-0.3,1.8-0.9
		c0.4-0.6,0.6-1.3,0.6-2.3V51.6z"/>
	<path class="st5" d="M272.2,52.4c0-1.4,0.3-2.6,0.9-3.6c0.6-1,1.2-1.7,1.8-2l0,0l0.2,0.6c-0.5,0.4-0.9,1-1.3,1.9
		c-0.4,0.9-0.5,1.9-0.5,3.2v0.1c0,1.3,0.2,2.3,0.5,3.2c0.4,0.8,0.8,1.5,1.3,1.9l-0.2,0.6h0c-0.6-0.3-1.2-1-1.8-2
		C272.5,55.1,272.2,53.9,272.2,52.4L272.2,52.4z"/>
	<path class="st5" d="M279.2,47.8c0.8,0,1.5,0.2,2,0.6c0.5,0.4,0.7,1,0.7,1.7c0,0.7-0.2,1.3-0.7,1.7c-0.5,0.4-1.1,0.6-2,0.6h-1.7
		v2.3l0.9,0.2v0.7h-2.8v-0.7l0.9-0.2v-6.2l-0.9-0.2v-0.7h0.9H279.2z M277.5,51.6h1.7c0.5,0,0.9-0.1,1.2-0.4c0.3-0.3,0.4-0.6,0.4-1.1
		c0-0.4-0.1-0.8-0.4-1.1c-0.3-0.3-0.7-0.4-1.2-0.4h-1.7V51.6z"/>
	<path class="st5" d="M282.7,54.9l0.9-0.2v-4.2l-0.9-0.2v-0.7h1.9v5l0.9,0.2v0.7h-2.8V54.9z M284.6,48.3h-1.1v-1.1h1.1V48.3z"/>
	<path class="st5" d="M286.2,54.9l0.9-0.2v-4.2l-0.9-0.2v-0.7h1.8l0.1,0.9c0.2-0.3,0.4-0.5,0.7-0.7c0.3-0.2,0.6-0.3,1-0.3
		c0.6,0,1.1,0.2,1.5,0.6c0.3,0.4,0.5,0.9,0.5,1.7v2.9l0.9,0.2v0.7h-2.8v-0.7l0.9-0.2V52c0-0.5-0.1-0.9-0.3-1.1
		c-0.2-0.2-0.5-0.3-0.9-0.3c-0.3,0-0.6,0.1-0.8,0.2s-0.4,0.3-0.6,0.6v3.4l0.9,0.2v0.7h-2.8V54.9z"/>
	<path class="st5" d="M296.4,54.9l1.2-0.2v-5.9l-1.2,0v-0.7l2.3-0.5v7l1.2,0.2v0.7h-3.5V54.9z"/>
	<path class="st5" d="M303.3,52.5c0,1.4-0.3,2.6-0.9,3.6c-0.6,1-1.2,1.7-1.8,2h0l-0.2-0.6c0.5-0.4,0.9-1,1.3-1.9
		c0.4-0.9,0.6-1.9,0.6-3.2v-0.1c0-1.2-0.2-2.3-0.6-3.2c-0.4-0.9-0.8-1.5-1.3-1.9l0.2-0.6h0c0.6,0.3,1.2,1,1.8,2
		C303,49.8,303.3,51,303.3,52.5L303.3,52.5z"/>
</g>
<g class="st2">
	<path class="st3" d="M352.5,40.8h-0.6l-0.1-0.8c-0.1-0.1-0.3-0.2-0.5-0.2s-0.4-0.1-0.7-0.1c-0.4,0-0.7,0.1-0.9,0.3
		s-0.3,0.4-0.3,0.7c0,0.2,0.1,0.4,0.3,0.6s0.6,0.3,1.1,0.4c0.6,0.1,1,0.4,1.3,0.6c0.3,0.3,0.5,0.6,0.5,1c0,0.4-0.2,0.8-0.5,1.1
		s-0.8,0.4-1.4,0.4c-0.4,0-0.8-0.1-1.1-0.2c-0.3-0.1-0.6-0.3-0.8-0.5v-1h0.6l0.1,0.8c0.1,0.1,0.3,0.2,0.5,0.3s0.4,0.1,0.7,0.1
		c0.4,0,0.7-0.1,0.9-0.2c0.2-0.2,0.3-0.4,0.3-0.7c0-0.3-0.1-0.5-0.3-0.6c-0.2-0.2-0.5-0.3-1-0.4c-0.6-0.1-1-0.3-1.4-0.6
		c-0.3-0.3-0.5-0.6-0.5-1c0-0.4,0.2-0.8,0.6-1.1c0.4-0.3,0.8-0.4,1.4-0.4c0.4,0,0.7,0.1,1.1,0.2c0.3,0.1,0.6,0.3,0.8,0.5V40.8z"/>
	<path class="st3" d="M357.5,40.9H357l-0.1-0.8c-0.1-0.1-0.3-0.2-0.4-0.3c-0.2-0.1-0.4-0.1-0.6-0.1c-0.6,0-1,0.2-1.3,0.6
		c-0.3,0.4-0.5,0.9-0.5,1.6V42c0,0.6,0.2,1.2,0.5,1.6c0.3,0.4,0.7,0.6,1.3,0.6c0.3,0,0.5,0,0.7-0.1c0.2-0.1,0.4-0.2,0.5-0.3L357,43
		h0.5v1c-0.2,0.2-0.4,0.4-0.7,0.5c-0.3,0.2-0.7,0.2-1.1,0.2c-0.7,0-1.3-0.3-1.8-0.8c-0.5-0.5-0.7-1.2-0.7-2v-0.1
		c0-0.8,0.2-1.5,0.7-2c0.5-0.5,1-0.8,1.8-0.8c0.4,0,0.8,0.1,1.1,0.2c0.3,0.2,0.6,0.3,0.7,0.5V40.9z"/>
	<path class="st3" d="M358.3,44.2l0.6-0.1v-4.4l-0.6-0.1v-0.5h2v0.5l-0.6,0.1v1.9h0.6l1.5-1.9l-0.4-0.1v-0.5h1.8v0.5l-0.5,0.1
		l-1.7,2.1l1.8,2.3l0.5,0.1v0.5h-1.8v-0.5l0.4-0.1l-1.6-2h-0.6v1.9l0.6,0.1v0.5h-2V44.2z"/>
</g>
<g class="st2">
	<path class="st3" d="M353.9,58L353.9,58l-1.8,4.4h-0.5l-1.8-4.4l0,0l0.1,2.2v1.6l0.6,0.1v0.5h-2v-0.5l0.6-0.1v-4.4l-0.6-0.1v-0.5
		h0.6h1l1.8,4.5h0l1.8-4.5h1.6v0.5l-0.6,0.1v4.4l0.6,0.1v0.5h-2v-0.5l0.6-0.1v-1.6L353.9,58z"/>
	<path class="st3" d="M355.7,57.3v-0.5h2v0.5l-0.6,0.1v4.4l0.6,0.1v0.5h-2v-0.5l0.6-0.1v-4.4L355.7,57.3z"/>
	<path class="st3" d="M362.3,58.5h-0.6l-0.1-0.8c-0.1-0.1-0.3-0.2-0.5-0.2c-0.2-0.1-0.4-0.1-0.7-0.1c-0.4,0-0.7,0.1-0.9,0.3
		s-0.3,0.4-0.3,0.7c0,0.2,0.1,0.4,0.3,0.6s0.6,0.3,1.1,0.4c0.6,0.1,1,0.4,1.3,0.6c0.3,0.3,0.5,0.6,0.5,1c0,0.4-0.2,0.8-0.5,1.1
		c-0.4,0.3-0.8,0.4-1.4,0.4c-0.4,0-0.8-0.1-1.1-0.2c-0.3-0.1-0.6-0.3-0.8-0.5v-1h0.6l0.1,0.8c0.1,0.1,0.3,0.2,0.5,0.3
		s0.4,0.1,0.7,0.1c0.4,0,0.7-0.1,0.9-0.2c0.2-0.2,0.3-0.4,0.3-0.7c0-0.3-0.1-0.5-0.3-0.6s-0.5-0.3-1-0.4c-0.6-0.1-1-0.3-1.4-0.6
		c-0.3-0.3-0.5-0.6-0.5-1c0-0.4,0.2-0.8,0.6-1.1c0.4-0.3,0.8-0.4,1.4-0.4c0.4,0,0.7,0.1,1.1,0.2c0.3,0.1,0.6,0.3,0.8,0.5V58.5z"/>
	<path class="st3" d="M367.9,59.7c0,0.8-0.2,1.5-0.7,2s-1.1,0.8-1.8,0.8c-0.7,0-1.3-0.3-1.7-0.8s-0.7-1.2-0.7-2v-0.1
		c0-0.8,0.2-1.5,0.7-2c0.4-0.5,1-0.8,1.7-0.8c0.7,0,1.3,0.3,1.8,0.8C367.7,58.1,367.9,58.8,367.9,59.7L367.9,59.7z M367.2,59.6
		c0-0.6-0.2-1.2-0.5-1.6c-0.3-0.4-0.7-0.6-1.3-0.6c-0.5,0-0.9,0.2-1.2,0.6c-0.3,0.4-0.4,0.9-0.4,1.6v0.1c0,0.6,0.1,1.2,0.4,1.6
		c0.3,0.4,0.7,0.6,1.2,0.6c0.6,0,1-0.2,1.3-0.6C367,60.9,367.2,60.3,367.2,59.6L367.2,59.6z"/>
</g>
<g class="st2">
	<path class="st3" d="M353.9,74.2L353.9,74.2l-1.8,4.4h-0.5l-1.8-4.4l0,0l0.1,2.2v1.6l0.6,0.1v0.5h-2v-0.5l0.6-0.1v-4.4l-0.6-0.1
		v-0.5h0.6h1l1.8,4.5h0l1.8-4.5h1.6v0.5l-0.6,0.1v4.4l0.6,0.1v0.5h-2v-0.5l0.6-0.1v-1.6L353.9,74.2z"/>
	<path class="st3" d="M360.7,75.9c0,0.8-0.2,1.5-0.7,2s-1.1,0.8-1.8,0.8c-0.7,0-1.3-0.3-1.7-0.8s-0.7-1.2-0.7-2v-0.1
		c0-0.8,0.2-1.5,0.7-2s1-0.8,1.7-0.8c0.7,0,1.3,0.3,1.8,0.8S360.7,75.1,360.7,75.9L360.7,75.9z M359.9,75.9c0-0.6-0.2-1.2-0.5-1.6
		c-0.3-0.4-0.7-0.6-1.3-0.6c-0.5,0-0.9,0.2-1.2,0.6s-0.4,0.9-0.4,1.6v0.1c0,0.6,0.1,1.2,0.4,1.6c0.3,0.4,0.7,0.6,1.2,0.6
		c0.6,0,1-0.2,1.3-0.6C359.8,77.1,359.9,76.6,359.9,75.9L359.9,75.9z"/>
	<path class="st3" d="M365.3,74.8h-0.6l-0.1-0.8c-0.1-0.1-0.3-0.2-0.5-0.2s-0.4-0.1-0.7-0.1c-0.4,0-0.7,0.1-0.9,0.3
		s-0.3,0.4-0.3,0.7c0,0.2,0.1,0.4,0.3,0.6s0.6,0.3,1.1,0.4c0.6,0.1,1,0.4,1.3,0.6c0.3,0.3,0.5,0.6,0.5,1c0,0.4-0.2,0.8-0.5,1.1
		s-0.8,0.4-1.4,0.4c-0.4,0-0.8-0.1-1.1-0.2c-0.3-0.1-0.6-0.3-0.8-0.5v-1h0.6l0.1,0.8c0.1,0.1,0.3,0.2,0.5,0.3s0.4,0.1,0.7,0.1
		c0.4,0,0.7-0.1,0.9-0.2c0.2-0.2,0.3-0.4,0.3-0.7c0-0.3-0.1-0.5-0.3-0.6c-0.2-0.2-0.5-0.3-1-0.4c-0.6-0.1-1-0.3-1.4-0.6
		c-0.3-0.3-0.5-0.6-0.5-1c0-0.4,0.2-0.8,0.6-1.1c0.4-0.3,0.8-0.4,1.4-0.4c0.4,0,0.7,0.1,1.1,0.2c0.3,0.1,0.6,0.3,0.8,0.5V74.8z"/>
	<path class="st3" d="M366,73.6v-0.5h2v0.5l-0.6,0.1v4.4l0.6,0.1v0.5h-2v-0.5l0.6-0.1v-4.4L366,73.6z"/>
</g>
<g class="st2">
	<path class="st3" d="M352.8,91.1h-0.5l-0.1-0.8c-0.1-0.1-0.3-0.2-0.4-0.3c-0.2-0.1-0.4-0.1-0.6-0.1c-0.6,0-1,0.2-1.3,0.6
		c-0.3,0.4-0.5,0.9-0.5,1.6v0.1c0,0.6,0.2,1.2,0.5,1.6c0.3,0.4,0.7,0.6,1.3,0.6c0.3,0,0.5,0,0.7-0.1c0.2-0.1,0.4-0.2,0.5-0.3
		l0.1-0.8h0.5v1c-0.2,0.2-0.4,0.4-0.7,0.5c-0.3,0.2-0.7,0.2-1.1,0.2c-0.7,0-1.3-0.3-1.8-0.8c-0.5-0.5-0.7-1.2-0.7-2v-0.1
		c0-0.8,0.2-1.5,0.7-2c0.5-0.5,1-0.8,1.8-0.8c0.4,0,0.8,0.1,1.1,0.2c0.3,0.2,0.6,0.3,0.7,0.5V91.1z"/>
	<path class="st3" d="M357.5,91H357l-0.1-0.8c-0.1-0.1-0.3-0.2-0.5-0.2c-0.2-0.1-0.4-0.1-0.7-0.1c-0.4,0-0.7,0.1-0.9,0.3
		s-0.3,0.4-0.3,0.7c0,0.2,0.1,0.4,0.3,0.6s0.6,0.3,1.1,0.4c0.6,0.1,1,0.4,1.3,0.6c0.3,0.3,0.5,0.6,0.5,1c0,0.4-0.2,0.8-0.5,1.1
		c-0.4,0.3-0.8,0.4-1.4,0.4c-0.4,0-0.8-0.1-1.1-0.2c-0.3-0.1-0.6-0.3-0.8-0.5v-1h0.6l0.1,0.8c0.1,0.1,0.3,0.2,0.5,0.3
		s0.4,0.1,0.7,0.1c0.4,0,0.7-0.1,0.9-0.2c0.2-0.2,0.3-0.4,0.3-0.7c0-0.3-0.1-0.5-0.3-0.6s-0.5-0.3-1-0.4c-0.6-0.1-1-0.3-1.4-0.6
		c-0.3-0.3-0.5-0.6-0.5-1c0-0.4,0.2-0.8,0.6-1.1c0.4-0.3,0.8-0.4,1.4-0.4c0.4,0,0.7,0.1,1.1,0.2c0.3,0.1,0.6,0.3,0.8,0.5V91z"/>
</g>
</svg>
