<?xml version="1.0" encoding="utf-8"?>
<!-- Generator: Adobe Illustrator 22.0.2, SVG Export Plug-In . SVG Version: 6.00 Build 0)  -->
<svg version="1.1" id="Layer_1" xmlns="http://www.w3.org/2000/svg" xmlns:xlink="http://www.w3.org/1999/xlink" x="0px" y="0px"
	 viewBox="0 0 582 161.5" style="enable-background:new 0 0 582 161.5;" xml:space="preserve">
<style type="text/css">
	.st0{fill:none;stroke:#231F20;stroke-width:1.29;stroke-miterlimit:10;}
	.st1{fill:#00AEEF;stroke:#231F20;stroke-width:1.57;stroke-miterlimit:10;}
	.st2{enable-background:new    ;}
	.st3{fill:#FFFFFF;}
	.st4{fill:#00A651;stroke:#231F20;stroke-width:1.63;stroke-miterlimit:10;}
	.st5{fill:#231F20;}
	.st6{fill:#231F20;stroke:#231F20;stroke-width:0.85;stroke-miterlimit:10;}
</style>
<title>spi-shift-register</title>
<line class="st0" x1="161.7" y1="105.4" x2="278" y2="105.4"/>
<line class="st0" x1="161.7" y1="69.6" x2="278" y2="69.6"/>
<line class="st0" x1="161.7" y1="122.5" x2="278" y2="122.5"/>
<rect x="73.7" y="54.6" class="st1" width="88.1" height="77.9"/>
<g class="st2">
	<path class="st3" d="M85.4,118.7v1.8h-1l-0.1-0.9h-1.8v6.5l0.9,0.2v0.7h-3v-0.7l0.9-0.2v-6.5h-1.8l-0.1,0.9h-1v-1.8H85.4z"/>
</g>
<g class="st2">
	<path class="st3" d="M85.7,121.5v-0.7h1.9l0.1,0.9c0.2-0.3,0.4-0.6,0.6-0.7c0.3-0.2,0.5-0.3,0.9-0.3c0.1,0,0.2,0,0.3,0
		c0.1,0,0.2,0,0.2,0l-0.1,1l-0.6,0c-0.3,0-0.5,0.1-0.7,0.2s-0.4,0.3-0.5,0.6v3.5l0.9,0.2v0.7h-3v-0.7l0.9-0.2v-4.4L85.7,121.5z"/>
</g>
<g class="st2">
	<path class="st3" d="M93.2,127c-0.9,0-1.5-0.3-2-0.9c-0.5-0.6-0.8-1.3-0.8-2.2v-0.2c0-0.9,0.3-1.6,0.8-2.2s1.1-0.9,1.8-0.9
		c0.8,0,1.4,0.2,1.9,0.7c0.4,0.5,0.6,1.2,0.6,2v0.7h-4l0,0c0,0.6,0.2,1.1,0.4,1.5c0.3,0.4,0.7,0.6,1.2,0.6c0.4,0,0.7-0.1,1-0.2
		c0.3-0.1,0.5-0.3,0.7-0.4l0.4,0.7c-0.2,0.2-0.5,0.4-0.9,0.5S93.7,127,93.2,127z M93,121.6c-0.4,0-0.7,0.2-1,0.5
		c-0.3,0.3-0.4,0.7-0.5,1.2l0,0h2.8v-0.1c0-0.4-0.1-0.8-0.4-1.1C93.8,121.7,93.5,121.6,93,121.6z"/>
	<path class="st3" d="M99.4,127c-0.9,0-1.5-0.3-2-0.9c-0.5-0.6-0.8-1.3-0.8-2.2v-0.2c0-0.9,0.3-1.6,0.8-2.2s1.1-0.9,1.8-0.9
		c0.8,0,1.4,0.2,1.9,0.7c0.4,0.5,0.6,1.2,0.6,2v0.7h-4l0,0c0,0.6,0.2,1.1,0.4,1.5c0.3,0.4,0.7,0.6,1.2,0.6c0.4,0,0.7-0.1,1-0.2
		c0.3-0.1,0.5-0.3,0.7-0.4l0.4,0.7c-0.2,0.2-0.5,0.4-0.9,0.5S99.9,127,99.4,127z M99.2,121.6c-0.4,0-0.7,0.2-1,0.5
		c-0.3,0.3-0.4,0.7-0.5,1.2l0,0h2.8v-0.1c0-0.4-0.1-0.8-0.4-1.1C100,121.7,99.7,121.6,99.2,121.6z"/>
</g>
<g class="st2">
	<path class="st3" d="M102.7,126.2l0.9-0.2V119l-0.9-0.2v-0.7h2v3.5c0.2-0.3,0.5-0.5,0.8-0.7c0.3-0.2,0.6-0.2,1-0.2
		c0.7,0,1.2,0.2,1.5,0.6c0.4,0.4,0.5,1,0.5,1.8v3l0.9,0.2v0.7h-3v-0.7l0.9-0.2v-3c0-0.5-0.1-0.9-0.3-1.1c-0.2-0.2-0.5-0.4-1-0.4
		c-0.3,0-0.6,0.1-0.8,0.2c-0.3,0.1-0.5,0.3-0.6,0.6v3.7l0.9,0.2v0.7h-3V126.2z"/>
</g>
<g class="st2">
	<path class="st3" d="M110.3,123.8c0-0.9,0.2-1.7,0.7-2.2c0.5-0.6,1.2-0.9,2-0.9c0.8,0,1.5,0.3,2,0.9s0.7,1.3,0.7,2.2v0.1
		c0,0.9-0.2,1.7-0.7,2.2s-1.2,0.9-2,0.9c-0.9,0-1.5-0.3-2-0.9s-0.7-1.3-0.7-2.2V123.8z M111.4,123.9c0,0.7,0.1,1.2,0.4,1.6
		c0.3,0.4,0.7,0.6,1.2,0.6c0.5,0,0.9-0.2,1.2-0.6c0.3-0.4,0.4-1,0.4-1.6v-0.1c0-0.6-0.1-1.2-0.4-1.6c-0.3-0.4-0.7-0.6-1.2-0.6
		c-0.5,0-0.9,0.2-1.2,0.6c-0.3,0.4-0.4,1-0.4,1.6V123.9z"/>
	<path class="st3" d="M116.7,128.6l0.9-0.2v-6.7l-0.9-0.2v-0.7h1.9l0.1,0.7c0.2-0.3,0.5-0.5,0.7-0.6s0.6-0.2,1-0.2
		c0.8,0,1.4,0.3,1.8,0.9s0.6,1.4,0.6,2.4v0.1c0,0.9-0.2,1.6-0.6,2.1s-1,0.8-1.8,0.8c-0.4,0-0.7-0.1-1-0.2c-0.3-0.1-0.5-0.3-0.7-0.6
		v2.1l0.9,0.2v0.7h-3V128.6z M121.7,124c0-0.7-0.1-1.3-0.4-1.7c-0.3-0.4-0.7-0.7-1.2-0.7c-0.3,0-0.6,0.1-0.8,0.2
		c-0.2,0.1-0.4,0.3-0.5,0.6v3c0.1,0.3,0.3,0.4,0.5,0.6c0.2,0.1,0.5,0.2,0.8,0.2c0.5,0,0.9-0.2,1.2-0.6s0.4-0.9,0.4-1.5V124z"/>
	<path class="st3" d="M123.7,128.6l0.9-0.2v-6.7l-0.9-0.2v-0.7h1.9l0.1,0.7c0.2-0.3,0.5-0.5,0.7-0.6s0.6-0.2,1-0.2
		c0.8,0,1.4,0.3,1.8,0.9s0.6,1.4,0.6,2.4v0.1c0,0.9-0.2,1.6-0.6,2.1s-1,0.8-1.8,0.8c-0.4,0-0.7-0.1-1-0.2c-0.3-0.1-0.5-0.3-0.7-0.6
		v2.1l0.9,0.2v0.7h-3V128.6z M128.7,124c0-0.7-0.1-1.3-0.4-1.7c-0.3-0.4-0.7-0.7-1.2-0.7c-0.3,0-0.6,0.1-0.8,0.2
		c-0.2,0.1-0.4,0.3-0.5,0.6v3c0.1,0.3,0.3,0.4,0.5,0.6c0.2,0.1,0.5,0.2,0.8,0.2c0.5,0,0.9-0.2,1.2-0.6s0.4-0.9,0.4-1.5V124z"/>
	<path class="st3" d="M133.7,127c-0.9,0-1.5-0.3-2-0.9c-0.5-0.6-0.8-1.3-0.8-2.2v-0.2c0-0.9,0.3-1.6,0.8-2.2s1.1-0.9,1.8-0.9
		c0.8,0,1.4,0.2,1.9,0.7c0.4,0.5,0.6,1.2,0.6,2v0.7h-4l0,0c0,0.6,0.2,1.1,0.4,1.5c0.3,0.4,0.7,0.6,1.2,0.6c0.4,0,0.7-0.1,1-0.2
		c0.3-0.1,0.5-0.3,0.7-0.4l0.4,0.7c-0.2,0.2-0.5,0.4-0.9,0.5S134.2,127,133.7,127z M133.5,121.6c-0.4,0-0.7,0.2-1,0.5
		c-0.3,0.3-0.4,0.7-0.5,1.2l0,0h2.8v-0.1c0-0.4-0.1-0.8-0.4-1.1C134.3,121.7,133.9,121.6,133.5,121.6z"/>
	<path class="st3" d="M137.1,121.5v-0.7h1.9l0.1,0.9c0.2-0.3,0.4-0.6,0.6-0.7c0.3-0.2,0.5-0.3,0.9-0.3c0.1,0,0.2,0,0.3,0
		c0.1,0,0.2,0,0.2,0l-0.1,1l-0.6,0c-0.3,0-0.5,0.1-0.7,0.2s-0.4,0.3-0.5,0.6v3.5l0.9,0.2v0.7h-3v-0.7l0.9-0.2v-4.4L137.1,121.5z"/>
</g>
<rect x="278" y="54.6" class="st4" width="91.5" height="80.6"/>
<g class="st2">
	<path class="st3" d="M342.9,109.5H342l-0.2-1.2c-0.2-0.1-0.4-0.3-0.7-0.4c-0.3-0.1-0.6-0.1-1-0.1c-0.6,0-1,0.1-1.4,0.4
		s-0.5,0.6-0.5,1c0,0.4,0.2,0.7,0.5,0.9s0.8,0.5,1.6,0.6c0.9,0.2,1.5,0.5,2,1c0.5,0.4,0.7,0.9,0.7,1.6c0,0.7-0.3,1.2-0.8,1.6
		c-0.5,0.4-1.3,0.6-2.1,0.6c-0.6,0-1.2-0.1-1.7-0.3c-0.5-0.2-0.9-0.5-1.2-0.8v-1.5h0.8l0.2,1.2c0.2,0.2,0.5,0.3,0.8,0.4
		c0.3,0.1,0.7,0.2,1.1,0.2c0.6,0,1-0.1,1.3-0.4c0.3-0.2,0.5-0.6,0.5-1c0-0.4-0.1-0.7-0.4-0.9c-0.3-0.3-0.8-0.5-1.5-0.6
		c-0.9-0.2-1.6-0.5-2-0.9s-0.7-0.9-0.7-1.5c0-0.6,0.3-1.2,0.8-1.6c0.5-0.4,1.3-0.6,2.1-0.6c0.6,0,1.1,0.1,1.6,0.3
		c0.5,0.2,0.9,0.4,1.1,0.7V109.5z"/>
	<path class="st3" d="M343.9,114.6l0.9-0.2v-7.1l-0.9-0.2v-0.7h2v3.5c0.2-0.3,0.5-0.5,0.8-0.7c0.3-0.2,0.6-0.2,1-0.2
		c0.7,0,1.2,0.2,1.5,0.6c0.4,0.4,0.5,1,0.5,1.8v3l0.9,0.2v0.7h-3v-0.7l0.9-0.2v-3c0-0.5-0.1-0.9-0.3-1.1c-0.2-0.2-0.5-0.4-1-0.4
		c-0.3,0-0.6,0.1-0.8,0.2c-0.3,0.1-0.5,0.3-0.6,0.6v3.7l0.9,0.2v0.7h-3V114.6z"/>
	<path class="st3" d="M351.6,114.6l0.9-0.2V110l-0.9-0.2v-0.7h2v5.3l0.9,0.2v0.7h-3V114.6z M353.6,107.6h-1.1v-1.1h1.1V107.6z"/>
	<path class="st3" d="M355.3,110v-0.8h1v-0.8c0-0.7,0.2-1.2,0.5-1.5c0.3-0.4,0.8-0.5,1.4-0.5c0.1,0,0.3,0,0.4,0
		c0.1,0,0.3,0.1,0.4,0.1l-0.1,0.9c-0.1,0-0.2,0-0.2,0c-0.1,0-0.2,0-0.3,0c-0.3,0-0.6,0.1-0.7,0.3c-0.2,0.2-0.2,0.5-0.2,0.8v0.8h1.3
		v0.8h-1.3v4.4l0.9,0.2v0.7h-3v-0.7l0.9-0.2V110H355.3z"/>
	<path class="st3" d="M361.5,107.7v1.5h1.2v0.8h-1.2v3.7c0,0.3,0.1,0.5,0.2,0.6s0.3,0.2,0.5,0.2c0.1,0,0.2,0,0.3,0
		c0.1,0,0.2,0,0.3-0.1l0.2,0.8c-0.1,0.1-0.3,0.1-0.5,0.2s-0.4,0.1-0.6,0.1c-0.5,0-0.8-0.1-1.1-0.4c-0.3-0.3-0.4-0.7-0.4-1.3V110h-1
		v-0.8h1v-1.5H361.5z"/>
</g>
<g class="st2">
	<path class="st3" d="M321.6,121c0.9,0,1.6,0.2,2.1,0.6c0.5,0.4,0.7,1,0.7,1.7c0,0.4-0.1,0.8-0.3,1.1c-0.2,0.3-0.5,0.6-1,0.7
		c0.5,0.1,0.8,0.4,1,0.7c0.2,0.3,0.3,0.7,0.3,1.2v0.7c0,0.3,0,0.4,0.1,0.6s0.2,0.2,0.3,0.2l0.3,0v0.7h-0.6c-0.4,0-0.7-0.2-0.9-0.5
		c-0.2-0.3-0.3-0.7-0.3-1.1V127c0-0.4-0.1-0.8-0.4-1.1c-0.3-0.3-0.6-0.4-1-0.4H320v2.8l0.9,0.2v0.7h-3v-0.7l0.9-0.2v-6.5l-0.9-0.2
		V121h0.9H321.6z M320,124.6h1.5c0.6,0,1.1-0.1,1.4-0.4s0.4-0.6,0.4-1c0-0.4-0.1-0.8-0.4-1c-0.3-0.3-0.7-0.4-1.3-0.4H320V124.6z"/>
	<path class="st3" d="M328.7,129.3c-0.9,0-1.5-0.3-2-0.9c-0.5-0.6-0.8-1.3-0.8-2.2V126c0-0.9,0.3-1.6,0.8-2.2s1.1-0.9,1.8-0.9
		c0.8,0,1.4,0.2,1.9,0.7c0.4,0.5,0.6,1.2,0.6,2v0.7h-4l0,0c0,0.6,0.2,1.1,0.4,1.5c0.3,0.4,0.7,0.6,1.2,0.6c0.4,0,0.7-0.1,1-0.2
		c0.3-0.1,0.5-0.3,0.7-0.4l0.4,0.7c-0.2,0.2-0.5,0.4-0.9,0.5C329.7,129.2,329.2,129.3,328.7,129.3z M328.5,123.8
		c-0.4,0-0.7,0.2-1,0.5c-0.3,0.3-0.4,0.7-0.5,1.2l0,0h2.8v-0.1c0-0.4-0.1-0.8-0.4-1.1C329.4,124,329,123.8,328.5,123.8z"/>
	<path class="st3" d="M332.2,126.2c0-1,0.2-1.8,0.6-2.4c0.4-0.6,1-0.9,1.8-0.9c0.4,0,0.7,0.1,1,0.2s0.5,0.4,0.7,0.7l0.1-0.8h0.9v6.1
		c0,0.8-0.2,1.4-0.7,1.9c-0.4,0.5-1.1,0.7-1.9,0.7c-0.3,0-0.6,0-1-0.1s-0.6-0.2-0.9-0.3l0.3-0.9c0.2,0.1,0.5,0.2,0.7,0.3
		c0.3,0.1,0.6,0.1,0.8,0.1c0.5,0,0.9-0.1,1.1-0.4c0.2-0.3,0.3-0.7,0.3-1.2v-0.6c-0.2,0.3-0.4,0.5-0.7,0.6c-0.3,0.1-0.6,0.2-1,0.2
		c-0.8,0-1.3-0.3-1.8-0.8c-0.4-0.5-0.6-1.3-0.6-2.1V126.2z M333.3,126.4c0,0.6,0.1,1.1,0.4,1.5c0.3,0.4,0.7,0.6,1.2,0.6
		c0.3,0,0.6-0.1,0.8-0.2s0.4-0.4,0.6-0.6v-2.8c-0.1-0.3-0.3-0.5-0.6-0.6s-0.5-0.2-0.8-0.2c-0.5,0-0.9,0.2-1.2,0.7
		c-0.3,0.4-0.4,1-0.4,1.7V126.4z"/>
	<path class="st3" d="M338.7,128.5l0.9-0.2v-4.4l-0.9-0.2v-0.7h2v5.3l0.9,0.2v0.7h-3V128.5z M340.8,121.5h-1.1v-1.1h1.1V121.5z"/>
	<path class="st3" d="M347.2,125h-0.8l-0.2-0.7c-0.1-0.1-0.3-0.2-0.5-0.3c-0.2-0.1-0.4-0.1-0.7-0.1c-0.4,0-0.7,0.1-0.9,0.3
		c-0.2,0.2-0.3,0.4-0.3,0.6c0,0.2,0.1,0.4,0.3,0.6c0.2,0.1,0.5,0.3,1,0.4c0.8,0.2,1.4,0.4,1.7,0.7s0.6,0.7,0.6,1.1
		c0,0.5-0.2,1-0.7,1.3c-0.4,0.3-1,0.5-1.7,0.5c-0.5,0-0.9-0.1-1.3-0.2c-0.4-0.1-0.7-0.3-1-0.5l0-1.4h0.8l0.2,0.8
		c0.1,0.1,0.3,0.2,0.5,0.3c0.2,0.1,0.4,0.1,0.7,0.1c0.4,0,0.7-0.1,0.9-0.2c0.2-0.2,0.3-0.4,0.3-0.6c0-0.2-0.1-0.4-0.3-0.6
		c-0.2-0.2-0.5-0.3-1.1-0.4c-0.7-0.2-1.3-0.4-1.7-0.7s-0.6-0.7-0.6-1.1c0-0.5,0.2-0.9,0.6-1.3c0.4-0.4,1-0.5,1.7-0.5
		c0.5,0,0.9,0.1,1.3,0.2s0.7,0.3,0.9,0.5L347.2,125z"/>
	<path class="st3" d="M350.4,121.6v1.5h1.2v0.8h-1.2v3.7c0,0.3,0.1,0.5,0.2,0.6s0.3,0.2,0.5,0.2c0.1,0,0.2,0,0.3,0
		c0.1,0,0.2,0,0.3-0.1l0.2,0.8c-0.1,0.1-0.3,0.1-0.5,0.2c-0.2,0-0.4,0.1-0.6,0.1c-0.5,0-0.8-0.1-1.1-0.4c-0.3-0.3-0.4-0.7-0.4-1.3
		v-3.7h-1v-0.8h1v-1.5H350.4z"/>
	<path class="st3" d="M355.5,129.3c-0.9,0-1.5-0.3-2-0.9c-0.5-0.6-0.8-1.3-0.8-2.2V126c0-0.9,0.3-1.6,0.8-2.2s1.1-0.9,1.8-0.9
		c0.8,0,1.4,0.2,1.9,0.7s0.6,1.2,0.6,2v0.7h-4l0,0c0,0.6,0.2,1.1,0.4,1.5c0.3,0.4,0.7,0.6,1.2,0.6c0.4,0,0.7-0.1,1-0.2
		c0.3-0.1,0.5-0.3,0.7-0.4l0.4,0.7c-0.2,0.2-0.5,0.4-0.9,0.5C356.4,129.2,356,129.3,355.5,129.3z M355.3,123.8c-0.4,0-0.7,0.2-1,0.5
		c-0.3,0.3-0.4,0.7-0.5,1.2l0,0h2.8v-0.1c0-0.4-0.1-0.8-0.4-1.1C356.1,124,355.8,123.8,355.3,123.8z"/>
	<path class="st3" d="M359,123.8v-0.7h1.9l0.1,0.9c0.2-0.3,0.4-0.6,0.6-0.7s0.5-0.3,0.9-0.3c0.1,0,0.2,0,0.3,0c0.1,0,0.2,0,0.2,0
		l-0.1,1l-0.6,0c-0.3,0-0.5,0.1-0.7,0.2s-0.4,0.3-0.5,0.6v3.5l0.9,0.2v0.7h-3v-0.7l0.9-0.2v-4.4L359,123.8z"/>
</g>
<g class="st2">
	<path class="st3" d="M288.3,68.7h-0.6l-0.1-0.8c-0.1-0.1-0.3-0.2-0.5-0.3c-0.2-0.1-0.4-0.1-0.7-0.1c-0.4,0-0.7,0.1-1,0.3
		c-0.2,0.2-0.3,0.4-0.3,0.7c0,0.3,0.1,0.5,0.3,0.6c0.2,0.2,0.6,0.3,1.1,0.4c0.6,0.2,1.1,0.4,1.4,0.7c0.3,0.3,0.5,0.7,0.5,1.1
		c0,0.5-0.2,0.8-0.6,1.1c-0.4,0.3-0.9,0.4-1.5,0.4c-0.4,0-0.8-0.1-1.2-0.2c-0.3-0.1-0.6-0.3-0.8-0.6V71h0.6l0.2,0.8
		c0.2,0.1,0.3,0.2,0.5,0.3c0.2,0.1,0.5,0.1,0.8,0.1c0.4,0,0.7-0.1,0.9-0.3c0.2-0.2,0.3-0.4,0.3-0.7c0-0.3-0.1-0.5-0.3-0.7
		c-0.2-0.2-0.6-0.3-1.1-0.5c-0.6-0.1-1.1-0.4-1.4-0.6c-0.3-0.3-0.5-0.6-0.5-1.1c0-0.5,0.2-0.8,0.6-1.1c0.4-0.3,0.9-0.5,1.5-0.5
		c0.4,0,0.8,0.1,1.1,0.2c0.3,0.1,0.6,0.3,0.8,0.5V68.7z"/>
	<path class="st3" d="M293.5,68.8H293l-0.1-0.8c-0.1-0.1-0.3-0.2-0.5-0.3c-0.2-0.1-0.4-0.1-0.7-0.1c-0.6,0-1.1,0.2-1.4,0.7
		c-0.3,0.4-0.5,1-0.5,1.7V70c0,0.7,0.2,1.2,0.5,1.7c0.3,0.4,0.8,0.7,1.3,0.7c0.3,0,0.5,0,0.7-0.1c0.2-0.1,0.4-0.2,0.5-0.3L293,71
		h0.6v1c-0.2,0.2-0.4,0.4-0.8,0.6s-0.7,0.3-1.2,0.3c-0.8,0-1.4-0.3-1.9-0.8S289,70.8,289,70v-0.1c0-0.9,0.2-1.6,0.7-2.1
		c0.5-0.6,1.1-0.8,1.9-0.8c0.4,0,0.8,0.1,1.2,0.3s0.6,0.4,0.8,0.6V68.8z"/>
	<path class="st3" d="M294.3,72.3l0.7-0.1v-4.6l-0.7-0.1V67h2.1v0.5l-0.7,0.1v2h0.6l1.6-2l-0.4-0.1V67h1.8v0.5l-0.5,0.1l-1.8,2.2
		l1.9,2.4l0.5,0.1v0.5h-1.9v-0.5l0.4-0.1l-1.7-2.1h-0.7v2l0.7,0.1v0.5h-2.1V72.3z"/>
</g>
<g class="st2">
	<path class="st3" d="M286.5,85.6c0.8,0,1.4,0.2,1.8,0.7s0.7,1.1,0.7,1.8v0.8c0,0.7-0.2,1.3-0.7,1.8s-1.1,0.7-1.8,0.7h-2.4v-0.5
		l0.7-0.1v-4.6l-0.7-0.1v-0.5h0.7H286.5z M285.5,86.2v4.6h1c0.5,0,1-0.2,1.3-0.5c0.3-0.4,0.5-0.8,0.5-1.4v-0.8c0-0.5-0.2-1-0.5-1.4
		c-0.3-0.4-0.7-0.5-1.3-0.5H285.5z"/>
	<path class="st3" d="M294.9,88.5c0,0.8-0.2,1.5-0.7,2.1s-1.1,0.8-1.9,0.8c-0.8,0-1.4-0.3-1.8-0.8c-0.5-0.6-0.7-1.3-0.7-2.1v-0.1
		c0-0.8,0.2-1.5,0.7-2.1c0.5-0.6,1.1-0.8,1.8-0.8c0.8,0,1.4,0.3,1.9,0.8C294.7,86.9,294.9,87.6,294.9,88.5L294.9,88.5z M294.1,88.4
		c0-0.7-0.2-1.2-0.5-1.7c-0.3-0.4-0.8-0.6-1.3-0.6c-0.5,0-1,0.2-1.3,0.6c-0.3,0.4-0.5,1-0.5,1.7v0.1c0,0.7,0.2,1.2,0.5,1.7
		c0.3,0.4,0.7,0.6,1.3,0.6c0.6,0,1-0.2,1.3-0.6C294,89.8,294.1,89.2,294.1,88.4L294.1,88.4z"/>
</g>
<g class="st2">
	<path class="st3" d="M286.5,102.7c0.8,0,1.4,0.2,1.8,0.7s0.7,1.1,0.7,1.8v0.8c0,0.7-0.2,1.3-0.7,1.8s-1.1,0.7-1.8,0.7h-2.4V108
		l0.7-0.1v-4.6l-0.7-0.1v-0.5h0.7H286.5z M285.5,103.3v4.6h1c0.5,0,1-0.2,1.3-0.5c0.3-0.4,0.5-0.8,0.5-1.4v-0.8c0-0.5-0.2-1-0.5-1.4
		c-0.3-0.4-0.7-0.5-1.3-0.5H285.5z"/>
	<path class="st3" d="M289.7,103.2v-0.5h2.1v0.5l-0.7,0.1v4.6l0.7,0.1v0.5h-2.1V108l0.7-0.1v-4.6L289.7,103.2z"/>
</g>
<g class="st2">
	<path class="st3" d="M284.1,125.5V125l0.7-0.1v-4.6l-0.7-0.1v-0.5h0.7h0.8h0.7v0.5l-0.7,0.1v4.6h2l0.1-0.7h0.7v1.3H284.1z"/>
	<path class="st3" d="M288.8,125.5V125l0.7-0.1v-4.6l-0.7-0.1v-0.5h4.5v1.4h-0.7l-0.1-0.8h-2.3v1.9h2.2v0.6h-2.2v2.1h2.3l0.1-0.8
		h0.7v1.4H288.8z"/>
</g>
<rect x="412.9" y="54.6" class="st4" width="91.5" height="80.6"/>
<g class="st2">
	<path class="st3" d="M478.3,109h-0.8l-0.2-1.2c-0.2-0.1-0.4-0.3-0.7-0.4s-0.6-0.1-1-0.1c-0.6,0-1,0.1-1.4,0.4
		c-0.3,0.3-0.5,0.6-0.5,1c0,0.4,0.2,0.7,0.5,0.9s0.8,0.5,1.6,0.6c0.9,0.2,1.5,0.5,2,1c0.5,0.4,0.7,0.9,0.7,1.6
		c0,0.7-0.3,1.2-0.8,1.6c-0.5,0.4-1.3,0.6-2.1,0.6c-0.6,0-1.2-0.1-1.7-0.3c-0.5-0.2-0.9-0.5-1.2-0.8v-1.5h0.8l0.2,1.2
		c0.2,0.2,0.5,0.3,0.8,0.4c0.3,0.1,0.7,0.2,1.1,0.2c0.6,0,1-0.1,1.3-0.4c0.3-0.2,0.5-0.6,0.5-1c0-0.4-0.1-0.7-0.4-1
		c-0.3-0.3-0.8-0.5-1.5-0.6c-0.9-0.2-1.6-0.5-2-0.9s-0.7-0.9-0.7-1.5c0-0.6,0.3-1.2,0.8-1.6c0.5-0.4,1.3-0.6,2.1-0.6
		c0.6,0,1.1,0.1,1.6,0.3c0.5,0.2,0.9,0.4,1.1,0.7V109z"/>
	<path class="st3" d="M479.4,114.1l0.9-0.2v-7.1l-0.9-0.2V106h2v3.5c0.2-0.3,0.5-0.5,0.8-0.7c0.3-0.2,0.6-0.2,1-0.2
		c0.7,0,1.2,0.2,1.5,0.6c0.4,0.4,0.5,1,0.5,1.8v3l0.9,0.2v0.7h-3v-0.7l0.9-0.2v-3c0-0.5-0.1-0.9-0.3-1.1c-0.2-0.2-0.5-0.4-1-0.4
		c-0.3,0-0.6,0.1-0.8,0.2s-0.5,0.3-0.6,0.6v3.7l0.9,0.2v0.7h-3V114.1z"/>
	<path class="st3" d="M487,114.1l0.9-0.2v-4.4l-0.9-0.2v-0.7h2v5.3l0.9,0.2v0.7h-3V114.1z M489.1,107.1h-1.1V106h1.1V107.1z"/>
	<path class="st3" d="M490.7,109.5v-0.8h1v-0.8c0-0.7,0.2-1.2,0.5-1.5c0.3-0.4,0.8-0.5,1.4-0.5c0.1,0,0.3,0,0.4,0
		c0.1,0,0.3,0.1,0.4,0.1l-0.1,0.9c-0.1,0-0.2,0-0.2,0c-0.1,0-0.2,0-0.3,0c-0.3,0-0.6,0.1-0.7,0.3c-0.2,0.2-0.2,0.5-0.2,0.8v0.8h1.3
		v0.8h-1.3v4.4l0.9,0.2v0.7h-3v-0.7l0.9-0.2v-4.4H490.7z"/>
	<path class="st3" d="M496.9,107.2v1.5h1.2v0.8h-1.2v3.7c0,0.3,0.1,0.5,0.2,0.6s0.3,0.2,0.5,0.2c0.1,0,0.2,0,0.3,0
		c0.1,0,0.2,0,0.3-0.1l0.2,0.8c-0.1,0.1-0.3,0.1-0.5,0.2c-0.2,0-0.4,0.1-0.6,0.1c-0.5,0-0.8-0.1-1.1-0.4s-0.4-0.7-0.4-1.3v-3.7h-1
		v-0.8h1v-1.5H496.9z"/>
</g>
<g class="st2">
	<path class="st3" d="M457,120.5c0.9,0,1.6,0.2,2.1,0.6c0.5,0.4,0.7,1,0.7,1.7c0,0.4-0.1,0.8-0.3,1.1c-0.2,0.3-0.5,0.6-1,0.7
		c0.5,0.1,0.8,0.4,1,0.7c0.2,0.3,0.3,0.7,0.3,1.2v0.7c0,0.3,0,0.4,0.1,0.6s0.2,0.2,0.3,0.2l0.3,0v0.7h-0.6c-0.4,0-0.7-0.2-0.9-0.5
		c-0.2-0.3-0.3-0.7-0.3-1.1v-0.6c0-0.4-0.1-0.8-0.4-1.1c-0.3-0.3-0.6-0.4-1-0.4h-1.8v2.8l0.9,0.2v0.7h-3v-0.7l0.9-0.2v-6.5l-0.9-0.2
		v-0.7h0.9H457z M455.5,124.2h1.5c0.6,0,1.1-0.1,1.4-0.4s0.4-0.6,0.4-1c0-0.4-0.1-0.8-0.4-1c-0.3-0.3-0.7-0.4-1.3-0.4h-1.6V124.2z"
		/>
	<path class="st3" d="M464.2,128.9c-0.9,0-1.5-0.3-2-0.9c-0.5-0.6-0.8-1.3-0.8-2.2v-0.3c0-0.9,0.3-1.6,0.8-2.2s1.1-0.9,1.8-0.9
		c0.8,0,1.4,0.2,1.9,0.7c0.4,0.5,0.6,1.2,0.6,2v0.7h-4l0,0c0,0.6,0.2,1.1,0.4,1.5c0.3,0.4,0.7,0.6,1.2,0.6c0.4,0,0.7-0.1,1-0.2
		c0.3-0.1,0.5-0.3,0.7-0.4l0.4,0.7c-0.2,0.2-0.5,0.4-0.9,0.5C465.1,128.8,464.7,128.9,464.2,128.9z M464,123.4c-0.4,0-0.7,0.2-1,0.5
		s-0.4,0.7-0.5,1.2l0,0h2.8v-0.1c0-0.4-0.1-0.8-0.4-1.1S464.5,123.4,464,123.4z"/>
	<path class="st3" d="M467.6,125.8c0-1,0.2-1.8,0.6-2.4c0.4-0.6,1-0.9,1.8-0.9c0.4,0,0.7,0.1,1,0.2c0.3,0.2,0.5,0.4,0.7,0.7l0.1-0.8
		h0.9v6.1c0,0.8-0.2,1.4-0.7,1.9s-1.1,0.7-1.9,0.7c-0.3,0-0.6,0-1-0.1c-0.3-0.1-0.6-0.2-0.9-0.3l0.3-0.9c0.2,0.1,0.5,0.2,0.7,0.3
		c0.3,0.1,0.6,0.1,0.8,0.1c0.5,0,0.9-0.1,1.1-0.4s0.3-0.7,0.3-1.2v-0.6c-0.2,0.3-0.4,0.5-0.7,0.6c-0.3,0.1-0.6,0.2-1,0.2
		c-0.8,0-1.3-0.3-1.8-0.8c-0.4-0.5-0.6-1.3-0.6-2.1V125.8z M468.7,125.9c0,0.6,0.1,1.1,0.4,1.5c0.3,0.4,0.7,0.6,1.2,0.6
		c0.3,0,0.6-0.1,0.8-0.2c0.2-0.2,0.4-0.4,0.6-0.6v-2.8c-0.1-0.3-0.3-0.5-0.6-0.6c-0.2-0.2-0.5-0.2-0.8-0.2c-0.5,0-0.9,0.2-1.2,0.7
		c-0.3,0.4-0.4,1-0.4,1.7V125.9z"/>
	<path class="st3" d="M474.2,128.1l0.9-0.2v-4.4l-0.9-0.2v-0.7h2v5.3l0.9,0.2v0.7h-3V128.1z M476.2,121.1h-1.1v-1.1h1.1V121.1z"/>
	<path class="st3" d="M482.7,124.6h-0.8l-0.2-0.7c-0.1-0.1-0.3-0.2-0.5-0.3s-0.4-0.1-0.7-0.1c-0.4,0-0.7,0.1-0.9,0.3
		c-0.2,0.2-0.3,0.4-0.3,0.6c0,0.2,0.1,0.4,0.3,0.6c0.2,0.1,0.5,0.3,1,0.4c0.8,0.2,1.4,0.4,1.7,0.7s0.6,0.7,0.6,1.1
		c0,0.5-0.2,1-0.7,1.3s-1,0.5-1.7,0.5c-0.5,0-0.9-0.1-1.3-0.2c-0.4-0.1-0.7-0.3-1-0.5l0-1.4h0.8l0.2,0.8c0.1,0.1,0.3,0.2,0.5,0.3
		c0.2,0.1,0.4,0.1,0.7,0.1c0.4,0,0.7-0.1,0.9-0.2s0.3-0.4,0.3-0.6c0-0.2-0.1-0.4-0.3-0.6c-0.2-0.2-0.5-0.3-1.1-0.4
		c-0.7-0.2-1.3-0.4-1.7-0.7s-0.6-0.7-0.6-1.1c0-0.5,0.2-0.9,0.6-1.3c0.4-0.4,1-0.5,1.7-0.5c0.5,0,0.9,0.1,1.3,0.2s0.7,0.3,0.9,0.5
		L482.7,124.6z"/>
	<path class="st3" d="M485.9,121.2v1.5h1.2v0.8h-1.2v3.7c0,0.3,0.1,0.5,0.2,0.6s0.3,0.2,0.5,0.2c0.1,0,0.2,0,0.3,0s0.2,0,0.3-0.1
		l0.2,0.8c-0.1,0.1-0.3,0.1-0.5,0.2s-0.4,0.1-0.6,0.1c-0.5,0-0.8-0.1-1.1-0.4c-0.3-0.3-0.4-0.7-0.4-1.3v-3.7h-1v-0.8h1v-1.5H485.9z"
		/>
	<path class="st3" d="M491,128.9c-0.9,0-1.5-0.3-2-0.9c-0.5-0.6-0.8-1.3-0.8-2.2v-0.3c0-0.9,0.3-1.6,0.8-2.2s1.1-0.9,1.8-0.9
		c0.8,0,1.4,0.2,1.9,0.7c0.4,0.5,0.6,1.2,0.6,2v0.7h-4l0,0c0,0.6,0.2,1.1,0.4,1.5c0.3,0.4,0.7,0.6,1.2,0.6c0.4,0,0.7-0.1,1-0.2
		c0.3-0.1,0.5-0.3,0.7-0.4l0.4,0.7c-0.2,0.2-0.5,0.4-0.9,0.5C491.9,128.8,491.5,128.9,491,128.9z M490.8,123.4c-0.4,0-0.7,0.2-1,0.5
		s-0.4,0.7-0.5,1.2l0,0h2.8v-0.1c0-0.4-0.1-0.8-0.4-1.1C491.6,123.5,491.3,123.4,490.8,123.4z"/>
	<path class="st3" d="M494.4,123.4v-0.7h1.9l0.1,0.9c0.2-0.3,0.4-0.6,0.6-0.7s0.5-0.3,0.9-0.3c0.1,0,0.2,0,0.3,0c0.1,0,0.2,0,0.2,0
		l-0.1,1l-0.6,0c-0.3,0-0.5,0.1-0.7,0.2c-0.2,0.1-0.4,0.3-0.5,0.6v3.5l0.9,0.2v0.7h-3v-0.7l0.9-0.2v-4.4L494.4,123.4z"/>
</g>
<g class="st2">
	<path class="st5" d="M177,94.4L177,94.4l-2.7,6.6h-0.7l-2.7-6.6l0,0l0.1,3.3v2.4l0.9,0.2v0.7h-3v-0.7l0.9-0.2v-6.5l-0.9-0.2v-0.7
		h0.9h1.4l2.6,6.7h0l2.6-6.7h2.4v0.7l-0.9,0.2v6.5l0.9,0.2v0.7h-3v-0.7l0.9-0.2v-2.4L177,94.4z"/>
	<path class="st5" d="M187.1,97c0,1.2-0.3,2.2-1,3c-0.7,0.8-1.6,1.2-2.7,1.2c-1.1,0-1.9-0.4-2.6-1.2c-0.7-0.8-1-1.8-1-3v-0.1
		c0-1.2,0.3-2.2,1-3c0.7-0.8,1.5-1.2,2.6-1.2c1.1,0,2,0.4,2.7,1.2c0.7,0.8,1,1.8,1,3V97z M186,96.8c0-1-0.2-1.7-0.7-2.3
		c-0.5-0.6-1.1-0.9-1.9-0.9c-0.8,0-1.4,0.3-1.8,0.9s-0.7,1.4-0.7,2.3V97c0,1,0.2,1.8,0.7,2.4c0.4,0.6,1,0.9,1.8,0.9
		c0.8,0,1.5-0.3,1.9-0.9c0.5-0.6,0.7-1.4,0.7-2.4V96.8z"/>
	<path class="st5" d="M193.9,95.2h-0.8l-0.2-1.2c-0.2-0.1-0.4-0.3-0.7-0.4c-0.3-0.1-0.6-0.1-1-0.1c-0.6,0-1,0.1-1.4,0.4
		c-0.3,0.3-0.5,0.6-0.5,1c0,0.4,0.2,0.7,0.5,0.9s0.8,0.5,1.6,0.6c0.9,0.2,1.5,0.5,2,1c0.5,0.4,0.7,0.9,0.7,1.6
		c0,0.7-0.3,1.2-0.8,1.6s-1.3,0.6-2.1,0.6c-0.6,0-1.2-0.1-1.7-0.3c-0.5-0.2-0.9-0.5-1.2-0.8v-1.5h0.8l0.2,1.2
		c0.2,0.2,0.5,0.3,0.8,0.4c0.3,0.1,0.7,0.2,1.1,0.2c0.6,0,1-0.1,1.3-0.4c0.3-0.2,0.5-0.6,0.5-1c0-0.4-0.1-0.7-0.4-1
		c-0.3-0.3-0.8-0.5-1.5-0.6c-0.9-0.2-1.6-0.5-2-0.9s-0.7-0.9-0.7-1.5c0-0.6,0.3-1.2,0.8-1.6c0.5-0.4,1.3-0.6,2.1-0.6
		c0.6,0,1.1,0.1,1.6,0.3c0.5,0.2,0.9,0.4,1.1,0.7V95.2z"/>
	<path class="st5" d="M195,93.5v-0.7h3v0.7l-0.9,0.2v6.5l0.9,0.2v0.7h-3v-0.7l0.9-0.2v-6.5L195,93.5z"/>
</g>
<g class="st2">
	<path class="st5" d="M200.3,97.7c0-1.5,0.3-2.8,0.9-3.8c0.6-1.1,1.2-1.8,1.9-2.1l0,0l0.2,0.7c-0.5,0.4-1,1.1-1.3,1.9
		c-0.4,0.9-0.6,2-0.6,3.3v0.1c0,1.3,0.2,2.4,0.6,3.3c0.4,0.9,0.8,1.6,1.4,2l-0.2,0.6h0c-0.7-0.4-1.3-1.1-1.9-2.1
		C200.6,100.5,200.3,99.2,200.3,97.7L200.3,97.7z"/>
	<path class="st5" d="M207.6,92.8c0.9,0,1.6,0.2,2.1,0.7c0.5,0.5,0.7,1,0.7,1.8c0,0.7-0.2,1.3-0.7,1.8c-0.5,0.5-1.2,0.7-2.1,0.7
		h-1.8v2.4l0.9,0.2v0.7h-3v-0.7l0.9-0.2v-6.5l-0.9-0.2v-0.7h0.9H207.6z M205.8,96.8h1.8c0.6,0,1-0.2,1.3-0.5
		c0.3-0.3,0.4-0.7,0.4-1.1c0-0.5-0.1-0.8-0.4-1.1c-0.3-0.3-0.7-0.5-1.3-0.5h-1.8V96.8z"/>
	<path class="st5" d="M211.3,100.3l0.9-0.2v-4.4l-0.9-0.2v-0.7h2v5.3l0.9,0.2v0.7h-3V100.3z M213.3,93.3h-1.1v-1.1h1.1V93.3z"/>
	<path class="st5" d="M214.9,100.3l0.9-0.2v-4.4l-0.9-0.2v-0.7h1.9l0.1,0.9c0.2-0.3,0.5-0.6,0.8-0.8c0.3-0.2,0.7-0.3,1.1-0.3
		c0.7,0,1.2,0.2,1.5,0.6s0.5,1,0.5,1.8v3l0.9,0.2v0.7h-3v-0.7l0.9-0.2v-3c0-0.5-0.1-0.9-0.3-1.2c-0.2-0.2-0.5-0.3-1-0.3
		c-0.3,0-0.6,0.1-0.9,0.2c-0.2,0.2-0.4,0.4-0.6,0.6v3.6l0.9,0.2v0.7h-3V100.3z"/>
	<path class="st5" d="M225.5,101v-0.8l2.7-3c0.5-0.5,0.8-1,1-1.3c0.2-0.3,0.3-0.6,0.3-1c0-0.4-0.1-0.8-0.4-1c-0.2-0.3-0.6-0.4-1-0.4
		c-0.6,0-1,0.1-1.3,0.4c-0.3,0.3-0.4,0.7-0.4,1.2h-1.1l0,0c0-0.7,0.2-1.3,0.7-1.8c0.5-0.5,1.2-0.7,2-0.7c0.7,0,1.3,0.2,1.8,0.6
		c0.4,0.4,0.7,1,0.7,1.7c0,0.4-0.1,0.9-0.4,1.3c-0.3,0.5-0.6,0.9-1.1,1.5l-2.2,2.4l0,0h2.9l0.1-0.9h0.9v1.8H225.5z"/>
	<path class="st5" d="M234.4,97.7c0,1.5-0.3,2.8-0.9,3.8c-0.6,1.1-1.2,1.8-1.9,2.1h0l-0.2-0.6c0.5-0.4,1-1,1.3-2
		c0.4-0.9,0.6-2,0.6-3.3v-0.1c0-1.3-0.2-2.4-0.6-3.3c-0.4-0.9-0.8-1.6-1.3-2l0.2-0.6h0c0.7,0.4,1.3,1.1,1.9,2.1
		C234.1,94.9,234.4,96.2,234.4,97.7L234.4,97.7z"/>
</g>
<g class="st2">
	<path class="st5" d="M175.3,113.1h-0.8l-0.2-1.2c-0.2-0.2-0.4-0.3-0.7-0.4c-0.3-0.1-0.6-0.2-0.9-0.2c-0.9,0-1.5,0.3-2,0.9
		c-0.5,0.6-0.7,1.4-0.7,2.4v0.1c0,1,0.2,1.7,0.7,2.4s1.1,0.9,1.9,0.9c0.4,0,0.7-0.1,1-0.2s0.5-0.3,0.7-0.4l0.2-1.2h0.8v1.5
		c-0.2,0.3-0.6,0.6-1.1,0.8c-0.5,0.2-1,0.4-1.7,0.4c-1.1,0-2-0.4-2.6-1.2c-0.7-0.8-1-1.8-1-3v-0.1c0-1.2,0.3-2.2,1-3
		c0.7-0.8,1.6-1.2,2.7-1.2c0.6,0,1.2,0.1,1.7,0.4c0.5,0.2,0.8,0.5,1.1,0.8V113.1z"/>
	<path class="st5" d="M182.4,113h-0.8l-0.2-1.2c-0.2-0.1-0.4-0.3-0.7-0.4c-0.3-0.1-0.6-0.1-1-0.1c-0.6,0-1,0.1-1.4,0.4
		c-0.3,0.3-0.5,0.6-0.5,1c0,0.4,0.2,0.7,0.5,0.9s0.8,0.5,1.6,0.6c0.9,0.2,1.5,0.5,2,1s0.7,0.9,0.7,1.6c0,0.7-0.3,1.2-0.8,1.6
		s-1.3,0.6-2.1,0.6c-0.6,0-1.2-0.1-1.7-0.3c-0.5-0.2-0.9-0.5-1.2-0.8v-1.5h0.8l0.2,1.2c0.2,0.2,0.5,0.3,0.8,0.4
		c0.3,0.1,0.7,0.2,1.1,0.2c0.6,0,1-0.1,1.3-0.4c0.3-0.2,0.5-0.6,0.5-1c0-0.4-0.1-0.7-0.4-0.9c-0.3-0.3-0.8-0.5-1.5-0.6
		c-0.9-0.2-1.6-0.5-2-0.9s-0.7-0.9-0.7-1.5c0-0.6,0.3-1.2,0.8-1.6c0.5-0.4,1.3-0.6,2.1-0.6c0.6,0,1.1,0.1,1.6,0.3
		c0.5,0.2,0.9,0.4,1.1,0.7V113z"/>
	<path class="st5" d="M186.6,115.4c0-1.5,0.3-2.8,0.9-3.8c0.6-1.1,1.2-1.8,1.9-2.1l0,0l0.2,0.7c-0.5,0.4-1,1.1-1.3,1.9
		s-0.6,2-0.6,3.3v0.1c0,1.3,0.2,2.4,0.6,3.3c0.4,0.9,0.8,1.6,1.4,2l-0.2,0.6h0c-0.7-0.4-1.3-1.1-1.9-2.1
		C186.9,118.2,186.6,117,186.6,115.4L186.6,115.4z"/>
	<path class="st5" d="M193.9,110.5c0.9,0,1.6,0.2,2.1,0.7c0.5,0.5,0.7,1,0.7,1.8c0,0.7-0.2,1.3-0.7,1.8s-1.2,0.7-2.1,0.7h-1.8v2.4
		l0.9,0.2v0.7h-3v-0.7l0.9-0.2v-6.5l-0.9-0.2v-0.7h0.9H193.9z M192.2,114.6h1.8c0.6,0,1-0.2,1.3-0.5c0.3-0.3,0.4-0.7,0.4-1.1
		c0-0.5-0.1-0.8-0.4-1.1s-0.7-0.5-1.3-0.5h-1.8V114.6z"/>
	<path class="st5" d="M197.6,118.1l0.9-0.2v-4.4l-0.9-0.2v-0.7h2v5.3l0.9,0.2v0.7h-3V118.1z M199.7,111.1h-1.1v-1.1h1.1V111.1z"/>
	<path class="st5" d="M201.3,118.1l0.9-0.2v-4.4l-0.9-0.2v-0.7h1.9l0.1,0.9c0.2-0.3,0.5-0.6,0.8-0.8c0.3-0.2,0.7-0.3,1.1-0.3
		c0.7,0,1.2,0.2,1.5,0.6c0.4,0.4,0.5,1,0.5,1.8v3l0.9,0.2v0.7h-3v-0.7l0.9-0.2v-3c0-0.5-0.1-0.9-0.3-1.2c-0.2-0.2-0.5-0.3-1-0.3
		c-0.3,0-0.6,0.1-0.9,0.2s-0.4,0.4-0.6,0.6v3.6l0.9,0.2v0.7h-3V118.1z"/>
	<path class="st5" d="M211.6,118.1l0.7-0.1l1.8-2.3l-1.8-2.2l-0.7-0.1v-0.7h2.4v0.7l-0.6,0.1l1.1,1.5l1.2-1.5l-0.5-0.1v-0.7h2.4v0.7
		l-0.7,0.1l-1.8,2.2l1.8,2.3l0.7,0.1v0.7h-2.4v-0.7l0.5-0.1l-1.2-1.5l-1.2,1.5l0.5,0.1v0.7h-2.4V118.1z"/>
	<path class="st5" d="M221.1,115.5c0,1.5-0.3,2.8-0.9,3.8c-0.6,1.1-1.2,1.8-1.9,2.1h0l-0.2-0.6c0.5-0.4,1-1.1,1.3-2
		c0.4-0.9,0.6-2,0.6-3.3v-0.1c0-1.3-0.2-2.4-0.6-3.3c-0.4-0.9-0.8-1.6-1.3-2l0.2-0.6h0c0.7,0.4,1.3,1.1,1.9,2.1
		C220.8,112.7,221.1,113.9,221.1,115.5L221.1,115.5z"/>
</g>
<g class="st2">
	<path class="st5" d="M174.9,59.7h-0.8l-0.2-1.2c-0.2-0.1-0.4-0.3-0.7-0.4c-0.3-0.1-0.6-0.1-1-0.1c-0.6,0-1,0.1-1.4,0.4
		c-0.3,0.3-0.5,0.6-0.5,1c0,0.4,0.2,0.7,0.5,0.9s0.8,0.5,1.6,0.6c0.9,0.2,1.5,0.5,2,1c0.5,0.4,0.7,0.9,0.7,1.6
		c0,0.7-0.3,1.2-0.8,1.6s-1.3,0.6-2.1,0.6c-0.6,0-1.2-0.1-1.7-0.3c-0.5-0.2-0.9-0.5-1.2-0.8V63h0.8l0.2,1.2c0.2,0.2,0.5,0.3,0.8,0.4
		c0.3,0.1,0.7,0.2,1.1,0.2c0.6,0,1-0.1,1.3-0.4c0.3-0.2,0.5-0.6,0.5-1c0-0.4-0.1-0.7-0.4-1c-0.3-0.3-0.8-0.5-1.5-0.6
		c-0.9-0.2-1.6-0.5-2-0.9s-0.7-0.9-0.7-1.5c0-0.6,0.3-1.2,0.8-1.6c0.5-0.4,1.3-0.6,2.1-0.6c0.6,0,1.1,0.1,1.6,0.3
		c0.5,0.2,0.9,0.4,1.1,0.7V59.7z"/>
	<path class="st5" d="M182.4,59.8h-0.8l-0.2-1.2c-0.2-0.2-0.4-0.3-0.7-0.4c-0.3-0.1-0.6-0.2-0.9-0.2c-0.9,0-1.5,0.3-2,0.9
		c-0.5,0.6-0.7,1.4-0.7,2.4v0.1c0,1,0.2,1.7,0.7,2.4c0.5,0.6,1.1,0.9,1.9,0.9c0.4,0,0.7-0.1,1-0.2s0.5-0.3,0.7-0.4l0.2-1.2h0.8v1.5
		c-0.2,0.3-0.6,0.6-1.1,0.8c-0.5,0.2-1,0.4-1.7,0.4c-1.1,0-2-0.4-2.6-1.2c-0.7-0.8-1-1.8-1-3v-0.1c0-1.2,0.3-2.2,1-3
		c0.7-0.8,1.6-1.2,2.7-1.2c0.6,0,1.2,0.1,1.7,0.4c0.5,0.2,0.8,0.5,1.1,0.8V59.8z"/>
	<path class="st5" d="M183.5,64.8l0.9-0.2v-6.5l-0.9-0.2v-0.7h3V58l-0.9,0.2v2.8h0.9l2.3-2.9l-0.6-0.1v-0.7h2.6V58l-0.8,0.1
		l-2.5,3.1l2.8,3.4l0.8,0.1v0.7h-2.7v-0.7l0.6-0.1l-2.4-2.9h-1v2.9l0.9,0.2v0.7h-3V64.8z"/>
</g>
<g class="st2">
	<path class="st5" d="M193.2,62.2c0-1.5,0.3-2.8,0.9-3.8c0.6-1.1,1.2-1.8,1.9-2.1l0,0l0.2,0.7c-0.5,0.4-1,1.1-1.3,1.9
		c-0.4,0.9-0.6,2-0.6,3.3v0.1c0,1.3,0.2,2.4,0.6,3.3c0.4,0.9,0.8,1.6,1.4,2l-0.2,0.6h0c-0.7-0.4-1.3-1.1-1.9-2.1
		C193.5,65,193.2,63.7,193.2,62.2L193.2,62.2z"/>
	<path class="st5" d="M200.5,57.3c0.9,0,1.6,0.2,2.1,0.7c0.5,0.5,0.7,1,0.7,1.8c0,0.7-0.2,1.3-0.7,1.8c-0.5,0.5-1.2,0.7-2.1,0.7
		h-1.8v2.4l0.9,0.2v0.7h-3v-0.7l0.9-0.2v-6.5l-0.9-0.2v-0.7h0.9H200.5z M198.8,61.4h1.8c0.6,0,1-0.2,1.3-0.5
		c0.3-0.3,0.4-0.7,0.4-1.1c0-0.5-0.1-0.8-0.4-1.1c-0.3-0.3-0.7-0.5-1.3-0.5h-1.8V61.4z"/>
	<path class="st5" d="M204.2,64.8l0.9-0.2v-4.4l-0.9-0.2v-0.7h2v5.3l0.9,0.2v0.7h-3V64.8z M206.3,57.8h-1.1v-1.1h1.1V57.8z"/>
	<path class="st5" d="M207.9,64.8l0.9-0.2v-4.4l-0.9-0.2v-0.7h1.9l0.1,0.9c0.2-0.3,0.5-0.6,0.8-0.8c0.3-0.2,0.7-0.3,1.1-0.3
		c0.7,0,1.2,0.2,1.5,0.6s0.5,1,0.5,1.8v3l0.9,0.2v0.7h-3v-0.7l0.9-0.2v-3c0-0.5-0.1-0.9-0.3-1.2c-0.2-0.2-0.5-0.3-1-0.3
		c-0.3,0-0.6,0.1-0.9,0.2c-0.2,0.2-0.4,0.4-0.6,0.6v3.6l0.9,0.2v0.7h-3V64.8z"/>
	<path class="st5" d="M223.8,62.4c0,1.1-0.2,1.9-0.7,2.4c-0.5,0.6-1.1,0.8-1.9,0.8c-0.8,0-1.4-0.3-1.9-0.8c-0.5-0.6-0.7-1.4-0.7-2.4
		v-2c0-1.1,0.2-1.9,0.7-2.4c0.5-0.6,1.1-0.8,1.9-0.8c0.8,0,1.5,0.3,1.9,0.8c0.5,0.6,0.7,1.4,0.7,2.4V62.4z M222.7,60.2
		c0-0.7-0.1-1.3-0.4-1.6c-0.3-0.4-0.6-0.5-1.1-0.5c-0.5,0-0.9,0.2-1.1,0.5c-0.3,0.4-0.4,0.9-0.4,1.6v2.4c0,0.7,0.1,1.3,0.4,1.6
		c0.3,0.4,0.6,0.5,1.1,0.5c0.5,0,0.9-0.2,1.1-0.5c0.3-0.4,0.4-0.9,0.4-1.6V60.2z"/>
	<path class="st5" d="M227.6,62.3c0,1.5-0.3,2.8-0.9,3.8c-0.6,1.1-1.2,1.8-1.9,2.1h0l-0.2-0.6c0.5-0.4,1-1,1.3-2
		c0.4-0.9,0.6-2,0.6-3.3v-0.1c0-1.3-0.2-2.4-0.6-3.3c-0.4-0.9-0.8-1.6-1.3-2l0.2-0.6h0c0.7,0.4,1.3,1.1,1.9,2.1
		C227.3,59.4,227.6,60.7,227.6,62.3L227.6,62.3z"/>
</g>
<polyline class="st0" points="251.3,69.5 251.3,31 388.1,31.1 388.1,69.6 412.9,69.6 "/>
<polyline class="st0" points="264.3,122.2 264.3,148.8 384.2,149.1 384.2,122.2 412.9,122.2 "/>
<polyline class="st0" points="277.5,88 264.3,87.9 264.3,43 377.4,43.1 377.4,105.4 412.9,105.4 "/>
<circle class="st6" cx="264.3" cy="122.5" r="1.6"/>
<circle class="st6" cx="251.3" cy="69.6" r="1.6"/>
<g class="st2">
	<path class="st3" d="M422.1,68.7h-0.6l-0.1-0.8c-0.1-0.1-0.3-0.2-0.5-0.3c-0.2-0.1-0.4-0.1-0.7-0.1c-0.4,0-0.7,0.1-1,0.3
		s-0.3,0.4-0.3,0.7c0,0.3,0.1,0.5,0.3,0.6c0.2,0.2,0.6,0.3,1.1,0.4c0.6,0.2,1.1,0.4,1.4,0.7c0.3,0.3,0.5,0.7,0.5,1.1
		c0,0.5-0.2,0.8-0.6,1.1c-0.4,0.3-0.9,0.4-1.5,0.4c-0.4,0-0.8-0.1-1.2-0.2s-0.6-0.3-0.8-0.6V71h0.6l0.2,0.8c0.2,0.1,0.3,0.2,0.5,0.3
		c0.2,0.1,0.5,0.1,0.8,0.1c0.4,0,0.7-0.1,0.9-0.3c0.2-0.2,0.3-0.4,0.3-0.7c0-0.3-0.1-0.5-0.3-0.7c-0.2-0.2-0.6-0.3-1.1-0.5
		c-0.6-0.1-1.1-0.4-1.4-0.6c-0.3-0.3-0.5-0.6-0.5-1.1c0-0.5,0.2-0.8,0.6-1.1c0.4-0.3,0.9-0.5,1.5-0.5c0.4,0,0.8,0.1,1.1,0.2
		s0.6,0.3,0.8,0.5V68.7z"/>
	<path class="st3" d="M427.4,68.8h-0.6l-0.1-0.8c-0.1-0.1-0.3-0.2-0.5-0.3c-0.2-0.1-0.4-0.1-0.7-0.1c-0.6,0-1.1,0.2-1.4,0.7
		s-0.5,1-0.5,1.7V70c0,0.7,0.2,1.2,0.5,1.7c0.3,0.4,0.8,0.7,1.3,0.7c0.3,0,0.5,0,0.7-0.1c0.2-0.1,0.4-0.2,0.5-0.3l0.1-0.8h0.6v1
		c-0.2,0.2-0.4,0.4-0.8,0.6s-0.7,0.3-1.2,0.3c-0.8,0-1.4-0.3-1.9-0.8c-0.5-0.6-0.7-1.3-0.7-2.1v-0.1c0-0.9,0.2-1.6,0.7-2.1
		c0.5-0.6,1.1-0.8,1.9-0.8c0.4,0,0.8,0.1,1.2,0.3s0.6,0.4,0.8,0.6V68.8z"/>
	<path class="st3" d="M428.2,72.3l0.7-0.1v-4.6l-0.7-0.1V67h2.1v0.5l-0.7,0.1v2h0.6l1.6-2l-0.4-0.1V67h1.8v0.5l-0.5,0.1l-1.8,2.2
		l1.9,2.4l0.5,0.1v0.5h-1.9v-0.5l0.4-0.1l-1.7-2.1h-0.7v2l0.7,0.1v0.5h-2.1V72.3z"/>
</g>
<g class="st2">
	<path class="st3" d="M420.4,85.6c0.8,0,1.4,0.2,1.8,0.7c0.5,0.5,0.7,1.1,0.7,1.8v0.8c0,0.7-0.2,1.3-0.7,1.8
		c-0.5,0.5-1.1,0.7-1.8,0.7h-2.4v-0.5l0.7-0.1v-4.6l-0.7-0.1v-0.5h0.7H420.4z M419.4,86.2v4.6h1c0.5,0,1-0.2,1.3-0.5
		c0.3-0.4,0.5-0.8,0.5-1.4v-0.8c0-0.5-0.2-1-0.5-1.4c-0.3-0.4-0.7-0.5-1.3-0.5H419.4z"/>
	<path class="st3" d="M428.8,88.5c0,0.8-0.2,1.5-0.7,2.1s-1.1,0.8-1.9,0.8c-0.8,0-1.4-0.3-1.8-0.8s-0.7-1.3-0.7-2.1v-0.1
		c0-0.8,0.2-1.5,0.7-2.1c0.5-0.6,1.1-0.8,1.8-0.8c0.8,0,1.4,0.3,1.9,0.8C428.5,86.9,428.8,87.6,428.8,88.5L428.8,88.5z M428,88.4
		c0-0.7-0.2-1.2-0.5-1.7c-0.3-0.4-0.8-0.6-1.3-0.6c-0.5,0-1,0.2-1.3,0.6c-0.3,0.4-0.5,1-0.5,1.7v0.1c0,0.7,0.2,1.2,0.5,1.7
		c0.3,0.4,0.7,0.6,1.3,0.6c0.6,0,1-0.2,1.3-0.6C427.8,89.8,428,89.2,428,88.4L428,88.4z"/>
</g>
<g class="st2">
	<path class="st3" d="M420.4,102.7c0.8,0,1.4,0.2,1.8,0.7c0.5,0.5,0.7,1.1,0.7,1.8v0.8c0,0.7-0.2,1.3-0.7,1.8
		c-0.5,0.5-1.1,0.7-1.8,0.7h-2.4V108l0.7-0.1v-4.6l-0.7-0.1v-0.5h0.7H420.4z M419.4,103.3v4.6h1c0.5,0,1-0.2,1.3-0.5
		c0.3-0.4,0.5-0.8,0.5-1.4v-0.8c0-0.5-0.2-1-0.5-1.4c-0.3-0.4-0.7-0.5-1.3-0.5H419.4z"/>
	<path class="st3" d="M423.6,103.2v-0.5h2.1v0.5l-0.7,0.1v4.6l0.7,0.1v0.5h-2.1V108l0.7-0.1v-4.6L423.6,103.2z"/>
</g>
<g class="st2">
	<path class="st3" d="M417.9,125.5V125l0.7-0.1v-4.6l-0.7-0.1v-0.5h0.7h0.8h0.7v0.5l-0.7,0.1v4.6h2l0.1-0.7h0.7v1.3H417.9z"/>
	<path class="st3" d="M422.7,125.5V125l0.7-0.1v-4.6l-0.7-0.1v-0.5h4.5v1.4h-0.7l-0.1-0.8h-2.3v1.9h2.2v0.6h-2.2v2.1h2.3l0.1-0.8
		h0.7v1.4H422.7z"/>
</g>
</svg>
