<svg id="Layer_1" data-name="Layer 1" xmlns="http://www.w3.org/2000/svg" viewBox="0 0 582 161.5"><defs><style>.cls-1{fill:none;stroke-width:1.29px;}.cls-1,.cls-13,.cls-2,.cls-8{stroke:#231f20;stroke-miterlimit:10;}.cls-2{fill:#00aeef;stroke-width:1.57px;}.cls-10,.cls-12,.cls-3{font-size:11.61px;}.cls-3,.cls-9{fill:#fff;}.cls-10,.cls-3,.cls-9{font-family:RobotoSlab-Regular, Roboto Slab;}.cls-4{letter-spacing:-0.04em;}.cls-5{letter-spacing:-0.01em;}.cls-6{letter-spacing:0em;}.cls-7{letter-spacing:0em;}.cls-8{fill:#00a651;stroke-width:1.63px;}.cls-9{font-size:8.17px;}.cls-10,.cls-12,.cls-13{fill:#231f20;}.cls-11{letter-spacing:-0.14em;}.cls-12{font-family:RobotoSlab-Thin, Roboto Slab;}.cls-13{stroke-width:0.85px;}</style></defs><title>spi-shift-register</title><line class="cls-1" x1="161.69" y1="105.41" x2="277.97" y2="105.41"/><line class="cls-1" x1="161.69" y1="69.63" x2="277.97" y2="69.63"/><line class="cls-1" x1="161.69" y1="122.5" x2="277.97" y2="122.5"/><rect class="cls-2" x="73.71" y="54.59" width="88.06" height="77.91"/><text class="cls-3" transform="translate(78.31 126.92)"><tspan class="cls-4">T</tspan><tspan class="cls-5" x="6.85" y="0">r</tspan><tspan class="cls-6" x="11.55" y="0">ee</tspan><tspan class="cls-7" x="24.04" y="0">h</tspan><tspan x="31.47" y="0">opper</tspan></text><rect class="cls-8" x="277.97" y="54.59" width="91.54" height="80.64"/><text class="cls-3" transform="translate(336.49 115.27)">Shift <tspan x="-18.94" y="13.93">Register</tspan></text><text class="cls-9" transform="translate(283.78 72.82)">SCK</text><text class="cls-9" transform="translate(283.78 91.38)">DO</text><text class="cls-9" transform="translate(283.78 108.46)">DI</text><text class="cls-9" transform="translate(283.78 125.53)">LE</text><rect class="cls-8" x="412.86" y="54.59" width="91.54" height="80.64"/><text class="cls-3" transform="translate(471.95 114.84)">Shift <tspan x="-18.94" y="13.93">Register</tspan></text><text class="cls-10" transform="translate(168.54 101.03)">MOSI<tspan class="cls-11" x="29.82" y="0"> </tspan><tspan x="31.08" y="0">(Pin 2)</tspan></text><text class="cls-12" transform="translate(168.54 118.77)">CS (Pin x)</text><text class="cls-10" transform="translate(168.54 65.55)">SCK<tspan class="cls-11" x="22.79" y="0"> </tspan><tspan x="24.05" y="0">(Pin 0)</tspan></text><polyline class="cls-1" points="251.31 69.54 251.3 31.03 388.11 31.12 388.11 69.63 412.86 69.63"/><polyline class="cls-1" points="264.34 122.21 264.34 148.8 384.24 149.09 384.24 122.21 412.86 122.21"/><polyline class="cls-1" points="277.48 88 264.34 87.9 264.34 43.01 377.37 43.1 377.37 105.41 412.86 105.41"/><circle class="cls-13" cx="264.34" cy="122.5" r="1.61"/><circle class="cls-13" cx="251.3" cy="69.63" r="1.61"/><text class="cls-9" transform="translate(417.65 72.82)">SCK</text><text class="cls-9" transform="translate(417.65 91.38)">DO</text><text class="cls-9" transform="translate(417.65 108.46)">DI</text><text class="cls-9" transform="translate(417.65 125.53)">LE</text></svg>