<svg id="Layer_1" data-name="Layer 1" xmlns="http://www.w3.org/2000/svg" viewBox="0 0 582 113.5"><defs><style>.cls-1{fill:none;stroke-width:1.23px;}.cls-1,.cls-2,.cls-7{stroke:#231f20;stroke-miterlimit:10;}.cls-2{fill:#00aeef;stroke-width:1.5px;}.cls-10,.cls-12,.cls-3{font-size:11.07px;}.cls-13,.cls-3{fill:#fff;}.cls-10,.cls-13,.cls-3{font-family:RobotoSlab-Regular, Roboto Slab;}.cls-4{letter-spacing:-0.04em;}.cls-5{letter-spacing:-0.01em;}.cls-6{letter-spacing:0em;}.cls-7{fill:#00a651;stroke-width:1.55px;}.cls-8{letter-spacing:-0.01em;}.cls-9{letter-spacing:0em;}.cls-10,.cls-12{fill:#231f20;}.cls-11{letter-spacing:-0.14em;}.cls-12{font-family:RobotoSlab-Thin, Roboto Slab;}.cls-13{font-size:7.79px;}</style></defs><title>spi-overview</title><line class="cls-1" x1="233.9" y1="76.71" x2="344.71" y2="76.71"/><line class="cls-1" x1="233.9" y1="60.12" x2="344.71" y2="60.12"/><line class="cls-1" x1="233.9" y1="42.62" x2="344.71" y2="42.62"/><line class="cls-1" x1="233.9" y1="93" x2="344.71" y2="93"/><rect class="cls-2" x="150.06" y="28.29" width="83.91" height="74.25"/><text class="cls-3" transform="translate(153.44 96.62)"><tspan class="cls-4">T</tspan><tspan class="cls-5" x="6.53" y="0">r</tspan><tspan x="11.01" y="0">ee</tspan><tspan class="cls-6" x="22.9" y="0">h</tspan><tspan x="29.99" y="0">opper</tspan></text><rect class="cls-7" x="344.71" y="28.29" width="87.23" height="76.84"/><text class="cls-3" transform="translate(373.82 101.43)"><tspan class="cls-8">P</tspan><tspan x="6.96" y="0">eri</tspan><tspan class="cls-9" x="21.12" y="0">ph</tspan><tspan x="34.86" y="0">eral</tspan></text><text class="cls-10" transform="translate(240.43 72.54)">MOSI<tspan class="cls-11" x="28.42" y="0"> </tspan><tspan x="29.62" y="0">(Pin 2)</tspan></text><text class="cls-12" transform="translate(240.43 89.44)">CS (Pin x)</text><text class="cls-10" transform="translate(240.43 38.73)">SCK<tspan class="cls-11" x="21.72" y="0"> </tspan><tspan x="22.92" y="0">(Pin 0)</tspan></text><text class="cls-10" transform="translate(240.43 55.63)">MISO (Pin 1)</text><text class="cls-13" transform="translate(348.23 44.7)">SCK</text><text class="cls-13" transform="translate(348.23 62.4)">MISO</text><text class="cls-13" transform="translate(348.23 78.67)">MOSI</text><text class="cls-13" transform="translate(348.23 94.94)">CS</text></svg>