<svg id="Layer_1" data-name="Layer 1" xmlns="http://www.w3.org/2000/svg" viewBox="0 0 582 272.3"><defs><style>.cls-1{fill:#819d74;}.cls-2{fill:#a681a5;}.cls-3{fill:#54a0be;}.cls-4{fill:#aba98f;}.cls-5{fill:#1a5012;}.cls-6{fill:#7f7692;}.cls-7{fill:#231f20;}.cls-8{fill:#a50d12;}.cls-9{fill:#be6215;}.cls-10{fill:#292658;}.cls-11{fill:#5d5a39;}.cls-12{fill:#70236f;}.cls-13{fill:#006086;}.cls-14,.cls-22{font-size:9.96px;}.cls-14,.cls-16,.cls-22,.cls-23{fill:#fff;}.cls-14,.cls-16{font-family:RobotoSlab-Regular, Roboto Slab;}.cls-15{letter-spacing:-0.04em;}.cls-16{font-size:7.47px;}.cls-17{letter-spacing:-0.03em;}.cls-18{letter-spacing:-0.04em;}.cls-19{letter-spacing:-0.05em;}.cls-20{letter-spacing:-0.01em;}.cls-21{letter-spacing:0em;}.cls-22,.cls-23{font-family:RobotoSlab-Bold, Roboto Slab;font-weight:700;}.cls-23{font-size:11.82px;}.cls-24{fill:#333132;}.cls-24,.cls-26{stroke:#6d6e71;}.cls-24,.cls-25,.cls-26,.cls-27,.cls-28,.cls-29,.cls-30,.cls-31,.cls-32,.cls-33,.cls-34,.cls-35{stroke-linecap:round;stroke-linejoin:round;stroke-width:0.62px;}.cls-25{fill:#dcad27;stroke:#f6d573;}.cls-26,.cls-27,.cls-33{fill:#414042;}.cls-27{stroke:#515254;}.cls-28{fill:#9b8579;stroke:#726658;}.cls-29{fill:#44b649;}.cls-29,.cls-30{stroke:#7ec242;}.cls-30,.cls-32,.cls-35{fill:none;}.cls-31{fill:#bcbec0;}.cls-31,.cls-32{stroke:#939598;}.cls-33{stroke:#58595b;}.cls-34{fill:#a7a9ac;}.cls-34,.cls-35{stroke:#d1d3d4;}</style></defs><title>treehopper-hardware</title><rect class="cls-1" x="378.96" y="71.54" width="37.2" height="197.04"/><rect class="cls-2" x="335.46" y="130.76" width="42.72" height="38.85"/><rect class="cls-3" x="334.95" y="71.54" width="43.34" height="58.47"/><rect class="cls-4" x="335.15" y="170.64" width="43.14" height="38.53"/><rect class="cls-5" x="378.96" y="71.54" width="23.07" height="18.87"/><rect class="cls-5" x="378.89" y="91.24" width="23.07" height="18.87"/><rect class="cls-5" x="378.96" y="111.03" width="23.07" height="18.87"/><rect class="cls-5" x="378.96" y="130.75" width="23.07" height="18.87"/><rect class="cls-5" x="378.96" y="150.73" width="23.07" height="18.87"/><rect class="cls-5" x="378.96" y="170.53" width="23.07" height="18.87"/><rect class="cls-5" x="378.96" y="190.33" width="23.07" height="18.87"/><rect class="cls-5" x="378.96" y="210.12" width="23.07" height="18.87"/><rect class="cls-5" x="378.96" y="229.92" width="23.07" height="18.87"/><rect class="cls-5" x="378.96" y="249.71" width="23.07" height="18.87"/><rect class="cls-6" x="334.82" y="210.12" width="43.47" height="58.45"/><rect class="cls-7" x="334.82" y="12.55" width="81.21" height="18.82"/><rect class="cls-8" x="334.82" y="32.19" width="81.21" height="18.89"/><rect class="cls-9" x="334.82" y="52.01" width="81.21" height="18.89"/><rect class="cls-10" x="334.95" y="210.12" width="29.58" height="18.87"/><rect class="cls-10" x="334.95" y="229.92" width="29.58" height="18.87"/><rect class="cls-10" x="334.95" y="249.7" width="29.58" height="18.87"/><rect class="cls-11" x="335.09" y="170.53" width="29.52" height="18.87"/><rect class="cls-11" x="335.09" y="190.37" width="29.45" height="18.79"/><rect class="cls-12" x="335.09" y="130.75" width="29.52" height="18.87"/><rect class="cls-12" x="335.09" y="150.73" width="29.52" height="18.87"/><rect class="cls-13" x="335.04" y="91.34" width="29.57" height="18.87"/><rect class="cls-13" x="335.04" y="111.14" width="29.57" height="18.87"/><rect class="cls-13" x="335.02" y="71.54" width="29.47" height="18.87"/><text class="cls-14" transform="translate(347.79 223.86)">1</text><text class="cls-14" transform="translate(347.07 243.66)">2</text><text class="cls-14" transform="translate(347.03 263.45)">3</text><text class="cls-14" transform="translate(343.34 183.04)">TX</text><text class="cls-14" transform="translate(343.1 203.56)">RX</text><text class="cls-14" transform="translate(339.91 144.14)">S<tspan class="cls-15" x="6.06" y="0">D</tspan><tspan x="12.57" y="0">A</tspan></text><text class="cls-14" transform="translate(340.69 164.11)">SCL</text><text class="cls-14" transform="translate(337.06 104.72)">MISO</text><text class="cls-14" transform="translate(337 124.52)">MOSI</text><text class="cls-14" transform="translate(340.01 85.5)">SCK</text><text class="cls-16" transform="translate(373.15 155.93) rotate(-90)">I2C</text><text class="cls-16" transform="translate(373.71 106.7) rotate(-90)">SPI</text><text class="cls-16" transform="translate(373.15 200.05) rotate(-90)"><tspan class="cls-17">U</tspan><tspan x="5.4" y="0">A</tspan><tspan class="cls-18" x="10.87" y="0">R</tspan><tspan x="15.63" y="0">T</tspan></text><text class="cls-16" transform="translate(373.77 248.33) rotate(-90)">PWM</text><text class="cls-16" transform="translate(411.58 234.92) rotate(-90)">Digital I/<tspan class="cls-19" x="30.78" y="0">O</tspan><tspan x="35.67" y="0" xml:space="preserve">,  Ana</tspan><tspan class="cls-20" x="55.24" y="0">l</tspan><tspan x="57.52" y="0">og In, a</tspan><tspan class="cls-21" x="82.45" y="0">n</tspan><tspan x="87.22" y="0">d Soft-PWM</tspan></text><rect class="cls-1" x="160.59" y="71.61" width="37.2" height="197.04"/><rect class="cls-5" x="174.73" y="71.54" width="23.07" height="18.87"/><rect class="cls-5" x="174.66" y="91.24" width="23.07" height="18.87"/><rect class="cls-5" x="174.73" y="111.03" width="23.07" height="18.87"/><rect class="cls-5" x="174.73" y="130.75" width="23.07" height="18.87"/><rect class="cls-5" x="174.73" y="150.73" width="23.07" height="18.87"/><rect class="cls-5" x="174.73" y="170.53" width="23.07" height="18.87"/><rect class="cls-5" x="174.73" y="190.33" width="23.07" height="18.87"/><rect class="cls-5" x="174.73" y="210.12" width="23.07" height="18.87"/><rect class="cls-5" x="174.73" y="229.92" width="23.07" height="18.87"/><rect class="cls-5" x="174.73" y="249.71" width="23.07" height="18.87"/><rect class="cls-7" x="160.59" y="12.55" width="37.27" height="18.82"/><rect class="cls-8" x="160.59" y="32.19" width="37.27" height="18.89"/><rect class="cls-9" x="160.59" y="52.01" width="37.27" height="18.89"/><text class="cls-22" transform="translate(364.82 24.42)">GND</text><text class="cls-22" transform="translate(369.27 45.33)">5V</text><text class="cls-22" transform="translate(365.25 65.15)">3.3V</text><text class="cls-22" transform="translate(168.65 24.42)">GND</text><text class="cls-22" transform="translate(173.04 45.33)">5V</text><text class="cls-22" transform="translate(169.02 65.15)">3.3V</text><text class="cls-23" transform="translate(386.95 85.24)">0</text><text class="cls-23" transform="translate(387.71 104.91)">1</text><text class="cls-23" transform="translate(387.06 124.58)">2</text><text class="cls-23" transform="translate(387.12 144.25)">3</text><text class="cls-23" transform="translate(386.99 163.92)">4</text><text class="cls-23" transform="translate(387.17 183.59)">5</text><text class="cls-23" transform="translate(387.02 204.12)">6</text><text class="cls-23" transform="translate(387.13 223.43)">7</text><text class="cls-23" transform="translate(387.11 243.23)">8</text><text class="cls-23" transform="translate(387.03 263.04)">9</text><text class="cls-23" transform="translate(180.19 85.24)">19</text><text class="cls-23" transform="translate(180.26 104.91)">18</text><text class="cls-23" transform="translate(180.29 124.58)">17</text><text class="cls-23" transform="translate(180.18 144.25)">16</text><text class="cls-23" transform="translate(180.33 163.92)">15</text><text class="cls-23" transform="translate(180.15 183.59)">14</text><text class="cls-23" transform="translate(180.27 204.12)">13</text><text class="cls-23" transform="translate(180.21 223.43)">12</text><text class="cls-23" transform="translate(180.87 243.23)">11</text><text class="cls-23" transform="translate(180.1 263.04)">10</text><text class="cls-16" transform="translate(170.64 234.99) rotate(-90)">Digital I/<tspan class="cls-19" x="30.78" y="0">O</tspan><tspan x="35.67" y="0" xml:space="preserve">,  Ana</tspan><tspan class="cls-20" x="55.24" y="0">l</tspan><tspan x="57.52" y="0">og In, a</tspan><tspan class="cls-21" x="82.45" y="0">n</tspan><tspan x="87.22" y="0">d Soft-PWM</tspan></text><path class="cls-24" d="M323.78,267.06V263.8a5.05,5.05,0,0,1-.57-.3l-.15-.09-.3-.22a5,5,0,0,1,0-8.09l.3-.22.15-.09a5.05,5.05,0,0,1,.57-.3V244a5.08,5.08,0,0,1,0-9.3v-10.5a5.08,5.08,0,0,1,0-9.3v-10.5a5.08,5.08,0,0,1,0-9.3v-10.5a5.08,5.08,0,0,1,0-9.3v-10.5a5.08,5.08,0,0,1,0-9.3V145a5.08,5.08,0,0,1,0-9.3v-10.5a5.08,5.08,0,0,1,0-9.3v-10.5a5.08,5.08,0,0,1,0-9.3V85.62a5.08,5.08,0,0,1,0-9.3V65.83a5.08,5.08,0,0,1,0-9.3V46a5.08,5.08,0,0,1,0-9.3V26.23a5.05,5.05,0,0,1-.57-.3l-.15-.09-.3-.22a5,5,0,0,1,0-8.09l.3-.21.15-.09a5.05,5.05,0,0,1,.57-.3V11.68H209v5.24l.07,0a5,5,0,0,1,0,9.24l-.07,0V36.72A5.08,5.08,0,0,1,209,46V56.52a5.08,5.08,0,0,1,0,9.31V76.32a5.08,5.08,0,0,1,0,9.31V96.12a5.08,5.08,0,0,1,0,9.31v10.49a5.08,5.08,0,0,1,0,9.31v10.49a5.08,5.08,0,0,1,0,9.31v10.49a5.08,5.08,0,0,1,0,9.31v10.49a5.08,5.08,0,0,1,0,9.31v10.49a5.08,5.08,0,0,1,0,9.31V214.9a5.08,5.08,0,0,1,0,9.31V234.7a5.08,5.08,0,0,1,0,9.31V254.5l.07,0a5,5,0,0,1,0,9.24l-.07,0v3.25Zm-4.4-245.48a3.51,3.51,0,1,1-3.51-3.51A3.51,3.51,0,0,1,319.38,21.58Zm-106,0a3.51,3.51,0,1,1,3.51,3.51A3.51,3.51,0,0,1,213.39,21.58ZM229.94,31V20.82a2.68,2.68,0,0,1,5.36,0V31a2.68,2.68,0,0,1-5.36,0Zm67.43,0V20.82a2.68,2.68,0,1,1,5.36,0V31a2.68,2.68,0,1,1-5.36,0Zm-84,10.35a3.51,3.51,0,1,1,3.51,3.51A3.51,3.51,0,0,1,213.39,41.38Zm99,0a3.51,3.51,0,1,1,3.51,3.51A3.51,3.51,0,0,1,312.37,41.38Zm7,19.8a3.51,3.51,0,1,1-3.51-3.51A3.51,3.51,0,0,1,319.38,61.18Zm-106,0a3.51,3.51,0,1,1,3.51,3.51A3.51,3.51,0,0,1,213.39,61.18Zm16.55,9.28V60.24a2.68,2.68,0,0,1,5.36,0V70.46a2.68,2.68,0,0,1-5.36,0Zm67.43,0V60.24a2.68,2.68,0,1,1,5.36,0V70.46a2.68,2.68,0,1,1-5.36,0ZM213.39,81a3.51,3.51,0,1,1,3.51,3.51A3.51,3.51,0,0,1,213.39,81Zm99,0a3.51,3.51,0,1,1,3.51,3.51A3.51,3.51,0,0,1,312.37,81Zm-99,19.8a3.51,3.51,0,1,1,3.51,3.51A3.51,3.51,0,0,1,213.39,100.77Zm99,0a3.51,3.51,0,1,1,3.51,3.51A3.51,3.51,0,0,1,312.37,100.77Zm-99,19.8a3.51,3.51,0,1,1,3.51,3.51A3.51,3.51,0,0,1,213.39,120.57Zm99,0a3.51,3.51,0,1,1,3.51,3.51A3.51,3.51,0,0,1,312.37,120.57Zm-99,19.8a3.51,3.51,0,1,1,3.51,3.51A3.51,3.51,0,0,1,213.39,140.37Zm99,0a3.51,3.51,0,1,1,3.51,3.51A3.51,3.51,0,0,1,312.37,140.37Zm-99,19.8a3.51,3.51,0,1,1,3.51,3.51A3.51,3.51,0,0,1,213.39,160.17Zm99,0a3.51,3.51,0,1,1,3.51,3.51A3.51,3.51,0,0,1,312.37,160.17Zm-99,19.8a3.51,3.51,0,1,1,3.51,3.51A3.51,3.51,0,0,1,213.39,180Zm99,0a3.51,3.51,0,1,1,3.51,3.51A3.51,3.51,0,0,1,312.37,180Zm-99,19.8a3.51,3.51,0,1,1,3.51,3.51A3.51,3.51,0,0,1,213.39,199.76Zm99,0a3.51,3.51,0,1,1,3.51,3.51A3.51,3.51,0,0,1,312.37,199.76Zm-99,19.8a3.51,3.51,0,1,1,3.51,3.51A3.51,3.51,0,0,1,213.39,219.56Zm99,0a3.51,3.51,0,1,1,3.51,3.51A3.51,3.51,0,0,1,312.37,219.56Zm-99,19.8a3.51,3.51,0,1,1,3.51,3.51A3.51,3.51,0,0,1,213.39,239.36Zm99,0a3.51,3.51,0,1,1,3.51,3.51A3.51,3.51,0,0,1,312.37,239.36Zm-99,19.8a3.51,3.51,0,1,1,3.51,3.51A3.51,3.51,0,0,1,213.39,259.15Zm99,0a3.51,3.51,0,1,1,3.51,3.51A3.51,3.51,0,0,1,312.37,259.15Z"/><path class="cls-25" d="M312.37,21.58a3.51,3.51,0,1,1,3.51,3.51A3.51,3.51,0,0,1,312.37,21.58Zm11.41,4.57a4.93,4.93,0,0,1,0-9.13V15.4H309.32V27.76h14.46Z"/><path class="cls-25" d="M312.37,41.38a3.51,3.51,0,1,1,3.51,3.51A3.51,3.51,0,0,1,312.37,41.38Zm11.41,4.57a4.93,4.93,0,0,1,0-9.13V35.2H309.32V47.56h14.46Z"/><path class="cls-25" d="M312.37,61.18a3.51,3.51,0,1,1,3.51,3.51A3.51,3.51,0,0,1,312.37,61.18Zm11.41,4.57a4.93,4.93,0,0,1,0-9.13V55H309.32V67.36h14.46Z"/><path class="cls-25" d="M312.37,81a3.51,3.51,0,1,1,3.51,3.51A3.51,3.51,0,0,1,312.37,81Zm11.41,4.57a4.93,4.93,0,0,1,0-9.13V74.8H309.32V87.16h14.46Z"/><path class="cls-25" d="M312.37,100.77a3.51,3.51,0,1,1,3.51,3.51A3.51,3.51,0,0,1,312.37,100.77Zm11.41,4.57a4.93,4.93,0,0,1,0-9.13V94.59H309.32V107h14.46Z"/><path class="cls-25" d="M312.37,120.57a3.51,3.51,0,1,1,3.51,3.51A3.51,3.51,0,0,1,312.37,120.57Zm11.41,4.57a4.93,4.93,0,0,1,0-9.13v-1.61H309.32v12.36h14.46Z"/><path class="cls-25" d="M312.37,140.37a3.51,3.51,0,1,1,3.51,3.51A3.51,3.51,0,0,1,312.37,140.37Zm11.41,4.57a4.93,4.93,0,0,1,0-9.13v-1.61H309.32v12.36h14.46Z"/><path class="cls-25" d="M312.37,160.17a3.51,3.51,0,1,1,3.51,3.51A3.51,3.51,0,0,1,312.37,160.17Zm11.41,4.57a4.93,4.93,0,0,1,0-9.13V154H309.32v12.36h14.46Z"/><path class="cls-25" d="M312.37,180a3.51,3.51,0,1,1,3.51,3.51A3.51,3.51,0,0,1,312.37,180Zm11.41,4.57a4.93,4.93,0,0,1,0-9.13v-1.61H309.32v12.36h14.46Z"/><path class="cls-25" d="M312.37,199.76a3.51,3.51,0,1,1,3.51,3.51A3.51,3.51,0,0,1,312.37,199.76Zm11.41,4.57a4.93,4.93,0,0,1,0-9.13v-1.61H309.32v12.36h14.46Z"/><path class="cls-25" d="M312.37,219.56a3.51,3.51,0,1,1,3.51,3.51A3.51,3.51,0,0,1,312.37,219.56Zm11.41,4.57a4.93,4.93,0,0,1,0-9.13v-1.61H309.32v12.36h14.46Z"/><path class="cls-25" d="M312.37,239.36a3.51,3.51,0,1,1,3.51,3.51A3.51,3.51,0,0,1,312.37,239.36Zm11.41,4.57a4.93,4.93,0,0,1,0-9.13v-1.61H309.32v12.36h14.46Z"/><path class="cls-25" d="M312.37,259.15a3.51,3.51,0,1,1,3.51,3.51A3.51,3.51,0,0,1,312.37,259.15Zm11.41,4.57a4.93,4.93,0,0,1,0-9.13V253H309.32v12.36h14.46Z"/><path class="cls-25" d="M220.37,259.17a3.51,3.51,0,1,1-3.51-3.51A3.51,3.51,0,0,1,220.37,259.17ZM209,254.6a4.93,4.93,0,0,1,0,9.13v1.61h14.46V253H209Z"/><path class="cls-25" d="M220.37,239.37a3.51,3.51,0,1,1-3.51-3.51A3.51,3.51,0,0,1,220.37,239.37ZM209,234.81a4.93,4.93,0,0,1,0,9.13v1.61h14.46V233.19H209Z"/><path class="cls-25" d="M220.37,219.57a3.51,3.51,0,1,1-3.51-3.51A3.51,3.51,0,0,1,220.37,219.57ZM209,215a4.93,4.93,0,0,1,0,9.13v1.61h14.46V213.39H209Z"/><path class="cls-25" d="M220.37,199.78a3.51,3.51,0,1,1-3.51-3.51A3.51,3.51,0,0,1,220.37,199.78ZM209,195.21a4.93,4.93,0,0,1,0,9.13V206h14.46V193.6H209Z"/><path class="cls-25" d="M220.37,180a3.51,3.51,0,1,1-3.51-3.51A3.51,3.51,0,0,1,220.37,180ZM209,175.41a4.93,4.93,0,0,1,0,9.13v1.61h14.46V173.8H209Z"/><path class="cls-25" d="M220.37,160.18a3.51,3.51,0,1,1-3.51-3.51A3.51,3.51,0,0,1,220.37,160.18ZM209,155.62a4.93,4.93,0,0,1,0,9.13v1.61h14.46V154H209Z"/><path class="cls-25" d="M220.37,140.38a3.51,3.51,0,1,1-3.51-3.51A3.51,3.51,0,0,1,220.37,140.38ZM209,135.82a4.93,4.93,0,0,1,0,9.13v1.61h14.46V134.2H209Z"/><path class="cls-25" d="M220.37,120.59a3.51,3.51,0,1,1-3.51-3.51A3.51,3.51,0,0,1,220.37,120.59ZM209,116a4.93,4.93,0,0,1,0,9.13v1.61h14.46V114.41H209Z"/><path class="cls-25" d="M220.37,100.79a3.51,3.51,0,1,1-3.51-3.51A3.51,3.51,0,0,1,220.37,100.79ZM209,96.22a4.93,4.93,0,0,1,0,9.13V107h14.46V94.61H209Z"/><path class="cls-25" d="M220.37,81a3.51,3.51,0,1,1-3.51-3.51A3.51,3.51,0,0,1,220.37,81ZM209,76.43a4.93,4.93,0,0,1,0,9.13v1.61h14.46V74.81H209Z"/><path class="cls-25" d="M220.37,61.19a3.51,3.51,0,1,1-3.51-3.51A3.51,3.51,0,0,1,220.37,61.19ZM209,56.63a4.93,4.93,0,0,1,0,9.13v1.61h14.46V55H209Z"/><path class="cls-25" d="M220.37,41.4a3.51,3.51,0,1,1-3.51-3.51A3.51,3.51,0,0,1,220.37,41.4ZM209,36.83A4.93,4.93,0,0,1,209,46v1.61h14.46V35.21H209Z"/><path class="cls-25" d="M220.37,21.6a3.51,3.51,0,1,1-3.51-3.51A3.51,3.51,0,0,1,220.37,21.6ZM209,17a4.93,4.93,0,0,1,0,9.13v1.61h14.46V15.42H209Z"/><rect class="cls-26" x="247.97" y="120.17" width="38.82" height="38.8" transform="translate(406.94 -127.81) rotate(90)"/><circle class="cls-27" cx="283.2" cy="123.46" r="1.68"/><path class="cls-28" d="M249.07,99.09v13.25H247a1.47,1.47,0,0,0-1.44-1.07,1.27,1.27,0,0,0-1.31,1.07h-2.12V99.09h2.15a1.36,1.36,0,0,0,1.33,1.1,1.47,1.47,0,0,0,1.39-1.1Z"/><polygon class="cls-29" points="242.13 110.31 242.13 101.11 249.07 101.11 249.07 102.01 249.07 110.31 242.13 110.31"/><line class="cls-30" x1="249.03" y1="101.9" x2="242.13" y2="101.9"/><line class="cls-30" x1="249.03" y1="103.05" x2="242.13" y2="103.05"/><line class="cls-30" x1="249.03" y1="108.38" x2="242.13" y2="108.38"/><line class="cls-30" x1="249.03" y1="109.54" x2="242.13" y2="109.54"/><rect class="cls-28" x="254.7" y="100.29" width="7.64" height="4.54" transform="translate(361.08 -155.97) rotate(90)"/><rect class="cls-28" x="270.79" y="84.97" width="7.41" height="3.49" transform="translate(361.21 -187.79) rotate(90)"/><rect class="cls-28" x="249.18" y="76.28" width="3.52" height="7.4" transform="translate(330.92 -170.95) rotate(90)"/><rect class="cls-28" x="249.02" y="84.63" width="3.49" height="7.34" transform="translate(339.07 -162.47) rotate(90)"/><rect class="cls-28" x="267.97" y="188.59" width="5.97" height="15.36" transform="translate(467.23 -74.69) rotate(90)"/><rect class="cls-28" x="267.4" y="232.41" width="6.13" height="15.44" transform="translate(510.59 -30.34) rotate(90)"/><rect class="cls-28" x="247.97" y="222.56" width="7.64" height="3.55" transform="translate(476.12 -27.46) rotate(90)"/><rect class="cls-31" x="275.26" y="207.41" width="5.44" height="3.98" transform="translate(487.39 -68.58) rotate(90)"/><line class="cls-32" x1="279.9" y1="207.59" x2="276.04" y2="207.59"/><line class="cls-32" x1="279.9" y1="208.34" x2="276.04" y2="208.34"/><line class="cls-32" x1="279.9" y1="210.03" x2="276.04" y2="210.03"/><rect class="cls-31" x="260.32" y="207.41" width="5.44" height="3.98" transform="translate(472.45 -53.64) rotate(90)"/><line class="cls-32" x1="264.96" y1="207.59" x2="261.1" y2="207.59"/><line class="cls-32" x1="264.96" y1="208.34" x2="261.1" y2="208.34"/><line class="cls-32" x1="264.96" y1="210.03" x2="261.1" y2="210.03"/><rect class="cls-31" x="260.32" y="225.45" width="5.44" height="3.98" transform="translate(35.61 490.48) rotate(-90)"/><line class="cls-32" x1="261.13" y1="229.25" x2="264.99" y2="229.25"/><line class="cls-32" x1="261.13" y1="228.5" x2="264.99" y2="228.5"/><line class="cls-32" x1="261.13" y1="226.81" x2="264.99" y2="226.81"/><rect class="cls-31" x="267.87" y="225.45" width="5.44" height="3.98" transform="translate(43.15 498.03) rotate(-90)"/><line class="cls-32" x1="268.68" y1="229.25" x2="272.54" y2="229.25"/><line class="cls-32" x1="268.68" y1="228.5" x2="272.54" y2="228.5"/><line class="cls-32" x1="268.68" y1="226.81" x2="272.54" y2="226.81"/><rect class="cls-31" x="275.25" y="225.45" width="5.44" height="3.98" transform="translate(50.53 505.41) rotate(-90)"/><line class="cls-32" x1="276.06" y1="229.25" x2="279.92" y2="229.25"/><line class="cls-32" x1="276.06" y1="228.5" x2="279.92" y2="228.5"/><line class="cls-32" x1="276.06" y1="226.81" x2="279.92" y2="226.81"/><rect class="cls-33" x="264.42" y="206.76" width="12.24" height="23.18" transform="translate(488.89 -52.19) rotate(90)"/><circle class="cls-27" cx="261.44" cy="214.89" r="1.68"/><rect class="cls-34" x="234.59" y="5.06" width="63.68" height="69.56" transform="translate(306.27 -226.59) rotate(90)"/><path class="cls-35" d="M300.88,65.66H289V59.4a1.23,1.23,0,0,0-1.15-1H275.34s-1.15,0-1.15,1.06a1.24,1.24,0,0,0,1.06,1.19l.07,6.08H257.44v-6s1.15-.14,1.15-1.21-1.18-1.13-1.18-1.13H245a1.25,1.25,0,0,0-.81.33,1.53,1.53,0,0,0-.38.85v6.05h-12.1"/><line class="cls-35" x1="291.31" y1="8" x2="291.31" y2="65.7"/><line class="cls-35" x1="241.44" y1="65.66" x2="241.44" y2="8"/><rect class="cls-35" x="263.65" y="41.9" width="5.47" height="16.36" rx="1.61" ry="1.61" transform="translate(316.47 -216.31) rotate(90)"/><polyline class="cls-35" points="291.92 71.68 290.71 70.11 242.07 70.11 241.04 71.68"/><line class="cls-35" x1="287.82" y1="71.61" x2="287.82" y2="70.11"/><line class="cls-35" x1="285.48" y1="70.2" x2="285.48" y2="71.68"/><path class="cls-35" d="M247.34,71.68a11,11,0,0,1,0-1.47"/><path class="cls-35" d="M273.28,66.52s.11-.43-.53-.86-.63-.16-.63-.16-.49.45-.43.47-10.54,0-10.54,0-.5-.58-.69-.58-1.1,1.35-1.1,1.35"/><circle class="cls-25" cx="246.59" cy="259.14" r="3.51"/><circle class="cls-25" cx="266.39" cy="259.15" r="3.51"/></svg>