<?xml version="1.0" encoding="utf-8"?>
<!-- Generator: Adobe Illustrator 22.0.2, SVG Export Plug-In . SVG Version: 6.00 Build 0)  -->
<svg version="1.1" id="Layer_1" xmlns="http://www.w3.org/2000/svg" xmlns:xlink="http://www.w3.org/1999/xlink" x="0px" y="0px"
	 viewBox="0 0 582 272.3" style="enable-background:new 0 0 582 272.3;" xml:space="preserve">
<style type="text/css">
	.st0{fill:#819D74;}
	.st1{fill:#A681A5;}
	.st2{fill:#54A0BE;}
	.st3{fill:#ABA98F;}
	.st4{fill:#1A5012;}
	.st5{fill:#7F7692;}
	.st6{fill:#231F20;}
	.st7{fill:#A50D12;}
	.st8{fill:#BE6215;}
	.st9{fill:#292658;}
	.st10{fill:#5D5A39;}
	.st11{fill:#70236F;}
	.st12{fill:#006086;}
	.st13{enable-background:new    ;}
	.st14{fill:#FFFFFF;}
	.st15{fill:#333132;stroke:#6D6E71;stroke-width:0.62;stroke-linecap:round;stroke-linejoin:round;}
	.st16{fill:#DCAD27;stroke:#F6D573;stroke-width:0.62;stroke-linecap:round;stroke-linejoin:round;}
	.st17{fill:#414042;stroke:#6D6E71;stroke-width:0.62;stroke-linecap:round;stroke-linejoin:round;}
	.st18{fill:#414042;stroke:#515254;stroke-width:0.62;stroke-linecap:round;stroke-linejoin:round;}
	.st19{fill:#9B8579;stroke:#726658;stroke-width:0.62;stroke-linecap:round;stroke-linejoin:round;}
	.st20{fill:#44B649;stroke:#7EC242;stroke-width:0.62;stroke-linecap:round;stroke-linejoin:round;}
	.st21{fill:none;stroke:#7EC242;stroke-width:0.62;stroke-linecap:round;stroke-linejoin:round;}
	.st22{fill:#BCBEC0;stroke:#939598;stroke-width:0.62;stroke-linecap:round;stroke-linejoin:round;}
	.st23{fill:none;stroke:#939598;stroke-width:0.62;stroke-linecap:round;stroke-linejoin:round;}
	.st24{fill:#414042;stroke:#58595B;stroke-width:0.62;stroke-linecap:round;stroke-linejoin:round;}
	.st25{fill:#A7A9AC;stroke:#D1D3D4;stroke-width:0.62;stroke-linecap:round;stroke-linejoin:round;}
	.st26{fill:none;stroke:#D1D3D4;stroke-width:0.62;stroke-linecap:round;stroke-linejoin:round;}
</style>
<title>treehopper-hardware</title>
<rect x="379" y="71.5" class="st0" width="37.2" height="197"/>
<rect x="335.5" y="130.8" class="st1" width="42.7" height="38.8"/>
<rect x="335" y="71.5" class="st2" width="43.3" height="58.5"/>
<rect x="335.1" y="170.6" class="st3" width="43.1" height="38.5"/>
<rect x="379" y="71.5" class="st4" width="23.1" height="18.9"/>
<rect x="378.9" y="91.2" class="st4" width="23.1" height="18.9"/>
<rect x="379" y="111" class="st4" width="23.1" height="18.9"/>
<rect x="379" y="130.8" class="st4" width="23.1" height="18.9"/>
<rect x="379" y="150.7" class="st4" width="23.1" height="18.9"/>
<rect x="379" y="170.5" class="st4" width="23.1" height="18.9"/>
<rect x="379" y="190.3" class="st4" width="23.1" height="18.9"/>
<rect x="379" y="210.1" class="st4" width="23.1" height="18.9"/>
<rect x="379" y="229.9" class="st4" width="23.1" height="18.9"/>
<rect x="379" y="249.7" class="st4" width="23.1" height="18.9"/>
<rect x="334.8" y="210.1" class="st5" width="43.5" height="58.5"/>
<rect x="334.8" y="12.6" class="st6" width="81.2" height="18.8"/>
<rect x="334.8" y="32.2" class="st7" width="81.2" height="18.9"/>
<rect x="334.8" y="52" class="st8" width="81.2" height="18.9"/>
<rect x="335" y="210.1" class="st9" width="29.6" height="18.9"/>
<rect x="335" y="229.9" class="st9" width="29.6" height="18.9"/>
<rect x="335" y="249.7" class="st9" width="29.6" height="18.9"/>
<rect x="335.1" y="170.5" class="st10" width="29.5" height="18.9"/>
<rect x="335.1" y="190.4" class="st10" width="29.5" height="18.8"/>
<rect x="335.1" y="130.8" class="st11" width="29.5" height="18.9"/>
<rect x="335.1" y="150.7" class="st11" width="29.5" height="18.9"/>
<rect x="335" y="91.3" class="st12" width="29.6" height="18.9"/>
<rect x="335" y="111.1" class="st12" width="29.6" height="18.9"/>
<rect x="335" y="71.5" class="st12" width="29.5" height="18.9"/>
<g class="st13">
	<path class="st14" d="M348.4,223.2l1.1-0.1v-5.3l-1.1,0v-0.6l2.1-0.4v6.3l1.1,0.1v0.6h-3.1V223.2z"/>
</g>
<g class="st13">
	<path class="st14" d="M347.5,243.7V243l2.3-2.6c0.4-0.5,0.7-0.8,0.8-1.1s0.2-0.6,0.2-0.8c0-0.4-0.1-0.7-0.3-0.9
		c-0.2-0.2-0.5-0.4-0.8-0.4c-0.5,0-0.8,0.1-1.1,0.4s-0.3,0.6-0.3,1.1h-0.9l0,0c0-0.6,0.2-1.1,0.6-1.5s1-0.6,1.7-0.6
		c0.6,0,1.1,0.2,1.5,0.6s0.6,0.8,0.6,1.4c0,0.4-0.1,0.8-0.3,1.2s-0.6,0.8-1,1.3l-1.9,2l0,0h2.5l0.1-0.8h0.8v1.6H347.5z"/>
</g>
<g class="st13">
	<path class="st14" d="M348.8,259.5h0.8c0.4,0,0.7-0.1,0.9-0.3c0.2-0.2,0.3-0.5,0.3-0.9c0-0.4-0.1-0.7-0.3-0.9
		c-0.2-0.2-0.5-0.3-0.9-0.3c-0.4,0-0.7,0.1-0.9,0.3c-0.2,0.2-0.3,0.5-0.3,0.9h-0.9l0,0c0-0.5,0.2-1,0.6-1.4c0.4-0.4,0.9-0.6,1.6-0.6
		c0.7,0,1.2,0.2,1.6,0.5c0.4,0.3,0.6,0.8,0.6,1.5c0,0.3-0.1,0.6-0.3,0.9s-0.4,0.5-0.8,0.7c0.4,0.1,0.7,0.4,0.9,0.7
		c0.2,0.3,0.3,0.6,0.3,1c0,0.6-0.2,1.2-0.6,1.5c-0.4,0.4-1,0.6-1.6,0.6c-0.6,0-1.2-0.2-1.6-0.5c-0.4-0.3-0.6-0.8-0.6-1.4l0,0h0.9
		c0,0.4,0.1,0.7,0.3,0.9c0.2,0.2,0.5,0.3,0.9,0.3c0.4,0,0.7-0.1,1-0.3s0.3-0.5,0.3-1c0-0.4-0.1-0.8-0.3-1c-0.2-0.2-0.5-0.3-1-0.3
		h-0.8V259.5z"/>
</g>
<g class="st13">
	<path class="st14" d="M349.4,176v1.6h-0.8l-0.1-0.8h-1.6v5.6l0.8,0.1v0.6h-2.5v-0.6l0.8-0.1v-5.6h-1.6l-0.1,0.8h-0.8V176H349.4z"/>
	<path class="st14" d="M349.8,182.4l0.6-0.1l2-2.8l-2-2.8l-0.6-0.1V176h2.3v0.6l-0.6,0.1l1.4,2.1l1.4-2.1l-0.6-0.1V176h2.3v0.6
		l-0.6,0.1l-2,2.8l2,2.8l0.6,0.1v0.6h-2.3v-0.6l0.6-0.1l-1.5-2.2l-1.5,2.2l0.6,0.1v0.6h-2.3V182.4z"/>
</g>
<g class="st13">
	<path class="st14" d="M346.6,196.5c0.8,0,1.4,0.2,1.8,0.5c0.4,0.3,0.6,0.8,0.6,1.5c0,0.3-0.1,0.6-0.3,0.9c-0.2,0.3-0.5,0.5-0.8,0.6
		c0.4,0.1,0.7,0.3,0.8,0.6s0.3,0.6,0.3,1.1v0.6c0,0.2,0,0.4,0.1,0.5c0.1,0.1,0.1,0.2,0.3,0.2l0.2,0v0.6H349c-0.4,0-0.6-0.1-0.8-0.4
		c-0.2-0.3-0.2-0.6-0.2-0.9v-0.5c0-0.4-0.1-0.7-0.3-0.9s-0.5-0.4-0.9-0.4h-1.5v2.4l0.8,0.1v0.6h-2.5v-0.6l0.8-0.1v-5.6l-0.8-0.1
		v-0.6h0.8H346.6z M345.2,199.6h1.3c0.5,0,0.9-0.1,1.2-0.3c0.2-0.2,0.4-0.5,0.4-0.9c0-0.4-0.1-0.7-0.3-0.9c-0.2-0.2-0.6-0.3-1.1-0.3
		h-1.4V199.6z"/>
	<path class="st14" d="M350,202.9l0.6-0.1l2-2.8l-2-2.8l-0.6-0.1v-0.6h2.3v0.6l-0.6,0.1l1.4,2.1l1.4-2.1l-0.6-0.1v-0.6h2.3v0.6
		l-0.6,0.1l-2,2.8l2,2.8l0.6,0.1v0.6h-2.3v-0.6l0.6-0.1l-1.5-2.2l-1.5,2.2l0.6,0.1v0.6H350V202.9z"/>
</g>
<g class="st13">
	<path class="st14" d="M345.4,139.2h-0.7l-0.2-1c-0.1-0.1-0.3-0.2-0.6-0.3s-0.5-0.1-0.8-0.1c-0.5,0-0.9,0.1-1.2,0.3
		c-0.3,0.2-0.4,0.5-0.4,0.8c0,0.3,0.1,0.6,0.4,0.8s0.7,0.4,1.3,0.5c0.7,0.2,1.3,0.5,1.7,0.8c0.4,0.4,0.6,0.8,0.6,1.3
		c0,0.6-0.2,1-0.7,1.4s-1.1,0.5-1.8,0.5c-0.5,0-1-0.1-1.5-0.3c-0.4-0.2-0.8-0.4-1-0.7V142h0.7l0.2,1c0.2,0.2,0.4,0.3,0.7,0.4
		c0.3,0.1,0.6,0.1,0.9,0.1c0.5,0,0.9-0.1,1.1-0.3s0.4-0.5,0.4-0.8c0-0.3-0.1-0.6-0.4-0.8s-0.7-0.4-1.3-0.6c-0.7-0.2-1.3-0.4-1.8-0.8
		c-0.4-0.3-0.6-0.8-0.6-1.3c0-0.6,0.2-1,0.7-1.4c0.5-0.4,1.1-0.6,1.8-0.6c0.5,0,0.9,0.1,1.4,0.3c0.4,0.2,0.7,0.4,1,0.6V139.2z"/>
</g>
<g class="st13">
	<path class="st14" d="M349.3,137.1c0.9,0,1.7,0.3,2.2,0.9s0.8,1.3,0.8,2.2v1c0,0.9-0.3,1.6-0.8,2.2s-1.3,0.8-2.2,0.8h-3v-0.6
		l0.8-0.1v-5.6l-0.8-0.1v-0.6h0.8H349.3z M348.1,137.8v5.6h1.2c0.7,0,1.2-0.2,1.5-0.6c0.4-0.4,0.6-1,0.6-1.7v-1
		c0-0.7-0.2-1.2-0.6-1.6c-0.4-0.4-0.9-0.6-1.5-0.6H348.1z"/>
</g>
<g class="st13">
	<path class="st14" d="M352.7,143.5l0.5-0.1l2.5-6.4h0.8l2.4,6.4l0.5,0.1v0.6h-2v-0.6l0.5-0.1l-0.5-1.3h-2.8l-0.5,1.3l0.5,0.1v0.6
		h-2V143.5z M355,141.3h2.2l-1.1-3h0L355,141.3z"/>
</g>
<g class="st13">
	<path class="st14" d="M346.2,159.1h-0.7l-0.2-1c-0.1-0.1-0.3-0.2-0.6-0.3s-0.5-0.1-0.8-0.1c-0.5,0-0.9,0.1-1.2,0.3
		c-0.3,0.2-0.4,0.5-0.4,0.8c0,0.3,0.1,0.6,0.4,0.8s0.7,0.4,1.3,0.5c0.7,0.2,1.3,0.5,1.7,0.8c0.4,0.4,0.6,0.8,0.6,1.3
		c0,0.6-0.2,1-0.7,1.4s-1.1,0.5-1.8,0.5c-0.5,0-1-0.1-1.5-0.3c-0.4-0.2-0.8-0.4-1-0.7v-1.3h0.7l0.2,1c0.2,0.2,0.4,0.3,0.7,0.4
		c0.3,0.1,0.6,0.1,0.9,0.1c0.5,0,0.9-0.1,1.1-0.3s0.4-0.5,0.4-0.8c0-0.3-0.1-0.6-0.4-0.8s-0.7-0.4-1.3-0.6c-0.7-0.2-1.3-0.4-1.8-0.8
		c-0.4-0.3-0.6-0.8-0.6-1.3c0-0.6,0.2-1,0.7-1.4c0.5-0.4,1.1-0.6,1.8-0.6c0.5,0,0.9,0.1,1.4,0.3c0.4,0.2,0.7,0.4,1,0.6V159.1z"/>
	<path class="st14" d="M352.6,159.2h-0.7l-0.2-1c-0.2-0.2-0.3-0.3-0.6-0.4c-0.2-0.1-0.5-0.1-0.8-0.1c-0.7,0-1.3,0.3-1.7,0.8
		s-0.6,1.2-0.6,2v0.1c0,0.8,0.2,1.5,0.6,2c0.4,0.5,0.9,0.8,1.6,0.8c0.3,0,0.6-0.1,0.9-0.2s0.5-0.2,0.6-0.4l0.2-1h0.7v1.3
		c-0.2,0.3-0.5,0.5-0.9,0.7c-0.4,0.2-0.9,0.3-1.4,0.3c-0.9,0-1.7-0.3-2.3-1c-0.6-0.7-0.9-1.5-0.9-2.6v-0.1c0-1,0.3-1.9,0.9-2.6
		c0.6-0.7,1.3-1,2.3-1c0.5,0,1,0.1,1.4,0.3c0.4,0.2,0.7,0.4,0.9,0.7V159.2z"/>
	<path class="st14" d="M353.5,164.1v-0.6l0.8-0.1v-5.6l-0.8-0.1V157h0.8h1h0.8v0.6l-0.8,0.1v5.6h2.5l0.1-0.8h0.8v1.6H353.5z"/>
</g>
<g class="st13">
	<path class="st14" d="M344.3,99L344.3,99l-2.3,5.7h-0.6l-2.3-5.7l0,0l0.1,2.9v2.1l0.8,0.1v0.6h-2.5v-0.6l0.8-0.1v-5.6l-0.8-0.1
		v-0.6h0.8h1.2l2.3,5.8h0l2.3-5.8h2v0.6l-0.8,0.1v5.6l0.8,0.1v0.6h-2.5v-0.6l0.8-0.1v-2.1L344.3,99z"/>
	<path class="st14" d="M346.7,98.3v-0.6h2.5v0.6l-0.8,0.1v5.6l0.8,0.1v0.6h-2.5v-0.6l0.8-0.1v-5.6L346.7,98.3z"/>
	<path class="st14" d="M355,99.7h-0.7l-0.2-1c-0.1-0.1-0.3-0.2-0.6-0.3s-0.5-0.1-0.8-0.1c-0.5,0-0.9,0.1-1.2,0.3
		c-0.3,0.2-0.4,0.5-0.4,0.8c0,0.3,0.1,0.6,0.4,0.8s0.7,0.4,1.3,0.5c0.7,0.2,1.3,0.5,1.7,0.8c0.4,0.4,0.6,0.8,0.6,1.3
		c0,0.6-0.2,1-0.7,1.4s-1.1,0.5-1.8,0.5c-0.5,0-1-0.1-1.5-0.3c-0.4-0.2-0.8-0.4-1-0.7v-1.3h0.7l0.2,1c0.2,0.2,0.4,0.3,0.7,0.4
		c0.3,0.1,0.6,0.1,0.9,0.1c0.5,0,0.9-0.1,1.1-0.3s0.4-0.5,0.4-0.8c0-0.3-0.1-0.6-0.4-0.8s-0.7-0.4-1.3-0.6c-0.7-0.2-1.3-0.4-1.8-0.8
		c-0.4-0.3-0.6-0.8-0.6-1.3c0-0.6,0.2-1,0.7-1.4c0.5-0.4,1.1-0.6,1.8-0.6c0.5,0,0.9,0.1,1.4,0.3c0.4,0.2,0.7,0.4,1,0.6V99.7z"/>
	<path class="st14" d="M362.3,101.2c0,1-0.3,1.9-0.9,2.6c-0.6,0.7-1.4,1-2.3,1c-0.9,0-1.7-0.3-2.2-1c-0.6-0.7-0.9-1.5-0.9-2.6v-0.1
		c0-1,0.3-1.9,0.9-2.6c0.6-0.7,1.3-1,2.2-1c0.9,0,1.7,0.3,2.3,1c0.6,0.7,0.9,1.5,0.9,2.6V101.2z M361.3,101.1c0-0.8-0.2-1.5-0.6-2
		c-0.4-0.5-0.9-0.8-1.6-0.8c-0.7,0-1.2,0.3-1.6,0.8c-0.4,0.5-0.6,1.2-0.6,2v0.1c0,0.8,0.2,1.5,0.6,2c0.4,0.5,0.9,0.8,1.6,0.8
		c0.7,0,1.3-0.3,1.6-0.8c0.4-0.5,0.6-1.2,0.6-2V101.1z"/>
</g>
<g class="st13">
	<path class="st14" d="M344.3,118.8L344.3,118.8l-2.3,5.7h-0.6l-2.3-5.7l0,0l0.1,2.9v2.1l0.8,0.1v0.6h-2.5v-0.6l0.8-0.1v-5.6
		l-0.8-0.1v-0.6h0.8h1.2l2.3,5.8h0l2.3-5.8h2v0.6l-0.8,0.1v5.6l0.8,0.1v0.6h-2.5v-0.6l0.8-0.1v-2.1L344.3,118.8z"/>
	<path class="st14" d="M352.9,121c0,1-0.3,1.9-0.9,2.6c-0.6,0.7-1.4,1-2.3,1c-0.9,0-1.7-0.3-2.2-1c-0.6-0.7-0.9-1.5-0.9-2.6v-0.1
		c0-1,0.3-1.9,0.9-2.6c0.6-0.7,1.3-1,2.2-1c0.9,0,1.7,0.3,2.3,1c0.6,0.7,0.9,1.5,0.9,2.6V121z M352,120.9c0-0.8-0.2-1.5-0.6-2
		c-0.4-0.5-0.9-0.8-1.6-0.8c-0.7,0-1.2,0.3-1.6,0.8c-0.4,0.5-0.6,1.2-0.6,2v0.1c0,0.8,0.2,1.5,0.6,2c0.4,0.5,0.9,0.8,1.6,0.8
		c0.7,0,1.3-0.3,1.6-0.8s0.6-1.2,0.6-2V120.9z"/>
	<path class="st14" d="M358.8,119.5H358l-0.2-1c-0.1-0.1-0.3-0.2-0.6-0.3c-0.2-0.1-0.5-0.1-0.8-0.1c-0.5,0-0.9,0.1-1.2,0.3
		c-0.3,0.2-0.4,0.5-0.4,0.8c0,0.3,0.1,0.6,0.4,0.8s0.7,0.4,1.3,0.5c0.7,0.2,1.3,0.5,1.7,0.8c0.4,0.4,0.6,0.8,0.6,1.3
		c0,0.6-0.2,1-0.7,1.4s-1.1,0.5-1.8,0.5c-0.5,0-1-0.1-1.5-0.3c-0.4-0.2-0.8-0.4-1-0.7v-1.3h0.7l0.2,1c0.2,0.2,0.4,0.3,0.7,0.4
		c0.3,0.1,0.6,0.1,0.9,0.1c0.5,0,0.9-0.1,1.1-0.3s0.4-0.5,0.4-0.8c0-0.3-0.1-0.6-0.4-0.8c-0.2-0.2-0.7-0.4-1.3-0.6
		c-0.7-0.2-1.3-0.4-1.8-0.8s-0.6-0.8-0.6-1.3c0-0.6,0.2-1,0.7-1.4c0.5-0.4,1.1-0.6,1.8-0.6c0.5,0,0.9,0.1,1.4,0.3s0.7,0.4,1,0.6
		V119.5z"/>
	<path class="st14" d="M359.7,118.1v-0.6h2.5v0.6l-0.8,0.1v5.6l0.8,0.1v0.6h-2.5v-0.6l0.8-0.1v-5.6L359.7,118.1z"/>
</g>
<g class="st13">
	<path class="st14" d="M345.5,80.5h-0.7l-0.2-1c-0.1-0.1-0.3-0.2-0.6-0.3s-0.5-0.1-0.8-0.1c-0.5,0-0.9,0.1-1.2,0.3
		c-0.3,0.2-0.4,0.5-0.4,0.8c0,0.3,0.1,0.6,0.4,0.8c0.3,0.2,0.7,0.4,1.3,0.5c0.7,0.2,1.3,0.5,1.7,0.8c0.4,0.4,0.6,0.8,0.6,1.3
		c0,0.6-0.2,1-0.7,1.4c-0.5,0.3-1.1,0.5-1.8,0.5c-0.5,0-1-0.1-1.5-0.3c-0.4-0.2-0.8-0.4-1-0.7v-1.3h0.7l0.2,1
		c0.2,0.2,0.4,0.3,0.7,0.4c0.3,0.1,0.6,0.1,0.9,0.1c0.5,0,0.9-0.1,1.1-0.3c0.3-0.2,0.4-0.5,0.4-0.8c0-0.3-0.1-0.6-0.4-0.8
		s-0.7-0.4-1.3-0.6c-0.7-0.2-1.3-0.4-1.8-0.8c-0.4-0.3-0.6-0.8-0.6-1.3c0-0.6,0.2-1,0.7-1.4c0.5-0.4,1.1-0.6,1.8-0.6
		c0.5,0,0.9,0.1,1.4,0.3c0.4,0.2,0.7,0.4,1,0.6V80.5z"/>
	<path class="st14" d="M351.9,80.6h-0.7l-0.2-1c-0.2-0.2-0.3-0.3-0.6-0.4c-0.2-0.1-0.5-0.1-0.8-0.1c-0.7,0-1.3,0.3-1.7,0.8
		s-0.6,1.2-0.6,2V82c0,0.8,0.2,1.5,0.6,2c0.4,0.5,0.9,0.8,1.6,0.8c0.3,0,0.6-0.1,0.9-0.2s0.5-0.2,0.6-0.4l0.2-1h0.7v1.3
		c-0.2,0.3-0.5,0.5-0.9,0.7c-0.4,0.2-0.9,0.3-1.4,0.3c-0.9,0-1.7-0.3-2.3-1s-0.9-1.5-0.9-2.6v-0.1c0-1,0.3-1.9,0.9-2.6
		c0.6-0.7,1.3-1,2.3-1c0.5,0,1,0.1,1.4,0.3s0.7,0.4,0.9,0.7V80.6z"/>
	<path class="st14" d="M352.8,84.9l0.8-0.1v-5.6l-0.8-0.1v-0.6h2.5V79l-0.8,0.1v2.4h0.7l2-2.4l-0.5-0.1v-0.6h2.2V79l-0.7,0.1
		l-2.2,2.7l2.4,2.9l0.7,0.1v0.6h-2.3v-0.6l0.5-0.1l-2-2.5h-0.8v2.4l0.8,0.1v0.6h-2.5V84.9z"/>
</g>
<g class="st13">
	<path class="st14" d="M368.3,155.7h-0.5v-1.9h0.5l0.1,0.6h4.2l0.1-0.6h0.5v1.9h-0.5l-0.1-0.6h-4.2L368.3,155.7z"/>
	<path class="st14" d="M373.2,153.2h-0.5l-1.9-1.7c-0.3-0.3-0.6-0.5-0.8-0.6c-0.2-0.1-0.4-0.2-0.6-0.2c-0.3,0-0.5,0.1-0.7,0.2
		c-0.2,0.2-0.3,0.4-0.3,0.6c0,0.4,0.1,0.6,0.3,0.8s0.5,0.3,0.8,0.3v0.7l0,0c-0.5,0-0.8-0.1-1.2-0.5c-0.3-0.3-0.5-0.8-0.5-1.3
		c0-0.5,0.1-0.9,0.4-1.1s0.6-0.4,1.1-0.4c0.3,0,0.6,0.1,0.9,0.3c0.3,0.2,0.6,0.4,0.9,0.7l1.5,1.4l0,0v-1.9l-0.6-0.1v-0.6h1.2V153.2z
		"/>
	<path class="st14" d="M369.5,145v0.5l-0.8,0.1c-0.1,0.1-0.2,0.3-0.3,0.4c-0.1,0.2-0.1,0.4-0.1,0.6c0,0.6,0.2,1,0.6,1.3
		c0.4,0.3,0.9,0.4,1.5,0.4h0.1c0.6,0,1.1-0.1,1.5-0.4s0.6-0.7,0.6-1.2c0-0.2,0-0.5-0.1-0.7c-0.1-0.2-0.2-0.3-0.3-0.5l-0.8-0.1V145
		h0.9c0.2,0.2,0.4,0.4,0.5,0.7c0.2,0.3,0.2,0.7,0.2,1.1c0,0.7-0.3,1.3-0.8,1.7c-0.5,0.4-1.2,0.7-1.9,0.7h-0.1
		c-0.8,0-1.4-0.2-1.9-0.7c-0.5-0.4-0.8-1-0.8-1.7c0-0.4,0.1-0.8,0.2-1.1c0.2-0.3,0.3-0.5,0.5-0.7H369.5z"/>
</g>
<g class="st13">
	<path class="st14" d="M370,102.6v0.5l-0.8,0.1c-0.1,0.1-0.2,0.3-0.2,0.4c-0.1,0.2-0.1,0.4-0.1,0.6c0,0.4,0.1,0.7,0.2,0.9
		c0.2,0.2,0.4,0.3,0.6,0.3c0.2,0,0.4-0.1,0.6-0.3s0.3-0.5,0.4-1c0.1-0.6,0.3-1,0.6-1.3c0.3-0.3,0.6-0.4,1-0.4c0.4,0,0.8,0.2,1,0.5
		c0.3,0.3,0.4,0.8,0.4,1.4c0,0.4-0.1,0.8-0.2,1.1s-0.3,0.6-0.5,0.8h-1v-0.5l0.8-0.1c0.1-0.1,0.2-0.3,0.3-0.5
		c0.1-0.2,0.1-0.4,0.1-0.7c0-0.4-0.1-0.6-0.2-0.9s-0.4-0.3-0.6-0.3c-0.2,0-0.4,0.1-0.6,0.3c-0.2,0.2-0.3,0.5-0.4,1
		c-0.1,0.6-0.3,1-0.6,1.3c-0.3,0.3-0.6,0.5-1,0.5c-0.4,0-0.8-0.2-1-0.5c-0.3-0.4-0.4-0.8-0.4-1.4c0-0.4,0.1-0.7,0.2-1
		c0.1-0.3,0.3-0.5,0.5-0.7H370z"/>
	<path class="st14" d="M368.4,99.5c0-0.6,0.1-1,0.4-1.3s0.7-0.5,1.2-0.5c0.5,0,0.9,0.2,1.2,0.5c0.3,0.3,0.4,0.8,0.4,1.3v1.1h1.6
		l0.1-0.6h0.5v1.9h-0.5l-0.1-0.6H369l-0.1,0.6h-0.5v-0.6V99.5z M371,100.6v-1.1c0-0.4-0.1-0.6-0.3-0.8s-0.4-0.3-0.7-0.3
		s-0.5,0.1-0.7,0.3c-0.2,0.2-0.3,0.4-0.3,0.8v1.1H371z"/>
	<path class="st14" d="M368.9,97.2h-0.5v-1.9h0.5l0.1,0.6h4.2l0.1-0.6h0.5v1.9h-0.5l-0.1-0.6H369L368.9,97.2z"/>
</g>
<g class="st13">
	<path class="st14" d="M367.8,197.9h0.5l0.1,0.6h3c0.4,0,0.7-0.1,0.9-0.3c0.2-0.2,0.3-0.5,0.3-0.9c0-0.4-0.1-0.7-0.3-1
		c-0.2-0.2-0.5-0.4-0.9-0.4h-3l-0.1,0.6h-0.5v-1.3v-0.6h0.5l0.1,0.6h3c0.6,0,1,0.2,1.3,0.6c0.3,0.4,0.5,0.9,0.5,1.5
		c0,0.6-0.2,1.1-0.5,1.4c-0.3,0.4-0.8,0.5-1.3,0.5h-3l-0.1,0.6h-0.5v-0.6V197.9z"/>
</g>
<g class="st13">
	<path class="st14" d="M372.7,194.4l-0.1-0.4l-4.8-1.9v-0.6l4.8-1.8l0.1-0.4h0.5v1.5h-0.5l-0.1-0.4l-1,0.3v2.1l1,0.4l0.1-0.4h0.5
		v1.5H372.7z M371,192.7v-1.7l-2.3,0.8v0L371,192.7z"/>
</g>
<g class="st13">
	<path class="st14" d="M367.8,186.6c0-0.6,0.1-1,0.4-1.3c0.3-0.3,0.6-0.5,1.1-0.5c0.3,0,0.5,0.1,0.7,0.2c0.2,0.1,0.4,0.3,0.5,0.6
		c0.1-0.3,0.3-0.5,0.5-0.6c0.2-0.1,0.5-0.2,0.8-0.2h0.4c0.2,0,0.3,0,0.4-0.1s0.1-0.1,0.1-0.2l0-0.2h0.5v0.4c0,0.3-0.1,0.5-0.3,0.6
		c-0.2,0.1-0.4,0.2-0.7,0.2h-0.4c-0.3,0-0.5,0.1-0.7,0.3s-0.3,0.4-0.3,0.7v1.2h1.8l0.1-0.6h0.5v1.9h-0.5l-0.1-0.6h-4.2l-0.1,0.6
		h-0.5v-0.6V186.6z M370.2,187.6v-0.9c0-0.4-0.1-0.7-0.2-0.9c-0.2-0.2-0.4-0.3-0.7-0.3c-0.3,0-0.5,0.1-0.7,0.3s-0.2,0.4-0.2,0.8v1
		H370.2z"/>
</g>
<g class="st13">
	<path class="st14" d="M367.8,179.9h1.2v0.6l-0.6,0.1v1.2h4.2l0.1-0.6h0.5v1.9h-0.5l-0.1-0.6h-4.2v1.2l0.6,0.1v0.6h-1.2V179.9z"/>
</g>
<g class="st13">
	<path class="st14" d="M368.5,245.6c0-0.6,0.1-1,0.4-1.3s0.7-0.5,1.2-0.5c0.5,0,0.9,0.2,1.2,0.5c0.3,0.3,0.4,0.8,0.4,1.3v1.1h1.6
		l0.1-0.6h0.5v1.9h-0.5l-0.1-0.6H369l-0.1,0.6h-0.5v-0.6V245.6z M371.1,246.8v-1.1c0-0.4-0.1-0.6-0.3-0.8s-0.4-0.3-0.7-0.3
		s-0.5,0.1-0.7,0.3c-0.2,0.2-0.3,0.4-0.3,0.8v1.1H371.1z"/>
	<path class="st14" d="M368.9,241.8l0.1,0.5l2.9-0.7l0.7-0.1l0,0l-0.7-0.1l-3.5-1v-0.6l3.5-1l0.7-0.1v0l-0.7-0.1l-2.9-0.7l-0.1,0.5
		h-0.5v-1.7h0.5l0.1,0.4l4.8,1.2v0.6l-3.7,1.1l-0.5,0.1v0l0.5,0.1l3.7,1.1v0.6l-4.8,1.2l-0.1,0.4h-0.5v-1.7H368.9z"/>
	<path class="st14" d="M369.5,231.2L369.5,231.2l4.3,1.7v0.5l-4.3,1.7l0,0l2.1-0.1h1.5l0.1-0.6h0.5v1.9h-0.5l-0.1-0.6H369l-0.1,0.6
		h-0.5v-0.6v-0.9l4.3-1.7v0l-4.3-1.7v-1.5h0.5l0.1,0.6h4.2l0.1-0.6h0.5v1.9h-0.5l-0.1-0.6h-1.5L369.5,231.2z"/>
</g>
<g class="st13">
	<path class="st14" d="M406.3,232.4c0-0.7,0.2-1.3,0.6-1.7s1-0.6,1.7-0.6h0.7c0.7,0,1.2,0.2,1.7,0.6c0.4,0.4,0.6,1,0.6,1.7v2.2h-0.5
		l-0.1-0.6h-4.2l-0.1,0.6h-0.5v-0.6V232.4z M406.8,233.3h4.2v-0.9c0-0.5-0.2-0.9-0.5-1.2s-0.7-0.4-1.2-0.4h-0.7
		c-0.5,0-0.9,0.1-1.2,0.4c-0.3,0.3-0.5,0.7-0.5,1.2V233.3z"/>
	<path class="st14" d="M406.6,228.1v0.7h-0.7v-0.7H406.6z M411.1,229.4l-0.1-0.6h-2.8l-0.1,0.6h-0.5v-1.3h3.4l0.1-0.6h0.5v1.9H411.1
		z"/>
	<path class="st14" d="M409.7,227c-0.6,0-1.1-0.1-1.5-0.4c-0.4-0.3-0.6-0.7-0.6-1.1c0-0.2,0-0.5,0.1-0.7c0.1-0.2,0.2-0.3,0.4-0.5
		l-0.5-0.1v-0.6h3.9c0.5,0,0.9,0.1,1.2,0.4c0.3,0.3,0.4,0.7,0.4,1.2c0,0.2,0,0.4-0.1,0.6c-0.1,0.2-0.1,0.4-0.2,0.6l-0.6-0.2
		c0.1-0.1,0.1-0.3,0.2-0.5c0-0.2,0.1-0.4,0.1-0.5c0-0.3-0.1-0.6-0.3-0.7c-0.2-0.1-0.4-0.2-0.8-0.2h-0.4c0.2,0.1,0.3,0.3,0.4,0.5
		c0.1,0.2,0.1,0.4,0.1,0.6c0,0.5-0.2,0.9-0.5,1.1C410.8,226.8,410.3,227,409.7,227L409.7,227z M409.8,226.2c0.4,0,0.7-0.1,1-0.3
		c0.2-0.2,0.4-0.4,0.4-0.8c0-0.2,0-0.4-0.1-0.5c-0.1-0.1-0.2-0.3-0.4-0.4h-1.8c-0.2,0.1-0.3,0.2-0.4,0.4s-0.1,0.3-0.1,0.5
		c0,0.3,0.1,0.6,0.4,0.8C408.9,226.2,409.2,226.2,409.8,226.2L409.8,226.2z"/>
	<path class="st14" d="M406.6,221.4v0.7h-0.7v-0.7H406.6z M411.1,222.7l-0.1-0.6h-2.8l-0.1,0.6h-0.5v-1.3h3.4l0.1-0.6h0.5v1.9H411.1
		z"/>
	<path class="st14" d="M406.7,219h1v-0.7h0.5v0.7h2.4c0.2,0,0.3,0,0.4-0.1c0.1-0.1,0.1-0.2,0.1-0.3c0-0.1,0-0.1,0-0.2
		c0-0.1,0-0.1,0-0.2l0.5-0.1c0,0.1,0.1,0.2,0.1,0.3c0,0.1,0,0.3,0,0.4c0,0.3-0.1,0.5-0.3,0.7c-0.2,0.2-0.5,0.3-0.8,0.3h-2.4v0.6
		h-0.5v-0.6h-1V219z"/>
	<path class="st14" d="M411.6,215c-0.1,0-0.2,0-0.3,0.1c-0.1,0-0.2,0-0.3,0c0.2,0.1,0.3,0.3,0.4,0.5c0.1,0.2,0.2,0.4,0.2,0.7
		c0,0.4-0.1,0.7-0.3,0.9c-0.2,0.2-0.5,0.3-0.8,0.3c-0.4,0-0.7-0.2-0.9-0.5s-0.3-0.7-0.3-1.2v-0.7h-0.5c-0.2,0-0.4,0.1-0.5,0.2
		c-0.1,0.1-0.2,0.3-0.2,0.6c0,0.2,0,0.3,0.1,0.5c0,0.1,0.1,0.2,0.2,0.3l0.4,0.1v0.6H408c-0.1-0.2-0.3-0.4-0.3-0.7
		c-0.1-0.3-0.1-0.5-0.1-0.8c0-0.4,0.1-0.8,0.3-1.1c0.2-0.3,0.6-0.4,1-0.4h1.9c0.1,0,0.1,0,0.1,0c0,0,0.1,0,0.1,0l0-0.3h0.5V215z
		 M411.1,216.1c0-0.2-0.1-0.5-0.2-0.7c-0.1-0.2-0.3-0.3-0.4-0.4h-0.6v0.8c0,0.3,0.1,0.5,0.2,0.7c0.1,0.2,0.3,0.3,0.5,0.3
		c0.2,0,0.3-0.1,0.4-0.2S411.1,216.3,411.1,216.1z"/>
	<path class="st14" d="M406.4,213.5h-0.5v-1.3h5.1l0.1-0.6h0.5v1.9h-0.5l-0.1-0.6h-4.6L406.4,213.5z"/>
	<path class="st14" d="M406.7,209.3h-0.5v-1.9h0.5l0.1,0.6h4.2l0.1-0.6h0.5v1.9h-0.5l-0.1-0.6h-4.2L406.7,209.3z"/>
	<path class="st14" d="M412,206.5v0.6l-5.8-2.2v-0.6L412,206.5z"/>
</g>
<g class="st13">
	<path class="st14" d="M409,199.2c0.8,0,1.4,0.2,1.9,0.7c0.5,0.4,0.8,1,0.8,1.7c0,0.7-0.3,1.2-0.8,1.7c-0.5,0.4-1.2,0.6-1.9,0.6
		h-0.1c-0.8,0-1.4-0.2-1.9-0.6c-0.5-0.4-0.8-1-0.8-1.7c0-0.7,0.3-1.3,0.8-1.7C407.5,199.4,408.1,199.2,409,199.2L409,199.2z
		 M408.9,199.9c-0.6,0-1.1,0.1-1.5,0.4s-0.6,0.7-0.6,1.2c0,0.5,0.2,0.9,0.6,1.2c0.4,0.3,0.9,0.4,1.5,0.4h0.1c0.6,0,1.1-0.1,1.5-0.4
		c0.4-0.3,0.6-0.7,0.6-1.2c0-0.5-0.2-0.9-0.6-1.2C410.1,200,409.6,199.9,408.9,199.9L408.9,199.9z"/>
</g>
<g class="st13">
	<path class="st14" d="M411.3,198.1c0.2,0,0.5,0.1,0.7,0.2c0.3,0.1,0.5,0.3,0.6,0.5l-0.3,0.4c-0.2-0.1-0.4-0.2-0.5-0.3
		c-0.2-0.1-0.4-0.1-0.6-0.1h-0.6v-0.7H411.3z"/>
	<path class="st14" d="M411.1,193.9l-0.1-0.4l-4.8-1.9V191l4.8-1.8l0.1-0.4h0.5v1.5h-0.5l-0.1-0.4l-1,0.4v2.1l1,0.4l0.1-0.4h0.5v1.5
		H411.1z M409.5,192.2v-1.7l-2.3,0.8v0L409.5,192.2z"/>
	<path class="st14" d="M411.1,188.4l-0.1-0.6h-2.8l-0.1,0.6h-0.5v-1.2l0.6-0.1c-0.2-0.1-0.4-0.3-0.5-0.5c-0.1-0.2-0.2-0.4-0.2-0.7
		c0-0.4,0.1-0.8,0.4-1s0.6-0.4,1.2-0.4h1.9l0.1-0.6h0.5v1.9h-0.5l-0.1-0.6h-1.9c-0.3,0-0.6,0.1-0.7,0.2c-0.1,0.1-0.2,0.3-0.2,0.6
		c0,0.2,0,0.4,0.1,0.5c0.1,0.2,0.2,0.3,0.4,0.4h2.3l0.1-0.6h0.5v1.9H411.1z"/>
	<path class="st14" d="M411.6,180.9c-0.1,0-0.2,0-0.3,0.1c-0.1,0-0.2,0-0.3,0c0.2,0.1,0.3,0.3,0.4,0.5c0.1,0.2,0.2,0.4,0.2,0.7
		c0,0.4-0.1,0.7-0.3,0.9c-0.2,0.2-0.5,0.3-0.8,0.3c-0.4,0-0.7-0.2-0.9-0.5s-0.3-0.7-0.3-1.2V181h-0.5c-0.2,0-0.4,0.1-0.5,0.2
		c-0.1,0.1-0.2,0.3-0.2,0.6c0,0.2,0,0.3,0.1,0.5c0,0.1,0.1,0.2,0.2,0.3l0.4,0.1v0.6H408c-0.1-0.2-0.3-0.4-0.3-0.7
		c-0.1-0.3-0.1-0.5-0.1-0.8c0-0.4,0.1-0.8,0.3-1.1s0.6-0.4,1-0.4h1.9c0.1,0,0.1,0,0.1,0c0,0,0.1,0,0.1,0l0-0.3h0.5V180.9z
		 M411.1,182c0-0.2-0.1-0.5-0.2-0.7s-0.3-0.3-0.4-0.4h-0.6v0.8c0,0.3,0.1,0.5,0.2,0.7c0.1,0.2,0.3,0.3,0.5,0.3
		c0.2,0,0.3-0.1,0.4-0.2S411.1,182.3,411.1,182z"/>
</g>
<g class="st13">
	<path class="st14" d="M406.4,179.5h-0.5v-1.3h5.1l0.1-0.6h0.5v1.9h-0.5l-0.1-0.6h-4.6L406.4,179.5z"/>
</g>
<g class="st13">
	<path class="st14" d="M409.6,177.1c-0.6,0-1.1-0.2-1.4-0.5s-0.6-0.7-0.6-1.3c0-0.5,0.2-1,0.6-1.3c0.4-0.3,0.9-0.5,1.4-0.5h0.1
		c0.6,0,1.1,0.2,1.4,0.5c0.4,0.3,0.6,0.7,0.6,1.3c0,0.5-0.2,1-0.6,1.3C410.7,176.9,410.2,177.1,409.6,177.1L409.6,177.1z
		 M409.7,176.4c0.4,0,0.8-0.1,1-0.3c0.3-0.2,0.4-0.4,0.4-0.8c0-0.3-0.1-0.6-0.4-0.8c-0.3-0.2-0.6-0.3-1-0.3h-0.1
		c-0.4,0-0.8,0.1-1,0.3c-0.3,0.2-0.4,0.4-0.4,0.8s0.1,0.6,0.4,0.8S409.2,176.4,409.7,176.4L409.7,176.4z"/>
	<path class="st14" d="M409.7,172.9c-0.6,0-1.1-0.1-1.5-0.4c-0.4-0.3-0.6-0.7-0.6-1.1c0-0.2,0-0.5,0.1-0.7c0.1-0.2,0.2-0.3,0.4-0.5
		l-0.5-0.1v-0.6h3.9c0.5,0,0.9,0.1,1.2,0.4c0.3,0.3,0.4,0.7,0.4,1.2c0,0.2,0,0.4-0.1,0.6c-0.1,0.2-0.1,0.4-0.2,0.6l-0.6-0.2
		c0.1-0.1,0.1-0.3,0.2-0.5c0-0.2,0.1-0.4,0.1-0.5c0-0.3-0.1-0.6-0.3-0.7c-0.2-0.1-0.4-0.2-0.8-0.2h-0.4c0.2,0.1,0.3,0.3,0.4,0.5
		c0.1,0.2,0.1,0.4,0.1,0.6c0,0.5-0.2,0.9-0.5,1.1C410.8,172.7,410.3,172.9,409.7,172.9L409.7,172.9z M409.8,172.2
		c0.4,0,0.7-0.1,1-0.3c0.2-0.2,0.4-0.4,0.4-0.8c0-0.2,0-0.4-0.1-0.5c-0.1-0.1-0.2-0.3-0.4-0.4h-1.8c-0.2,0.1-0.3,0.2-0.4,0.4
		s-0.1,0.3-0.1,0.5c0,0.3,0.1,0.6,0.4,0.8C408.9,172.1,409.2,172.2,409.8,172.2L409.8,172.2z"/>
	<path class="st14" d="M406.7,166.9h-0.5V165h0.5l0.1,0.6h4.2l0.1-0.6h0.5v1.9h-0.5l-0.1-0.6h-4.2L406.7,166.9z"/>
	<path class="st14" d="M411.1,164.5l-0.1-0.6h-2.8l-0.1,0.6h-0.5v-1.2l0.6-0.1c-0.2-0.1-0.4-0.3-0.5-0.5c-0.1-0.2-0.2-0.4-0.2-0.7
		c0-0.4,0.1-0.8,0.4-1c0.2-0.2,0.6-0.3,1.2-0.3h1.9l0.1-0.6h0.5v1.9h-0.5l-0.1-0.6h-1.9c-0.3,0-0.6,0.1-0.7,0.2
		c-0.1,0.1-0.2,0.3-0.2,0.6c0,0.2,0,0.4,0.1,0.5s0.2,0.3,0.4,0.4h2.3l0.1-0.6h0.5v1.9H411.1z"/>
	<path class="st14" d="M411.3,158.8c0.2,0,0.5,0.1,0.7,0.2c0.3,0.1,0.5,0.3,0.6,0.5l-0.3,0.4c-0.2-0.1-0.4-0.2-0.5-0.3
		s-0.4-0.1-0.6-0.1h-0.6v-0.7H411.3z"/>
	<path class="st14" d="M411.6,153.7c-0.1,0-0.2,0-0.3,0.1s-0.2,0-0.3,0c0.2,0.1,0.3,0.3,0.4,0.5c0.1,0.2,0.2,0.4,0.2,0.7
		c0,0.4-0.1,0.7-0.3,0.9c-0.2,0.2-0.5,0.3-0.8,0.3c-0.4,0-0.7-0.2-0.9-0.5s-0.3-0.7-0.3-1.2v-0.7h-0.5c-0.2,0-0.4,0.1-0.5,0.2
		s-0.2,0.3-0.2,0.6c0,0.2,0,0.3,0.1,0.5s0.1,0.2,0.2,0.3l0.4,0.1v0.6H408c-0.1-0.2-0.3-0.4-0.3-0.7c-0.1-0.3-0.1-0.5-0.1-0.8
		c0-0.4,0.1-0.8,0.3-1.1s0.6-0.4,1-0.4h1.9c0.1,0,0.1,0,0.1,0c0,0,0.1,0,0.1,0l0-0.3h0.5V153.7z M411.1,154.8c0-0.2-0.1-0.5-0.2-0.7
		c-0.1-0.2-0.3-0.3-0.4-0.4h-0.6v0.8c0,0.3,0.1,0.5,0.2,0.7c0.1,0.2,0.3,0.3,0.5,0.3c0.2,0,0.3-0.1,0.4-0.2
		C411,155.2,411.1,155,411.1,154.8z"/>
</g>
<g class="st13">
	<path class="st14" d="M411.1,152.3l-0.1-0.6h-2.8l-0.1,0.6h-0.5V151l0.6-0.1c-0.2-0.1-0.4-0.3-0.5-0.5c-0.1-0.2-0.2-0.4-0.2-0.7
		c0-0.4,0.1-0.8,0.4-1c0.2-0.2,0.6-0.4,1.2-0.4h1.9l0.1-0.6h0.5v1.9h-0.5l-0.1-0.6h-1.9c-0.3,0-0.6,0.1-0.7,0.2
		c-0.1,0.1-0.2,0.3-0.2,0.6c0,0.2,0,0.4,0.1,0.5s0.2,0.3,0.4,0.4h2.3l0.1-0.6h0.5v1.9H411.1z"/>
</g>
<g class="st13">
	<path class="st14" d="M411.1,144.7c0.2,0.1,0.3,0.3,0.4,0.5c0.1,0.2,0.1,0.4,0.1,0.6c0,0.5-0.2,0.9-0.5,1.1
		c-0.3,0.3-0.8,0.4-1.4,0.4h-0.1c-0.6,0-1.1-0.1-1.5-0.4c-0.4-0.3-0.6-0.6-0.6-1.1c0-0.2,0-0.4,0.1-0.6c0.1-0.2,0.2-0.3,0.4-0.5
		h-1.6l-0.1,0.6h-0.5v-0.6V144h5.1l0.1-0.6h0.5v1.2L411.1,144.7z M409.8,146.7c0.4,0,0.7-0.1,1-0.2c0.2-0.2,0.4-0.4,0.4-0.8
		c0-0.2,0-0.4-0.1-0.5c-0.1-0.1-0.2-0.3-0.4-0.4h-1.8c-0.2,0.1-0.3,0.2-0.4,0.4s-0.1,0.3-0.1,0.5c0,0.3,0.1,0.6,0.4,0.8
		C408.9,146.6,409.2,146.7,409.8,146.7L409.8,146.7z"/>
	<path class="st14" d="M407.8,137.3v0.5l-0.8,0.1c-0.1,0.1-0.2,0.3-0.2,0.4c-0.1,0.2-0.1,0.4-0.1,0.6c0,0.4,0.1,0.7,0.2,0.9
		c0.2,0.2,0.4,0.3,0.6,0.3c0.2,0,0.4-0.1,0.6-0.3s0.3-0.5,0.4-1c0.1-0.6,0.3-1,0.6-1.3c0.3-0.3,0.6-0.4,1-0.4c0.4,0,0.8,0.2,1,0.5
		c0.3,0.3,0.4,0.8,0.4,1.4c0,0.4-0.1,0.8-0.2,1.1s-0.3,0.6-0.5,0.8h-1v-0.5l0.8-0.1c0.1-0.1,0.2-0.3,0.3-0.5s0.1-0.4,0.1-0.7
		c0-0.4-0.1-0.6-0.2-0.9c-0.2-0.2-0.4-0.3-0.6-0.3c-0.2,0-0.4,0.1-0.6,0.3c-0.2,0.2-0.3,0.5-0.4,1c-0.1,0.6-0.3,1-0.6,1.3
		c-0.3,0.3-0.6,0.5-1,0.5c-0.4,0-0.8-0.2-1-0.5c-0.3-0.4-0.4-0.8-0.4-1.4c0-0.4,0.1-0.7,0.2-1c0.1-0.3,0.3-0.5,0.5-0.7H407.8z"/>
	<path class="st14" d="M409.6,136.5c-0.6,0-1.1-0.2-1.4-0.5c-0.4-0.3-0.6-0.7-0.6-1.3c0-0.5,0.2-1,0.6-1.3c0.4-0.3,0.9-0.5,1.4-0.5
		h0.1c0.6,0,1.1,0.2,1.4,0.5c0.4,0.3,0.6,0.7,0.6,1.3c0,0.5-0.2,1-0.6,1.3C410.7,136.3,410.2,136.5,409.6,136.5L409.6,136.5z
		 M409.7,135.8c0.4,0,0.8-0.1,1-0.3s0.4-0.4,0.4-0.8c0-0.3-0.1-0.6-0.4-0.8c-0.3-0.2-0.6-0.3-1-0.3h-0.1c-0.4,0-0.8,0.1-1,0.3
		c-0.3,0.2-0.4,0.4-0.4,0.8s0.1,0.6,0.4,0.8C408.8,135.7,409.2,135.8,409.7,135.8L409.7,135.8z"/>
	<path class="st14" d="M408.2,132.4h-0.5v-0.6h-0.5c-0.4,0-0.7-0.1-1-0.3c-0.2-0.2-0.3-0.5-0.3-0.9c0-0.1,0-0.2,0-0.2
		c0-0.1,0-0.2,0.1-0.3l0.5,0.1c0,0,0,0.1,0,0.2c0,0.1,0,0.1,0,0.2c0,0.2,0.1,0.4,0.2,0.5c0.1,0.1,0.3,0.2,0.5,0.2h0.5v-0.8h0.5v0.8
		h2.9l0.1-0.6h0.5v1.9h-0.5l-0.1-0.6h-2.9V132.4z"/>
	<path class="st14" d="M406.7,128.4h1v-0.7h0.5v0.7h2.4c0.2,0,0.3,0,0.4-0.1c0.1-0.1,0.1-0.2,0.1-0.3c0-0.1,0-0.1,0-0.2
		c0-0.1,0-0.1,0-0.2l0.5-0.1c0,0.1,0.1,0.2,0.1,0.3c0,0.1,0,0.3,0,0.4c0,0.3-0.1,0.5-0.3,0.7c-0.2,0.2-0.5,0.3-0.8,0.3h-2.4v0.6
		h-0.5v-0.6h-1V128.4z"/>
	<path class="st14" d="M409.6,124.9v1.8h-0.6v-1.8H409.6z"/>
	<path class="st14" d="M406.3,121.6c0-0.6,0.1-1,0.4-1.3s0.7-0.5,1.2-0.5c0.5,0,0.9,0.2,1.2,0.5c0.3,0.3,0.4,0.8,0.4,1.3v1.1h1.6
		l0.1-0.6h0.5v1.9h-0.5l-0.1-0.6h-4.2l-0.1,0.6h-0.5v-0.6V121.6z M408.9,122.8v-1.1c0-0.4-0.1-0.6-0.3-0.8s-0.4-0.3-0.7-0.3
		s-0.5,0.1-0.7,0.3c-0.2,0.2-0.3,0.4-0.3,0.8v1.1H408.9z"/>
	<path class="st14" d="M406.7,117.8l0.1,0.5l2.9-0.7l0.7-0.1l0,0l-0.7-0.1l-3.5-1v-0.6l3.5-1l0.7-0.1v0l-0.7-0.1l-2.9-0.7l-0.1,0.5
		h-0.5v-1.7h0.5l0.1,0.4l4.8,1.2v0.6l-3.7,1.1l-0.5,0.1v0l0.5,0.1l3.7,1.1v0.6l-4.8,1.2l-0.1,0.4h-0.5v-1.7H406.7z"/>
	<path class="st14" d="M407.3,107.2L407.3,107.2l4.3,1.7v0.5l-4.3,1.7l0,0l2.1-0.1h1.5l0.1-0.6h0.5v1.9h-0.5l-0.1-0.6h-4.2l-0.1,0.6
		h-0.5v-0.6v-0.9l4.3-1.7v0l-4.3-1.7v-1.5h0.5l0.1,0.6h4.2l0.1-0.6h0.5v1.9h-0.5l-0.1-0.6h-1.5L407.3,107.2z"/>
</g>
<rect x="160.6" y="71.6" class="st0" width="37.2" height="197"/>
<rect x="174.7" y="71.5" class="st4" width="23.1" height="18.9"/>
<rect x="174.7" y="91.2" class="st4" width="23.1" height="18.9"/>
<rect x="174.7" y="111" class="st4" width="23.1" height="18.9"/>
<rect x="174.7" y="130.8" class="st4" width="23.1" height="18.9"/>
<rect x="174.7" y="150.7" class="st4" width="23.1" height="18.9"/>
<rect x="174.7" y="170.5" class="st4" width="23.1" height="18.9"/>
<rect x="174.7" y="190.3" class="st4" width="23.1" height="18.9"/>
<rect x="174.7" y="210.1" class="st4" width="23.1" height="18.9"/>
<rect x="174.7" y="229.9" class="st4" width="23.1" height="18.9"/>
<rect x="174.7" y="249.7" class="st4" width="23.1" height="18.9"/>
<rect x="160.6" y="12.6" class="st6" width="37.3" height="18.8"/>
<rect x="160.6" y="32.2" class="st7" width="37.3" height="18.9"/>
<rect x="160.6" y="52" class="st8" width="37.3" height="18.9"/>
<g class="st13">
	<path class="st14" d="M371,23.6c-0.2,0.2-0.6,0.4-1,0.6c-0.4,0.2-1,0.3-1.7,0.3c-1,0-1.7-0.3-2.3-1s-0.9-1.5-0.9-2.5v-0.2
		c0-1.1,0.3-1.9,0.9-2.6c0.6-0.7,1.4-1,2.3-1c0.6,0,1.1,0.1,1.5,0.3s0.8,0.4,1.1,0.7v1.4h-1.1l-0.2-0.9c-0.1-0.1-0.3-0.2-0.5-0.3
		c-0.2-0.1-0.5-0.1-0.7-0.1c-0.6,0-1.1,0.2-1.4,0.7s-0.5,1.1-0.5,1.8v0.3c0,0.7,0.2,1.3,0.5,1.7s0.8,0.6,1.5,0.6
		c0.3,0,0.5,0,0.7-0.1c0.2,0,0.3-0.1,0.4-0.2V22l-1-0.1v-1h2.4V23.6z"/>
	<path class="st14" d="M378.9,17.3v0.9l-0.8,0.1v6.1h-1.4l-2.9-4.8l0,0v3.8l0.8,0.1v0.9h-2.9v-0.9l0.8-0.1v-5.1l-0.8-0.1v-0.9h0.8
		h1.4l2.9,4.8l0,0v-3.8l-0.8-0.1v-0.9h2.2H378.9z"/>
	<path class="st14" d="M382.6,17.3c0.9,0,1.6,0.3,2.1,0.8c0.6,0.6,0.8,1.3,0.8,2.1v1.2c0,0.9-0.3,1.6-0.8,2.1
		c-0.6,0.5-1.3,0.8-2.1,0.8h-3.2v-0.9l0.8-0.1v-5.1l-0.8-0.1v-0.9h0.8H382.6z M381.5,18.4v4.9h0.9c0.5,0,0.9-0.2,1.2-0.5
		c0.3-0.3,0.4-0.8,0.4-1.3v-1.2c0-0.5-0.1-1-0.4-1.3c-0.3-0.3-0.7-0.5-1.2-0.5H381.5z"/>
</g>
<g class="st13">
	<path class="st14" d="M373.3,39.9l-0.1-0.5h-1.9l-0.2,1.6c0.1-0.1,0.3-0.2,0.5-0.2s0.4-0.1,0.6-0.1c0.7,0,1.2,0.2,1.6,0.6
		c0.4,0.4,0.6,1,0.6,1.8c0,0.7-0.2,1.2-0.6,1.7c-0.4,0.5-1,0.7-1.8,0.7c-0.6,0-1.2-0.2-1.7-0.5c-0.5-0.4-0.7-0.8-0.7-1.5l0,0
		l1.4-0.1c0,0.3,0.1,0.6,0.3,0.7c0.2,0.2,0.4,0.3,0.7,0.3c0.3,0,0.6-0.1,0.7-0.4c0.2-0.2,0.2-0.5,0.2-0.9c0-0.4-0.1-0.7-0.3-1
		c-0.2-0.2-0.4-0.4-0.8-0.4c-0.3,0-0.5,0-0.6,0.2c-0.1,0.1-0.2,0.2-0.3,0.4l-1.3-0.1l0.4-3.9h4.1v1.6H373.3z"/>
	<path class="st14" d="M377.3,39.1l-0.5,0.1l1.3,4.2l0.1,0.4h0l0.1-0.4l1.3-4.3l-0.5-0.1v-0.9h2.6v0.9l-0.6,0.1l-2.1,6.1h-1.5
		l-2.1-6.1l-0.6-0.1v-0.9h2.6V39.1z"/>
</g>
<g class="st13">
	<path class="st14" d="M367.1,61h0.8c0.3,0,0.6-0.1,0.7-0.3s0.2-0.4,0.2-0.7c0-0.3-0.1-0.5-0.2-0.7s-0.4-0.3-0.7-0.3
		c-0.3,0-0.5,0.1-0.7,0.2s-0.3,0.4-0.3,0.6h-1.4l0,0c0-0.6,0.2-1,0.6-1.4c0.4-0.4,1-0.5,1.7-0.5c0.7,0,1.3,0.2,1.8,0.5
		c0.4,0.4,0.7,0.8,0.7,1.5c0,0.3-0.1,0.6-0.3,0.9c-0.2,0.3-0.5,0.5-0.8,0.6c0.4,0.1,0.7,0.4,0.9,0.6c0.2,0.3,0.3,0.6,0.3,1
		c0,0.6-0.2,1.2-0.7,1.5c-0.5,0.4-1.1,0.6-1.8,0.6c-0.7,0-1.2-0.2-1.7-0.5c-0.5-0.3-0.7-0.8-0.7-1.5l0,0h1.4c0,0.3,0.1,0.5,0.3,0.7
		s0.4,0.3,0.7,0.3c0.3,0,0.6-0.1,0.8-0.3c0.2-0.2,0.3-0.4,0.3-0.7c0-0.4-0.1-0.6-0.3-0.8c-0.2-0.2-0.5-0.3-0.8-0.3h-0.8V61z"/>
	<path class="st14" d="M372.7,65.1h-1.4v-1.2h1.4V65.1z"/>
	<path class="st14" d="M375,61h0.8c0.3,0,0.6-0.1,0.7-0.3s0.2-0.4,0.2-0.7c0-0.3-0.1-0.5-0.2-0.7s-0.4-0.3-0.7-0.3
		c-0.3,0-0.5,0.1-0.7,0.2s-0.3,0.4-0.3,0.6h-1.4l0,0c0-0.6,0.2-1,0.6-1.4c0.4-0.4,1-0.5,1.7-0.5c0.7,0,1.3,0.2,1.8,0.5
		c0.4,0.4,0.7,0.8,0.7,1.5c0,0.3-0.1,0.6-0.3,0.9s-0.5,0.5-0.8,0.6c0.4,0.1,0.7,0.4,0.9,0.6c0.2,0.3,0.3,0.6,0.3,1
		c0,0.6-0.2,1.2-0.7,1.5c-0.5,0.4-1.1,0.6-1.8,0.6c-0.7,0-1.2-0.2-1.7-0.5s-0.7-0.8-0.7-1.5l0,0h1.4c0,0.3,0.1,0.5,0.3,0.7
		c0.2,0.2,0.4,0.3,0.7,0.3c0.3,0,0.6-0.1,0.8-0.3c0.2-0.2,0.3-0.4,0.3-0.7c0-0.4-0.1-0.6-0.3-0.8c-0.2-0.2-0.5-0.3-0.8-0.3H375V61z"
		/>
	<path class="st14" d="M381.4,58.9l-0.5,0.1l1.3,4.2l0.1,0.4h0l0.1-0.4l1.3-4.3l-0.5-0.1v-0.9h2.6v0.9L385,59l-2.1,6.1h-1.5
		l-2.1-6.1l-0.6-0.1v-0.9h2.6V58.9z"/>
</g>
<g class="st13">
	<path class="st14" d="M174.8,23.6c-0.2,0.2-0.6,0.4-1,0.6c-0.4,0.2-1,0.3-1.7,0.3c-1,0-1.7-0.3-2.3-1c-0.6-0.6-0.9-1.5-0.9-2.5
		v-0.2c0-1.1,0.3-1.9,0.9-2.6c0.6-0.7,1.4-1,2.3-1c0.6,0,1.1,0.1,1.5,0.3c0.5,0.2,0.8,0.4,1.1,0.7v1.4h-1.1l-0.2-0.9
		c-0.1-0.1-0.3-0.2-0.5-0.3s-0.5-0.1-0.7-0.1c-0.6,0-1.1,0.2-1.4,0.7s-0.5,1.1-0.5,1.8v0.3c0,0.7,0.2,1.3,0.5,1.7
		c0.3,0.4,0.8,0.6,1.5,0.6c0.3,0,0.5,0,0.7-0.1c0.2,0,0.3-0.1,0.4-0.2V22l-1-0.1v-1h2.4V23.6z"/>
	<path class="st14" d="M182.7,17.3v0.9l-0.8,0.1v6.1h-1.4l-2.9-4.8l0,0v3.8l0.8,0.1v0.9h-2.9v-0.9l0.8-0.1v-5.1l-0.8-0.1v-0.9h0.8
		h1.4l2.9,4.8l0,0v-3.8l-0.8-0.1v-0.9h2.2H182.7z"/>
	<path class="st14" d="M186.4,17.3c0.9,0,1.6,0.3,2.1,0.8s0.8,1.3,0.8,2.1v1.2c0,0.9-0.3,1.6-0.8,2.1s-1.3,0.8-2.1,0.8h-3.2v-0.9
		l0.8-0.1v-5.1l-0.8-0.1v-0.9h0.8H186.4z M185.4,18.4v4.9h0.9c0.5,0,0.9-0.2,1.2-0.5s0.4-0.8,0.4-1.3v-1.2c0-0.5-0.1-1-0.4-1.3
		c-0.3-0.3-0.7-0.5-1.2-0.5H185.4z"/>
</g>
<g class="st13">
	<path class="st14" d="M177.1,39.9l-0.1-0.5h-1.9l-0.2,1.6c0.1-0.1,0.3-0.2,0.5-0.2c0.2-0.1,0.4-0.1,0.6-0.1c0.7,0,1.2,0.2,1.6,0.6
		c0.4,0.4,0.6,1,0.6,1.8c0,0.7-0.2,1.2-0.6,1.7c-0.4,0.5-1,0.7-1.8,0.7c-0.6,0-1.2-0.2-1.7-0.5c-0.5-0.4-0.7-0.8-0.7-1.5l0,0
		l1.4-0.1c0,0.3,0.1,0.6,0.3,0.7s0.4,0.3,0.7,0.3c0.3,0,0.6-0.1,0.7-0.4c0.2-0.2,0.2-0.5,0.2-0.9c0-0.4-0.1-0.7-0.3-1
		c-0.2-0.2-0.4-0.4-0.8-0.4c-0.3,0-0.5,0-0.6,0.2c-0.1,0.1-0.2,0.2-0.3,0.4l-1.3-0.1l0.4-3.9h4.1v1.6H177.1z"/>
	<path class="st14" d="M181.1,39.1l-0.5,0.1l1.3,4.2l0.1,0.4h0l0.1-0.4l1.3-4.3l-0.5-0.1v-0.9h2.6v0.9l-0.6,0.1l-2.1,6.1h-1.5
		l-2.1-6.1l-0.6-0.1v-0.9h2.6V39.1z"/>
</g>
<g class="st13">
	<path class="st14" d="M170.9,61h0.8c0.3,0,0.6-0.1,0.7-0.3s0.2-0.4,0.2-0.7c0-0.3-0.1-0.5-0.2-0.7s-0.4-0.3-0.7-0.3
		c-0.3,0-0.5,0.1-0.7,0.2s-0.3,0.4-0.3,0.6h-1.4l0,0c0-0.6,0.2-1,0.6-1.4c0.4-0.4,1-0.5,1.7-0.5c0.7,0,1.3,0.2,1.8,0.5
		c0.4,0.4,0.7,0.8,0.7,1.5c0,0.3-0.1,0.6-0.3,0.9c-0.2,0.3-0.5,0.5-0.8,0.6c0.4,0.1,0.7,0.4,0.9,0.6c0.2,0.3,0.3,0.6,0.3,1
		c0,0.6-0.2,1.2-0.7,1.5c-0.5,0.4-1.1,0.6-1.8,0.6c-0.7,0-1.2-0.2-1.7-0.5s-0.7-0.8-0.7-1.5l0,0h1.4c0,0.3,0.1,0.5,0.3,0.7
		s0.4,0.3,0.7,0.3c0.3,0,0.6-0.1,0.8-0.3c0.2-0.2,0.3-0.4,0.3-0.7c0-0.4-0.1-0.6-0.3-0.8c-0.2-0.2-0.5-0.3-0.8-0.3h-0.8V61z"/>
	<path class="st14" d="M176.5,65.1h-1.4v-1.2h1.4V65.1z"/>
	<path class="st14" d="M178.8,61h0.8c0.3,0,0.6-0.1,0.7-0.3s0.2-0.4,0.2-0.7c0-0.3-0.1-0.5-0.2-0.7s-0.4-0.3-0.7-0.3
		c-0.3,0-0.5,0.1-0.7,0.2s-0.3,0.4-0.3,0.6h-1.4l0,0c0-0.6,0.2-1,0.6-1.4c0.4-0.4,1-0.5,1.7-0.5c0.7,0,1.3,0.2,1.8,0.5
		c0.4,0.4,0.7,0.8,0.7,1.5c0,0.3-0.1,0.6-0.3,0.9c-0.2,0.3-0.5,0.5-0.8,0.6c0.4,0.1,0.7,0.4,0.9,0.6c0.2,0.3,0.3,0.6,0.3,1
		c0,0.6-0.2,1.2-0.7,1.5c-0.5,0.4-1.1,0.6-1.8,0.6c-0.7,0-1.2-0.2-1.7-0.5s-0.7-0.8-0.7-1.5l0,0h1.4c0,0.3,0.1,0.5,0.3,0.7
		s0.4,0.3,0.7,0.3c0.3,0,0.6-0.1,0.8-0.3c0.2-0.2,0.3-0.4,0.3-0.7c0-0.4-0.1-0.6-0.3-0.8c-0.2-0.2-0.5-0.3-0.8-0.3h-0.8V61z"/>
	<path class="st14" d="M185.1,58.9l-0.5,0.1l1.3,4.2l0.1,0.4h0l0.1-0.4l1.3-4.3l-0.5-0.1v-0.9h2.6v0.9l-0.6,0.1l-2.1,6.1h-1.5
		l-2.1-6.1l-0.6-0.1v-0.9h2.6V58.9z"/>
</g>
<g class="st13">
	<path class="st14" d="M393.2,82c0,1.1-0.3,2-0.8,2.5s-1.2,0.9-2.1,0.9c-0.9,0-1.6-0.3-2.1-0.9s-0.8-1.4-0.8-2.5v-1.9
		c0-1.1,0.3-2,0.8-2.5s1.2-0.9,2.1-0.9c0.9,0,1.6,0.3,2.1,0.9s0.8,1.4,0.8,2.5V82z M391.5,79.9c0-0.7-0.1-1.2-0.3-1.5
		c-0.2-0.3-0.5-0.5-0.9-0.5c-0.4,0-0.7,0.2-0.9,0.5c-0.2,0.3-0.3,0.8-0.3,1.5v2.2c0,0.7,0.1,1.2,0.3,1.5c0.2,0.3,0.5,0.5,0.9,0.5
		c0.4,0,0.7-0.2,0.9-0.5c0.2-0.3,0.3-0.8,0.3-1.5V79.9z"/>
</g>
<g class="st13">
	<path class="st14" d="M388.1,103.9l1.4-0.2V98h-1.4v-1l3.1-0.6v7.2l1.4,0.2v1h-4.5V103.9z"/>
</g>
<g class="st13">
	<path class="st14" d="M387.5,124.6v-1.1l2.7-2.9c0.4-0.5,0.7-0.8,0.8-1.1c0.2-0.3,0.2-0.6,0.2-0.9c0-0.4-0.1-0.6-0.3-0.9
		c-0.2-0.2-0.5-0.3-0.8-0.3c-0.4,0-0.7,0.1-0.9,0.4c-0.2,0.3-0.3,0.6-0.3,1.1h-1.6l0,0c0-0.8,0.2-1.4,0.7-1.9
		c0.5-0.5,1.2-0.8,2.1-0.8c0.9,0,1.5,0.2,2,0.7c0.5,0.5,0.7,1.1,0.7,1.8c0,0.5-0.1,1-0.4,1.4c-0.3,0.4-0.7,1-1.4,1.7l-1.5,1.6l0,0
		h2.2l0.1-0.8h1.3v2.1H387.5z"/>
</g>
<g class="st13">
	<path class="st14" d="M389.3,139.3h0.9c0.4,0,0.7-0.1,0.9-0.3c0.2-0.2,0.3-0.5,0.3-0.9c0-0.3-0.1-0.6-0.3-0.8s-0.5-0.3-0.8-0.3
		c-0.3,0-0.6,0.1-0.8,0.3c-0.2,0.2-0.3,0.4-0.3,0.7h-1.6l0,0c0-0.7,0.2-1.2,0.8-1.6s1.2-0.6,2-0.6c0.9,0,1.6,0.2,2.1,0.6
		c0.5,0.4,0.8,1,0.8,1.8c0,0.4-0.1,0.7-0.3,1c-0.2,0.3-0.5,0.6-1,0.8c0.5,0.2,0.8,0.4,1.1,0.8c0.2,0.3,0.4,0.7,0.4,1.2
		c0,0.8-0.3,1.4-0.8,1.8c-0.6,0.4-1.3,0.7-2.1,0.7c-0.8,0-1.5-0.2-2-0.6c-0.6-0.4-0.8-1-0.8-1.8l0,0h1.6c0,0.3,0.1,0.6,0.3,0.8
		c0.2,0.2,0.5,0.3,0.9,0.3c0.4,0,0.7-0.1,0.9-0.3c0.2-0.2,0.3-0.5,0.3-0.9c0-0.4-0.1-0.8-0.3-1c-0.2-0.2-0.5-0.3-1-0.3h-0.9V139.3z"
		/>
</g>
<g class="st13">
	<path class="st14" d="M392.4,160.8h1v1.1h-1v0.8l0.9,0.2v1h-3.5v-1l0.9-0.2v-0.8h-3.4l-0.1-0.8l3.5-5.6h1.7V160.8z M388.8,160.8
		h1.9v-3l0,0l-0.1,0.2L388.8,160.8z"/>
</g>
<g class="st13">
	<path class="st14" d="M392,177.1l-0.1-0.6h-2.3l-0.2,1.9c0.2-0.1,0.3-0.2,0.6-0.3c0.2-0.1,0.5-0.1,0.7-0.1c0.8,0,1.4,0.2,1.9,0.7
		c0.4,0.5,0.7,1.2,0.7,2.1c0,0.8-0.2,1.5-0.7,2c-0.5,0.5-1.2,0.8-2.1,0.8c-0.8,0-1.4-0.2-2-0.6c-0.6-0.4-0.8-1-0.8-1.7l0,0l1.6-0.1
		c0,0.4,0.1,0.7,0.3,0.9s0.5,0.3,0.8,0.3c0.4,0,0.7-0.1,0.9-0.4c0.2-0.3,0.3-0.6,0.3-1.1c0-0.5-0.1-0.9-0.3-1.2
		c-0.2-0.3-0.5-0.4-0.9-0.4c-0.3,0-0.6,0.1-0.7,0.2s-0.3,0.3-0.4,0.5l-1.5-0.1l0.5-4.7h4.8v1.9H392z"/>
</g>
<g class="st13">
	<path class="st14" d="M390.9,195.6c0.3,0,0.6,0,0.9,0.1c0.3,0.1,0.5,0.1,0.8,0.3l-0.3,1.2c-0.2-0.1-0.5-0.1-0.7-0.2
		c-0.2,0-0.4-0.1-0.7-0.1c-0.5,0-0.9,0.2-1.2,0.5s-0.5,0.9-0.5,1.6l0,0c0.2-0.2,0.4-0.3,0.7-0.5c0.3-0.1,0.6-0.2,1-0.2
		c0.8,0,1.3,0.3,1.8,0.8c0.4,0.5,0.6,1.2,0.6,2c0,0.8-0.3,1.5-0.8,2.1c-0.5,0.5-1.2,0.8-2,0.8c-0.9,0-1.6-0.3-2.2-0.9
		c-0.6-0.6-0.8-1.4-0.8-2.5v-1.5c0-1.2,0.3-2.1,0.9-2.8C389.1,195.9,389.9,195.6,390.9,195.6z M390.5,199.8c-0.3,0-0.6,0-0.8,0.2
		c-0.2,0.1-0.4,0.2-0.5,0.4v0.6c0,0.7,0.1,1.2,0.4,1.5c0.2,0.4,0.6,0.5,1,0.5c0.3,0,0.6-0.2,0.8-0.5s0.3-0.7,0.3-1.2
		c0-0.5-0.1-0.8-0.3-1.1C391.2,199.9,390.9,199.8,390.5,199.8z"/>
</g>
<g class="st13">
	<path class="st14" d="M393.4,216.3c-0.9,1.1-1.5,2-1.8,2.9s-0.6,2-0.7,3.3l-0.1,0.9H389l0.1-0.9c0.1-1.2,0.4-2.4,0.8-3.4
		s1-2,1.8-2.8h-3l-0.1,0.8h-1.3V215h5.9V216.3z"/>
</g>
<g class="st13">
	<path class="st14" d="M393,237.1c0,0.4-0.1,0.8-0.3,1.1c-0.2,0.3-0.5,0.6-0.9,0.8c0.4,0.2,0.8,0.5,1.1,0.8s0.4,0.8,0.4,1.2
		c0,0.8-0.3,1.4-0.8,1.8s-1.2,0.6-2.1,0.6c-0.9,0-1.5-0.2-2.1-0.6c-0.5-0.4-0.8-1-0.8-1.8c0-0.5,0.1-0.9,0.4-1.2
		c0.3-0.3,0.6-0.6,1.1-0.8c-0.4-0.2-0.7-0.4-0.9-0.8c-0.2-0.3-0.3-0.7-0.3-1.1c0-0.7,0.2-1.3,0.7-1.7c0.5-0.4,1.1-0.6,1.9-0.6
		c0.8,0,1.4,0.2,1.9,0.6S393,236.3,393,237.1z M391.5,240.8c0-0.4-0.1-0.7-0.3-0.9c-0.2-0.2-0.5-0.3-0.9-0.3c-0.3,0-0.6,0.1-0.8,0.3
		c-0.2,0.2-0.3,0.5-0.3,0.9c0,0.4,0.1,0.7,0.3,0.9c0.2,0.2,0.5,0.3,0.9,0.3c0.3,0,0.6-0.1,0.9-0.3
		C391.4,241.5,391.5,241.2,391.5,240.8z M391.3,237.1c0-0.3-0.1-0.6-0.3-0.8c-0.2-0.2-0.4-0.3-0.7-0.3c-0.3,0-0.5,0.1-0.7,0.3
		c-0.2,0.2-0.3,0.5-0.3,0.8c0,0.4,0.1,0.6,0.3,0.8c0.2,0.2,0.4,0.3,0.7,0.3c0.3,0,0.5-0.1,0.7-0.3
		C391.3,237.8,391.3,237.5,391.3,237.1z"/>
</g>
<g class="st13">
	<path class="st14" d="M389.9,261.9c0.5,0,0.8-0.2,1.1-0.5c0.3-0.3,0.4-0.9,0.4-1.5v-0.1c-0.2,0.2-0.4,0.4-0.7,0.6s-0.5,0.2-0.8,0.2
		c-0.8,0-1.4-0.3-1.8-0.8s-0.7-1.2-0.7-2.1c0-0.9,0.3-1.6,0.8-2.1c0.5-0.6,1.2-0.9,2-0.9c0.9,0,1.6,0.3,2.1,0.9
		c0.5,0.6,0.8,1.4,0.8,2.5v1.8c0,1.1-0.3,1.9-0.9,2.5c-0.6,0.6-1.4,0.9-2.3,0.9c-0.3,0-0.6,0-0.9-0.1c-0.3-0.1-0.6-0.1-0.9-0.3
		l0.2-1.2c0.3,0.1,0.5,0.2,0.8,0.2C389.3,261.8,389.6,261.9,389.9,261.9z M390.2,259.2c0.3,0,0.5-0.1,0.7-0.2
		c0.2-0.1,0.4-0.2,0.5-0.4v-0.9c0-0.6-0.1-1.1-0.3-1.4c-0.2-0.3-0.5-0.5-0.9-0.5c-0.3,0-0.6,0.2-0.8,0.5c-0.2,0.3-0.3,0.7-0.3,1.2
		c0,0.5,0.1,0.9,0.3,1.2C389.6,259,389.8,259.2,390.2,259.2z"/>
</g>
<g class="st13">
	<path class="st14" d="M180.6,84.2l1.4-0.2v-5.7h-1.4v-1l3.1-0.6v7.2l1.4,0.2v1h-4.5V84.2z"/>
	<path class="st14" d="M188.3,84.1c0.5,0,0.8-0.2,1.1-0.5c0.3-0.3,0.4-0.9,0.4-1.5v-0.1c-0.2,0.2-0.4,0.4-0.7,0.6s-0.5,0.2-0.8,0.2
		c-0.8,0-1.4-0.3-1.8-0.8s-0.7-1.2-0.7-2.1c0-0.9,0.3-1.6,0.8-2.1c0.5-0.6,1.2-0.9,2-0.9c0.9,0,1.6,0.3,2.1,0.9
		c0.5,0.6,0.8,1.4,0.8,2.5v1.8c0,1.1-0.3,1.9-0.9,2.5c-0.6,0.6-1.4,0.9-2.3,0.9c-0.3,0-0.6,0-0.9-0.1c-0.3-0.1-0.6-0.1-0.9-0.3
		l0.2-1.2c0.3,0.1,0.5,0.2,0.8,0.2C187.7,84,188,84.1,188.3,84.1z M188.6,81.4c0.3,0,0.5-0.1,0.7-0.2c0.2-0.1,0.4-0.2,0.5-0.4v-0.9
		c0-0.6-0.1-1.1-0.3-1.4S189,78,188.6,78c-0.3,0-0.6,0.2-0.8,0.5s-0.3,0.7-0.3,1.2c0,0.5,0.1,0.9,0.3,1.2
		C187.9,81.2,188.2,81.4,188.6,81.4z"/>
</g>
<g class="st13">
	<path class="st14" d="M180.6,103.9l1.4-0.2V98h-1.4v-1l3.1-0.6v7.2l1.4,0.2v1h-4.5V103.9z"/>
	<path class="st14" d="M191.4,98.7c0,0.4-0.1,0.8-0.3,1.1s-0.5,0.6-0.9,0.8c0.4,0.2,0.8,0.5,1.1,0.8c0.3,0.3,0.4,0.8,0.4,1.2
		c0,0.8-0.3,1.4-0.8,1.8c-0.5,0.4-1.2,0.6-2.1,0.6c-0.9,0-1.5-0.2-2.1-0.6c-0.5-0.4-0.8-1-0.8-1.8c0-0.5,0.1-0.9,0.4-1.2
		c0.3-0.3,0.6-0.6,1.1-0.8c-0.4-0.2-0.7-0.4-0.9-0.8s-0.3-0.7-0.3-1.1c0-0.7,0.2-1.3,0.7-1.7c0.5-0.4,1.1-0.6,1.9-0.6
		s1.4,0.2,1.9,0.6C191.2,97.4,191.4,98,191.4,98.7z M189.9,102.5c0-0.4-0.1-0.7-0.3-0.9c-0.2-0.2-0.5-0.3-0.9-0.3s-0.6,0.1-0.8,0.3
		c-0.2,0.2-0.3,0.5-0.3,0.9c0,0.4,0.1,0.7,0.3,0.9c0.2,0.2,0.5,0.3,0.9,0.3c0.4,0,0.6-0.1,0.9-0.3
		C189.8,103.2,189.9,102.9,189.9,102.5z M189.7,98.8c0-0.3-0.1-0.6-0.3-0.8c-0.2-0.2-0.4-0.3-0.7-0.3c-0.3,0-0.5,0.1-0.7,0.3
		c-0.2,0.2-0.3,0.5-0.3,0.8c0,0.4,0.1,0.6,0.3,0.8c0.2,0.2,0.4,0.3,0.7,0.3c0.3,0,0.5-0.1,0.7-0.3S189.7,99.2,189.7,98.8z"/>
</g>
<g class="st13">
	<path class="st14" d="M180.7,123.6l1.4-0.2v-5.7h-1.4v-1l3.1-0.6v7.2l1.4,0.2v1h-4.5V123.6z"/>
	<path class="st14" d="M191.7,117.5c-0.9,1.1-1.5,2-1.8,2.9c-0.3,0.9-0.6,2-0.7,3.3l-0.1,0.9h-1.7l0.1-0.9c0.1-1.2,0.4-2.4,0.8-3.4
		c0.4-1,1-2,1.8-2.8h-3l-0.1,0.8h-1.3v-2.1h5.9V117.5z"/>
</g>
<g class="st13">
	<path class="st14" d="M180.6,143.2l1.4-0.2v-5.7h-1.4v-1l3.1-0.6v7.2l1.4,0.2v1h-4.5V143.2z"/>
	<path class="st14" d="M189.3,135.7c0.3,0,0.6,0,0.9,0.1c0.3,0.1,0.5,0.1,0.8,0.3l-0.3,1.2c-0.2-0.1-0.5-0.1-0.7-0.2
		c-0.2,0-0.4-0.1-0.7-0.1c-0.5,0-0.9,0.2-1.2,0.5c-0.3,0.4-0.5,0.9-0.5,1.6l0,0c0.2-0.2,0.4-0.3,0.7-0.5c0.3-0.1,0.6-0.2,1-0.2
		c0.8,0,1.3,0.3,1.8,0.8c0.4,0.5,0.6,1.2,0.6,2c0,0.8-0.3,1.5-0.8,2.1c-0.5,0.5-1.2,0.8-2,0.8c-0.9,0-1.6-0.3-2.2-0.9
		c-0.6-0.6-0.8-1.4-0.8-2.5v-1.5c0-1.2,0.3-2.1,0.9-2.8C187.5,136.1,188.3,135.7,189.3,135.7z M188.9,139.9c-0.3,0-0.6,0-0.8,0.2
		c-0.2,0.1-0.4,0.2-0.5,0.4v0.6c0,0.7,0.1,1.2,0.4,1.5c0.2,0.4,0.6,0.5,1,0.5c0.3,0,0.6-0.2,0.8-0.5c0.2-0.3,0.3-0.7,0.3-1.2
		c0-0.5-0.1-0.8-0.3-1.1C189.5,140,189.3,139.9,188.9,139.9z"/>
</g>
<g class="st13">
	<path class="st14" d="M180.7,162.9l1.4-0.2V157h-1.4v-1l3.1-0.6v7.2l1.4,0.2v1h-4.5V162.9z"/>
	<path class="st14" d="M190.4,157.4l-0.1-0.6H188l-0.2,1.9c0.2-0.1,0.3-0.2,0.6-0.3s0.5-0.1,0.7-0.1c0.8,0,1.4,0.2,1.9,0.7
		c0.4,0.5,0.7,1.2,0.7,2.1c0,0.8-0.2,1.5-0.7,2c-0.5,0.5-1.2,0.8-2.1,0.8c-0.8,0-1.4-0.2-2-0.6s-0.8-1-0.8-1.7l0,0l1.6-0.1
		c0,0.4,0.1,0.7,0.3,0.9c0.2,0.2,0.5,0.3,0.8,0.3c0.4,0,0.7-0.1,0.9-0.4c0.2-0.3,0.3-0.6,0.3-1.1c0-0.5-0.1-0.9-0.3-1.2
		c-0.2-0.3-0.5-0.4-0.9-0.4c-0.3,0-0.6,0.1-0.7,0.2c-0.2,0.1-0.3,0.3-0.4,0.5l-1.5-0.1l0.5-4.7h4.8v1.9H190.4z"/>
</g>
<g class="st13">
	<path class="st14" d="M180.5,182.6l1.4-0.2v-5.7h-1.4v-1l3.1-0.6v7.2l1.4,0.2v1h-4.5V182.6z"/>
	<path class="st14" d="M190.8,180.5h1v1.1h-1v0.8l0.9,0.2v1h-3.5v-1l0.9-0.2v-0.8h-3.4l-0.1-0.8l3.5-5.6h1.7V180.5z M187.2,180.5
		h1.9v-3l0,0l-0.1,0.2L187.2,180.5z"/>
</g>
<g class="st13">
	<path class="st14" d="M180.6,203.1l1.4-0.2v-5.7h-1.4v-1l3.1-0.6v7.2l1.4,0.2v1h-4.5V203.1z"/>
	<path class="st14" d="M187.7,199.2h0.9c0.4,0,0.7-0.1,0.9-0.3c0.2-0.2,0.3-0.5,0.3-0.9c0-0.3-0.1-0.6-0.3-0.8s-0.5-0.3-0.8-0.3
		c-0.3,0-0.6,0.1-0.8,0.3s-0.3,0.4-0.3,0.7h-1.6l0,0c0-0.7,0.2-1.2,0.8-1.6c0.5-0.4,1.2-0.6,2-0.6c0.9,0,1.6,0.2,2.1,0.6
		c0.5,0.4,0.8,1,0.8,1.8c0,0.4-0.1,0.7-0.3,1c-0.2,0.3-0.5,0.6-1,0.8c0.5,0.2,0.8,0.4,1.1,0.8c0.2,0.3,0.4,0.7,0.4,1.2
		c0,0.8-0.3,1.4-0.8,1.8c-0.6,0.4-1.3,0.7-2.1,0.7c-0.8,0-1.5-0.2-2-0.6c-0.6-0.4-0.8-1-0.8-1.8l0,0h1.6c0,0.3,0.1,0.6,0.3,0.8
		c0.2,0.2,0.5,0.3,0.9,0.3c0.4,0,0.7-0.1,0.9-0.3c0.2-0.2,0.3-0.5,0.3-0.9c0-0.4-0.1-0.8-0.3-1s-0.5-0.3-1-0.3h-0.9V199.2z"/>
</g>
<g class="st13">
	<path class="st14" d="M180.6,222.4l1.4-0.2v-5.7h-1.4v-1l3.1-0.6v7.2l1.4,0.2v1h-4.5V222.4z"/>
	<path class="st14" d="M185.9,223.4v-1.1l2.7-2.9c0.4-0.5,0.7-0.8,0.8-1.1c0.2-0.3,0.2-0.6,0.2-0.9c0-0.4-0.1-0.6-0.3-0.9
		c-0.2-0.2-0.5-0.3-0.8-0.3c-0.4,0-0.7,0.1-0.9,0.4c-0.2,0.3-0.3,0.6-0.3,1.1h-1.6l0,0c0-0.8,0.2-1.4,0.7-1.9
		c0.5-0.5,1.2-0.8,2.1-0.8c0.9,0,1.5,0.2,2,0.7c0.5,0.5,0.7,1.1,0.7,1.8c0,0.5-0.1,1-0.4,1.4c-0.3,0.4-0.7,1-1.4,1.7l-1.5,1.6l0,0
		h2.2l0.1-0.8h1.3v2.1H185.9z"/>
</g>
<g class="st13">
	<path class="st14" d="M181.2,242.2l1.4-0.2v-5.7h-1.4v-1l3.1-0.6v7.2l1.4,0.2v1h-4.5V242.2z"/>
	<path class="st14" d="M186.5,242.2l1.4-0.2v-5.7h-1.4v-1l3.1-0.6v7.2l1.4,0.2v1h-4.5V242.2z"/>
</g>
<g class="st13">
	<path class="st14" d="M180.5,262l1.4-0.2v-5.7h-1.4v-1l3.1-0.6v7.2l1.4,0.2v1h-4.5V262z"/>
	<path class="st14" d="M191.6,259.8c0,1.1-0.3,2-0.8,2.5s-1.2,0.9-2.1,0.9c-0.9,0-1.6-0.3-2.1-0.9c-0.5-0.6-0.8-1.4-0.8-2.5v-1.9
		c0-1.1,0.3-2,0.8-2.5c0.5-0.6,1.2-0.9,2.1-0.9c0.9,0,1.6,0.3,2.1,0.9s0.8,1.4,0.8,2.5V259.8z M189.9,257.7c0-0.7-0.1-1.2-0.3-1.5
		c-0.2-0.3-0.5-0.5-0.9-0.5c-0.4,0-0.7,0.2-0.9,0.5c-0.2,0.3-0.3,0.8-0.3,1.5v2.2c0,0.7,0.1,1.2,0.3,1.5c0.2,0.3,0.5,0.5,0.9,0.5
		c0.4,0,0.7-0.2,0.9-0.5c0.2-0.3,0.3-0.8,0.3-1.5V257.7z"/>
</g>
<g class="st13">
	<path class="st14" d="M165.3,232.5c0-0.7,0.2-1.3,0.6-1.7s1-0.6,1.7-0.6h0.7c0.7,0,1.2,0.2,1.7,0.6c0.4,0.4,0.6,1,0.6,1.7v2.2h-0.5
		l-0.1-0.6h-4.2l-0.1,0.6h-0.5v-0.6V232.5z M165.9,233.4h4.2v-0.9c0-0.5-0.2-0.9-0.5-1.2s-0.7-0.4-1.2-0.4h-0.7
		c-0.5,0-0.9,0.1-1.2,0.4c-0.3,0.3-0.5,0.7-0.5,1.2V233.4z"/>
	<path class="st14" d="M165.7,228.2v0.7h-0.7v-0.7H165.7z M170.2,229.5l-0.1-0.6h-2.8l-0.1,0.6h-0.5v-1.3h3.4l0.1-0.6h0.5v1.9H170.2
		z"/>
	<path class="st14" d="M168.7,227c-0.6,0-1.1-0.1-1.5-0.4c-0.4-0.3-0.6-0.7-0.6-1.1c0-0.2,0-0.5,0.1-0.7c0.1-0.2,0.2-0.3,0.4-0.5
		l-0.5-0.1v-0.6h3.9c0.5,0,0.9,0.1,1.2,0.4c0.3,0.3,0.4,0.7,0.4,1.2c0,0.2,0,0.4-0.1,0.6c-0.1,0.2-0.1,0.4-0.2,0.6l-0.6-0.2
		c0.1-0.1,0.1-0.3,0.2-0.5c0-0.2,0.1-0.4,0.1-0.5c0-0.3-0.1-0.6-0.3-0.7c-0.2-0.1-0.4-0.2-0.8-0.2h-0.4c0.2,0.1,0.3,0.3,0.4,0.5
		c0.1,0.2,0.1,0.4,0.1,0.6c0,0.5-0.2,0.9-0.5,1.1C169.8,226.9,169.4,227,168.7,227L168.7,227z M168.8,226.3c0.4,0,0.7-0.1,1-0.3
		c0.2-0.2,0.4-0.4,0.4-0.8c0-0.2,0-0.4-0.1-0.5c-0.1-0.1-0.2-0.3-0.4-0.4h-1.8c-0.2,0.1-0.3,0.2-0.4,0.4s-0.1,0.3-0.1,0.5
		c0,0.3,0.1,0.6,0.4,0.8C167.9,226.2,168.3,226.3,168.8,226.3L168.8,226.3z"/>
	<path class="st14" d="M165.7,221.5v0.7h-0.7v-0.7H165.7z M170.2,222.8l-0.1-0.6h-2.8l-0.1,0.6h-0.5v-1.3h3.4l0.1-0.6h0.5v1.9H170.2
		z"/>
	<path class="st14" d="M165.7,219.1h1v-0.7h0.5v0.7h2.4c0.2,0,0.3,0,0.4-0.1c0.1-0.1,0.1-0.2,0.1-0.3c0-0.1,0-0.1,0-0.2
		c0-0.1,0-0.1,0-0.2l0.5-0.1c0,0.1,0.1,0.2,0.1,0.3c0,0.1,0,0.3,0,0.4c0,0.3-0.1,0.5-0.3,0.7c-0.2,0.2-0.5,0.3-0.8,0.3h-2.4v0.6
		h-0.5v-0.6h-1V219.1z"/>
	<path class="st14" d="M170.6,215c-0.1,0-0.2,0-0.3,0.1c-0.1,0-0.2,0-0.3,0c0.2,0.1,0.3,0.3,0.4,0.5c0.1,0.2,0.2,0.4,0.2,0.7
		c0,0.4-0.1,0.7-0.3,0.9c-0.2,0.2-0.5,0.3-0.8,0.3c-0.4,0-0.7-0.2-0.9-0.5s-0.3-0.7-0.3-1.2v-0.7h-0.5c-0.2,0-0.4,0.1-0.5,0.2
		c-0.1,0.1-0.2,0.3-0.2,0.6c0,0.2,0,0.3,0.1,0.5c0,0.1,0.1,0.2,0.2,0.3l0.4,0.1v0.6h-0.8c-0.1-0.2-0.3-0.4-0.3-0.7
		c-0.1-0.3-0.1-0.5-0.1-0.8c0-0.4,0.1-0.8,0.3-1.1c0.2-0.3,0.6-0.4,1-0.4h1.9c0.1,0,0.1,0,0.1,0c0,0,0.1,0,0.1,0l0-0.3h0.5V215z
		 M170.1,216.2c0-0.2-0.1-0.5-0.2-0.7c-0.1-0.2-0.3-0.3-0.4-0.4h-0.6v0.8c0,0.3,0.1,0.5,0.2,0.7c0.1,0.2,0.3,0.3,0.5,0.3
		c0.2,0,0.3-0.1,0.4-0.2S170.1,216.4,170.1,216.2z"/>
	<path class="st14" d="M165.4,213.6h-0.5v-1.3h5.1l0.1-0.6h0.5v1.9h-0.5l-0.1-0.6h-4.6L165.4,213.6z"/>
	<path class="st14" d="M165.8,209.4h-0.5v-1.9h0.5l0.1,0.6h4.2l0.1-0.6h0.5v1.9h-0.5l-0.1-0.6h-4.2L165.8,209.4z"/>
	<path class="st14" d="M171.1,206.6v0.6l-5.8-2.2v-0.6L171.1,206.6z"/>
</g>
<g class="st13">
	<path class="st14" d="M168,199.2c0.8,0,1.4,0.2,1.9,0.7c0.5,0.4,0.8,1,0.8,1.7c0,0.7-0.3,1.2-0.8,1.7c-0.5,0.4-1.2,0.6-1.9,0.6
		h-0.1c-0.8,0-1.4-0.2-1.9-0.6c-0.5-0.4-0.8-1-0.8-1.7c0-0.7,0.3-1.3,0.8-1.7C166.5,199.4,167.2,199.2,168,199.2L168,199.2z
		 M167.9,199.9c-0.6,0-1.1,0.1-1.5,0.4s-0.6,0.7-0.6,1.2c0,0.5,0.2,0.9,0.6,1.2c0.4,0.3,0.9,0.4,1.5,0.4h0.1c0.6,0,1.1-0.1,1.5-0.4
		c0.4-0.3,0.6-0.7,0.6-1.2c0-0.5-0.2-0.9-0.6-1.2C169.2,200.1,168.6,199.9,167.9,199.9L167.9,199.9z"/>
</g>
<g class="st13">
	<path class="st14" d="M170.4,198.2c0.2,0,0.5,0.1,0.7,0.2c0.3,0.1,0.5,0.3,0.6,0.5l-0.3,0.4c-0.2-0.1-0.4-0.2-0.5-0.3
		c-0.2-0.1-0.4-0.1-0.6-0.1h-0.6v-0.7H170.4z"/>
	<path class="st14" d="M170.2,193.9l-0.1-0.4l-4.8-1.9v-0.6l4.8-1.8l0.1-0.4h0.5v1.5h-0.5l-0.1-0.4l-1,0.4v2.1l1,0.4l0.1-0.4h0.5
		v1.5H170.2z M168.5,192.2v-1.7l-2.3,0.8v0L168.5,192.2z"/>
	<path class="st14" d="M170.2,188.4l-0.1-0.6h-2.8l-0.1,0.6h-0.5v-1.2l0.6-0.1c-0.2-0.1-0.4-0.3-0.5-0.5c-0.1-0.2-0.2-0.4-0.2-0.7
		c0-0.4,0.1-0.8,0.4-1s0.6-0.4,1.2-0.4h1.9l0.1-0.6h0.5v1.9h-0.5l-0.1-0.6h-1.9c-0.3,0-0.6,0.1-0.7,0.2c-0.1,0.1-0.2,0.3-0.2,0.6
		c0,0.2,0,0.4,0.1,0.5c0.1,0.2,0.2,0.3,0.4,0.4h2.3l0.1-0.6h0.5v1.9H170.2z"/>
	<path class="st14" d="M170.6,181c-0.1,0-0.2,0-0.3,0.1c-0.1,0-0.2,0-0.3,0c0.2,0.1,0.3,0.3,0.4,0.5c0.1,0.2,0.2,0.4,0.2,0.7
		c0,0.4-0.1,0.7-0.3,0.9c-0.2,0.2-0.5,0.3-0.8,0.3c-0.4,0-0.7-0.2-0.9-0.5s-0.3-0.7-0.3-1.2V181h-0.5c-0.2,0-0.4,0.1-0.5,0.2
		c-0.1,0.1-0.2,0.3-0.2,0.6c0,0.2,0,0.3,0.1,0.5c0,0.1,0.1,0.2,0.2,0.3l0.4,0.1v0.6h-0.8c-0.1-0.2-0.3-0.4-0.3-0.7
		c-0.1-0.3-0.1-0.5-0.1-0.8c0-0.4,0.1-0.8,0.3-1.1s0.6-0.4,1-0.4h1.9c0.1,0,0.1,0,0.1,0c0,0,0.1,0,0.1,0l0-0.3h0.5V181z
		 M170.1,182.1c0-0.2-0.1-0.5-0.2-0.7s-0.3-0.3-0.4-0.4h-0.6v0.8c0,0.3,0.1,0.5,0.2,0.7c0.1,0.2,0.3,0.3,0.5,0.3
		c0.2,0,0.3-0.1,0.4-0.2S170.1,182.3,170.1,182.1z"/>
</g>
<g class="st13">
	<path class="st14" d="M165.4,179.5h-0.5v-1.3h5.1l0.1-0.6h0.5v1.9h-0.5l-0.1-0.6h-4.6L165.4,179.5z"/>
</g>
<g class="st13">
	<path class="st14" d="M168.6,177.1c-0.6,0-1.1-0.2-1.4-0.5c-0.4-0.3-0.6-0.7-0.6-1.3c0-0.5,0.2-1,0.6-1.3s0.9-0.5,1.4-0.5h0.1
		c0.6,0,1.1,0.2,1.4,0.5c0.4,0.3,0.6,0.7,0.6,1.3c0,0.5-0.2,1-0.6,1.3C169.8,177,169.3,177.1,168.6,177.1L168.6,177.1z M168.7,176.4
		c0.4,0,0.8-0.1,1-0.3c0.3-0.2,0.4-0.4,0.4-0.8c0-0.3-0.1-0.6-0.4-0.8s-0.6-0.3-1-0.3h-0.1c-0.4,0-0.8,0.1-1,0.3s-0.4,0.4-0.4,0.8
		s0.1,0.6,0.4,0.8C167.9,176.3,168.2,176.4,168.7,176.4L168.7,176.4z"/>
	<path class="st14" d="M168.7,173c-0.6,0-1.1-0.1-1.5-0.4c-0.4-0.3-0.6-0.7-0.6-1.1c0-0.2,0-0.5,0.1-0.7c0.1-0.2,0.2-0.3,0.4-0.5
		l-0.5-0.1v-0.6h3.9c0.5,0,0.9,0.1,1.2,0.4c0.3,0.3,0.4,0.7,0.4,1.2c0,0.2,0,0.4-0.1,0.6c-0.1,0.2-0.1,0.4-0.2,0.6l-0.6-0.2
		c0.1-0.1,0.1-0.3,0.2-0.5s0.1-0.4,0.1-0.5c0-0.3-0.1-0.6-0.3-0.7c-0.2-0.1-0.4-0.2-0.8-0.2h-0.4c0.2,0.1,0.3,0.3,0.4,0.5
		s0.1,0.4,0.1,0.6c0,0.5-0.2,0.9-0.5,1.1C169.8,172.8,169.4,173,168.7,173L168.7,173z M168.8,172.2c0.4,0,0.7-0.1,1-0.3
		c0.2-0.2,0.4-0.4,0.4-0.8c0-0.2,0-0.4-0.1-0.5c-0.1-0.1-0.2-0.3-0.4-0.4h-1.8c-0.2,0.1-0.3,0.2-0.4,0.4s-0.1,0.3-0.1,0.5
		c0,0.3,0.1,0.6,0.4,0.8C167.9,172.1,168.3,172.2,168.8,172.2L168.8,172.2z"/>
	<path class="st14" d="M165.8,166.9h-0.5V165h0.5l0.1,0.6h4.2l0.1-0.6h0.5v1.9h-0.5l-0.1-0.6h-4.2L165.8,166.9z"/>
	<path class="st14" d="M170.2,164.6l-0.1-0.6h-2.8l-0.1,0.6h-0.5v-1.2l0.6-0.1c-0.2-0.1-0.4-0.3-0.5-0.5c-0.1-0.2-0.2-0.4-0.2-0.7
		c0-0.4,0.1-0.8,0.4-1c0.2-0.2,0.6-0.4,1.2-0.4h1.9l0.1-0.6h0.5v1.9h-0.5l-0.1-0.6h-1.9c-0.3,0-0.6,0.1-0.7,0.2
		c-0.1,0.1-0.2,0.3-0.2,0.6c0,0.2,0,0.4,0.1,0.5s0.2,0.3,0.4,0.4h2.3l0.1-0.6h0.5v1.9H170.2z"/>
	<path class="st14" d="M170.4,158.8c0.2,0,0.5,0.1,0.7,0.2c0.3,0.1,0.5,0.3,0.6,0.5l-0.3,0.4c-0.2-0.1-0.4-0.2-0.5-0.3
		c-0.2-0.1-0.4-0.1-0.6-0.1h-0.6v-0.7H170.4z"/>
	<path class="st14" d="M170.6,153.7c-0.1,0-0.2,0-0.3,0.1s-0.2,0-0.3,0c0.2,0.1,0.3,0.3,0.4,0.5c0.1,0.2,0.2,0.4,0.2,0.7
		c0,0.4-0.1,0.7-0.3,0.9c-0.2,0.2-0.5,0.3-0.8,0.3c-0.4,0-0.7-0.2-0.9-0.5s-0.3-0.7-0.3-1.2v-0.7h-0.5c-0.2,0-0.4,0.1-0.5,0.2
		s-0.2,0.3-0.2,0.6c0,0.2,0,0.3,0.1,0.5c0,0.1,0.1,0.2,0.2,0.3l0.4,0.1v0.6h-0.8c-0.1-0.2-0.3-0.4-0.3-0.7c-0.1-0.3-0.1-0.5-0.1-0.8
		c0-0.4,0.1-0.8,0.3-1.1c0.2-0.3,0.6-0.4,1-0.4h1.9c0.1,0,0.1,0,0.1,0s0.1,0,0.1,0l0-0.3h0.5V153.7z M170.1,154.9
		c0-0.2-0.1-0.5-0.2-0.7s-0.3-0.3-0.4-0.4h-0.6v0.8c0,0.3,0.1,0.5,0.2,0.7c0.1,0.2,0.3,0.3,0.5,0.3c0.2,0,0.3-0.1,0.4-0.2
		C170.1,155.3,170.1,155.1,170.1,154.9z"/>
</g>
<g class="st13">
	<path class="st14" d="M170.2,152.3l-0.1-0.6h-2.8l-0.1,0.6h-0.5v-1.2l0.6-0.1c-0.2-0.1-0.4-0.3-0.5-0.5c-0.1-0.2-0.2-0.4-0.2-0.7
		c0-0.4,0.1-0.8,0.4-1c0.2-0.2,0.6-0.4,1.2-0.4h1.9l0.1-0.6h0.5v1.9h-0.5l-0.1-0.6h-1.9c-0.3,0-0.6,0.1-0.7,0.2
		c-0.1,0.1-0.2,0.3-0.2,0.6c0,0.2,0,0.4,0.1,0.5s0.2,0.3,0.4,0.4h2.3l0.1-0.6h0.5v1.9H170.2z"/>
</g>
<g class="st13">
	<path class="st14" d="M170.2,144.8c0.2,0.1,0.3,0.3,0.4,0.5c0.1,0.2,0.1,0.4,0.1,0.6c0,0.5-0.2,0.9-0.5,1.1
		c-0.3,0.3-0.8,0.4-1.4,0.4h-0.1c-0.6,0-1.1-0.1-1.5-0.4c-0.4-0.3-0.6-0.7-0.6-1.1c0-0.2,0-0.4,0.1-0.6c0.1-0.2,0.2-0.3,0.4-0.5
		h-1.6l-0.1,0.6h-0.5v-0.6v-0.7h5.1l0.1-0.6h0.5v1.2L170.2,144.8z M168.8,146.7c0.4,0,0.7-0.1,1-0.2c0.2-0.2,0.4-0.4,0.4-0.8
		c0-0.2,0-0.4-0.1-0.5c-0.1-0.1-0.2-0.3-0.4-0.4h-1.8c-0.2,0.1-0.3,0.2-0.4,0.4s-0.1,0.3-0.1,0.5c0,0.3,0.1,0.6,0.4,0.8
		C167.9,146.6,168.3,146.7,168.8,146.7L168.8,146.7z"/>
	<path class="st14" d="M166.9,137.3v0.5l-0.8,0.1c-0.1,0.1-0.2,0.3-0.2,0.4c-0.1,0.2-0.1,0.4-0.1,0.6c0,0.4,0.1,0.7,0.2,0.9
		c0.2,0.2,0.4,0.3,0.6,0.3c0.2,0,0.4-0.1,0.6-0.3s0.3-0.5,0.4-1c0.1-0.6,0.3-1,0.6-1.3c0.3-0.3,0.6-0.4,1-0.4c0.4,0,0.8,0.2,1,0.5
		c0.3,0.3,0.4,0.8,0.4,1.4c0,0.4-0.1,0.8-0.2,1.1s-0.3,0.6-0.5,0.8h-1v-0.5l0.8-0.1c0.1-0.1,0.2-0.3,0.3-0.5
		c0.1-0.2,0.1-0.4,0.1-0.7c0-0.4-0.1-0.6-0.2-0.9c-0.2-0.2-0.4-0.3-0.6-0.3c-0.2,0-0.4,0.1-0.6,0.3c-0.2,0.2-0.3,0.5-0.4,1
		c-0.1,0.6-0.3,1-0.6,1.3c-0.3,0.3-0.6,0.5-1,0.5c-0.4,0-0.8-0.2-1-0.5c-0.3-0.4-0.4-0.8-0.4-1.4c0-0.4,0.1-0.7,0.2-1
		c0.1-0.3,0.3-0.5,0.5-0.7H166.9z"/>
	<path class="st14" d="M168.6,136.6c-0.6,0-1.1-0.2-1.4-0.5c-0.4-0.3-0.6-0.7-0.6-1.3c0-0.5,0.2-1,0.6-1.3c0.4-0.3,0.9-0.5,1.4-0.5
		h0.1c0.6,0,1.1,0.2,1.4,0.5c0.4,0.3,0.6,0.7,0.6,1.3c0,0.5-0.2,1-0.6,1.3C169.8,136.4,169.3,136.6,168.6,136.6L168.6,136.6z
		 M168.7,135.8c0.4,0,0.8-0.1,1-0.3s0.4-0.4,0.4-0.8c0-0.3-0.1-0.6-0.4-0.8c-0.3-0.2-0.6-0.3-1-0.3h-0.1c-0.4,0-0.8,0.1-1,0.3
		c-0.3,0.2-0.4,0.4-0.4,0.8s0.1,0.6,0.4,0.8C167.9,135.7,168.2,135.8,168.7,135.8L168.7,135.8z"/>
	<path class="st14" d="M167.2,132.4h-0.5v-0.6h-0.5c-0.4,0-0.7-0.1-1-0.3c-0.2-0.2-0.3-0.5-0.3-0.9c0-0.1,0-0.2,0-0.2
		c0-0.1,0-0.2,0.1-0.3l0.5,0.1c0,0,0,0.1,0,0.2c0,0.1,0,0.1,0,0.2c0,0.2,0.1,0.4,0.2,0.5c0.1,0.1,0.3,0.2,0.5,0.2h0.5v-0.8h0.5v0.8
		h2.9l0.1-0.6h0.5v1.9h-0.5l-0.1-0.6h-2.9V132.4z"/>
	<path class="st14" d="M165.7,128.5h1v-0.7h0.5v0.7h2.4c0.2,0,0.3,0,0.4-0.1c0.1-0.1,0.1-0.2,0.1-0.3c0-0.1,0-0.1,0-0.2
		c0-0.1,0-0.1,0-0.2l0.5-0.1c0,0.1,0.1,0.2,0.1,0.3c0,0.1,0,0.3,0,0.4c0,0.3-0.1,0.5-0.3,0.7c-0.2,0.2-0.5,0.3-0.8,0.3h-2.4v0.6
		h-0.5v-0.6h-1V128.5z"/>
	<path class="st14" d="M168.7,125v1.8h-0.6V125H168.7z"/>
	<path class="st14" d="M165.3,121.7c0-0.6,0.1-1,0.4-1.3s0.7-0.5,1.2-0.5c0.5,0,0.9,0.2,1.2,0.5c0.3,0.3,0.4,0.8,0.4,1.3v1.1h1.6
		l0.1-0.6h0.5v1.9h-0.5l-0.1-0.6h-4.2l-0.1,0.6h-0.5v-0.6V121.7z M167.9,122.8v-1.1c0-0.4-0.1-0.6-0.3-0.8s-0.4-0.3-0.7-0.3
		s-0.5,0.1-0.7,0.3c-0.2,0.2-0.3,0.4-0.3,0.8v1.1H167.9z"/>
	<path class="st14" d="M165.8,117.9l0.1,0.5l2.9-0.7l0.7-0.1l0,0l-0.7-0.1l-3.5-1v-0.6l3.5-1l0.7-0.1v0l-0.7-0.1l-2.9-0.7l-0.1,0.5
		h-0.5v-1.7h0.5l0.1,0.4l4.8,1.2v0.6l-3.7,1.1l-0.5,0.1v0l0.5,0.1l3.7,1.1v0.6l-4.8,1.2l-0.1,0.4h-0.5v-1.7H165.8z"/>
	<path class="st14" d="M166.4,107.2L166.4,107.2l4.3,1.7v0.5l-4.3,1.7l0,0l2.1-0.1h1.5l0.1-0.6h0.5v1.9h-0.5l-0.1-0.6h-4.2l-0.1,0.6
		h-0.5v-0.6v-0.9l4.3-1.7v0l-4.3-1.7V106h0.5l0.1,0.6h4.2l0.1-0.6h0.5v1.9h-0.5l-0.1-0.6h-1.5L166.4,107.2z"/>
</g>
<path class="st15" d="M323.8,267.1v-3.3c-0.2-0.1-0.4-0.2-0.6-0.3l-0.1-0.1l-0.3-0.2c-2.2-1.6-2.7-4.8-1.1-7
	c0.3-0.4,0.7-0.8,1.1-1.1l0.3-0.2l0.1-0.1c0.2-0.1,0.4-0.2,0.6-0.3V244c-2.6-1.1-3.7-4.1-2.6-6.7c0.5-1.2,1.4-2.1,2.6-2.6v-10.5
	c-2.6-1.1-3.7-4.1-2.6-6.7c0.5-1.2,1.4-2.1,2.6-2.6v-10.5c-2.6-1.1-3.7-4.1-2.6-6.7c0.5-1.2,1.4-2.1,2.6-2.6v-10.5
	c-2.6-1.1-3.7-4.1-2.6-6.7c0.5-1.2,1.4-2.1,2.6-2.6v-10.5c-2.6-1.1-3.7-4.1-2.6-6.7c0.5-1.2,1.4-2.1,2.6-2.6V145
	c-2.6-1.1-3.7-4.1-2.6-6.7c0.5-1.2,1.4-2.1,2.6-2.6v-10.5c-2.6-1.1-3.7-4.1-2.6-6.7c0.5-1.2,1.4-2.1,2.6-2.6v-10.5
	c-2.6-1.1-3.7-4.1-2.6-6.7c0.5-1.2,1.4-2.1,2.6-2.6V85.6c-2.6-1.1-3.7-4.1-2.6-6.7c0.5-1.2,1.4-2.1,2.6-2.6V65.8
	c-2.6-1.1-3.7-4.1-2.6-6.7c0.5-1.2,1.4-2.1,2.6-2.6V46c-2.6-1.1-3.7-4.1-2.6-6.7c0.5-1.2,1.4-2.1,2.6-2.6V26.2
	c-0.2-0.1-0.4-0.2-0.6-0.3l-0.1-0.1l-0.3-0.2c-2.2-1.6-2.7-4.8-1.1-7c0.3-0.4,0.7-0.8,1.1-1.1l0.3-0.2l0.1-0.1
	c0.2-0.1,0.4-0.2,0.6-0.3v-5.3H209v5.2h0.1c2.6,1.1,3.8,4,2.7,6.5c-0.5,1.2-1.5,2.2-2.7,2.7H209v10.6c2.6,1.1,3.7,4.1,2.6,6.7
	c-0.5,1.1-1.4,2.1-2.6,2.6v10.5c2.6,1.1,3.7,4.1,2.6,6.7c-0.5,1.2-1.4,2.1-2.6,2.6v10.5c2.6,1.1,3.7,4.1,2.6,6.7
	c-0.5,1.2-1.4,2.1-2.6,2.6v10.5c2.6,1.1,3.7,4.1,2.6,6.7c-0.5,1.2-1.4,2.1-2.6,2.6v10.5c2.6,1.1,3.7,4.1,2.6,6.7
	c-0.5,1.2-1.4,2.1-2.6,2.6v10.5c2.6,1.1,3.7,4.1,2.6,6.7c-0.5,1.2-1.4,2.1-2.6,2.6v10.5c2.6,1.1,3.7,4.1,2.6,6.7
	c-0.5,1.2-1.4,2.1-2.6,2.6v10.5c2.6,1.1,3.7,4.1,2.6,6.7c-0.5,1.2-1.4,2.1-2.6,2.6v10.5c2.6,1.1,3.7,4.1,2.6,6.7
	c-0.5,1.2-1.4,2.1-2.6,2.6v10.5c2.6,1.1,3.7,4.1,2.6,6.7c-0.5,1.2-1.4,2.1-2.6,2.6v10.5c2.6,1.1,3.7,4.1,2.6,6.7
	c-0.5,1.2-1.4,2.1-2.6,2.6v10.5h0.1c2.6,1.1,3.8,4,2.7,6.5c-0.5,1.2-1.5,2.2-2.7,2.7H209v3.3L323.8,267.1z M319.4,21.6
	c0,1.9-1.6,3.5-3.5,3.5c-1.9,0-3.5-1.6-3.5-3.5s1.6-3.5,3.5-3.5S319.4,19.6,319.4,21.6C319.4,21.6,319.4,21.6,319.4,21.6z
	 M213.4,21.6c0-1.9,1.6-3.5,3.5-3.5c1.9,0,3.5,1.6,3.5,3.5s-1.6,3.5-3.5,3.5l0,0C215,25.1,213.4,23.5,213.4,21.6L213.4,21.6z
	 M229.9,31V20.8c0-1.5,1.2-2.7,2.7-2.7c1.5,0,2.7,1.2,2.7,2.7V31c0,1.5-1.2,2.7-2.7,2.7C231.1,33.7,229.9,32.5,229.9,31z M297.4,31
	V20.8c0-1.5,1.2-2.7,2.7-2.7c1.5,0,2.7,1.2,2.7,2.7c0,0,0,0,0,0V31c0,1.5-1.2,2.7-2.7,2.7C298.6,33.7,297.4,32.5,297.4,31
	C297.4,31,297.4,31,297.4,31z M213.4,41.3c0-1.9,1.6-3.5,3.5-3.5s3.5,1.6,3.5,3.5s-1.6,3.5-3.5,3.5l0,0
	C215,44.8,213.4,43.3,213.4,41.3L213.4,41.3z M312.4,41.3c0-1.9,1.6-3.5,3.5-3.5c1.9,0,3.5,1.6,3.5,3.5s-1.6,3.5-3.5,3.5
	C314,44.9,312.4,43.3,312.4,41.3L312.4,41.3z M319.4,61.1c0,1.9-1.6,3.5-3.5,3.5c-1.9,0-3.5-1.6-3.5-3.5s1.6-3.5,3.5-3.5
	C317.8,57.6,319.4,59.2,319.4,61.1C319.4,61.2,319.4,61.2,319.4,61.1L319.4,61.1z M213.4,61.1c0-1.9,1.6-3.5,3.5-3.5
	s3.5,1.6,3.5,3.5s-1.6,3.5-3.5,3.5l0,0C215,64.6,213.4,63.1,213.4,61.1L213.4,61.1z M229.9,70.4V60.2c0-1.5,1.2-2.7,2.7-2.7
	c1.5,0,2.7,1.2,2.7,2.7v10.2c0,1.5-1.2,2.7-2.7,2.7C231.1,73.1,229.9,71.9,229.9,70.4L229.9,70.4z M297.4,70.4V60.2
	c0-1.5,1.2-2.7,2.7-2.7c1.5,0,2.7,1.2,2.7,2.7c0,0,0,0,0,0v10.2c0,1.5-1.2,2.7-2.7,2.7C298.6,73.1,297.4,72,297.4,70.4
	C297.4,70.5,297.4,70.5,297.4,70.4L297.4,70.4z M213.4,81c0-1.9,1.6-3.5,3.5-3.5c1.9,0,3.5,1.6,3.5,3.5c0,1.9-1.6,3.5-3.5,3.5l0,0
	C215,84.5,213.4,82.9,213.4,81z M312.4,81c0-1.9,1.6-3.5,3.5-3.5c1.9,0,3.5,1.6,3.5,3.5c0,1.9-1.6,3.5-3.5,3.5
	C314,84.5,312.4,83,312.4,81C312.4,81,312.4,81,312.4,81L312.4,81z M213.4,100.8c0-1.9,1.6-3.5,3.5-3.5c1.9,0,3.5,1.6,3.5,3.5
	c0,1.9-1.6,3.5-3.5,3.5l0,0C215,104.3,213.4,102.7,213.4,100.8C213.4,100.8,213.4,100.8,213.4,100.8L213.4,100.8z M312.4,100.8
	c0-1.9,1.6-3.5,3.5-3.5c1.9,0,3.5,1.6,3.5,3.5c0,1.9-1.6,3.5-3.5,3.5C314,104.3,312.4,102.8,312.4,100.8
	C312.4,100.8,312.4,100.8,312.4,100.8L312.4,100.8z M213.4,120.6c0-1.9,1.6-3.5,3.5-3.5c1.9,0,3.5,1.6,3.5,3.5
	c0,1.9-1.6,3.5-3.5,3.5l0,0C215,124.1,213.4,122.5,213.4,120.6C213.4,120.6,213.4,120.6,213.4,120.6L213.4,120.6z M312.4,120.6
	c0-1.9,1.6-3.5,3.5-3.5c1.9,0,3.5,1.6,3.5,3.5c0,1.9-1.6,3.5-3.5,3.5C314,124.1,312.4,122.6,312.4,120.6
	C312.4,120.6,312.4,120.6,312.4,120.6L312.4,120.6z M213.4,140.4c0-1.9,1.6-3.5,3.5-3.5s3.5,1.6,3.5,3.5s-1.6,3.5-3.5,3.5
	c0,0,0,0,0,0C215,143.9,213.4,142.3,213.4,140.4C213.4,140.4,213.4,140.4,213.4,140.4L213.4,140.4z M312.4,140.4
	c0-1.9,1.6-3.5,3.5-3.5c1.9,0,3.5,1.6,3.5,3.5s-1.6,3.5-3.5,3.5C314,143.9,312.4,142.4,312.4,140.4
	C312.4,140.4,312.4,140.4,312.4,140.4L312.4,140.4z M213.4,160.2c0-1.9,1.6-3.5,3.5-3.5s3.5,1.6,3.5,3.5s-1.6,3.5-3.5,3.5
	c0,0,0,0,0,0C215,163.7,213.4,162.1,213.4,160.2C213.4,160.2,213.4,160.2,213.4,160.2L213.4,160.2z M312.4,160.2
	c0-1.9,1.6-3.5,3.5-3.5c1.9,0,3.5,1.6,3.5,3.5s-1.6,3.5-3.5,3.5C314,163.7,312.4,162.2,312.4,160.2
	C312.4,160.2,312.4,160.2,312.4,160.2L312.4,160.2z M213.4,180c0-1.9,1.6-3.5,3.5-3.5s3.5,1.6,3.5,3.5s-1.6,3.5-3.5,3.5c0,0,0,0,0,0
	C215,183.5,213.4,181.9,213.4,180L213.4,180L213.4,180z M312.4,180c0-1.9,1.6-3.5,3.5-3.5c1.9,0,3.5,1.6,3.5,3.5s-1.6,3.5-3.5,3.5
	C314,183.5,312.4,182,312.4,180C312.4,180,312.4,180,312.4,180L312.4,180z M213.4,199.8c0-1.9,1.6-3.5,3.5-3.5s3.5,1.6,3.5,3.5
	s-1.6,3.5-3.5,3.5c0,0,0,0,0,0C215,203.3,213.4,201.7,213.4,199.8C213.4,199.8,213.4,199.8,213.4,199.8L213.4,199.8z M312.4,199.8
	c0-1.9,1.6-3.5,3.5-3.5c1.9,0,3.5,1.6,3.5,3.5s-1.6,3.5-3.5,3.5C314,203.3,312.4,201.8,312.4,199.8
	C312.4,199.8,312.4,199.8,312.4,199.8L312.4,199.8z M213.4,219.6c0-1.9,1.6-3.5,3.5-3.5s3.5,1.6,3.5,3.5s-1.6,3.5-3.5,3.5
	c0,0,0,0,0,0C215,223.1,213.4,221.5,213.4,219.6C213.4,219.6,213.4,219.6,213.4,219.6L213.4,219.6z M312.4,219.6
	c0-1.9,1.6-3.5,3.5-3.5c1.9,0,3.5,1.6,3.5,3.5s-1.6,3.5-3.5,3.5C314,223.1,312.4,221.6,312.4,219.6
	C312.4,219.6,312.4,219.6,312.4,219.6L312.4,219.6z M213.4,239.4c0-1.9,1.6-3.5,3.5-3.5s3.5,1.6,3.5,3.5s-1.6,3.5-3.5,3.5
	c0,0,0,0,0,0C215,242.9,213.4,241.3,213.4,239.4C213.4,239.4,213.4,239.4,213.4,239.4L213.4,239.4z M312.4,239.4
	c0-1.9,1.6-3.5,3.5-3.5c1.9,0,3.5,1.6,3.5,3.5s-1.6,3.5-3.5,3.5C314,242.9,312.4,241.4,312.4,239.4
	C312.4,239.4,312.4,239.4,312.4,239.4L312.4,239.4z M213.4,259.2c0-1.9,1.6-3.5,3.5-3.5c1.9,0,3.5,1.6,3.5,3.5
	c0,1.9-1.6,3.5-3.5,3.5C215,262.7,213.4,261.1,213.4,259.2C213.4,259.2,213.4,259.2,213.4,259.2L213.4,259.2z M312.4,259.2
	c0-1.9,1.6-3.5,3.5-3.5c1.9,0,3.5,1.6,3.5,3.5c0,1.9-1.6,3.5-3.5,3.5C314,262.7,312.4,261.2,312.4,259.2
	C312.4,259.2,312.4,259.2,312.4,259.2L312.4,259.2z"/>
<path class="st16" d="M312.4,21.6c0-1.9,1.6-3.5,3.5-3.5c1.9,0,3.5,1.6,3.5,3.5s-1.6,3.5-3.5,3.5S312.4,23.5,312.4,21.6
	C312.4,21.6,312.4,21.6,312.4,21.6z M323.8,26.1c-2.5-1-3.7-3.9-2.7-6.4c0.5-1.2,1.5-2.2,2.7-2.7v-1.6h-14.5v12.4h14.5V26.1z"/>
<path class="st16" d="M312.4,41.4c0-1.9,1.6-3.5,3.5-3.5c1.9,0,3.5,1.6,3.5,3.5s-1.6,3.5-3.5,3.5S312.4,43.3,312.4,41.4
	C312.4,41.4,312.4,41.4,312.4,41.4z M323.8,46c-2.5-1-3.7-3.9-2.7-6.4c0.5-1.2,1.5-2.2,2.7-2.7v-1.6h-14.5v12.4h14.5V46z"/>
<path class="st16" d="M312.4,61.2c0-1.9,1.6-3.5,3.5-3.5c1.9,0,3.5,1.6,3.5,3.5c0,1.9-1.6,3.5-3.5,3.5S312.4,63.1,312.4,61.2
	C312.4,61.2,312.4,61.2,312.4,61.2z M323.8,65.8c-2.5-1-3.7-3.9-2.7-6.4c0.5-1.2,1.5-2.2,2.7-2.7V55h-14.5v12.4h14.5V65.8z"/>
<path class="st16" d="M312.4,81c0-1.9,1.6-3.5,3.5-3.5c1.9,0,3.5,1.6,3.5,3.5c0,1.9-1.6,3.5-3.5,3.5S312.4,82.9,312.4,81
	C312.4,81,312.4,81,312.4,81z M323.8,85.6c-2.5-1-3.7-3.9-2.7-6.4c0.5-1.2,1.5-2.2,2.7-2.7v-1.6h-14.5v12.4h14.5V85.6z"/>
<path class="st16" d="M312.4,100.8c0-1.9,1.6-3.5,3.5-3.5c1.9,0,3.5,1.6,3.5,3.5c0,1.9-1.6,3.5-3.5,3.5S312.4,102.7,312.4,100.8
	C312.4,100.8,312.4,100.8,312.4,100.8z M323.8,105.3c-2.5-1-3.7-3.9-2.7-6.4c0.5-1.2,1.5-2.2,2.7-2.7v-1.6h-14.5V107h14.5V105.3z"/>
<path class="st16" d="M312.4,120.6c0-1.9,1.6-3.5,3.5-3.5c1.9,0,3.5,1.6,3.5,3.5c0,1.9-1.6,3.5-3.5,3.5S312.4,122.5,312.4,120.6
	C312.4,120.6,312.4,120.6,312.4,120.6z M323.8,125.1c-2.5-1-3.7-3.9-2.7-6.4c0.5-1.2,1.5-2.2,2.7-2.7v-1.6h-14.5v12.4h14.5V125.1z"
	/>
<path class="st16" d="M312.4,140.4c0-1.9,1.6-3.5,3.5-3.5c1.9,0,3.5,1.6,3.5,3.5s-1.6,3.5-3.5,3.5S312.4,142.3,312.4,140.4
	L312.4,140.4z M323.8,144.9c-2.5-1-3.7-3.9-2.7-6.4c0.5-1.2,1.5-2.2,2.7-2.7v-1.6h-14.5v12.4h14.5V144.9z"/>
<path class="st16" d="M312.4,160.2c0-1.9,1.6-3.5,3.5-3.5c1.9,0,3.5,1.6,3.5,3.5s-1.6,3.5-3.5,3.5S312.4,162.1,312.4,160.2
	L312.4,160.2z M323.8,164.7c-2.5-1-3.7-3.9-2.7-6.4c0.5-1.2,1.5-2.2,2.7-2.7V154h-14.5v12.4h14.5V164.7z"/>
<path class="st16" d="M312.4,180c0-1.9,1.6-3.5,3.5-3.5c1.9,0,3.5,1.6,3.5,3.5s-1.6,3.5-3.5,3.5S312.4,181.9,312.4,180L312.4,180z
	 M323.8,184.6c-2.5-1-3.7-3.9-2.7-6.4c0.5-1.2,1.5-2.2,2.7-2.7v-1.6h-14.5v12.4h14.5V184.6z"/>
<path class="st16" d="M312.4,199.8c0-1.9,1.6-3.5,3.5-3.5c1.9,0,3.5,1.6,3.5,3.5s-1.6,3.5-3.5,3.5S312.4,201.7,312.4,199.8
	L312.4,199.8z M323.8,204.3c-2.5-1-3.7-3.9-2.7-6.4c0.5-1.2,1.5-2.2,2.7-2.7v-1.6h-14.5v12.4h14.5V204.3z"/>
<path class="st16" d="M312.4,219.6c0-1.9,1.6-3.5,3.5-3.5c1.9,0,3.5,1.6,3.5,3.5s-1.6,3.5-3.5,3.5S312.4,221.5,312.4,219.6
	L312.4,219.6z M323.8,224.1c-2.5-1-3.7-3.9-2.7-6.4c0.5-1.2,1.5-2.2,2.7-2.7v-1.6h-14.5v12.4h14.5V224.1z"/>
<path class="st16" d="M312.4,239.4c0-1.9,1.6-3.5,3.5-3.5c1.9,0,3.5,1.6,3.5,3.5s-1.6,3.5-3.5,3.5S312.4,241.3,312.4,239.4
	L312.4,239.4z M323.8,243.9c-2.5-1-3.7-3.9-2.7-6.4c0.5-1.2,1.5-2.2,2.7-2.7v-1.6h-14.5v12.4h14.5V243.9z"/>
<path class="st16" d="M312.4,259.1c0-1.9,1.6-3.5,3.5-3.5c1.9,0,3.5,1.6,3.5,3.5c0,1.9-1.6,3.5-3.5,3.5S312.4,261.1,312.4,259.1
	C312.4,259.1,312.4,259.1,312.4,259.1z M323.8,263.7c-2.5-1-3.7-3.9-2.7-6.4c0.5-1.2,1.5-2.2,2.7-2.7V253h-14.5v12.4h14.5V263.7z"/>
<path class="st16" d="M220.4,259.2c0,1.9-1.6,3.5-3.5,3.5s-3.5-1.6-3.5-3.5c0-1.9,1.6-3.5,3.5-3.5c0,0,0,0,0,0
	C218.8,255.7,220.4,257.2,220.4,259.2z M209,254.6c2.5,1,3.7,3.9,2.7,6.4c-0.5,1.2-1.5,2.2-2.7,2.7v1.6h14.5V253H209V254.6z"/>
<path class="st16" d="M220.4,239.4c0,1.9-1.6,3.5-3.5,3.5s-3.5-1.6-3.5-3.5s1.6-3.5,3.5-3.5c0,0,0,0,0,0
	C218.8,235.9,220.4,237.4,220.4,239.4z M209,234.8c2.5,1,3.7,3.9,2.7,6.4c-0.5,1.2-1.5,2.2-2.7,2.7v1.6h14.5v-12.4H209V234.8z"/>
<path class="st16" d="M220.4,219.6c0,1.9-1.6,3.5-3.5,3.5s-3.5-1.6-3.5-3.5s1.6-3.5,3.5-3.5c0,0,0,0,0,0
	C218.8,216.1,220.4,217.6,220.4,219.6z M209,215c2.5,1,3.7,3.9,2.7,6.4c-0.5,1.2-1.5,2.2-2.7,2.7v1.6h14.5v-12.4H209V215z"/>
<path class="st16" d="M220.4,199.8c0,1.9-1.6,3.5-3.5,3.5s-3.5-1.6-3.5-3.5s1.6-3.5,3.5-3.5c0,0,0,0,0,0
	C218.8,196.3,220.4,197.8,220.4,199.8z M209,195.2c2.5,1,3.7,3.9,2.7,6.4c-0.5,1.2-1.5,2.2-2.7,2.7v1.7h14.5v-12.4H209V195.2z"/>
<path class="st16" d="M220.4,180c0,1.9-1.6,3.5-3.5,3.5s-3.5-1.6-3.5-3.5s1.6-3.5,3.5-3.5c0,0,0,0,0,0
	C218.8,176.5,220.4,178.1,220.4,180z M209,175.4c2.5,1,3.7,3.9,2.7,6.4c-0.5,1.2-1.5,2.2-2.7,2.7v1.6h14.5v-12.4H209V175.4z"/>
<path class="st16" d="M220.4,160.2c0,1.9-1.6,3.5-3.5,3.5s-3.5-1.6-3.5-3.5s1.6-3.5,3.5-3.5c0,0,0,0,0,0
	C218.8,156.7,220.4,158.2,220.4,160.2z M209,155.6c2.5,1,3.7,3.9,2.7,6.4c-0.5,1.2-1.5,2.2-2.7,2.7v1.6h14.5V154H209V155.6z"/>
<path class="st16" d="M220.4,140.4c0,1.9-1.6,3.5-3.5,3.5s-3.5-1.6-3.5-3.5s1.6-3.5,3.5-3.5c0,0,0,0,0,0
	C218.8,136.9,220.4,138.4,220.4,140.4z M209,135.8c2.5,1,3.7,3.9,2.7,6.4c-0.5,1.2-1.5,2.2-2.7,2.7v1.6h14.5v-12.4H209V135.8z"/>
<path class="st16" d="M220.4,120.6c0,1.9-1.6,3.5-3.5,3.5c-1.9,0-3.5-1.6-3.5-3.5c0-1.9,1.6-3.5,3.5-3.5l0,0
	C218.8,117.1,220.4,118.7,220.4,120.6z M209,116c2.5,1,3.7,3.9,2.7,6.4c-0.5,1.2-1.5,2.2-2.7,2.7v1.6h14.5v-12.3H209V116z"/>
<path class="st16" d="M220.4,100.8c0,1.9-1.6,3.5-3.5,3.5c-1.9,0-3.5-1.6-3.5-3.5c0-1.9,1.6-3.5,3.5-3.5l0,0
	C218.8,97.3,220.4,98.9,220.4,100.8z M209,96.2c2.5,1,3.7,3.9,2.7,6.4c-0.5,1.2-1.5,2.2-2.7,2.7v1.7h14.5V94.6H209V96.2z"/>
<path class="st16" d="M220.4,81c0,1.9-1.6,3.5-3.5,3.5c-1.9,0-3.5-1.6-3.5-3.5c0-1.9,1.6-3.5,3.5-3.5l0,0
	C218.8,77.5,220.4,79.1,220.4,81z M209,76.4c2.5,1,3.7,3.9,2.7,6.4c-0.5,1.2-1.5,2.2-2.7,2.7v1.6h14.5V74.8H209V76.4z"/>
<path class="st16" d="M220.4,61.2c0,1.9-1.6,3.5-3.5,3.5c-1.9,0-3.5-1.6-3.5-3.5s1.6-3.5,3.5-3.5l0,0
	C218.8,57.7,220.4,59.3,220.4,61.2z M209,56.6c2.5,1,3.7,3.9,2.7,6.4c-0.5,1.2-1.5,2.2-2.7,2.7v1.6h14.5V55H209V56.6z"/>
<path class="st16" d="M220.4,41.4c0,1.9-1.6,3.5-3.5,3.5s-3.5-1.6-3.5-3.5s1.6-3.5,3.5-3.5l0,0C218.8,37.9,220.4,39.5,220.4,41.4z
	 M209,36.8c2.5,1,3.8,3.9,2.8,6.4c-0.5,1.3-1.5,2.3-2.8,2.8v1.6h14.5V35.2H209V36.8z"/>
<path class="st16" d="M220.4,21.6c0,1.9-1.6,3.5-3.5,3.5c-1.9,0-3.5-1.6-3.5-3.5s1.6-3.5,3.5-3.5l0,0
	C218.8,18.1,220.4,19.7,220.4,21.6z M209,17c2.5,1,3.7,3.9,2.7,6.4c-0.5,1.2-1.5,2.2-2.7,2.7v1.6h14.5V15.4H209V17z"/>
<rect x="248" y="120.2" class="st17" width="38.8" height="38.8"/>
<circle class="st18" cx="283.2" cy="123.5" r="1.7"/>
<path class="st19" d="M249.1,99.1v13.3H247c-0.2-0.6-0.8-1.1-1.4-1.1c-0.6,0-1.2,0.4-1.3,1.1h-2.1V99.1h2.1c0.1,0.6,0.7,1.1,1.3,1.1
	c0.7,0,1.2-0.5,1.4-1.1H249.1z"/>
<polygon class="st20" points="242.1,110.3 242.1,101.1 249.1,101.1 249.1,102 249.1,110.3 "/>
<line class="st21" x1="249" y1="101.9" x2="242.1" y2="101.9"/>
<line class="st21" x1="249" y1="103.1" x2="242.1" y2="103.1"/>
<line class="st21" x1="249" y1="108.4" x2="242.1" y2="108.4"/>
<line class="st21" x1="249" y1="109.5" x2="242.1" y2="109.5"/>
<rect x="256.3" y="98.7" class="st19" width="4.5" height="7.6"/>
<rect x="272.8" y="83" class="st19" width="3.5" height="7.4"/>
<rect x="247.2" y="78.2" class="st19" width="7.4" height="3.5"/>
<rect x="247.1" y="86.6" class="st19" width="7.3" height="3.5"/>
<rect x="263.3" y="193.3" class="st19" width="15.4" height="6"/>
<rect x="262.7" y="237.1" class="st19" width="15.4" height="6.1"/>
<rect x="250" y="220.5" class="st19" width="3.6" height="7.6"/>
<rect x="276" y="206.7" class="st22" width="4" height="5.4"/>
<line class="st23" x1="279.9" y1="207.6" x2="276" y2="207.6"/>
<line class="st23" x1="279.9" y1="208.3" x2="276" y2="208.3"/>
<line class="st23" x1="279.9" y1="210" x2="276" y2="210"/>
<rect x="261.1" y="206.7" class="st22" width="4" height="5.4"/>
<line class="st23" x1="265" y1="207.6" x2="261.1" y2="207.6"/>
<line class="st23" x1="265" y1="208.3" x2="261.1" y2="208.3"/>
<line class="st23" x1="265" y1="210" x2="261.1" y2="210"/>
<rect x="261.1" y="224.7" class="st22" width="4" height="5.4"/>
<line class="st23" x1="261.1" y1="229.3" x2="265" y2="229.3"/>
<line class="st23" x1="261.1" y1="228.5" x2="265" y2="228.5"/>
<line class="st23" x1="261.1" y1="226.8" x2="265" y2="226.8"/>
<rect x="268.6" y="224.7" class="st22" width="4" height="5.4"/>
<line class="st23" x1="268.7" y1="229.3" x2="272.5" y2="229.3"/>
<line class="st23" x1="268.7" y1="228.5" x2="272.5" y2="228.5"/>
<line class="st23" x1="268.7" y1="226.8" x2="272.5" y2="226.8"/>
<rect x="276" y="224.7" class="st22" width="4" height="5.4"/>
<line class="st23" x1="276.1" y1="229.3" x2="279.9" y2="229.3"/>
<line class="st23" x1="276.1" y1="228.5" x2="279.9" y2="228.5"/>
<line class="st23" x1="276.1" y1="226.8" x2="279.9" y2="226.8"/>
<rect x="259" y="212.2" class="st24" width="23.2" height="12.2"/>
<circle class="st18" cx="261.4" cy="214.9" r="1.7"/>
<rect x="231.6" y="8" class="st25" width="69.6" height="63.7"/>
<path class="st26" d="M300.9,65.7H289v-6.3c-0.1-0.6-0.6-1-1.1-1h-12.5c0,0-1.1,0-1.1,1.1c0,0.6,0.5,1.1,1.1,1.2l0.1,6.1h-17.9v-6
	c0,0,1.1-0.1,1.1-1.2s-1.2-1.1-1.2-1.1H245c-0.3,0-0.6,0.1-0.8,0.3c-0.2,0.2-0.3,0.5-0.4,0.8v6h-12.1"/>
<line class="st26" x1="291.3" y1="8" x2="291.3" y2="65.7"/>
<line class="st26" x1="241.4" y1="65.7" x2="241.4" y2="8"/>
<path class="st26" d="M274.6,48.9v2.3c0,0.9-0.7,1.6-1.6,1.6h-13.1c-0.9,0-1.6-0.7-1.6-1.6v-2.3c0-0.9,0.7-1.6,1.6-1.6H273
	C273.8,47.3,274.6,48.1,274.6,48.9z"/>
<polyline class="st26" points="291.9,71.7 290.7,70.1 242.1,70.1 241,71.7 "/>
<line class="st26" x1="287.8" y1="71.6" x2="287.8" y2="70.1"/>
<line class="st26" x1="285.5" y1="70.2" x2="285.5" y2="71.7"/>
<path class="st26" d="M247.3,71.7c0-0.5,0-1,0-1.5"/>
<path class="st26" d="M273.3,66.5c0,0,0.1-0.4-0.5-0.9s-0.6-0.2-0.6-0.2s-0.5,0.4-0.4,0.5s-10.5,0-10.5,0s-0.5-0.6-0.7-0.6
	s-1.1,1.3-1.1,1.3"/>
<circle class="st16" cx="246.6" cy="259.1" r="3.5"/>
<circle class="st16" cx="266.4" cy="259.1" r="3.5"/>
</svg>
